IGES file generated by C3D Converter 1.8                                S      1
translator by C3D Labs., translator version IGESOUT-5.1.                S      2
1H,,1H;,7H Деталь,37HE:\Сдача задания\Модели\IGES\Болт.igs,0H,3H1.0,32,3G      1
8,6,308,15,7Hunknown,1,2,2HMM,1000,1,16H-17740206:064338,1E-6,50000,4HusG      2
er,7Hunknown,0,0,13H260306:064340;                                      G      3
     502       1       0       0       0       0       0       000010000D      1
     502       0       0       2       1                               0D      2
     124       3       0       0       0       0       0       001020201D      3
     124       0       0       2       0                               0D      4
     100       5       0       0       0       0       3       000010000D      5
     100       1       0       1       0                               0D      6
     110       6       0       0       0       0       0       000010000D      7
     110       1       0       1       0                               0D      8
     124       7       0       0       0       0       0       001020201D      9
     124       1       0       2       0                               0D     10
     100       9       0       0       0       0       9       000010000D     11
     100       1       0       1       0                               0D     12
     110      10       0       0       0       0       0       000010000D     13
     110       1       0       1       0                               0D     14
     124      11       0       0       0       0       0       001020201D     15
     124       1       0       1       0                               0D     16
     100      12       0       0       0       0      15       000010000D     17
     100       1       0       1       0                               0D     18
     124      13       0       0       0       0       0       001020201D     19
     124       1       0       1       0                               0D     20
     100      14       0       0       0       0      19       000010000D     21
     100       1       0       1       0                               0D     22
     504      15       0       0       0       0       0       000010000D     23
     504       1       0       2       1                               0D     24
     110      17       0       0       0       0       0       001010000D     25
     110       1       0       1       0                               0D     26
     110      18       0       0       0       0       0       001010001D     27
     110       1       0       1       0                               0D     28
     120      19       0       0       0       0       0       000010000D     29
     120       1       0       1       0                               0D     30
     126      20       0       0       0       0       0       001010500D     31
     126       1       0       2       0                               0D     32
     126      22       0       0       0       0       0       001010500D     33
     126       1       0       1       0                               0D     34
     126      23       0       0       0       0       0       001010500D     35
     126       1       0       2       0                               0D     36
     126      25       0       0       0       0       0       001010500D     37
     126       1       0       2       0                               0D     38
     508      27       0       0       0       0       0       000010000D     39
     508       1       0       2       1                               0D     40
     314      29       0       0       0       0       0       001000200D     41
     314       1       0       1       0                               0D     42
     510      30       0       0       0       0       0       000010000D     43
     510       1     -41       1       1                               0D     44
     128      31       0       0       0       0       0       000010000D     45
     128       1       0       2       0                               0D     46
     126      33       0       0       0       0       0       001010500D     47
     126       1       0      27       0                               0D     48
     126      60       0       0       0       0       0       001010500D     49
     126       1       0      27       0                               0D     50
     508      87       0       0       0       0       0       000010000D     51
     508       1       0       1       1                               0D     52
     510      88       0       0       0       0       0       000010000D     53
     510       1     -41       1       1                               0D     54
     128      89       0       0       0       0       0       000010000D     55
     128       1       0       2       0                               0D     56
     126      91       0       0       0       0       0       001010500D     57
     126       1       0      27       0                               0D     58
     126     118       0       0       0       0       0       001010500D     59
     126       1       0      27       0                               0D     60
     508     145       0       0       0       0       0       000010000D     61
     508       1       0       1       1                               0D     62
     510     146       0       0       0       0       0       000010000D     63
     510       1     -41       1       1                               0D     64
     110     147       0       0       0       0       0       001010000D     65
     110       1       0       1       0                               0D     66
     110     148       0       0       0       0       0       001010001D     67
     110       1       0       1       0                               0D     68
     120     149       0       0       0       0       0       000010000D     69
     120       1       0       1       0                               0D     70
     126     150       0       0       0       0       0       001010500D     71
     126       1       0       1       0                               0D     72
     126     151       0       0       0       0       0       001010500D     73
     126       1       0       2       0                               0D     74
     126     153       0       0       0       0       0       001010500D     75
     126       1       0       2       0                               0D     76
     126     155       0       0       0       0       0       001010500D     77
     126       1       0       2       0                               0D     78
     508     157       0       0       0       0       0       000010000D     79
     508       1       0       2       1                               0D     80
     510     159       0       0       0       0       0       000010000D     81
     510       1     -41       1       1                               0D     82
     514     160       0       0       0       0       0       000010000D     83
     514       1       0       1       1                               0D     84
     186     161       0       0       0       0       0       000010000D     85
     186       1       0       1       0                               0D     86
502,4,-5,6.12323399573677E-16,40,5,-6.12323399573677E-16,40,-5,        1P      1
6.12323399573677E-16,-40,5,-6.12323399573677E-16,-40;                  1P      2
124,-1,-1.22464679914735E-16,0,0,1.22464679914735E-16,-1,0,0,0,        3P      3
0,1,40;                                                                3P      4
100,0,0,0,5,0,-5,6.12323399573677E-16;                                 5P      5
110,-5,6.12323399573677E-16,-40,-5,6.12323399573677E-16,40;            7P      6
124,-1,-1.22464679914735E-16,0,0,1.22464679914735E-16,-1,0,0,0,        9P      7
0,1,-40;                                                               9P      8
100,0,0,0,5,0,-5,6.12323399573677E-16;                                11P      9
110,5,-1.22464679914735E-15,-40,5,-1.22464679914735E-15,40;           13P     10
124,1,0,0,0,0,1,0,0,0,0,1,40;                                         15P     11
100,0,0,0,5,0,-5,6.12323399573677E-16;                                17P     12
124,1,0,0,0,0,1,0,0,0,0,1,-40;                                        19P     13
100,0,0,0,5,0,-5,6.12323399573677E-16;                                21P     14
504,6,5,1,1,1,2,7,1,3,1,1,11,1,3,1,4,13,1,4,1,2,17,1,2,1,1,21,1,      23P     15
4,1,3;                                                                23P     16
110,0,0,-40,0,0,-39;                                                  25P     17
110,-5,6.12323399573677E-16,-40,-5,6.12323399573677E-16,40;           27P     18
120,25,27,0,6.28318530717959;                                         29P     19
126,1,1,1,0,1,0,0,0,1,1,1,1,1,0,0,1,3.14159265358979,0,0,1,0,0,       31P     20
1;                                                                    31P     21
126,1,1,1,0,1,0,0,0,1,1,1,1,0,0,0,1,0,0,0,1,0,0,1;                    33P     22
126,1,1,1,0,1,0,0,0,1,1,1,1,0,0,0,0,3.14159265358979,0,0,1,0,0,       35P     23
1;                                                                    35P     24
126,1,1,1,0,1,0,0,0,1,1,1,1,0,3.14159265358979,0,1,                   37P     25
3.14159265358979,0,0,1,0,0,1;                                         37P     26
508,4,0,23,1,0,1,0,31,0,23,2,0,1,0,33,0,23,3,1,1,0,35,0,23,4,1,       39P     27
1,0,37;                                                               39P     28
314,56.4705882352941,56.4705882352941,56.4705882352941,1H ;           41P     29
510,29,1,1,39;                                                        43P     30
128,1,1,1,1,0,0,1,0,0,0,0,1,1,0,0,1,1,1,1,1,1,-5,-5,40,5,-5,40,       45P     31
-5,5,40,5,5,40,0,1,0,1;                                               45P     32
126,28,3,1,0,1,0,0,0,0,0,0.0384615384615385,0.0769230769230769,       47P     33
0.115384615384615,0.153846153846154,0.192307692307692,                47P     34
0.230769230769231,0.269230769230769,0.307692307692308,                47P     35
0.346153846153846,0.384615384615385,0.423076923076923,                47P     36
0.461538461538461,0.5,0.538461538461538,0.576923076923077,            47P     37
0.615384615384615,0.653846153846154,0.692307692307692,                47P     38
0.73076923076923,0.769230769230769,0.807692307692307,                 47P     39
0.846153846153846,0.884615384615384,0.923076923076923,                47P     40
0.961538461538461,1,1,1,1,1,1,1,1,1,1,1,1,1,1,1,1,1,1,1,1,1,1,1,      47P     41
1,1,1,1,1,1,1,1,1,1,1,0.5,0,1,0.520138414446088,0,                    47P     42
0.997563703584719,0.560415160581344,0,0.986653659747647,              47P     43
0.619949357062131,0,0.968647109702849,0.677734404032805,0,            47P     44
0.943806629497199,0.732927687934255,0,0.912494449267984,              47P     45
0.78472436036148,0,0.875167171111835,0.832369110813293,0,             47P     46
0.83236911079798,0.875167171107732,0,0.784724360418632,               47P     47
0.912494449269083,0,0.732927687720959,0.943806629496905,0,            47P     48
0.677734404828839,0.968647109702929,0,0.619949354091291,              47P     49
0.986653659747626,0,0.56041517166867,0.997563703584725,0,0.5,         47P     50
1.00121814820764,0,0.439584828331331,0.997563703584725,0,             47P     51
0.380050645908709,0.986653659747626,0,0.322265595171161,              47P     52
0.968647109702929,0,0.267072312279042,0.943806629496905,0,            47P     53
0.215275639581368,0.912494449269084,0,0.167630889202021,              47P     54
0.875167171107732,0,0.124832828888165,0.832369110813294,0,            47P     55
0.0875055507320165,0.78472436036148,0,0.0561933705028013,             47P     56
0.732927687934256,0,0.0313528902971506,0.677734404032806,0,           47P     57
0.0133463402523532,0.619949357062132,0,0.00243629641528154,           47P     58
0.560415160581345,0,0,0.520138414446089,0,0,0.5,0,0,1,0,0,1;          47P     59
126,28,3,1,0,1,0,0,0,0,0,0.0384615384615385,0.0769230769230769,       49P     60
0.115384615384615,0.153846153846154,0.192307692307692,                49P     61
0.230769230769231,0.269230769230769,0.307692307692308,                49P     62
0.346153846153846,0.384615384615385,0.423076923076923,                49P     63
0.461538461538461,0.5,0.538461538461538,0.576923076923077,            49P     64
0.615384615384615,0.653846153846154,0.692307692307692,                49P     65
0.73076923076923,0.769230769230769,0.807692307692307,                 49P     66
0.846153846153846,0.884615384615384,0.923076923076923,                49P     67
0.961538461538461,1,1,1,1,1,1,1,1,1,1,1,1,1,1,1,1,1,1,1,1,1,1,1,      49P     68
1,1,1,1,1,1,1,1,1,1,0,0.5,0,0,0.479861585553912,0,                    49P     69
0.00243629641528131,0.439584839418656,0,0.0133463402523529,           49P     70
0.380050642937869,0,0.0313528902971505,0.322265595967195,0,           49P     71
0.0561933705028009,0.267072312065745,0,0.0875055507320162,            49P     72
0.21527563963852,0,0.124832828888165,0.167630889186707,0,             49P     73
0.16763088920202,0.124832828892269,0,0.215275639581368,               49P     74
0.0875055507309168,0,0.267072312279042,0.0561933705030955,0,          49P     75
0.322265595171161,0.0313528902970713,0,0.380050645908708,             49P     76
0.0133463402523745,0,0.43958482833133,0.00243629641527521,0,0.5,      49P     77
-0.00121814820763766,0,0.560415171668669,0.00243629641527532,0,       49P     78
0.61994935409129,0.0133463402523739,0,0.677734404828839,              49P     79
0.0313528902970713,0,0.732927687720958,0.0561933705030954,0,          49P     80
0.784724360418632,0.0875055507309164,0,0.832369110797979,             49P     81
0.124832828892268,0,0.875167171111834,0.167630889186706,0,            49P     82
0.912494449267984,0.21527563963852,0,0.943806629497199,               49P     83
0.267072312065744,0,0.968647109702849,0.322265595967194,0,            49P     84
0.986653659747647,0.380050642937868,0,0.997563703584719,              49P     85
0.439584839418655,0,1,0.479861585553911,0,1,0.5,0,0,1,0,0,1;          49P     86
508,2,0,23,5,1,1,0,47,0,23,1,1,1,0,49;                                51P     87
510,45,1,1,51;                                                        53P     88
128,1,1,1,1,0,0,1,0,0,0,0,1,1,0,0,1,1,1,1,1,1,-5,-5,-40,5,-5,         55P     89
-40,-5,5,-40,5,5,-40,0,1,0,1;                                         55P     90
126,28,3,1,0,1,0,0,0,0,0,0.0384615384615385,0.0769230769230769,       57P     91
0.115384615384615,0.153846153846154,0.192307692307692,                57P     92
0.230769230769231,0.269230769230769,0.307692307692308,                57P     93
0.346153846153846,0.384615384615385,0.423076923076923,                57P     94
0.461538461538461,0.5,0.538461538461538,0.576923076923077,            57P     95
0.615384615384615,0.653846153846154,0.692307692307692,                57P     96
0.73076923076923,0.769230769230769,0.807692307692307,                 57P     97
0.846153846153846,0.884615384615384,0.923076923076923,                57P     98
0.961538461538461,1,1,1,1,1,1,1,1,1,1,1,1,1,1,1,1,1,1,1,1,1,1,1,      57P     99
1,1,1,1,1,1,1,1,1,1,0,0.5,0,0,0.479861585553912,0,                    57P    100
0.00243629641528131,0.439584839418656,0,0.0133463402523529,           57P    101
0.380050642937869,0,0.0313528902971505,0.322265595967195,0,           57P    102
0.0561933705028009,0.267072312065745,0,0.0875055507320162,            57P    103
0.21527563963852,0,0.124832828888165,0.167630889186707,0,             57P    104
0.16763088920202,0.124832828892269,0,0.215275639581368,               57P    105
0.0875055507309168,0,0.267072312279042,0.0561933705030955,0,          57P    106
0.322265595171161,0.0313528902970713,0,0.380050645908708,             57P    107
0.0133463402523745,0,0.43958482833133,0.00243629641527521,0,0.5,      57P    108
-0.00121814820763766,0,0.560415171668669,0.00243629641527532,0,       57P    109
0.61994935409129,0.0133463402523739,0,0.677734404828839,              57P    110
0.0313528902970713,0,0.732927687720958,0.0561933705030954,0,          57P    111
0.784724360418632,0.0875055507309164,0,0.832369110797979,             57P    112
0.124832828892268,0,0.875167171111834,0.167630889186706,0,            57P    113
0.912494449267984,0.21527563963852,0,0.943806629497199,               57P    114
0.267072312065744,0,0.968647109702849,0.322265595967194,0,            57P    115
0.986653659747647,0.380050642937868,0,0.997563703584719,              57P    116
0.439584839418655,0,1,0.479861585553911,0,1,0.5,0,0,1,0,0,1;          57P    117
126,28,3,1,0,1,0,0,0,0,0,0.0384615384615385,0.0769230769230769,       59P    118
0.115384615384615,0.153846153846154,0.192307692307692,                59P    119
0.230769230769231,0.269230769230769,0.307692307692308,                59P    120
0.346153846153846,0.384615384615385,0.423076923076923,                59P    121
0.461538461538461,0.5,0.538461538461538,0.576923076923077,            59P    122
0.615384615384615,0.653846153846154,0.692307692307692,                59P    123
0.73076923076923,0.769230769230769,0.807692307692307,                 59P    124
0.846153846153846,0.884615384615384,0.923076923076923,                59P    125
0.961538461538461,1,1,1,1,1,1,1,1,1,1,1,1,1,1,1,1,1,1,1,1,1,1,1,      59P    126
1,1,1,1,1,1,1,1,1,1,1,0.5,0,1,0.520138414446088,0,                    59P    127
0.997563703584719,0.560415160581344,0,0.986653659747647,              59P    128
0.619949357062131,0,0.968647109702849,0.677734404032805,0,            59P    129
0.943806629497199,0.732927687934255,0,0.912494449267984,              59P    130
0.78472436036148,0,0.875167171111835,0.832369110813293,0,             59P    131
0.83236911079798,0.875167171107732,0,0.784724360418632,               59P    132
0.912494449269083,0,0.732927687720959,0.943806629496905,0,            59P    133
0.677734404828839,0.968647109702929,0,0.619949354091291,              59P    134
0.986653659747626,0,0.56041517166867,0.997563703584725,0,0.5,         59P    135
1.00121814820764,0,0.439584828331331,0.997563703584725,0,             59P    136
0.380050645908709,0.986653659747626,0,0.322265595171161,              59P    137
0.968647109702929,0,0.267072312279042,0.943806629496905,0,            59P    138
0.215275639581368,0.912494449269084,0,0.167630889202021,              59P    139
0.875167171107732,0,0.124832828888165,0.832369110813294,0,            59P    140
0.0875055507320165,0.78472436036148,0,0.0561933705028013,             59P    141
0.732927687934256,0,0.0313528902971506,0.677734404032806,0,           59P    142
0.0133463402523532,0.619949357062132,0,0.00243629641528154,           59P    143
0.560415160581345,0,0,0.520138414446089,0,0,0.5,0,0,1,0,0,1;          59P    144
508,2,0,23,3,0,1,0,57,0,23,6,0,1,0,59;                                61P    145
510,55,1,1,61;                                                        63P    146
110,0,0,-40,0,0,-39;                                                  65P    147
110,5,0,-40,5,0,40;                                                   67P    148
120,65,67,0,6.28318530717959;                                         69P    149
126,1,1,1,0,1,0,0,0,1,1,1,1,0,0,0,1,0,0,0,1,0,0,1;                    71P    150
126,1,1,1,0,1,0,0,0,1,1,1,1,0,0,0,0,3.14159265358979,0,0,1,0,0,       73P    151
1;                                                                    73P    152
126,1,1,1,0,1,0,0,0,1,1,1,1,0,3.14159265358979,0,1,                   75P    153
3.14159265358979,0,0,1,0,0,1;                                         75P    154
126,1,1,1,0,1,0,0,0,1,1,1,1,1,0,0,1,3.14159265358979,0,0,1,0,0,       77P    155
1;                                                                    77P    156
508,4,0,23,4,0,1,0,71,0,23,6,1,1,0,73,0,23,2,1,1,0,75,0,23,5,0,       79P    157
1,0,77;                                                               79P    158
510,69,1,1,79;                                                        81P    159
514,4,43,0,53,1,63,0,81,0;                                            83P    160
186,83,1,0;                                                           85P    161
S      2G      3D     86P    161                                        T      1
