IGES file generated by C3D Converter 1.8                                S      1
translator by C3D Labs., translator version IGESOUT-5.1.                S      2
1H,,1H;,7H Деталь,48HE:\Сдача задания\Модели\IGES\Болт для моника.igs,0HG      1
,3H1.0,32,38,6,308,15,7Hunknown,1,2,2HMM,1000,1,16H-17740206:064135,1E-6G      2
,50000,5Hno1se,7Hunknown,0,0,13H260306:064136;                          G      3
     502       1       0       0       0       0       0       000010000D      1
     502       0       0       4       1                               0D      2
     110       5       0       0       0       0       0       000010000D      3
     110       1       0       1       0                               0D      4
     124       6       0       0       0       0       0       001020201D      5
     124       1       0       2       0                               0D      6
     100       8       0       0       0       0       5       000010000D      7
     100       1       0       1       0                               0D      8
     110       9       0       0       0       0       0       000010000D      9
     110       1       0       1       0                               0D     10
     124      10       0       0       0       0       0       001020201D     11
     124       1       0       2       0                               0D     12
     100      12       0       0       0       0      11       000010000D     13
     100       1       0       1       0                               0D     14
     124      13       0       0       0       0       0       001020201D     15
     124       1       0       2       0                               0D     16
     100      15       0       0       0       0      15       000010000D     17
     100       1       0       1       0                               0D     18
     124      16       0       0       0       0       0       001020201D     19
     124       1       0       2       0                               0D     20
     100      18       0       0       0       0      19       000010000D     21
     100       1       0       1       0                               0D     22
     124      19       0       0       0       0       0       001020201D     23
     124       1       0       2       0                               0D     24
     100      21       0       0       0       0      23       000010000D     25
     100       1       0       1       0                               0D     26
     124      22       0       0       0       0       0       001020201D     27
     124       1       0       2       0                               0D     28
     100      24       0       0       0       0      27       000010000D     29
     100       1       0       1       0                               0D     30
     110      25       0       0       0       0       0       000010000D     31
     110       1       0       1       0                               0D     32
     110      26       0       0       0       0       0       000010000D     33
     110       1       0       1       0                               0D     34
     124      27       0       0       0       0       0       001020201D     35
     124       1       0       2       0                               0D     36
     100      29       0       0       0       0      35       000010000D     37
     100       1       0       1       0                               0D     38
     124      30       0       0       0       0       0       001020201D     39
     124       1       0       2       0                               0D     40
     100      32       0       0       0       0      39       000010000D     41
     100       1       0       1       0                               0D     42
     504      33       0       0       0       0       0       000010000D     43
     504       1       0       3       1                               0D     44
     110      36       0       0       0       0       0       001010000D     45
     110       1       0       1       0                               0D     46
     110      37       0       0       0       0       0       001010001D     47
     110       1       0       1       0                               0D     48
     120      38       0       0       0       0       0       000010000D     49
     120       1       0       1       0                               0D     50
     126      39       0       0       0       0       0       001010500D     51
     126       1       0       1       0                               0D     52
     126      40       0       0       0       0       0       001010500D     53
     126       1       0       2       0                               0D     54
     126      42       0       0       0       0       0       001010500D     55
     126       1       0       2       0                               0D     56
     126      44       0       0       0       0       0       001010500D     57
     126       1       0       2       0                               0D     58
     508      46       0       0       0       0       0       000010000D     59
     508       1       0       2       1                               0D     60
     314      48       0       0       0       0       0       001000200D     61
     314       1       0       1       0                               0D     62
     510      49       0       0       0       0       0       000010000D     63
     510       1     -61       1       1                               0D     64
     128      50       0       0       0       0       0       000010000D     65
     128       1       0       2       0                               0D     66
     126      52       0       0       0       0       0       001010500D     67
     126       1       0      27       0                               0D     68
     126      79       0       0       0       0       0       001010500D     69
     126       1       0      27       0                               0D     70
     508     106       0       0       0       0       0       000010000D     71
     508       1       0       1       1                               0D     72
     126     107       0       0       0       0       0       001010500D     73
     126       1       0      28       0                               0D     74
     126     135       0       0       0       0       0       001010500D     75
     126       1       0      28       0                               0D     76
     508     163       0       0       0       0       0       000010000D     77
     508       1       0       1       1                               0D     78
     510     164       0       0       0       0       0       000010000D     79
     510       1     -61       1       1                               0D     80
     128     165       0       0       0       0       0       000010000D     81
     128       1       0       2       0                               0D     82
     126     167       0       0       0       0       0       001010500D     83
     126       1       0      27       0                               0D     84
     126     194       0       0       0       0       0       001010500D     85
     126       1       0      27       0                               0D     86
     508     221       0       0       0       0       0       000010000D     87
     508       1       0       1       1                               0D     88
     510     222       0       0       0       0       0       000010000D     89
     510       1     -61       1       1                               0D     90
     110     223       0       0       0       0       0       001010000D     91
     110       1       0       1       0                               0D     92
     110     224       0       0       0       0       0       001010001D     93
     110       1       0       1       0                               0D     94
     120     225       0       0       0       0       0       000010000D     95
     120       1       0       1       0                               0D     96
     126     226       0       0       0       0       0       001010500D     97
     126       1       0       1       0                               0D     98
     126     227       0       0       0       0       0       001010500D     99
     126       1       0       2       0                               0D    100
     126     229       0       0       0       0       0       001010500D    101
     126       1       0       2       0                               0D    102
     126     231       0       0       0       0       0       001010500D    103
     126       1       0       2       0                               0D    104
     508     233       0       0       0       0       0       000010000D    105
     508       1       0       2       1                               0D    106
     510     235       0       0       0       0       0       000010000D    107
     510       1     -61       1       1                               0D    108
     128     236       0       0       0       0       0       000010000D    109
     128       1       0       2       0                               0D    110
     126     238       0       0       0       0       0       001010500D    111
     126       1       0      27       0                               0D    112
     126     265       0       0       0       0       0       001010500D    113
     126       1       0      27       0                               0D    114
     508     292       0       0       0       0       0       000010000D    115
     508       1       0       1       1                               0D    116
     510     293       0       0       0       0       0       000010000D    117
     510       1     -61       1       1                               0D    118
     110     294       0       0       0       0       0       001010000D    119
     110       1       0       1       0                               0D    120
     110     295       0       0       0       0       0       001010001D    121
     110       1       0       1       0                               0D    122
     120     296       0       0       0       0       0       000010000D    123
     120       1       0       1       0                               0D    124
     126     297       0       0       0       0       0       001010500D    125
     126       1       0       2       0                               0D    126
     126     299       0       0       0       0       0       001010500D    127
     126       1       0       1       0                               0D    128
     126     300       0       0       0       0       0       001010500D    129
     126       1       0       2       0                               0D    130
     126     302       0       0       0       0       0       001010500D    131
     126       1       0       2       0                               0D    132
     508     304       0       0       0       0       0       000010000D    133
     508       1       0       2       1                               0D    134
     510     306       0       0       0       0       0       000010000D    135
     510       1     -61       1       1                               0D    136
     110     307       0       0       0       0       0       001010000D    137
     110       1       0       1       0                               0D    138
     110     308       0       0       0       0       0       001010001D    139
     110       1       0       1       0                               0D    140
     120     309       0       0       0       0       0       000010000D    141
     120       1       0       1       0                               0D    142
     126     310       0       0       0       0       0       001010500D    143
     126       1       0       2       0                               0D    144
     126     312       0       0       0       0       0       001010500D    145
     126       1       0       1       0                               0D    146
     126     313       0       0       0       0       0       001010500D    147
     126       1       0       2       0                               0D    148
     126     315       0       0       0       0       0       001010500D    149
     126       1       0       2       0                               0D    150
     508     317       0       0       0       0       0       000010000D    151
     508       1       0       2       1                               0D    152
     510     319       0       0       0       0       0       000010000D    153
     510       1     -61       1       1                               0D    154
     514     320       0       0       0       0       0       000010000D    155
     514       1       0       1       1                               0D    156
     186     321       0       0       0       0       0       000010000D    157
     186       1       0       1       0                               0D    158
502,8,5,-1.22464679914735E-15,0,5,-1.22464679914735E-15,400,-5,        1P      1
1.22464679914735E-15,0,-5,1.22464679914735E-15,400,7.5,                1P      2
-1.83697019872103E-15,400,-7.5,1.83697019872103E-15,400,7.5,           1P      3
-1.83697019872103E-15,405,-7.5,1.83697019872103E-15,405;               1P      4
110,5,-1.22464679914735E-15,0,5,-1.22464679914735E-15,400;             3P      5
124,1,2.44929359829471E-16,0,0,-2.44929359829471E-16,1,0,0,0,0,        5P      6
1,0;                                                                   5P      7
100,0,0,0,5,0,-5,6.12323399573677E-16;                                 7P      8
110,-5,1.83697019872103E-15,0,-5,1.83697019872103E-15,400;             9P      9
124,1,2.44929359829471E-16,0,0,-2.44929359829471E-16,1,0,0,0,0,       11P     10
1,400;                                                                11P     11
100,0,0,0,5,0,-5,6.12323399573677E-16;                                13P     12
124,1,2.44929359829471E-16,0,0,-2.44929359829471E-16,1,0,0,0,0,       15P     13
1,400;                                                                15P     14
100,0,0,0,7.5,0,-7.5,9.18485099360515E-16;                            17P     15
124,-1,-1.22464679914735E-16,0,0,1.22464679914735E-16,-1,0,0,0,       19P     16
0,1,400;                                                              19P     17
100,0,0,0,7.5,0,-7.5,9.18485099360515E-16;                            21P     18
124,-1,-1.22464679914735E-16,0,0,1.22464679914735E-16,-1,0,0,0,       23P     19
0,1,400;                                                              23P     20
100,0,0,0,5,0,-5,6.12323399573677E-16;                                25P     21
124,-1,-1.22464679914735E-16,0,0,1.22464679914735E-16,-1,0,0,0,       27P     22
0,1,0;                                                                27P     23
100,0,0,0,5,0,-5,6.12323399573677E-16;                                29P     24
110,7.5,-1.83697019872103E-15,400,7.5,-1.83697019872103E-15,405;      31P     25
110,-7.5,2.75545529808154E-15,400,-7.5,2.75545529808154E-15,405;      33P     26
124,1,2.44929359829471E-16,0,0,-2.44929359829471E-16,1,0,0,0,0,       35P     27
1,405;                                                                35P     28
100,0,0,0,7.5,0,-7.5,9.18485099360515E-16;                            37P     29
124,-1,-1.22464679914735E-16,0,0,1.22464679914735E-16,-1,0,0,0,       39P     30
0,1,405;                                                              39P     31
100,0,0,0,7.5,0,-7.5,9.18485099360515E-16;                            41P     32
504,12,3,1,1,1,2,7,1,1,1,3,9,1,3,1,4,13,1,2,1,4,17,1,5,1,6,21,1,      43P     33
6,1,5,25,1,4,1,2,29,1,3,1,1,31,1,5,1,7,33,1,6,1,8,37,1,7,1,8,41,      43P     34
1,8,1,7;                                                              43P     35
110,0,0,0,0,0,1;                                                      45P     36
110,5,-1.22464679914735E-15,0,5,-1.22464679914735E-15,400;            47P     37
120,45,47,0,6.28318530717959;                                         49P     38
126,1,1,1,0,1,0,0,0,1,1,1,1,0,0,0,1,0,0,0,1,0,0,1;                    51P     39
126,1,1,1,0,1,0,0,0,1,1,1,1,0,0,0,0,3.14159265358979,0,0,1,0,0,       53P     40
1;                                                                    53P     41
126,1,1,1,0,1,0,0,0,1,1,1,1,0,3.14159265358979,0,1,                   55P     42
3.14159265358979,0,0,1,0,0,1;                                         55P     43
126,1,1,1,0,1,0,0,0,1,1,1,1,1,0,0,1,3.14159265358979,0,0,1,0,0,       57P     44
1;                                                                    57P     45
508,4,0,43,1,0,1,0,51,0,43,2,1,1,0,53,0,43,3,1,1,0,55,0,43,4,0,       59P     46
1,0,57;                                                               59P     47
314,56.4705882352941,56.4705882352941,56.4705882352941,1H ;           61P     48
510,49,1,1,59;                                                        63P     49
128,1,1,1,1,0,0,1,0,0,0,0,1,1,0,0,1,1,1,1,1,1,7.5,7.5,400,-7.5,       65P     50
7.5,400,7.5,-7.5,400,-7.5,-7.5,400,0,1,0,1;                           65P     51
126,28,3,1,0,1,0,0,0,0,0,0.0384615384615385,0.0769230769230769,       67P     52
0.115384615384615,0.153846153846154,0.192307692307692,                67P     53
0.230769230769231,0.269230769230769,0.307692307692308,                67P     54
0.346153846153846,0.384615384615385,0.423076923076923,                67P     55
0.461538461538461,0.5,0.538461538461538,0.576923076923077,            67P     56
0.615384615384615,0.653846153846154,0.692307692307692,                67P     57
0.73076923076923,0.769230769230769,0.807692307692307,                 67P     58
0.846153846153846,0.884615384615384,0.923076923076923,                67P     59
0.961538461538461,1,1,1,1,1,1,1,1,1,1,1,1,1,1,1,1,1,1,1,1,1,1,1,      67P     60
1,1,1,1,1,1,1,1,1,1,0,0.5,0,0,0.479861585553912,0,                    67P     61
0.00243629641528159,0.439584839418656,0,0.0133463402523529,           67P     62
0.380050642937869,0,0.0313528902971504,0.322265595967195,0,           67P     63
0.0561933705028009,0.267072312065745,0,0.0875055507320162,            67P     64
0.21527563963852,0,0.124832828888165,0.167630889186707,0,             67P     65
0.16763088920202,0.124832828892269,0,0.215275639581368,               67P     66
0.0875055507309168,0,0.267072312279042,0.0561933705030954,0,          67P     67
0.322265595171161,0.0313528902970714,0,0.380050645908708,             67P     68
0.0133463402523745,0,0.43958482833133,0.00243629641527532,0,0.5,      67P     69
-0.00121814820763755,0,0.560415171668669,0.00243629641527532,0,       67P     70
0.61994935409129,0.0133463402523741,0,0.677734404828839,              67P     71
0.0313528902970712,0,0.732927687720958,0.0561933705030954,0,          67P     72
0.784724360418632,0.0875055507309164,0,0.832369110797979,             67P     73
0.124832828892268,0,0.875167171111834,0.167630889186706,0,            67P     74
0.912494449267984,0.21527563963852,0,0.943806629497199,               67P     75
0.267072312065744,0,0.968647109702849,0.322265595967194,0,            67P     76
0.986653659747647,0.380050642937868,0,0.997563703584719,              67P     77
0.439584839418655,0,1,0.479861585553911,0,1,0.5,0,0,1,0,0,1;          67P     78
126,28,3,1,0,1,0,0,0,0,0,0.0384615384615385,0.0769230769230769,       69P     79
0.115384615384615,0.153846153846154,0.192307692307692,                69P     80
0.230769230769231,0.269230769230769,0.307692307692308,                69P     81
0.346153846153846,0.384615384615385,0.423076923076923,                69P     82
0.461538461538461,0.5,0.538461538461538,0.576923076923077,            69P     83
0.615384615384615,0.653846153846154,0.692307692307692,                69P     84
0.73076923076923,0.769230769230769,0.807692307692307,                 69P     85
0.846153846153846,0.884615384615384,0.923076923076923,                69P     86
0.961538461538461,1,1,1,1,1,1,1,1,1,1,1,1,1,1,1,1,1,1,1,1,1,1,1,      69P     87
1,1,1,1,1,1,1,1,1,1,1,0.5,0,1,0.520138414446088,0,                    69P     88
0.997563703584719,0.560415160581344,0,0.986653659747647,              69P     89
0.619949357062131,0,0.968647109702849,0.677734404032805,0,            69P     90
0.943806629497199,0.732927687934255,0,0.912494449267984,              69P     91
0.78472436036148,0,0.875167171111835,0.832369110813293,0,             69P     92
0.83236911079798,0.875167171107732,0,0.784724360418632,               69P     93
0.912494449269083,0,0.732927687720959,0.943806629496904,0,            69P     94
0.677734404828839,0.968647109702929,0,0.619949354091291,              69P     95
0.986653659747626,0,0.56041517166867,0.997563703584725,0,0.5,         69P     96
1.00121814820764,0,0.439584828331331,0.997563703584725,0,             69P     97
0.380050645908709,0.986653659747626,0,0.322265595171161,              69P     98
0.968647109702929,0,0.267072312279042,0.943806629496905,0,            69P     99
0.215275639581368,0.912494449269084,0,0.167630889202021,              69P    100
0.875167171107732,0,0.124832828888165,0.832369110813294,0,            69P    101
0.0875055507320166,0.78472436036148,0,0.0561933705028012,             69P    102
0.732927687934256,0,0.0313528902971507,0.677734404032806,0,           69P    103
0.0133463402523532,0.619949357062132,0,0.00243629641528148,           69P    104
0.560415160581345,0,0,0.520138414446089,0,0,0.5,0,0,1,0,0,1;          69P    105
508,2,0,43,5,0,1,0,67,0,43,6,0,1,0,69;                                71P    106
126,28,3,1,0,1,0,0,0,0,0,0.0384615384615385,0.0769230769230769,       73P    107
0.115384615384615,0.153846153846154,0.192307692307692,                73P    108
0.230769230769231,0.269230769230769,0.307692307692308,                73P    109
0.346153846153846,0.384615384615385,0.423076923076923,                73P    110
0.461538461538461,0.5,0.538461538461538,0.576923076923077,            73P    111
0.615384615384615,0.653846153846154,0.692307692307692,                73P    112
0.73076923076923,0.769230769230769,0.807692307692307,                 73P    113
0.846153846153846,0.884615384615384,0.923076923076923,                73P    114
0.961538461538461,1,1,1,1,1,1,1,1,1,1,1,1,1,1,1,1,1,1,1,1,1,1,1,      73P    115
1,1,1,1,1,1,1,1,1,1,0.833333333333333,0.5,0,0.833333333333333,        73P    116
0.513425609630726,0,0.831709135723146,0.540276773720896,0,            73P    117
0.824435773165098,0.579966238041421,0,0.812431406468566,              73P    118
0.618489602688537,0,0.795871086331466,0.655285125289503,0,            73P    119
0.774996299511989,0.689816240240986,0,0.75011144740789,               73P    120
0.721579407208862,0,0.721579407198653,0.750111447405154,0,            73P    121
0.689816240279088,0.774996299512722,0,0.655285125147306,              73P    122
0.79587108633127,0,0.618489603219226,0.812431406468619,0,             73P    123
0.579966236060861,0.824435773165084,0,0.540276781112446,              73P    124
0.83170913572315,0,0.5,0.834145432138425,0,0.459723218887554,         73P    125
0.83170913572315,0,0.42003376393914,0.824435773165084,0,              73P    126
0.381510396780774,0.812431406468619,0,0.344714874852695,              73P    127
0.79587108633127,0,0.310183759720912,0.774996299512722,0,             73P    128
0.278420592801347,0.750111447405155,0,0.24988855259211,               73P    129
0.721579407208863,0,0.225003700488011,0.689816240240987,0,            73P    130
0.204128913668534,0.655285125289504,0,0.187568593531434,              73P    131
0.618489602688537,0,0.175564226834902,0.579966238041421,0,            73P    132
0.168290864276854,0.540276773720897,0,0.166666666666667,              73P    133
0.513425609630726,0,0.166666666666667,0.5,0,0,1,0,0,1;                73P    134
126,28,3,1,0,1,0,0,0,0,0,0.0384615384615385,0.0769230769230769,       75P    135
0.115384615384615,0.153846153846154,0.192307692307692,                75P    136
0.230769230769231,0.269230769230769,0.307692307692308,                75P    137
0.346153846153846,0.384615384615385,0.423076923076923,                75P    138
0.461538461538461,0.5,0.538461538461538,0.576923076923077,            75P    139
0.615384615384615,0.653846153846154,0.692307692307692,                75P    140
0.73076923076923,0.769230769230769,0.807692307692307,                 75P    141
0.846153846153846,0.884615384615384,0.923076923076923,                75P    142
0.961538461538461,1,1,1,1,1,1,1,1,1,1,1,1,1,1,1,1,1,1,1,1,1,1,1,      75P    143
1,1,1,1,1,1,1,1,1,1,0.166666666666667,0.5,0,0.166666666666667,        75P    144
0.486574390369274,0,0.168290864276854,0.459723226279104,0,            75P    145
0.175564226834902,0.42003376195858,0,0.187568593531434,               75P    146
0.381510397311463,0,0.204128913668534,0.344714874710497,0,            75P    147
0.225003700488011,0.310183759759014,0,0.24988855259211,               75P    148
0.278420592791138,0,0.278420592801347,0.249888552594846,0,            75P    149
0.310183759720912,0.225003700487278,0,0.344714874852694,              75P    150
0.20412891366873,0,0.381510396780774,0.187568593531381,0,             75P    151
0.420033763939139,0.175564226834916,0,0.459723218887553,              75P    152
0.16829086427685,0,0.5,0.165854567861575,0,0.540276781112446,         75P    153
0.16829086427685,0,0.57996623606086,0.175564226834916,0,              75P    154
0.618489603219226,0.187568593531381,0,0.655285125147306,              75P    155
0.20412891366873,0,0.689816240279088,0.225003700487278,0,             75P    156
0.721579407198653,0.249888552594845,0,0.75011144740789,               75P    157
0.278420592791137,0,0.774996299511989,0.310183759759013,0,            75P    158
0.795871086331466,0.344714874710496,0,0.812431406468566,              75P    159
0.381510397311462,0,0.824435773165098,0.420033761958579,0,            75P    160
0.831709135723146,0.459723226279104,0,0.833333333333333,              75P    161
0.486574390369274,0,0.833333333333333,0.5,0,0,1,0,0,1;                75P    162
508,2,0,43,7,1,1,0,73,0,43,4,1,1,0,75;                                77P    163
510,65,2,1,71,77;                                                     79P    164
128,1,1,1,1,0,0,1,0,0,0,0,1,1,0,0,1,1,1,1,1,1,5,5,0,-5,5,0,5,-5,      81P    165
0,-5,-5,0,0,1,0,1;                                                    81P    166
126,28,3,1,0,1,0,0,0,0,0,0.0384615384615385,0.0769230769230769,       83P    167
0.115384615384615,0.153846153846154,0.192307692307692,                83P    168
0.230769230769231,0.269230769230769,0.307692307692308,                83P    169
0.346153846153846,0.384615384615385,0.423076923076923,                83P    170
0.461538461538461,0.5,0.538461538461538,0.576923076923077,            83P    171
0.615384615384615,0.653846153846154,0.692307692307692,                83P    172
0.73076923076923,0.769230769230769,0.807692307692307,                 83P    173
0.846153846153846,0.884615384615384,0.923076923076923,                83P    174
0.961538461538461,1,1,1,1,1,1,1,1,1,1,1,1,1,1,1,1,1,1,1,1,1,1,1,      83P    175
1,1,1,1,1,1,1,1,1,1,0,0.5,0,0,0.479861585553912,0,                    83P    176
0.00243629641528131,0.439584839418656,0,0.0133463402523529,           83P    177
0.380050642937869,0,0.0313528902971505,0.322265595967195,0,           83P    178
0.0561933705028009,0.267072312065745,0,0.0875055507320162,            83P    179
0.21527563963852,0,0.124832828888165,0.167630889186707,0,             83P    180
0.16763088920202,0.124832828892269,0,0.215275639581368,               83P    181
0.0875055507309168,0,0.267072312279042,0.0561933705030955,0,          83P    182
0.322265595171161,0.0313528902970713,0,0.380050645908708,             83P    183
0.0133463402523745,0,0.43958482833133,0.00243629641527521,0,0.5,      83P    184
-0.00121814820763766,0,0.560415171668669,0.00243629641527532,0,       83P    185
0.61994935409129,0.0133463402523739,0,0.677734404828839,              83P    186
0.0313528902970713,0,0.732927687720958,0.0561933705030954,0,          83P    187
0.784724360418632,0.0875055507309164,0,0.832369110797979,             83P    188
0.124832828892268,0,0.875167171111834,0.167630889186706,0,            83P    189
0.912494449267984,0.21527563963852,0,0.943806629497199,               83P    190
0.267072312065744,0,0.968647109702849,0.322265595967194,0,            83P    191
0.986653659747647,0.380050642937868,0,0.997563703584719,              83P    192
0.439584839418655,0,1,0.479861585553911,0,1,0.5,0,0,1,0,0,1;          83P    193
126,28,3,1,0,1,0,0,0,0,0,0.0384615384615385,0.0769230769230769,       85P    194
0.115384615384615,0.153846153846154,0.192307692307692,                85P    195
0.230769230769231,0.269230769230769,0.307692307692308,                85P    196
0.346153846153846,0.384615384615385,0.423076923076923,                85P    197
0.461538461538461,0.5,0.538461538461538,0.576923076923077,            85P    198
0.615384615384615,0.653846153846154,0.692307692307692,                85P    199
0.73076923076923,0.769230769230769,0.807692307692307,                 85P    200
0.846153846153846,0.884615384615384,0.923076923076923,                85P    201
0.961538461538461,1,1,1,1,1,1,1,1,1,1,1,1,1,1,1,1,1,1,1,1,1,1,1,      85P    202
1,1,1,1,1,1,1,1,1,1,1,0.5,0,1,0.520138414446088,0,                    85P    203
0.997563703584719,0.560415160581344,0,0.986653659747647,              85P    204
0.619949357062131,0,0.968647109702849,0.677734404032805,0,            85P    205
0.943806629497199,0.732927687934255,0,0.912494449267984,              85P    206
0.78472436036148,0,0.875167171111835,0.832369110813293,0,             85P    207
0.83236911079798,0.875167171107732,0,0.784724360418632,               85P    208
0.912494449269083,0,0.732927687720959,0.943806629496905,0,            85P    209
0.677734404828839,0.968647109702929,0,0.619949354091291,              85P    210
0.986653659747626,0,0.56041517166867,0.997563703584725,0,0.5,         85P    211
1.00121814820764,0,0.439584828331331,0.997563703584725,0,             85P    212
0.380050645908709,0.986653659747626,0,0.322265595171161,              85P    213
0.968647109702929,0,0.267072312279042,0.943806629496905,0,            85P    214
0.215275639581368,0.912494449269084,0,0.167630889202021,              85P    215
0.875167171107732,0,0.124832828888165,0.832369110813294,0,            85P    216
0.0875055507320165,0.78472436036148,0,0.0561933705028013,             85P    217
0.732927687934256,0,0.0313528902971506,0.677734404032806,0,           85P    218
0.0133463402523532,0.619949357062132,0,0.00243629641528154,           85P    219
0.560415160581345,0,0,0.520138414446089,0,0,0.5,0,0,1,0,0,1;          85P    220
508,2,0,43,2,0,1,0,83,0,43,8,0,1,0,85;                                87P    221
510,81,1,1,87;                                                        89P    222
110,0,0,400,0,0,401;                                                  91P    223
110,7.5,-1.83697019872103E-15,400,7.5,-1.83697019872103E-15,405;      93P    224
120,91,93,0,6.28318530717959;                                         95P    225
126,1,1,1,0,1,0,0,0,1,1,1,1,0,0,0,1,0,0,0,1,0,0,1;                    97P    226
126,1,1,1,0,1,0,0,0,1,1,1,1,0,0,0,0,3.14159265358979,0,0,1,0,0,       99P    227
1;                                                                    99P    228
126,1,1,1,0,1,0,0,0,1,1,1,1,0,3.14159265358979,0,1,                  101P    229
3.14159265358979,0,0,1,0,0,1;                                        101P    230
126,1,1,1,0,1,0,0,0,1,1,1,1,1,0,0,1,3.14159265358979,0,0,1,0,0,      103P    231
1;                                                                   103P    232
508,4,0,43,9,0,1,0,97,0,43,5,1,1,0,99,0,43,10,1,1,0,101,0,43,11,     105P    233
0,1,0,103;                                                           105P    234
510,95,1,1,105;                                                      107P    235
128,1,1,1,1,0,0,1,0,0,0,0,1,1,0,0,1,1,1,1,1,1,7.5,7.5,405,-7.5,      109P    236
7.5,405,7.5,-7.5,405,-7.5,-7.5,405,0,1,0,1;                          109P    237
126,28,3,1,0,1,0,0,0,0,0,0.0384615384615385,0.0769230769230769,      111P    238
0.115384615384615,0.153846153846154,0.192307692307692,               111P    239
0.230769230769231,0.269230769230769,0.307692307692308,               111P    240
0.346153846153846,0.384615384615385,0.423076923076923,               111P    241
0.461538461538461,0.5,0.538461538461538,0.576923076923077,           111P    242
0.615384615384615,0.653846153846154,0.692307692307692,               111P    243
0.73076923076923,0.769230769230769,0.807692307692307,                111P    244
0.846153846153846,0.884615384615384,0.923076923076923,               111P    245
0.961538461538461,1,1,1,1,1,1,1,1,1,1,1,1,1,1,1,1,1,1,1,1,1,1,1,     111P    246
1,1,1,1,1,1,1,1,1,1,1,0.5,0,1,0.520138414446088,0,                   111P    247
0.997563703584719,0.560415160581344,0,0.986653659747647,             111P    248
0.619949357062131,0,0.968647109702849,0.677734404032805,0,           111P    249
0.943806629497199,0.732927687934255,0,0.912494449267984,             111P    250
0.78472436036148,0,0.875167171111835,0.832369110813293,0,            111P    251
0.83236911079798,0.875167171107732,0,0.784724360418632,              111P    252
0.912494449269083,0,0.732927687720959,0.943806629496904,0,           111P    253
0.677734404828839,0.968647109702929,0,0.619949354091291,             111P    254
0.986653659747626,0,0.56041517166867,0.997563703584725,0,0.5,        111P    255
1.00121814820764,0,0.439584828331331,0.997563703584725,0,            111P    256
0.380050645908709,0.986653659747626,0,0.322265595171161,             111P    257
0.968647109702929,0,0.267072312279042,0.943806629496905,0,           111P    258
0.215275639581368,0.912494449269084,0,0.167630889202021,             111P    259
0.875167171107732,0,0.124832828888165,0.832369110813294,0,           111P    260
0.0875055507320166,0.78472436036148,0,0.0561933705028012,            111P    261
0.732927687934256,0,0.0313528902971507,0.677734404032806,0,          111P    262
0.0133463402523532,0.619949357062132,0,0.00243629641528148,          111P    263
0.560415160581345,0,0,0.520138414446089,0,0,0.5,0,0,1,0,0,1;         111P    264
126,28,3,1,0,1,0,0,0,0,0,0.0384615384615385,0.0769230769230769,      113P    265
0.115384615384615,0.153846153846154,0.192307692307692,               113P    266
0.230769230769231,0.269230769230769,0.307692307692308,               113P    267
0.346153846153846,0.384615384615385,0.423076923076923,               113P    268
0.461538461538461,0.5,0.538461538461538,0.576923076923077,           113P    269
0.615384615384615,0.653846153846154,0.692307692307692,               113P    270
0.73076923076923,0.769230769230769,0.807692307692307,                113P    271
0.846153846153846,0.884615384615384,0.923076923076923,               113P    272
0.961538461538461,1,1,1,1,1,1,1,1,1,1,1,1,1,1,1,1,1,1,1,1,1,1,1,     113P    273
1,1,1,1,1,1,1,1,1,1,0,0.5,0,0,0.479861585553912,0,                   113P    274
0.00243629641528159,0.439584839418656,0,0.0133463402523529,          113P    275
0.380050642937869,0,0.0313528902971504,0.322265595967195,0,          113P    276
0.0561933705028009,0.267072312065745,0,0.0875055507320162,           113P    277
0.21527563963852,0,0.124832828888165,0.167630889186707,0,            113P    278
0.16763088920202,0.124832828892269,0,0.215275639581368,              113P    279
0.0875055507309168,0,0.267072312279042,0.0561933705030954,0,         113P    280
0.322265595171161,0.0313528902970714,0,0.380050645908708,            113P    281
0.0133463402523745,0,0.43958482833133,0.00243629641527532,0,0.5,     113P    282
-0.00121814820763755,0,0.560415171668669,0.00243629641527532,0,      113P    283
0.61994935409129,0.0133463402523741,0,0.677734404828839,             113P    284
0.0313528902970712,0,0.732927687720958,0.0561933705030954,0,         113P    285
0.784724360418632,0.0875055507309164,0,0.832369110797979,            113P    286
0.124832828892268,0,0.875167171111834,0.167630889186706,0,           113P    287
0.912494449267984,0.21527563963852,0,0.943806629497199,              113P    288
0.267072312065744,0,0.968647109702849,0.322265595967194,0,           113P    289
0.986653659747647,0.380050642937868,0,0.997563703584719,             113P    290
0.439584839418655,0,1,0.479861585553911,0,1,0.5,0,0,1,0,0,1;         113P    291
508,2,0,43,12,1,1,0,111,0,43,11,1,1,0,113;                           115P    292
510,109,1,1,115;                                                     117P    293
110,0,0,0,0,0,1;                                                     119P    294
110,-5,6.12323399573677E-16,0,-5,6.12323399573677E-16,400;           121P    295
120,119,121,0,6.28318530717959;                                      123P    296
126,1,1,1,0,1,0,0,0,1,1,1,1,1,0,0,1,3.14159265358979,0,0,1,0,0,      125P    297
1;                                                                   125P    298
126,1,1,1,0,1,0,0,0,1,1,1,1,0,0,0,1,0,0,0,1,0,0,1;                   127P    299
126,1,1,1,0,1,0,0,0,1,1,1,1,0,0,0,0,3.14159265358979,0,0,1,0,0,      129P    300
1;                                                                   129P    301
126,1,1,1,0,1,0,0,0,1,1,1,1,0,3.14159265358979,0,1,                  131P    302
3.14159265358979,0,0,1,0,0,1;                                        131P    303
508,4,0,43,7,0,1,0,125,0,43,3,0,1,0,127,0,43,8,1,1,0,129,0,43,1,     133P    304
1,1,0,131;                                                           133P    305
510,123,1,1,133;                                                     135P    306
110,0,0,400,0,0,401;                                                 137P    307
110,-7.5,9.18485099360515E-16,400,-7.5,9.18485099360515E-16,405;     139P    308
120,137,139,0,6.28318530717959;                                      141P    309
126,1,1,1,0,1,0,0,0,1,1,1,1,1,0,0,1,3.14159265358979,0,0,1,0,0,      143P    310
1;                                                                   143P    311
126,1,1,1,0,1,0,0,0,1,1,1,1,0,0,0,1,0,0,0,1,0,0,1;                   145P    312
126,1,1,1,0,1,0,0,0,1,1,1,1,0,0,0,0,3.14159265358979,0,0,1,0,0,      147P    313
1;                                                                   147P    314
126,1,1,1,0,1,0,0,0,1,1,1,1,0,3.14159265358979,0,1,                  149P    315
3.14159265358979,0,0,1,0,0,1;                                        149P    316
508,4,0,43,12,0,1,0,143,0,43,10,0,1,0,145,0,43,6,1,1,0,147,0,43,     151P    317
9,1,1,0,149;                                                         151P    318
510,141,1,1,151;                                                     153P    319
514,7,63,0,79,0,89,0,107,0,117,1,135,0,153,0;                        155P    320
186,155,1,0;                                                         157P    321
S      2G      3D    158P    321                                        T      1
