IGES file generated by C3D Converter 1.8                                S      1
translator by C3D Labs., translator version IGESOUT-5.1.                S      2
1H,,1H;,7H Деталь,47HE:\Сдача задания\Модели\IGES\Винт для полки.igs,0H,G      1
3H1.0,32,38,6,308,15,7Hunknown,1,2,2HMM,1000,1,16H-17740206:063834,1E-6,G      2
50000,4Huser,7Hunknown,0,0,13H260306:063836;                            G      3
     502       1       0       0       0       0       0       000010000D      1
     502       0       0      10       1                               0D      2
     110      11       0       0       0       0       0       000010000D      3
     110       1       0       2       0                               0D      4
     124      13       0       0       0       0       0       001020201D      5
     124       1       0       3       0                               0D      6
     100      16       0       0       0       0       5       000010000D      7
     100       1       0       1       0                               0D      8
     124      17       0       0       0       0       0       001020201D      9
     124       1       0       3       0                               0D     10
     100      20       0       0       0       0       9       000010000D     11
     100       1       0       1       0                               0D     12
     110      21       0       0       0       0       0       000010000D     13
     110       1       0       1       0                               0D     14
     124      22       0       0       0       0       0       001020201D     15
     124       1       0       3       0                               0D     16
     100      25       0       0       0       0      15       000010000D     17
     100       1       0       1       0                               0D     18
     124      26       0       0       0       0       0       001020201D     19
     124       1       0       3       0                               0D     20
     100      29       0       0       0       0      19       000010000D     21
     100       1       0       1       0                               0D     22
     110      30       0       0       0       0       0       000010000D     23
     110       1       0       1       0                               0D     24
     124      31       0       0       0       0       0       001020201D     25
     124       1       0       3       0                               0D     26
     100      34       0       0       0       0      25       000010000D     27
     100       1       0       1       0                               0D     28
     110      35       0       0       0       0       0       000010000D     29
     110       1       0       1       0                               0D     30
     110      36       0       0       0       0       0       000010000D     31
     110       1       0       2       0                               0D     32
     124      38       0       0       0       0       0       001020201D     33
     124       1       0       3       0                               0D     34
     100      41       0       0       0       0      33       000010000D     35
     100       1       0       1       0                               0D     36
     110      42       0       0       0       0       0       000010000D     37
     110       1       0       1       0                               0D     38
     124      43       0       0       0       0       0       001020201D     39
     124       1       0       3       0                               0D     40
     100      46       0       0       0       0      39       000010000D     41
     100       1       0       1       0                               0D     42
     110      47       0       0       0       0       0       000010000D     43
     110       1       0       1       0                               0D     44
     110      48       0       0       0       0       0       000010000D     45
     110       1       0       2       0                               0D     46
     110      50       0       0       0       0       0       000010000D     47
     110       1       0       1       0                               0D     48
     110      51       0       0       0       0       0       000010000D     49
     110       1       0       2       0                               0D     50
     124      53       0       0       0       0       0       001020201D     51
     124       1       0       3       0                               0D     52
     100      56       0       0       0       0      51       000010000D     53
     100       1       0       1       0                               0D     54
     124      57       0       0       0       0       0       001020201D     55
     124       1       0       3       0                               0D     56
     100      60       0       0       0       0      55       000010000D     57
     100       1       0       1       0                               0D     58
     124      61       0       0       0       0       0       001020201D     59
     124       1       0       3       0                               0D     60
     100      64       0       0       0       0      59       000010000D     61
     100       1       0       1       0                               0D     62
     110      65       0       0       0       0       0       000010000D     63
     110       1       0       2       0                               0D     64
     124      67       0       0       0       0       0       001020201D     65
     124       1       0       3       0                               0D     66
     100      70       0       0       0       0      65       000010000D     67
     100       1       0       1       0                               0D     68
     110      71       0       0       0       0       0       000010000D     69
     110       1       0       2       0                               0D     70
     124      73       0       0       0       0       0       001020201D     71
     124       1       0       3       0                               0D     72
     100      76       0       0       0       0      71       000010000D     73
     100       1       0       1       0                               0D     74
     504      77       0       0       0       0       0       000010000D     75
     504       1       0       5       1                               0D     76
     128      82       0       0       0       0       0       000010000D     77
     128       1       0       3       0                               0D     78
     126      85       0       0       0       0       0       001010500D     79
     126       1       0       1       0                               0D     80
     126      86       0       0       0       0       0       001010500D     81
     126       1       0      13       0                               0D     82
     126      99       0       0       0       0       0       001010500D     83
     126       1       0      13       0                               0D     84
     508     112       0       0       0       0       0       000010000D     85
     508       1       0       1       1                               0D     86
     314     113       0       0       0       0       0       001000200D     87
     314       1       0       1       0                               0D     88
     510     114       0       0       0       0       0       000010000D     89
     510       1     -87       1       1                               0D     90
     128     115       0       0       0       0       0       000010000D     91
     128       1       0       3       0                               0D     92
     126     118       0       0       0       0       0       001010500D     93
     126       1       0       2       0                               0D     94
     126     120       0       0       0       0       0       001010500D     95
     126       1       0      13       0                               0D     96
     126     133       0       0       0       0       0       001010500D     97
     126       1       0      13       0                               0D     98
     508     146       0       0       0       0       0       000010000D     99
     508       1       0       1       1                               0D    100
     510     147       0       0       0       0       0       000010000D    101
     510       1     -87       1       1                               0D    102
     110     148       0       0       0       0       0       001010000D    103
     110       1       0       1       0                               0D    104
     110     149       0       0       0       0       0       001010001D    105
     110       1       0       1       0                               0D    106
     120     150       0       0       0       0       0       000010000D    107
     120       1       0       1       0                               0D    108
     126     151       0       0       0       0       0       001010500D    109
     126       1       0       2       0                               0D    110
     126     153       0       0       0       0       0       001010500D    111
     126       1       0       1       0                               0D    112
     126     154       0       0       0       0       0       001010500D    113
     126       1       0       2       0                               0D    114
     126     156       0       0       0       0       0       001010500D    115
     126       1       0       2       0                               0D    116
     126     158       0       0       0       0       0       001010500D    117
     126       1       0       2       0                               0D    118
     126     160       0       0       0       0       0       001010500D    119
     126       1       0       2       0                               0D    120
     126     162       0       0       0       0       0       001010500D    121
     126       1       0       2       0                               0D    122
     126     164       0       0       0       0       0       001010500D    123
     126       1       0       2       0                               0D    124
     508     166       0       0       0       0       0       000010000D    125
     508       1       0       3       1                               0D    126
     510     169       0       0       0       0       0       000010000D    127
     510       1     -87       1       1                               0D    128
     128     170       0       0       0       0       0       000010000D    129
     128       1       0       2       0                               0D    130
     126     172       0       0       0       0       0       001010500D    131
     126       1       0       8       0                               0D    132
     126     180       0       0       0       0       0       001010500D    133
     126       1       0       2       0                               0D    134
     126     182       0       0       0       0       0       001010500D    135
     126       1       0       8       0                               0D    136
     126     190       0       0       0       0       0       001010500D    137
     126       1       0       2       0                               0D    138
     508     192       0       0       0       0       0       000010000D    139
     508       1       0       2       1                               0D    140
     510     194       0       0       0       0       0       000010000D    141
     510       1     -87       1       1                               0D    142
     128     195       0       0       0       0       0       000010000D    143
     128       1       0       3       0                               0D    144
     126     198       0       0       0       0       0       001010500D    145
     126       1       0       1       0                               0D    146
     126     199       0       0       0       0       0       001010500D    147
     126       1       0       1       0                               0D    148
     126     200       0       0       0       0       0       001010500D    149
     126       1       0       1       0                               0D    150
     126     201       0       0       0       0       0       001010500D    151
     126       1       0       1       0                               0D    152
     508     202       0       0       0       0       0       000010000D    153
     508       1       0       2       1                               0D    154
     510     204       0       0       0       0       0       000010000D    155
     510       1     -87       1       1                               0D    156
     128     205       0       0       0       0       0       000010000D    157
     128       1       0       4       0                               0D    158
     126     209       0       0       0       0       0       001010500D    159
     126       1       0       1       0                               0D    160
     126     210       0       0       0       0       0       001010500D    161
     126       1       0       1       0                               0D    162
     126     211       0       0       0       0       0       001010500D    163
     126       1       0       1       0                               0D    164
     126     212       0       0       0       0       0       001010500D    165
     126       1       0       1       0                               0D    166
     508     213       0       0       0       0       0       000010000D    167
     508       1       0       2       1                               0D    168
     510     215       0       0       0       0       0       000010000D    169
     510       1     -87       1       1                               0D    170
     128     216       0       0       0       0       0       000010000D    171
     128       1       0       2       0                               0D    172
     126     218       0       0       0       0       0       001010500D    173
     126       1       0      27       0                               0D    174
     126     245       0       0       0       0       0       001010500D    175
     126       1       0      27       0                               0D    176
     508     272       0       0       0       0       0       000010000D    177
     508       1       0       1       1                               0D    178
     126     273       0       0       0       0       0       001010500D    179
     126       1       0      28       0                               0D    180
     126     301       0       0       0       0       0       001010500D    181
     126       1       0      28       0                               0D    182
     508     329       0       0       0       0       0       000010000D    183
     508       1       0       1       1                               0D    184
     510     330       0       0       0       0       0       000010000D    185
     510       1     -87       1       1                               0D    186
     110     331       0       0       0       0       0       001010000D    187
     110       1       0       1       0                               0D    188
     110     332       0       0       0       0       0       001010001D    189
     110       1       0       2       0                               0D    190
     120     334       0       0       0       0       0       000010000D    191
     120       1       0       1       0                               0D    192
     126     335       0       0       0       0       0       001010500D    193
     126       1       0       1       0                               0D    194
     126     336       0       0       0       0       0       001010500D    195
     126       1       0       2       0                               0D    196
     126     338       0       0       0       0       0       001010500D    197
     126       1       0       2       0                               0D    198
     126     340       0       0       0       0       0       001010500D    199
     126       1       0       2       0                               0D    200
     508     342       0       0       0       0       0       000010000D    201
     508       1       0       2       1                               0D    202
     510     344       0       0       0       0       0       000010000D    203
     510       1     -87       1       1                               0D    204
     128     345       0       0       0       0       0       000010000D    205
     128       1       0       2       0                               0D    206
     126     347       0       0       0       0       0       001010500D    207
     126       1       0      27       0                               0D    208
     126     374       0       0       0       0       0       001010500D    209
     126       1       0      27       0                               0D    210
     508     401       0       0       0       0       0       000010000D    211
     508       1       0       1       1                               0D    212
     510     402       0       0       0       0       0       000010000D    213
     510       1     -87       1       1                               0D    214
     110     403       0       0       0       0       0       001010000D    215
     110       1       0       1       0                               0D    216
     110     404       0       0       0       0       0       001010001D    217
     110       1       0       1       0                               0D    218
     120     405       0       0       0       0       0       000010000D    219
     120       1       0       1       0                               0D    220
     126     406       0       0       0       0       0       001010500D    221
     126       1       0       2       0                               0D    222
     126     408       0       0       0       0       0       001010500D    223
     126       1       0       2       0                               0D    224
     126     410       0       0       0       0       0       001010500D    225
     126       1       0       2       0                               0D    226
     126     412       0       0       0       0       0       001010500D    227
     126       1       0       2       0                               0D    228
     126     414       0       0       0       0       0       001010500D    229
     126       1       0       2       0                               0D    230
     126     416       0       0       0       0       0       001010500D    231
     126       1       0       1       0                               0D    232
     126     417       0       0       0       0       0       001010500D    233
     126       1       0       2       0                               0D    234
     126     419       0       0       0       0       0       001010500D    235
     126       1       0       2       0                               0D    236
     508     421       0       0       0       0       0       000010000D    237
     508       1       0       3       1                               0D    238
     510     424       0       0       0       0       0       000010000D    239
     510       1     -87       1       1                               0D    240
     110     425       0       0       0       0       0       001010000D    241
     110       1       0       1       0                               0D    242
     110     426       0       0       0       0       0       001010001D    243
     110       1       0       2       0                               0D    244
     120     428       0       0       0       0       0       000010000D    245
     120       1       0       1       0                               0D    246
     126     429       0       0       0       0       0       001010500D    247
     126       1       0       2       0                               0D    248
     126     431       0       0       0       0       0       001010500D    249
     126       1       0       1       0                               0D    250
     126     432       0       0       0       0       0       001010500D    251
     126       1       0       2       0                               0D    252
     126     434       0       0       0       0       0       001010500D    253
     126       1       0       2       0                               0D    254
     508     436       0       0       0       0       0       000010000D    255
     508       1       0       2       1                               0D    256
     510     438       0       0       0       0       0       000010000D    257
     510       1     -87       1       1                               0D    258
     514     439       0       0       0       0       0       000010000D    259
     514       1       0       2       1                               0D    260
     186     441       0       0       0       0       0       000010000D    261
     186       1       0       1       0                               0D    262
502,16,-3.87298334620742,15,-0.999999999999998,3.87298334620742,       1P      1
15,-0.999999999999999,7.34788079488412E-16,15,-4,                      1P      2
3.87298334620742,15,0.999999999999999,-3.87298334620742,15,1,          1P      3
-7.34788079488412E-16,15,4,-7.34788079488412E-16,10,4,                 1P      4
7.34788079488412E-16,10,-4,3.87298334620742,12.5,                      1P      5
-0.999999999999999,3.87298334620742,12.5,1,-3.87298334620742,          1P      6
12.5,1,-3.87298334620742,12.5,-0.999999999999999,                      1P      7
4.59242549680257E-16,10,-2.5,-4.59242549680257E-16,10,2.5,             1P      8
-4.59242549680257E-16,-1.53080849893419E-16,2.5,                       1P      9
4.59242549680257E-16,1.53080849893419E-16,-2.5;                        1P     10
110,3.87298334620742,15,-0.999999999999999,-3.87298334620742,15,       3P     11
-0.999999999999999;                                                    3P     12
124,0.968245836551854,-0.25,0,0,1.53080849893419E-17,                  5P     13
5.9287958226049E-17,1,15,-0.25,-0.968245836551854,                     5P     14
6.12323399573677E-17,9.18485099360515E-16;                             5P     15
100,0,0,0,4,0,1,3.87298334620742;                                      7P     16
124,6.12323399573677E-17,-1,0,0,6.12323399573677E-17,                  9P     17
3.74939945665464E-33,1,15,-1,-6.12323399573677E-17,                    9P     18
6.12323399573677E-17,9.18485099360515E-16;                             9P     19
100,0,0,0,4,0,0.999999999999999,3.87298334620742;                     11P     20
110,-3.87298334620742,15,1,3.87298334620742,15,1;                     13P     21
124,-0.968245836551854,0.25,0,0,-1.53080849893419E-17,                15P     22
-5.9287958226049E-17,1,15,0.25,0.968245836551854,                     15P     23
6.12323399573677E-17,9.18485099360515E-16;                            15P     24
100,0,0,0,4,0,1,3.87298334620742;                                     17P     25
124,-1.83697019872103E-16,1,0,0,-6.12323399573677E-17,                19P     26
-1.12481983699639E-32,1,15,1,1.83697019872103E-16,                    19P     27
6.12323399573677E-17,9.18485099360515E-16;                            19P     28
100,0,0,0,4,0,0.999999999999998,3.87298334620742;                     21P     29
110,-7.34788079488412E-16,10,4,-7.34788079488412E-16,15,4;            23P     30
124,-1.83697019872103E-16,1,0,0,-6.12323399573677E-17,                25P     31
-1.12481983699639E-32,1,10,1,1.83697019872103E-16,                    25P     32
6.12323399573677E-17,6.12323399573677E-16;                            25P     33
100,0,0,0,4,0,-4,4.89858719658941E-16;                                27P     34
110,1.22464679914735E-15,10,-4,1.22464679914735E-15,15,-4;            29P     35
110,3.87298334620742,12.5,-0.999999999999999,3.87298334620742,        31P     36
15,-0.999999999999999;                                                31P     37
124,0.968245836551854,0.25,0,0,-1.53080849893419E-17,                 33P     38
5.9287958226049E-17,1,12.5,0.25,-0.968245836551854,                   33P     39
6.12323399573677E-17,7.65404249467096E-16;                            33P     40
100,0,0,0,4,0,3.5,1.93649167310371;                                   35P     41
110,3.87298334620742,12.5,1,3.87298334620742,15,1;                    37P     42
124,-0.968245836551854,-0.25,0,0,1.53080849893419E-17,                39P     43
-5.9287958226049E-17,1,12.5,-0.25,0.968245836551854,                  39P     44
6.12323399573677E-17,7.65404249467096E-16;                            39P     45
100,0,0,0,4,0,3.5,1.93649167310371;                                   41P     46
110,-3.87298334620742,12.5,1,3.87298334620742,12.5,1;                 43P     47
110,3.87298334620742,12.5,-0.999999999999999,-3.87298334620742,       45P     48
12.5,-0.999999999999999;                                              45P     49
110,-3.87298334620742,12.5,1,-3.87298334620742,15,1;                  47P     50
110,-3.87298334620742,12.5,-0.999999999999999,-3.87298334620742,      49P     51
15,-0.999999999999999;                                                49P     52
124,6.12323399573677E-17,-1,0,0,6.12323399573677E-17,                 51P     53
3.74939945665464E-33,1,10,-1,-6.12323399573677E-17,                   51P     54
6.12323399573677E-17,6.12323399573677E-16;                            51P     55
100,0,0,0,4,0,-4,4.89858719658941E-16;                                53P     56
124,6.12323399573677E-17,-1,0,0,6.12323399573677E-17,                 55P     57
3.74939945665464E-33,1,10,-1,-6.12323399573677E-17,                   55P     58
6.12323399573677E-17,6.12323399573677E-16;                            55P     59
100,0,0,0,2.5,0,-2.5,3.06161699786838E-16;                            57P     60
124,-1.83697019872103E-16,1,0,0,-6.12323399573677E-17,                59P     61
-1.12481983699639E-32,1,10,1,1.83697019872103E-16,                    59P     62
6.12323399573677E-17,6.12323399573677E-16;                            59P     63
100,0,0,0,2.5,0,-2.5,3.06161699786838E-16;                            61P     64
110,-4.59242549680257E-16,-1.53080849893419E-16,2.5,                  63P     65
-4.59242549680257E-16,10,2.5;                                         63P     66
124,-1.83697019872103E-16,1,0,0,-6.12323399573677E-17,                65P     67
-1.12481983699639E-32,1,0,1,1.83697019872103E-16,                     65P     68
6.12323399573677E-17,0;                                               65P     69
100,0,0,0,2.5,0,-2.5,3.06161699786838E-16;                            67P     70
110,7.65404249467096E-16,1.53080849893419E-16,-2.5,                   69P     71
7.65404249467096E-16,10,-2.5;                                         69P     72
124,6.12323399573677E-17,-1,0,0,6.12323399573677E-17,                 71P     73
3.74939945665464E-33,1,0,-1,-6.12323399573677E-17,                    71P     74
6.12323399573677E-17,0;                                               71P     75
100,0,0,0,2.5,0,-2.5,3.06161699786838E-16;                            73P     76
504,24,3,1,2,1,1,7,1,2,1,3,11,1,3,1,1,13,1,5,1,4,17,1,5,1,6,21,       75P     77
1,6,1,4,23,1,7,1,6,27,1,7,1,8,29,1,8,1,3,31,1,9,1,2,35,1,10,1,9,      75P     78
37,1,10,1,4,41,1,12,1,11,43,1,11,1,10,45,1,9,1,12,47,1,11,1,5,        75P     79
49,1,12,1,1,53,1,8,1,7,57,1,13,1,14,61,1,14,1,13,63,1,15,1,14,        75P     80
67,1,15,1,16,69,1,16,1,13,73,1,16,1,15;                               75P     81
128,1,1,1,1,0,0,1,0,0,0,0,1,1,0,0,1,1,1,1,1,1,3.87298334620742,       77P     82
15,-0.999999999999998,3.87298334620742,15,-4,-3.87298334620742,       77P     83
15,-0.999999999999998,-3.87298334620742,15,-4,0,1,0,1;                77P     84
126,1,1,1,0,1,0,0,0,1,1,1,1,0,0,0,0,1,0,0,1,0,0,1;                    79P     85
126,14,3,1,0,1,0,0,0,0,0,0.0833333333333333,0.166666666666667,        81P     86
0.25,0.333333333333333,0.416666666666667,0.5,0.583333333333333,       81P     87
0.666666666666667,0.75,0.833333333333333,0.916666666666667,1,1,       81P     88
1,1,1,1,1,1,1,1,1,1,1,1,1,1,1,1,1,0,0,0,0.0472689036470345,           81P     89
0.00472689036470342,0,0.140464620303574,0.0161935948593656,0,         81P     90
0.274547444609996,0.0392251547745623,0,0.40130323485344,              81P     91
0.0678105967017126,0,0.51920419407033,0.101605373645712,0,            81P     92
0.626829209927389,0.14020214404733,0,0.722881042011462,               81P     93
0.183135687396562,0,0.806201942363522,0.229888510265396,0,            81P     94
0.875787614403303,0.279897083812198,0,0.930799316959078,              81P     95
0.332558637754532,0,0.970573974216093,0.387238419577611,0,            81P     96
0.994632167927479,0.443277368671317,0,1,0.481092438541186,0,1,        81P     97
0.5,0,0,1,0,0,1;                                                      81P     98
126,14,3,1,0,1,0,0,0,0,0,0.0833333333333333,0.166666666666667,        83P     99
0.25,0.333333333333333,0.416666666666667,0.5,0.583333333333333,       83P    100
0.666666666666667,0.75,0.833333333333333,0.916666666666667,1,1,       83P    101
1,1,1,1,1,1,1,1,1,1,1,1,1,1,1,1,1,1,0.5,0,1,0.518907561458814,0,      83P    102
0.994632167927478,0.556722631328682,0,0.970573974216094,              83P    103
0.612761580422389,0,0.930799316959077,0.667441362245468,0,            83P    104
0.875787614403303,0.720102916187801,0,0.806201942363522,              83P    105
0.770111489734604,0,0.722881042011462,0.816864312603439,0,            83P    106
0.62682920992739,0.85979785595267,0,0.51920419407033,                 83P    107
0.898394626354288,0,0.40130323485344,0.932189403298287,0,             83P    108
0.274547444609995,0.960774845225438,0,0.140464620303574,              83P    109
0.983806405140634,0,0.0472689036470342,0.995273109635296,0,0,1,       83P    110
0,0,1,0,0,1;                                                          83P    111
508,3,0,75,1,0,1,0,79,0,75,2,1,1,0,81,0,75,3,1,1,0,83;                85P    112
314,56.4705882352941,56.4705882352941,56.4705882352941,1H ;           87P    113
510,77,1,1,85;                                                        89P    114
128,1,1,1,1,0,0,1,0,0,0,0,1,1,0,0,1,1,1,1,1,1,3.87298334620742,       91P    115
15,4,3.87298334620742,15,0.999999999999999,-3.87298334620742,15,      91P    116
4,-3.87298334620742,15,0.999999999999999,0,1,0,1;                     91P    117
126,1,1,1,0,1,0,0,0,1,1,1,1,0.999999999999999,1,0,                    93P    118
0.999999999999999,0,0,0,1,0,0,1;                                      93P    119
126,14,3,1,0,1,0,0,0,0,0,0.0833333333333333,0.166666666666667,        95P    120
0.25,0.333333333333333,0.416666666666667,0.5,0.583333333333333,       95P    121
0.666666666666667,0.75,0.833333333333333,0.916666666666667,1,1,       95P    122
1,1,1,1,1,1,1,1,1,1,1,1,1,1,1,1,1,0.999999999999999,1,0,              95P    123
0.952731096352965,0.995273109635296,0,0.859535379696425,              95P    124
0.983806405140634,0,0.725452555390004,0.960774845225438,0,            95P    125
0.598696765146559,0.932189403298287,0,0.48079580592967,               95P    126
0.898394626354288,0,0.37317079007261,0.85979785595267,0,              95P    127
0.277118957988538,0.816864312603439,0,0.193798057636477,              95P    128
0.770111489734604,0,0.124212385596697,0.720102916187802,0,            95P    129
0.0692006830409224,0.667441362245468,0,0.0294260257839065,            95P    130
0.612761580422389,0,0.00536783207252123,0.556722631328682,0,0,        95P    131
0.518907561458814,0,0,0.5,0,0,1,0,0,1;                                95P    132
126,14,3,1,0,1,0,0,0,0,0,0.0833333333333333,0.166666666666667,        97P    133
0.25,0.333333333333333,0.416666666666667,0.5,0.583333333333333,       97P    134
0.666666666666667,0.75,0.833333333333333,0.916666666666667,1,1,       97P    135
1,1,1,1,1,1,1,1,1,1,1,1,1,1,1,1,1,0,0.5,0,0,0.481092438541186,0,      97P    136
0.00536783207252101,0.443277368671318,0,0.0294260257839063,           97P    137
0.387238419577611,0,0.0692006830409222,0.332558637754532,0,           97P    138
0.124212385596697,0.279897083812198,0,0.193798057636478,              97P    139
0.229888510265396,0,0.277118957988538,0.183135687396561,0,            97P    140
0.37317079007261,0.14020214404733,0,0.48079580592967,                 97P    141
0.101605373645712,0,0.598696765146561,0.0678105967017127,0,           97P    142
0.725452555390005,0.0392251547745621,0,0.859535379696425,             97P    143
0.0161935948593661,0,0.952731096352966,0.00472689036470342,0,1,       97P    144
0,0,0,1,0,0,1;                                                        97P    145
508,3,0,75,4,0,1,0,93,0,75,5,1,1,0,95,0,75,6,1,1,0,97;                99P    146
510,91,1,1,99;                                                       101P    147
110,0,10,6.12323399573677E-16,0,11,6.73555739531044E-16;             103P    148
110,-7.34788079488412E-16,10,4,-7.34788079488412E-16,15,4;           105P    149
120,103,105,0,6.28318530717959;                                      107P    150
126,1,1,1,0,1,0,0,0,1,1,1,1,1,0,0,1,1.31811607165282,0,0,1,0,0,      109P    151
1;                                                                   109P    152
126,1,1,1,0,1,0,0,0,1,1,1,1,0,0,0,1,0,0,0,1,0,0,1;                   111P    153
126,1,1,1,0,1,0,0,0,1,1,1,1,0,0,0,0,3.14159265358979,0,0,1,0,0,      113P    154
1;                                                                   113P    155
126,1,1,1,0,1,0,0,0,1,1,1,1,0,3.14159265358979,0,1,                  115P    156
3.14159265358979,0,0,1,0,0,1;                                        115P    157
126,1,1,1,0,1,0,0,0,1,1,1,1,1,1.82347658193698,0,1,                  117P    158
3.14159265358979,0,0,1,0,0,1;                                        117P    159
126,1,1,1,0,1,0,0,0,1,1,1,1,0.5,1.82347658193698,0,1,                119P    160
1.82347658193698,0,0,1,0,0,1;                                        119P    161
126,1,1,1,0,1,0,0,0,1,1,1,1,0.5,1.31811607165282,0,0.5,              121P    162
1.82347658193698,0,0,1,0,0,1;                                        121P    163
126,1,1,1,0,1,0,0,0,1,1,1,1,0.5,1.31811607165282,0,1,                123P    164
1.31811607165282,0,0,1,0,0,1;                                        123P    165
508,8,0,75,6,0,1,0,109,0,75,7,0,1,0,111,0,75,8,1,1,0,113,0,75,9,     125P    166
1,1,0,115,0,75,2,0,1,0,117,0,75,10,0,1,0,119,0,75,11,0,1,0,121,      125P    167
0,75,12,1,1,0,123;                                                   125P    168
510,107,1,1,125;                                                     127P    169
128,1,1,1,1,0,0,1,0,0,0,0,1,1,0,0,1,1,1,1,1,1,4,12.5,1,4,12.5,       129P    170
-0.999999999999999,-4,12.5,1,-4,12.5,-0.999999999999999,0,1,0,1;     129P    171
126,8,3,1,0,1,0,0,0,0,0,0.166666666666667,0.333333333333333,0.5,     131P    172
0.666666666666667,0.833333333333333,1,1,1,1,1,1,1,1,1,1,1,1,1,1,     131P    173
0.984122918275927,0,0.945631865551072,0.987632366264012,0,           131P    174
0.835712592549193,0.993505769046379,0,0.668453454534243,             131P    175
0.998816943363618,0,0.5,1.00059152831819,0,0.331546545465758,        131P    176
0.998816943363618,0,0.164287407450807,0.993505769046379,0,           131P    177
0.0543681344489292,0.987632366264012,0,0,0.984122918275927,0,0,      131P    178
1,0,0,1;                                                             131P    179
126,1,1,1,0,1,0,0,0,1,1,1,1,0,0.984122918275927,0,0,                 133P    180
0.0158770817240728,0,0,1,0,0,1;                                      133P    181
126,8,3,1,0,1,0,0,0,0,0,0.166666666666667,0.333333333333333,0.5,     135P    182
0.666666666666667,0.833333333333333,1,1,1,1,1,1,1,1,1,1,1,1,1,0,     135P    183
0.0158770817240729,0,0.0543681344489284,0.0123676337359885,0,        135P    184
0.164287407450806,0.00649423095362084,0,0.331546545465757,           135P    185
0.00118305663638146,0,0.5,-0.00059152831819087,0,                    135P    186
0.668453454534243,0.00118305663638152,0,0.835712592549194,           135P    187
0.00649423095362067,0,0.945631865551072,0.0123676337359884,0,1,      135P    188
0.0158770817240729,0,0,1,0,0,1;                                      135P    189
126,1,1,1,0,1,0,0,0,1,1,1,1,1,0.015877081724073,0,1,                 137P    190
0.984122918275927,0,0,1,0,0,1;                                       137P    191
508,4,0,75,13,1,1,0,131,0,75,14,1,1,0,133,0,75,11,1,1,0,135,0,       139P    192
75,15,1,1,0,137;                                                     139P    193
510,129,1,1,139;                                                     141P    194
128,1,1,1,1,0,0,1,0,0,0,0,1,1,0,0,1,1,1,1,1,1,-3.87298334620742,     143P    195
12.5,1,3.87298334620742,12.5,1,-3.87298334620742,15,1,               143P    196
3.87298334620742,15,1,0,1,0,1;                                       143P    197
126,1,1,1,0,1,0,0,0,1,1,1,1,0,0,0,0,1,0,0,1,0,0,1;                   145P    198
126,1,1,1,0,1,0,0,0,1,1,1,1,0,1,0,1,1,0,0,1,0,0,1;                   147P    199
126,1,1,1,0,1,0,0,0,1,1,1,1,1,0,0,1,1,0,0,1,0,0,1;                   149P    200
126,1,1,1,0,1,0,0,0,1,1,1,1,0,0,0,1,0,0,0,1,0,0,1;                   151P    201
508,4,0,75,16,1,1,0,145,0,75,4,1,1,0,147,0,75,12,0,1,0,149,0,75,     153P    202
14,0,1,0,151;                                                        153P    203
510,143,1,1,153;                                                     155P    204
128,1,1,1,1,0,0,1,0,0,0,0,1,1,0,0,1,1,1,1,1,1,3.87298334620742,      157P    205
12.5,-0.999999999999999,-3.87298334620742,12.5,                      157P    206
-0.999999999999999,3.87298334620742,15,-0.999999999999999,           157P    207
-3.87298334620742,15,-0.999999999999999,0,1,0,1;                     157P    208
126,1,1,1,0,1,0,0,0,1,1,1,1,0,0,0,0,1,0,0,1,0,0,1;                   159P    209
126,1,1,1,0,1,0,0,0,1,1,1,1,0,1,0,1,1,0,0,1,0,0,1;                   161P    210
126,1,1,1,0,1,0,0,0,1,1,1,1,1,0,0,1,1,0,0,1,0,0,1;                   163P    211
126,1,1,1,0,1,0,0,0,1,1,1,1,0,0,0,1,0,0,0,1,0,0,1;                   165P    212
508,4,0,75,10,1,1,0,159,0,75,1,1,1,0,161,0,75,17,0,1,0,163,0,75,     167P    213
15,0,1,0,165;                                                        167P    214
510,157,1,1,167;                                                     169P    215
128,1,1,1,1,0,0,1,0,0,0,0,1,1,0,0,1,1,1,1,1,1,4,10,4,4,10,-4,-4,     171P    216
10,4,-4,10,-4,0,1,0,1;                                               171P    217
126,28,3,1,0,1,0,0,0,0,0,0.0384615384615385,0.0769230769230769,      173P    218
0.115384615384615,0.153846153846154,0.192307692307692,               173P    219
0.230769230769231,0.269230769230769,0.307692307692308,               173P    220
0.346153846153846,0.384615384615385,0.423076923076923,               173P    221
0.461538461538461,0.5,0.538461538461538,0.576923076923077,           173P    222
0.615384615384615,0.653846153846154,0.692307692307692,               173P    223
0.73076923076923,0.769230769230769,0.807692307692307,                173P    224
0.846153846153846,0.884615384615384,0.923076923076923,               173P    225
0.961538461538461,1,1,1,1,1,1,1,1,1,1,1,1,1,1,1,1,1,1,1,1,1,1,1,     173P    226
1,1,1,1,1,1,1,1,1,1,0,0.5,0,0,0.479861585553912,0,                   173P    227
0.00243629641528148,0.439584839418656,0,0.0133463402523529,          173P    228
0.380050642937869,0,0.0313528902971505,0.322265595967195,0,          173P    229
0.0561933705028009,0.267072312065745,0,0.0875055507320161,           173P    230
0.21527563963852,0,0.124832828888165,0.167630889186707,0,            173P    231
0.16763088920202,0.124832828892269,0,0.215275639581368,              173P    232
0.0875055507309168,0,0.267072312279042,0.0561933705030955,0,         173P    233
0.322265595171161,0.0313528902970714,0,0.380050645908708,            173P    234
0.0133463402523745,0,0.43958482833133,0.00243629641527521,0,0.5,     173P    235
-0.00121814820763755,0,0.560415171668669,0.00243629641527521,0,      173P    236
0.61994935409129,0.013346340252374,0,0.677734404828839,              173P    237
0.0313528902970712,0,0.732927687720958,0.0561933705030954,0,         173P    238
0.784724360418632,0.0875055507309165,0,0.832369110797979,            173P    239
0.124832828892268,0,0.875167171111834,0.167630889186706,0,           173P    240
0.912494449267984,0.21527563963852,0,0.943806629497199,              173P    241
0.267072312065744,0,0.968647109702849,0.322265595967194,0,           173P    242
0.986653659747647,0.380050642937868,0,0.997563703584719,             173P    243
0.439584839418655,0,1,0.479861585553911,0,1,0.5,0,0,1,0,0,1;         173P    244
126,28,3,1,0,1,0,0,0,0,0,0.0384615384615385,0.0769230769230769,      175P    245
0.115384615384615,0.153846153846154,0.192307692307692,               175P    246
0.230769230769231,0.269230769230769,0.307692307692308,               175P    247
0.346153846153846,0.384615384615385,0.423076923076923,               175P    248
0.461538461538461,0.5,0.538461538461538,0.576923076923077,           175P    249
0.615384615384615,0.653846153846154,0.692307692307692,               175P    250
0.73076923076923,0.769230769230769,0.807692307692307,                175P    251
0.846153846153846,0.884615384615384,0.923076923076923,               175P    252
0.961538461538461,1,1,1,1,1,1,1,1,1,1,1,1,1,1,1,1,1,1,1,1,1,1,1,     175P    253
1,1,1,1,1,1,1,1,1,1,1,0.5,0,1,0.520138414446088,0,                   175P    254
0.997563703584719,0.560415160581344,0,0.986653659747647,             175P    255
0.619949357062131,0,0.968647109702849,0.677734404032805,0,           175P    256
0.943806629497199,0.732927687934255,0,0.912494449267984,             175P    257
0.78472436036148,0,0.875167171111835,0.832369110813293,0,            175P    258
0.83236911079798,0.875167171107732,0,0.784724360418632,              175P    259
0.912494449269083,0,0.732927687720959,0.943806629496905,0,           175P    260
0.677734404828839,0.968647109702929,0,0.619949354091291,             175P    261
0.986653659747626,0,0.56041517166867,0.997563703584725,0,0.5,        175P    262
1.00121814820764,0,0.439584828331331,0.997563703584725,0,            175P    263
0.380050645908709,0.986653659747626,0,0.322265595171161,             175P    264
0.968647109702929,0,0.267072312279042,0.943806629496905,0,           175P    265
0.215275639581368,0.912494449269084,0,0.167630889202021,             175P    266
0.875167171107732,0,0.124832828888165,0.832369110813294,0,           175P    267
0.0875055507320166,0.78472436036148,0,0.0561933705028012,            175P    268
0.732927687934256,0,0.0313528902971505,0.677734404032806,0,          175P    269
0.0133463402523532,0.619949357062132,0,0.00243629641528142,          175P    270
0.560415160581345,0,0,0.520138414446089,0,0,0.5,0,0,1,0,0,1;         175P    271
508,2,0,75,8,0,1,0,173,0,75,18,0,1,0,175;                            177P    272
126,28,3,1,0,1,0,0,0,0,0,0.0384615384615385,0.0769230769230769,      179P    273
0.115384615384615,0.153846153846154,0.192307692307692,               179P    274
0.230769230769231,0.269230769230769,0.307692307692308,               179P    275
0.346153846153846,0.384615384615385,0.423076923076923,               179P    276
0.461538461538461,0.5,0.538461538461538,0.576923076923077,           179P    277
0.615384615384615,0.653846153846154,0.692307692307692,               179P    278
0.73076923076923,0.769230769230769,0.807692307692307,                179P    279
0.846153846153846,0.884615384615384,0.923076923076923,               179P    280
0.961538461538461,1,1,1,1,1,1,1,1,1,1,1,1,1,1,1,1,1,1,1,1,1,1,1,     179P    281
1,1,1,1,1,1,1,1,1,1,0.8125,0.5,0,0.8125,0.512586509028805,0,         179P    282
0.810977314740449,0.53775947536334,0,0.804158537342279,              179P    283
0.574968348163832,0,0.792904443564281,0.611084002520503,0,           179P    284
0.777379143435749,0.645579804958909,0,0.75780903079249,              179P    285
0.677952725225925,0,0.734479481944897,0.707730694258308,0,           179P    286
0.707730694248737,0.734479481942332,0,0.677952725261645,             179P    287
0.757809030793177,0,0.645579804825599,0.777379143435565,0,           179P    288
0.611084003018025,0.79290444356433,0,0.574968346307057,              179P    289
0.804158537342266,0,0.537759482292919,0.810977314740453,0,0.5,       179P    290
0.813261342629773,0,0.462240517707082,0.810977314740453,0,           179P    291
0.425031653692943,0.804158537342266,0,0.388915996981976,             179P    292
0.79290444356433,0,0.354420195174401,0.777379143435565,0,            179P    293
0.322047274738355,0.757809030793177,0,0.292269305751263,             179P    294
0.734479481942333,0,0.265520518055103,0.707730694258309,0,           179P    295
0.24219096920751,0.677952725225925,0,0.222620856564251,              179P    296
0.64557980495891,0,0.207095556435719,0.611084002520504,0,            179P    297
0.195841462657721,0.574968348163832,0,0.189022685259551,             179P    298
0.537759475363341,0,0.1875,0.512586509028805,0,0.1875,0.5,0,0,1,     179P    299
0,0,1;                                                               179P    300
126,28,3,1,0,1,0,0,0,0,0,0.0384615384615385,0.0769230769230769,      181P    301
0.115384615384615,0.153846153846154,0.192307692307692,               181P    302
0.230769230769231,0.269230769230769,0.307692307692308,               181P    303
0.346153846153846,0.384615384615385,0.423076923076923,               181P    304
0.461538461538461,0.5,0.538461538461538,0.576923076923077,           181P    305
0.615384615384615,0.653846153846154,0.692307692307692,               181P    306
0.73076923076923,0.769230769230769,0.807692307692307,                181P    307
0.846153846153846,0.884615384615384,0.923076923076923,               181P    308
0.961538461538461,1,1,1,1,1,1,1,1,1,1,1,1,1,1,1,1,1,1,1,1,1,1,1,     181P    309
1,1,1,1,1,1,1,1,1,1,0.1875,0.5,0,0.1875,0.487413490971195,0,         181P    310
0.189022685259551,0.46224052463666,0,0.195841462657721,              181P    311
0.425031651836168,0,0.207095556435719,0.388915997479497,0,           181P    312
0.222620856564251,0.354420195041091,0,0.24219096920751,              181P    313
0.322047274774075,0,0.265520518055103,0.292269305741692,0,           181P    314
0.292269305751263,0.265520518057668,0,0.322047274738355,             181P    315
0.242190969206823,0,0.354420195174401,0.222620856564435,0,           181P    316
0.388915996981975,0.20709555643567,0,0.425031653692943,              181P    317
0.195841462657734,0,0.462240517707081,0.189022685259547,0,0.5,       181P    318
0.186738657370227,0,0.537759482292918,0.189022685259547,0,           181P    319
0.574968346307057,0.195841462657734,0,0.611084003018024,             181P    320
0.20709555643567,0,0.645579804825599,0.222620856564435,0,            181P    321
0.677952725261645,0.242190969206823,0,0.707730694248737,             181P    322
0.265520518057667,0,0.734479481944897,0.292269305741691,0,           181P    323
0.75780903079249,0.322047274774075,0,0.777379143435749,              181P    324
0.35442019504109,0,0.792904443564281,0.388915997479496,0,            181P    325
0.804158537342279,0.425031651836168,0,0.810977314740449,             181P    326
0.46224052463666,0,0.8125,0.487413490971194,0,0.8125,0.5,0,0,1,      181P    327
0,0,1;                                                               181P    328
508,2,0,75,19,1,1,0,179,0,75,20,1,1,0,181;                           183P    329
510,171,2,1,177,183;                                                 185P    330
110,0,0,0,0,1,6.12323399573677E-17;                                  187P    331
110,-4.59242549680257E-16,-1.53080849893419E-16,2.5,                 189P    332
-4.59242549680257E-16,10,2.5;                                        189P    333
120,187,189,0,6.28318530717959;                                      191P    334
126,1,1,1,0,1,0,0,0,1,1,1,1,0,0,0,1,0,0,0,1,0,0,1;                   193P    335
126,1,1,1,0,1,0,0,0,1,1,1,1,0,0,0,0,3.14159265358979,0,0,1,0,0,      195P    336
1;                                                                   195P    337
126,1,1,1,0,1,0,0,0,1,1,1,1,0,3.14159265358979,0,1,                  197P    338
3.14159265358979,0,0,1,0,0,1;                                        197P    339
126,1,1,1,0,1,0,0,0,1,1,1,1,1,0,0,1,3.14159265358979,0,0,1,0,0,      199P    340
1;                                                                   199P    341
508,4,0,75,21,0,1,0,193,0,75,22,1,1,0,195,0,75,23,1,1,0,197,0,       201P    342
75,20,0,1,0,199;                                                     201P    343
510,191,1,1,201;                                                     203P    344
128,1,1,1,1,0,0,1,0,0,0,0,1,1,0,0,1,1,1,1,1,1,2.5,0,2.5,2.5,0,       205P    345
-2.5,-2.5,0,2.5,-2.5,0,-2.5,0,1,0,1;                                 205P    346
126,28,3,1,0,1,0,0,0,0,0,0.0384615384615385,0.0769230769230769,      207P    347
0.115384615384615,0.153846153846154,0.192307692307692,               207P    348
0.230769230769231,0.269230769230769,0.307692307692308,               207P    349
0.346153846153846,0.384615384615385,0.423076923076923,               207P    350
0.461538461538461,0.5,0.538461538461538,0.576923076923077,           207P    351
0.615384615384615,0.653846153846154,0.692307692307692,               207P    352
0.73076923076923,0.769230769230769,0.807692307692307,                207P    353
0.846153846153846,0.884615384615384,0.923076923076923,               207P    354
0.961538461538461,1,1,1,1,1,1,1,1,1,1,1,1,1,1,1,1,1,1,1,1,1,1,1,     207P    355
1,1,1,1,1,1,1,1,1,1,0,0.5,0,0,0.479861585553912,0,                   207P    356
0.00243629641528131,0.439584839418656,0,0.0133463402523529,          207P    357
0.380050642937869,0,0.0313528902971505,0.322265595967195,0,          207P    358
0.0561933705028009,0.267072312065745,0,0.0875055507320162,           207P    359
0.21527563963852,0,0.124832828888165,0.167630889186707,0,            207P    360
0.16763088920202,0.124832828892269,0,0.215275639581368,              207P    361
0.0875055507309168,0,0.267072312279042,0.0561933705030955,0,         207P    362
0.322265595171161,0.0313528902970713,0,0.380050645908708,            207P    363
0.0133463402523745,0,0.43958482833133,0.00243629641527521,0,0.5,     207P    364
-0.00121814820763766,0,0.560415171668669,0.00243629641527532,0,      207P    365
0.61994935409129,0.0133463402523739,0,0.677734404828839,             207P    366
0.0313528902970713,0,0.732927687720958,0.0561933705030954,0,         207P    367
0.784724360418632,0.0875055507309164,0,0.832369110797979,            207P    368
0.124832828892268,0,0.875167171111834,0.167630889186706,0,           207P    369
0.912494449267984,0.21527563963852,0,0.943806629497199,              207P    370
0.267072312065744,0,0.968647109702849,0.322265595967194,0,           207P    371
0.986653659747647,0.380050642937868,0,0.997563703584719,             207P    372
0.439584839418655,0,1,0.479861585553911,0,1,0.5,0,0,1,0,0,1;         207P    373
126,28,3,1,0,1,0,0,0,0,0,0.0384615384615385,0.0769230769230769,      209P    374
0.115384615384615,0.153846153846154,0.192307692307692,               209P    375
0.230769230769231,0.269230769230769,0.307692307692308,               209P    376
0.346153846153846,0.384615384615385,0.423076923076923,               209P    377
0.461538461538461,0.5,0.538461538461538,0.576923076923077,           209P    378
0.615384615384615,0.653846153846154,0.692307692307692,               209P    379
0.73076923076923,0.769230769230769,0.807692307692307,                209P    380
0.846153846153846,0.884615384615384,0.923076923076923,               209P    381
0.961538461538461,1,1,1,1,1,1,1,1,1,1,1,1,1,1,1,1,1,1,1,1,1,1,1,     209P    382
1,1,1,1,1,1,1,1,1,1,1,0.5,0,1,0.520138414446088,0,                   209P    383
0.997563703584719,0.560415160581344,0,0.986653659747647,             209P    384
0.619949357062131,0,0.968647109702849,0.677734404032805,0,           209P    385
0.943806629497199,0.732927687934255,0,0.912494449267984,             209P    386
0.78472436036148,0,0.875167171111835,0.832369110813293,0,            209P    387
0.83236911079798,0.875167171107732,0,0.784724360418632,              209P    388
0.912494449269083,0,0.732927687720959,0.943806629496905,0,           209P    389
0.677734404828839,0.968647109702929,0,0.619949354091291,             209P    390
0.986653659747626,0,0.56041517166867,0.997563703584725,0,0.5,        209P    391
1.00121814820764,0,0.439584828331331,0.997563703584725,0,            209P    392
0.380050645908709,0.986653659747626,0,0.322265595171161,             209P    393
0.968647109702929,0,0.267072312279042,0.943806629496905,0,           209P    394
0.215275639581368,0.912494449269084,0,0.167630889202021,             209P    395
0.875167171107732,0,0.124832828888165,0.832369110813294,0,           209P    396
0.0875055507320165,0.78472436036148,0,0.0561933705028013,            209P    397
0.732927687934256,0,0.0313528902971506,0.677734404032806,0,          209P    398
0.0133463402523532,0.619949357062132,0,0.00243629641528154,          209P    399
0.560415160581345,0,0,0.520138414446089,0,0,0.5,0,0,1,0,0,1;         209P    400
508,2,0,75,22,0,1,0,207,0,75,24,0,1,0,209;                           211P    401
510,205,1,1,211;                                                     213P    402
110,0,10,6.12323399573677E-16,0,11,6.73555739531044E-16;             215P    403
110,2.44929359829471E-16,10,-4,2.44929359829471E-16,15,-4;           217P    404
120,215,217,0,6.28318530717959;                                      219P    405
126,1,1,1,0,1,0,0,0,1,1,1,1,1,1.82347658193698,0,1,                  221P    406
3.14159265358979,0,0,1,0,0,1;                                        221P    407
126,1,1,1,0,1,0,0,0,1,1,1,1,0.5,1.82347658193698,0,1,                223P    408
1.82347658193698,0,0,1,0,0,1;                                        223P    409
126,1,1,1,0,1,0,0,0,1,1,1,1,0.5,1.31811607165282,0,0.5,              225P    410
1.82347658193698,0,0,1,0,0,1;                                        225P    411
126,1,1,1,0,1,0,0,0,1,1,1,1,0.5,1.31811607165282,0,1,                227P    412
1.31811607165282,0,0,1,0,0,1;                                        227P    413
126,1,1,1,0,1,0,0,0,1,1,1,1,1,0,0,1,1.31811607165282,0,0,1,0,0,      229P    414
1;                                                                   229P    415
126,1,1,1,0,1,0,0,0,1,1,1,1,0,0,0,1,0,0,0,1,0,0,1;                   231P    416
126,1,1,1,0,1,0,0,0,1,1,1,1,0,0,0,0,3.14159265358979,0,0,1,0,0,      233P    417
1;                                                                   233P    418
126,1,1,1,0,1,0,0,0,1,1,1,1,0,3.14159265358979,0,1,                  235P    419
3.14159265358979,0,0,1,0,0,1;                                        235P    420
508,8,0,75,5,0,1,0,221,0,75,16,0,1,0,223,0,75,13,0,1,0,225,0,75,     237P    421
17,1,1,0,227,0,75,3,0,1,0,229,0,75,9,0,1,0,231,0,75,18,1,1,0,        237P    422
233,0,75,7,1,1,0,235;                                                237P    423
510,219,1,1,237;                                                     239P    424
110,0,0,0,0,1,6.12323399573677E-17;                                  241P    425
110,1.53080849893419E-16,1.53080849893419E-16,-2.5,                  243P    426
1.53080849893419E-16,10,-2.5;                                        243P    427
120,241,243,0,6.28318530717959;                                      245P    428
126,1,1,1,0,1,0,0,0,1,1,1,1,1,0,0,1,3.14159265358979,0,0,1,0,0,      247P    429
1;                                                                   247P    430
126,1,1,1,0,1,0,0,0,1,1,1,1,0,0,0,1,0,0,0,1,0,0,1;                   249P    431
126,1,1,1,0,1,0,0,0,1,1,1,1,0,0,0,0,3.14159265358979,0,0,1,0,0,      251P    432
1;                                                                   251P    433
126,1,1,1,0,1,0,0,0,1,1,1,1,0,3.14159265358979,0,1,                  253P    434
3.14159265358979,0,0,1,0,0,1;                                        253P    435
508,4,0,75,19,0,1,0,247,0,75,23,0,1,0,249,0,75,24,1,1,0,251,0,       255P    436
75,21,1,1,0,253;                                                     255P    437
510,245,1,1,255;                                                     257P    438
514,11,89,1,101,1,127,0,141,1,155,0,169,0,185,0,203,0,213,0,239,     259P    439
0,257,0;                                                             259P    440
186,259,1,0;                                                         261P    441
S      2G      3D    262P    441                                        T      1
