IGES file generated by C3D Converter 1.8                                S      1
translator by C3D Labs., translator version IGESOUT-5.1.                S      2
1H,,1H;,7H Деталь,49HE:\Сдача задания\Модели\IGES\гайка для моника.igs,0G      1
H,3H1.0,32,38,6,308,15,7Hunknown,1,2,2HMM,1000,1,16H-17740206:063811,1E-G      2
6,50000,5Hno1se,7Hunknown,0,0,13H260306:063812;                         G      3
     502       1       0       0       0       0       0       000010000D      1
     502       0       0       6       1                               0D      2
     124       7       0       0       0       0       0       001020201D      3
     124       0       0       3       0                               0D      4
     100      10       0       0       0       0       3       000010000D      5
     100       1       0       1       0                               0D      6
     124      11       0       0       0       0       0       001020201D      7
     124       1       0       3       0                               0D      8
     100      14       0       0       0       0       7       000010000D      9
     100       1       0       1       0                               0D     10
     124      15       0       0       0       0       0       001020201D     11
     124       1       0       3       0                               0D     12
     100      18       0       0       0       0      11       000010000D     13
     100       1       0       1       0                               0D     14
     124      19       0       0       0       0       0       001020201D     15
     124       1       0       3       0                               0D     16
     100      22       0       0       0       0      15       000010000D     17
     100       1       0       1       0                               0D     18
     124      23       0       0       0       0       0       001020201D     19
     124       1       0       3       0                               0D     20
     100      26       0       0       0       0      19       000010000D     21
     100       1       0       1       0                               0D     22
     124      27       0       0       0       0       0       001020201D     23
     124       1       0       3       0                               0D     24
     100      30       0       0       0       0      23       000010000D     25
     100       1       0       1       0                               0D     26
     124      31       0       0       0       0       0       001020201D     27
     124       1       0       3       0                               0D     28
     100      34       0       0       0       0      27       000010000D     29
     100       1       0       1       0                               0D     30
     124      35       0       0       0       0       0       001020201D     31
     124       1       0       3       0                               0D     32
     100      38       0       0       0       0      31       000010000D     33
     100       1       0       1       0                               0D     34
     110      39       0       0       0       0       0       000010000D     35
     110       1       0       2       0                               0D     36
     110      41       0       0       0       0       0       000010000D     37
     110       1       0       2       0                               0D     38
     110      43       0       0       0       0       0       000010000D     39
     110       1       0       2       0                               0D     40
     110      45       0       0       0       0       0       000010000D     41
     110       1       0       2       0                               0D     42
     504      47       0       0       0       0       0       000010000D     43
     504       1       0       3       1                               0D     44
     128      50       0       0       0       0       0       000010000D     45
     128       1       0       2       0                               0D     46
     126      52       0       0       0       0       0       001010500D     47
     126       1       0      27       0                               0D     48
     126      79       0       0       0       0       0       001010500D     49
     126       1       0      27       0                               0D     50
     508     106       0       0       0       0       0       000010000D     51
     508       1       0       1       1                               0D     52
     126     107       0       0       0       0       0       001010500D     53
     126       1       0      28       0                               0D     54
     126     135       0       0       0       0       0       001010500D     55
     126       1       0      28       0                               0D     56
     508     163       0       0       0       0       0       000010000D     57
     508       1       0       1       1                               0D     58
     314     164       0       0       0       0       0       001000200D     59
     314       1       0       1       0                               0D     60
     510     165       0       0       0       0       0       000010000D     61
     510       1     -59       1       1                               0D     62
     128     166       0       0       0       0       0       000010000D     63
     128       1       0       2       0                               0D     64
     126     168       0       0       0       0       0       001010500D     65
     126       1       0      27       0                               0D     66
     126     195       0       0       0       0       0       001010500D     67
     126       1       0      27       0                               0D     68
     508     222       0       0       0       0       0       000010000D     69
     508       1       0       1       1                               0D     70
     126     223       0       0       0       0       0       001010500D     71
     126       1       0      28       0                               0D     72
     126     251       0       0       0       0       0       001010500D     73
     126       1       0      28       0                               0D     74
     508     279       0       0       0       0       0       000010000D     75
     508       1       0       1       1                               0D     76
     510     280       0       0       0       0       0       000010000D     77
     510       1     -59       1       1                               0D     78
     110     281       0       0       0       0       0       001010000D     79
     110       1       0       1       0                               0D     80
     110     282       0       0       0       0       0       001010001D     81
     110       1       0       2       0                               0D     82
     120     284       0       0       0       0       0       000010000D     83
     120       1       0       1       0                               0D     84
     126     285       0       0       0       0       0       001010500D     85
     126       1       0       2       0                               0D     86
     126     287       0       0       0       0       0       001010500D     87
     126       1       0       2       0                               0D     88
     126     289       0       0       0       0       0       001010500D     89
     126       1       0       1       0                               0D     90
     126     290       0       0       0       0       0       001010500D     91
     126       1       0       2       0                               0D     92
     508     292       0       0       0       0       0       000010000D     93
     508       1       0       2       1                               0D     94
     510     294       0       0       0       0       0       000010000D     95
     510       1     -59       1       1                               0D     96
     110     295       0       0       0       0       0       001010000D     97
     110       1       0       1       0                               0D     98
     110     296       0       0       0       0       0       001010001D     99
     110       1       0       2       0                               0D    100
     120     298       0       0       0       0       0       000010000D    101
     120       1       0       1       0                               0D    102
     126     299       0       0       0       0       0       001010500D    103
     126       1       0       1       0                               0D    104
     126     300       0       0       0       0       0       001010500D    105
     126       1       0       2       0                               0D    106
     126     302       0       0       0       0       0       001010500D    107
     126       1       0       2       0                               0D    108
     126     304       0       0       0       0       0       001010500D    109
     126       1       0       2       0                               0D    110
     508     306       0       0       0       0       0       000010000D    111
     508       1       0       2       1                               0D    112
     510     308       0       0       0       0       0       000010000D    113
     510       1     -59       1       1                               0D    114
     110     309       0       0       0       0       0       001010000D    115
     110       1       0       1       0                               0D    116
     110     310       0       0       0       0       0       001010001D    117
     110       1       0       2       0                               0D    118
     120     312       0       0       0       0       0       000010000D    119
     120       1       0       1       0                               0D    120
     126     313       0       0       0       0       0       001010500D    121
     126       1       0       2       0                               0D    122
     126     315       0       0       0       0       0       001010500D    123
     126       1       0       2       0                               0D    124
     126     317       0       0       0       0       0       001010500D    125
     126       1       0       2       0                               0D    126
     126     319       0       0       0       0       0       001010500D    127
     126       1       0       1       0                               0D    128
     508     320       0       0       0       0       0       000010000D    129
     508       1       0       2       1                               0D    130
     510     322       0       0       0       0       0       000010000D    131
     510       1     -59       1       1                               0D    132
     110     323       0       0       0       0       0       001010000D    133
     110       1       0       1       0                               0D    134
     110     324       0       0       0       0       0       001010001D    135
     110       1       0       2       0                               0D    136
     120     326       0       0       0       0       0       000010000D    137
     120       1       0       1       0                               0D    138
     126     327       0       0       0       0       0       001010500D    139
     126       1       0       2       0                               0D    140
     126     329       0       0       0       0       0       001010500D    141
     126       1       0       1       0                               0D    142
     126     330       0       0       0       0       0       001010500D    143
     126       1       0       2       0                               0D    144
     126     332       0       0       0       0       0       001010500D    145
     126       1       0       2       0                               0D    146
     508     334       0       0       0       0       0       000010000D    147
     508       1       0       2       1                               0D    148
     510     336       0       0       0       0       0       000010000D    149
     510       1     -59       1       1                               0D    150
     514     337       0       0       0       0       0       000010000D    151
     514       1       0       1       1                               0D    152
     186     338       0       0       0       0       0       000010000D    153
     186       1       0       1       0                               0D    154
502,8,-1.37772764904077E-15,-4.59242549680257E-16,7.5,                 1P      1
1.37772764904077E-15,4.59242549680257E-16,-7.5,                        1P      2
9.18485099360515E-16,3.06161699786838E-16,-5,                          1P      3
-9.18485099360515E-16,-3.06161699786838E-16,5,                         1P      4
1.37772764904077E-15,5,-7.5,-1.37772764904077E-15,5,7.5,               1P      5
9.18485099360515E-16,5,-5,-9.18485099360515E-16,5,5;                   1P      6
124,-1.83697019872103E-16,1,0,0,-6.12323399573677E-17,                 3P      7
-1.12481983699639E-32,1,0,1,1.83697019872103E-16,                      3P      8
6.12323399573677E-17,0;                                                3P      9
100,0,0,0,7.5,0,-7.5,9.18485099360515E-16;                             5P     10
124,6.12323399573677E-17,-1,0,0,6.12323399573677E-17,                  7P     11
3.74939945665464E-33,1,0,-1,-6.12323399573677E-17,                     7P     12
6.12323399573677E-17,0;                                                7P     13
100,0,0,0,7.5,0,-7.5,9.18485099360515E-16;                             9P     14
124,6.12323399573677E-17,-1,0,0,6.12323399573677E-17,                 11P     15
3.74939945665464E-33,1,0,-1,-6.12323399573677E-17,                    11P     16
6.12323399573677E-17,0;                                               11P     17
100,0,0,0,5,0,-5,6.12323399573677E-16;                                13P     18
124,-1.83697019872103E-16,1,0,0,-6.12323399573677E-17,                15P     19
-1.12481983699639E-32,1,0,1,1.83697019872103E-16,                     15P     20
6.12323399573677E-17,0;                                               15P     21
100,0,0,0,5,0,-5,6.12323399573677E-16;                                17P     22
124,6.12323399573677E-17,-1,0,0,6.12323399573677E-17,                 19P     23
3.74939945665464E-33,1,5,-1,-6.12323399573677E-17,                    19P     24
6.12323399573677E-17,3.06161699786838E-16;                            19P     25
100,0,0,0,7.5,0,-7.5,9.18485099360515E-16;                            21P     26
124,-1.83697019872103E-16,1,0,0,-6.12323399573677E-17,                23P     27
-1.12481983699639E-32,1,5,1,1.83697019872103E-16,                     23P     28
6.12323399573677E-17,3.06161699786838E-16;                            23P     29
100,0,0,0,7.5,0,-7.5,9.18485099360515E-16;                            25P     30
124,-1.83697019872103E-16,1,0,0,-6.12323399573677E-17,                27P     31
-1.12481983699639E-32,1,5,1,1.83697019872103E-16,                     27P     32
6.12323399573677E-17,3.06161699786838E-16;                            27P     33
100,0,0,0,5,0,-5,6.12323399573677E-16;                                29P     34
124,6.12323399573677E-17,-1,0,0,6.12323399573677E-17,                 31P     35
3.74939945665464E-33,1,5,-1,-6.12323399573677E-17,                    31P     36
6.12323399573677E-17,3.06161699786838E-16;                            31P     37
100,0,0,0,5,0,-5,6.12323399573677E-16;                                33P     38
110,-9.18485099360515E-16,-3.06161699786838E-16,5,                    35P     39
-9.18485099360515E-16,5,5;                                            35P     40
110,3.06161699786838E-16,3.06161699786838E-16,-5,                     37P     41
3.06161699786838E-16,5,-5;                                            37P     42
110,-1.37772764904077E-15,-4.59242549680257E-16,7.5,                  39P     43
-1.37772764904077E-15,5,7.5;                                          39P     44
110,2.29621274840129E-15,4.59242549680257E-16,-7.5,                   41P     45
2.29621274840129E-15,5,-7.5;                                          41P     46
504,12,5,1,1,1,2,9,1,2,1,1,13,1,3,1,4,17,1,4,1,3,21,1,5,1,6,25,       43P     47
1,6,1,5,29,1,8,1,7,33,1,7,1,8,35,1,4,1,8,37,1,3,1,7,39,1,1,1,6,       43P     48
41,1,2,1,5;                                                           43P     49
128,1,1,1,1,0,0,1,0,0,0,0,1,1,0,0,1,1,1,1,1,1,7.5,0,7.5,7.5,0,        45P     50
-7.5,-7.5,0,7.5,-7.5,0,-7.5,0,1,0,1;                                  45P     51
126,28,3,1,0,1,0,0,0,0,0,0.0384615384615385,0.0769230769230769,       47P     52
0.115384615384615,0.153846153846154,0.192307692307692,                47P     53
0.230769230769231,0.269230769230769,0.307692307692308,                47P     54
0.346153846153846,0.384615384615385,0.423076923076923,                47P     55
0.461538461538461,0.5,0.538461538461538,0.576923076923077,            47P     56
0.615384615384615,0.653846153846154,0.692307692307692,                47P     57
0.73076923076923,0.769230769230769,0.807692307692307,                 47P     58
0.846153846153846,0.884615384615384,0.923076923076923,                47P     59
0.961538461538461,1,1,1,1,1,1,1,1,1,1,1,1,1,1,1,1,1,1,1,1,1,1,1,      47P     60
1,1,1,1,1,1,1,1,1,1,0,0.5,0,0,0.479861585553912,0,                    47P     61
0.00243629641528159,0.439584839418656,0,0.0133463402523529,           47P     62
0.380050642937869,0,0.0313528902971504,0.322265595967195,0,           47P     63
0.0561933705028009,0.267072312065745,0,0.0875055507320162,            47P     64
0.21527563963852,0,0.124832828888165,0.167630889186707,0,             47P     65
0.16763088920202,0.124832828892269,0,0.215275639581368,               47P     66
0.0875055507309168,0,0.267072312279042,0.0561933705030954,0,          47P     67
0.322265595171161,0.0313528902970714,0,0.380050645908708,             47P     68
0.0133463402523745,0,0.43958482833133,0.00243629641527532,0,0.5,      47P     69
-0.00121814820763755,0,0.560415171668669,0.00243629641527532,0,       47P     70
0.61994935409129,0.0133463402523741,0,0.677734404828839,              47P     71
0.0313528902970712,0,0.732927687720958,0.0561933705030954,0,          47P     72
0.784724360418632,0.0875055507309164,0,0.832369110797979,             47P     73
0.124832828892268,0,0.875167171111834,0.167630889186706,0,            47P     74
0.912494449267984,0.21527563963852,0,0.943806629497199,               47P     75
0.267072312065744,0,0.968647109702849,0.322265595967194,0,            47P     76
0.986653659747647,0.380050642937868,0,0.997563703584719,              47P     77
0.439584839418655,0,1,0.479861585553911,0,1,0.5,0,0,1,0,0,1;          47P     78
126,28,3,1,0,1,0,0,0,0,0,0.0384615384615385,0.0769230769230769,       49P     79
0.115384615384615,0.153846153846154,0.192307692307692,                49P     80
0.230769230769231,0.269230769230769,0.307692307692308,                49P     81
0.346153846153846,0.384615384615385,0.423076923076923,                49P     82
0.461538461538461,0.5,0.538461538461538,0.576923076923077,            49P     83
0.615384615384615,0.653846153846154,0.692307692307692,                49P     84
0.73076923076923,0.769230769230769,0.807692307692307,                 49P     85
0.846153846153846,0.884615384615384,0.923076923076923,                49P     86
0.961538461538461,1,1,1,1,1,1,1,1,1,1,1,1,1,1,1,1,1,1,1,1,1,1,1,      49P     87
1,1,1,1,1,1,1,1,1,1,1,0.5,0,1,0.520138414446088,0,                    49P     88
0.997563703584719,0.560415160581344,0,0.986653659747647,              49P     89
0.619949357062131,0,0.968647109702849,0.677734404032805,0,            49P     90
0.943806629497199,0.732927687934255,0,0.912494449267984,              49P     91
0.78472436036148,0,0.875167171111835,0.832369110813293,0,             49P     92
0.83236911079798,0.875167171107732,0,0.784724360418632,               49P     93
0.912494449269083,0,0.732927687720959,0.943806629496904,0,            49P     94
0.677734404828839,0.968647109702929,0,0.619949354091291,              49P     95
0.986653659747626,0,0.56041517166867,0.997563703584725,0,0.5,         49P     96
1.00121814820764,0,0.439584828331331,0.997563703584725,0,             49P     97
0.380050645908709,0.986653659747626,0,0.322265595171161,              49P     98
0.968647109702929,0,0.267072312279042,0.943806629496905,0,            49P     99
0.215275639581368,0.912494449269084,0,0.167630889202021,              49P    100
0.875167171107732,0,0.124832828888165,0.832369110813294,0,            49P    101
0.0875055507320166,0.78472436036148,0,0.0561933705028012,             49P    102
0.732927687934256,0,0.0313528902971507,0.677734404032806,0,           49P    103
0.0133463402523532,0.619949357062132,0,0.00243629641528148,           49P    104
0.560415160581345,0,0,0.520138414446089,0,0,0.5,0,0,1,0,0,1;          49P    105
508,2,0,43,1,0,1,0,47,0,43,2,0,1,0,49;                                51P    106
126,28,3,1,0,1,0,0,0,0,0,0.0384615384615385,0.0769230769230769,       53P    107
0.115384615384615,0.153846153846154,0.192307692307692,                53P    108
0.230769230769231,0.269230769230769,0.307692307692308,                53P    109
0.346153846153846,0.384615384615385,0.423076923076923,                53P    110
0.461538461538461,0.5,0.538461538461538,0.576923076923077,            53P    111
0.615384615384615,0.653846153846154,0.692307692307692,                53P    112
0.73076923076923,0.769230769230769,0.807692307692307,                 53P    113
0.846153846153846,0.884615384615384,0.923076923076923,                53P    114
0.961538461538461,1,1,1,1,1,1,1,1,1,1,1,1,1,1,1,1,1,1,1,1,1,1,1,      53P    115
1,1,1,1,1,1,1,1,1,1,0.833333333333333,0.5,0,0.833333333333333,        53P    116
0.513425609630726,0,0.831709135723146,0.540276773720896,0,            53P    117
0.824435773165098,0.579966238041421,0,0.812431406468566,              53P    118
0.618489602688537,0,0.795871086331466,0.655285125289503,0,            53P    119
0.774996299511989,0.689816240240986,0,0.75011144740789,               53P    120
0.721579407208862,0,0.721579407198653,0.750111447405154,0,            53P    121
0.689816240279088,0.774996299512722,0,0.655285125147306,              53P    122
0.79587108633127,0,0.618489603219226,0.812431406468619,0,             53P    123
0.579966236060861,0.824435773165084,0,0.540276781112446,              53P    124
0.83170913572315,0,0.5,0.834145432138425,0,0.459723218887554,         53P    125
0.83170913572315,0,0.42003376393914,0.824435773165084,0,              53P    126
0.381510396780774,0.812431406468619,0,0.344714874852695,              53P    127
0.79587108633127,0,0.310183759720912,0.774996299512722,0,             53P    128
0.278420592801347,0.750111447405155,0,0.24988855259211,               53P    129
0.721579407208863,0,0.225003700488011,0.689816240240987,0,            53P    130
0.204128913668534,0.655285125289504,0,0.187568593531434,              53P    131
0.618489602688537,0,0.175564226834902,0.579966238041421,0,            53P    132
0.168290864276854,0.540276773720897,0,0.166666666666667,              53P    133
0.513425609630726,0,0.166666666666667,0.5,0,0,1,0,0,1;                53P    134
126,28,3,1,0,1,0,0,0,0,0,0.0384615384615385,0.0769230769230769,       55P    135
0.115384615384615,0.153846153846154,0.192307692307692,                55P    136
0.230769230769231,0.269230769230769,0.307692307692308,                55P    137
0.346153846153846,0.384615384615385,0.423076923076923,                55P    138
0.461538461538461,0.5,0.538461538461538,0.576923076923077,            55P    139
0.615384615384615,0.653846153846154,0.692307692307692,                55P    140
0.73076923076923,0.769230769230769,0.807692307692307,                 55P    141
0.846153846153846,0.884615384615384,0.923076923076923,                55P    142
0.961538461538461,1,1,1,1,1,1,1,1,1,1,1,1,1,1,1,1,1,1,1,1,1,1,1,      55P    143
1,1,1,1,1,1,1,1,1,1,0.166666666666667,0.5,0,0.166666666666667,        55P    144
0.486574390369274,0,0.168290864276854,0.459723226279104,0,            55P    145
0.175564226834902,0.42003376195858,0,0.187568593531434,               55P    146
0.381510397311463,0,0.204128913668534,0.344714874710497,0,            55P    147
0.225003700488011,0.310183759759014,0,0.24988855259211,               55P    148
0.278420592791138,0,0.278420592801347,0.249888552594846,0,            55P    149
0.310183759720912,0.225003700487278,0,0.344714874852694,              55P    150
0.20412891366873,0,0.381510396780774,0.187568593531381,0,             55P    151
0.420033763939139,0.175564226834916,0,0.459723218887553,              55P    152
0.16829086427685,0,0.5,0.165854567861575,0,0.540276781112446,         55P    153
0.16829086427685,0,0.57996623606086,0.175564226834916,0,              55P    154
0.618489603219226,0.187568593531381,0,0.655285125147306,              55P    155
0.20412891366873,0,0.689816240279088,0.225003700487278,0,             55P    156
0.721579407198653,0.249888552594845,0,0.75011144740789,               55P    157
0.278420592791137,0,0.774996299511989,0.310183759759013,0,            55P    158
0.795871086331466,0.344714874710496,0,0.812431406468566,              55P    159
0.381510397311462,0,0.824435773165098,0.420033761958579,0,            55P    160
0.831709135723146,0.459723226279104,0,0.833333333333333,              55P    161
0.486574390369274,0,0.833333333333333,0.5,0,0,1,0,0,1;                55P    162
508,2,0,43,3,1,1,0,53,0,43,4,1,1,0,55;                                57P    163
314,56.4705882352941,56.4705882352941,56.4705882352941,1H ;           59P    164
510,45,2,1,51,57;                                                     61P    165
128,1,1,1,1,0,0,1,0,0,0,0,1,1,0,0,1,1,1,1,1,1,7.5,5,7.5,7.5,5,        63P    166
-7.5,-7.5,5,7.5,-7.5,5,-7.5,0,1,0,1;                                  63P    167
126,28,3,1,0,1,0,0,0,0,0,0.0384615384615385,0.0769230769230769,       65P    168
0.115384615384615,0.153846153846154,0.192307692307692,                65P    169
0.230769230769231,0.269230769230769,0.307692307692308,                65P    170
0.346153846153846,0.384615384615385,0.423076923076923,                65P    171
0.461538461538461,0.5,0.538461538461538,0.576923076923077,            65P    172
0.615384615384615,0.653846153846154,0.692307692307692,                65P    173
0.73076923076923,0.769230769230769,0.807692307692307,                 65P    174
0.846153846153846,0.884615384615384,0.923076923076923,                65P    175
0.961538461538461,1,1,1,1,1,1,1,1,1,1,1,1,1,1,1,1,1,1,1,1,1,1,1,      65P    176
1,1,1,1,1,1,1,1,1,1,1,0.5,0,1,0.520138414446088,0,                    65P    177
0.997563703584719,0.560415160581344,0,0.986653659747647,              65P    178
0.619949357062131,0,0.968647109702849,0.677734404032805,0,            65P    179
0.943806629497199,0.732927687934255,0,0.912494449267984,              65P    180
0.78472436036148,0,0.875167171111835,0.832369110813293,0,             65P    181
0.83236911079798,0.875167171107732,0,0.784724360418632,               65P    182
0.912494449269083,0,0.732927687720959,0.943806629496904,0,            65P    183
0.677734404828839,0.968647109702929,0,0.619949354091291,              65P    184
0.986653659747626,0,0.56041517166867,0.997563703584725,0,0.5,         65P    185
1.00121814820764,0,0.439584828331331,0.997563703584725,0,             65P    186
0.380050645908709,0.986653659747626,0,0.322265595171161,              65P    187
0.968647109702929,0,0.267072312279042,0.943806629496905,0,            65P    188
0.215275639581368,0.912494449269084,0,0.167630889202021,              65P    189
0.875167171107732,0,0.124832828888165,0.832369110813294,0,            65P    190
0.0875055507320166,0.78472436036148,0,0.0561933705028012,             65P    191
0.732927687934256,0,0.0313528902971507,0.677734404032806,0,           65P    192
0.0133463402523532,0.619949357062132,0,0.00243629641528148,           65P    193
0.560415160581345,0,0,0.520138414446089,0,0,0.5,0,0,1,0,0,1;          65P    194
126,28,3,1,0,1,0,0,0,0,0,0.0384615384615385,0.0769230769230769,       67P    195
0.115384615384615,0.153846153846154,0.192307692307692,                67P    196
0.230769230769231,0.269230769230769,0.307692307692308,                67P    197
0.346153846153846,0.384615384615385,0.423076923076923,                67P    198
0.461538461538461,0.5,0.538461538461538,0.576923076923077,            67P    199
0.615384615384615,0.653846153846154,0.692307692307692,                67P    200
0.73076923076923,0.769230769230769,0.807692307692307,                 67P    201
0.846153846153846,0.884615384615384,0.923076923076923,                67P    202
0.961538461538461,1,1,1,1,1,1,1,1,1,1,1,1,1,1,1,1,1,1,1,1,1,1,1,      67P    203
1,1,1,1,1,1,1,1,1,1,0,0.5,0,0,0.479861585553912,0,                    67P    204
0.00243629641528159,0.439584839418656,0,0.0133463402523529,           67P    205
0.380050642937869,0,0.0313528902971504,0.322265595967195,0,           67P    206
0.0561933705028009,0.267072312065745,0,0.0875055507320162,            67P    207
0.21527563963852,0,0.124832828888165,0.167630889186707,0,             67P    208
0.16763088920202,0.124832828892269,0,0.215275639581368,               67P    209
0.0875055507309168,0,0.267072312279042,0.0561933705030954,0,          67P    210
0.322265595171161,0.0313528902970714,0,0.380050645908708,             67P    211
0.0133463402523745,0,0.43958482833133,0.00243629641527532,0,0.5,      67P    212
-0.00121814820763755,0,0.560415171668669,0.00243629641527532,0,       67P    213
0.61994935409129,0.0133463402523741,0,0.677734404828839,              67P    214
0.0313528902970712,0,0.732927687720958,0.0561933705030954,0,          67P    215
0.784724360418632,0.0875055507309164,0,0.832369110797979,             67P    216
0.124832828892268,0,0.875167171111834,0.167630889186706,0,            67P    217
0.912494449267984,0.21527563963852,0,0.943806629497199,               67P    218
0.267072312065744,0,0.968647109702849,0.322265595967194,0,            67P    219
0.986653659747647,0.380050642937868,0,0.997563703584719,              67P    220
0.439584839418655,0,1,0.479861585553911,0,1,0.5,0,0,1,0,0,1;          67P    221
508,2,0,43,5,1,1,0,65,0,43,6,1,1,0,67;                                69P    222
126,28,3,1,0,1,0,0,0,0,0,0.0384615384615385,0.0769230769230769,       71P    223
0.115384615384615,0.153846153846154,0.192307692307692,                71P    224
0.230769230769231,0.269230769230769,0.307692307692308,                71P    225
0.346153846153846,0.384615384615385,0.423076923076923,                71P    226
0.461538461538461,0.5,0.538461538461538,0.576923076923077,            71P    227
0.615384615384615,0.653846153846154,0.692307692307692,                71P    228
0.73076923076923,0.769230769230769,0.807692307692307,                 71P    229
0.846153846153846,0.884615384615384,0.923076923076923,                71P    230
0.961538461538461,1,1,1,1,1,1,1,1,1,1,1,1,1,1,1,1,1,1,1,1,1,1,1,      71P    231
1,1,1,1,1,1,1,1,1,1,0.166666666666667,0.5,0,0.166666666666667,        71P    232
0.486574390369274,0,0.168290864276854,0.459723226279104,0,            71P    233
0.175564226834902,0.42003376195858,0,0.187568593531434,               71P    234
0.381510397311463,0,0.204128913668534,0.344714874710497,0,            71P    235
0.225003700488011,0.310183759759014,0,0.24988855259211,               71P    236
0.278420592791138,0,0.278420592801347,0.249888552594846,0,            71P    237
0.310183759720912,0.225003700487278,0,0.344714874852694,              71P    238
0.20412891366873,0,0.381510396780774,0.187568593531381,0,             71P    239
0.420033763939139,0.175564226834916,0,0.459723218887553,              71P    240
0.16829086427685,0,0.5,0.165854567861575,0,0.540276781112446,         71P    241
0.16829086427685,0,0.57996623606086,0.175564226834916,0,              71P    242
0.618489603219226,0.187568593531381,0,0.655285125147306,              71P    243
0.20412891366873,0,0.689816240279088,0.225003700487278,0,             71P    244
0.721579407198653,0.249888552594845,0,0.75011144740789,               71P    245
0.278420592791137,0,0.774996299511989,0.310183759759013,0,            71P    246
0.795871086331466,0.344714874710496,0,0.812431406468566,              71P    247
0.381510397311462,0,0.824435773165098,0.420033761958579,0,            71P    248
0.831709135723146,0.459723226279104,0,0.833333333333333,              71P    249
0.486574390369274,0,0.833333333333333,0.5,0,0,1,0,0,1;                71P    250
126,28,3,1,0,1,0,0,0,0,0,0.0384615384615385,0.0769230769230769,       73P    251
0.115384615384615,0.153846153846154,0.192307692307692,                73P    252
0.230769230769231,0.269230769230769,0.307692307692308,                73P    253
0.346153846153846,0.384615384615385,0.423076923076923,                73P    254
0.461538461538461,0.5,0.538461538461538,0.576923076923077,            73P    255
0.615384615384615,0.653846153846154,0.692307692307692,                73P    256
0.73076923076923,0.769230769230769,0.807692307692307,                 73P    257
0.846153846153846,0.884615384615384,0.923076923076923,                73P    258
0.961538461538461,1,1,1,1,1,1,1,1,1,1,1,1,1,1,1,1,1,1,1,1,1,1,1,      73P    259
1,1,1,1,1,1,1,1,1,1,0.833333333333333,0.5,0,0.833333333333333,        73P    260
0.513425609630726,0,0.831709135723146,0.540276773720896,0,            73P    261
0.824435773165098,0.579966238041421,0,0.812431406468566,              73P    262
0.618489602688537,0,0.795871086331466,0.655285125289503,0,            73P    263
0.774996299511989,0.689816240240986,0,0.75011144740789,               73P    264
0.721579407208862,0,0.721579407198653,0.750111447405154,0,            73P    265
0.689816240279088,0.774996299512722,0,0.655285125147306,              73P    266
0.79587108633127,0,0.618489603219226,0.812431406468619,0,             73P    267
0.579966236060861,0.824435773165084,0,0.540276781112446,              73P    268
0.83170913572315,0,0.5,0.834145432138425,0,0.459723218887554,         73P    269
0.83170913572315,0,0.42003376393914,0.824435773165084,0,              73P    270
0.381510396780774,0.812431406468619,0,0.344714874852695,              73P    271
0.79587108633127,0,0.310183759720912,0.774996299512722,0,             73P    272
0.278420592801347,0.750111447405155,0,0.24988855259211,               73P    273
0.721579407208863,0,0.225003700488011,0.689816240240987,0,            73P    274
0.204128913668534,0.655285125289504,0,0.187568593531434,              73P    275
0.618489602688537,0,0.175564226834902,0.579966238041421,0,            73P    276
0.168290864276854,0.540276773720897,0,0.166666666666667,              73P    277
0.513425609630726,0,0.166666666666667,0.5,0,0,1,0,0,1;                73P    278
508,2,0,43,7,0,1,0,71,0,43,8,0,1,0,73;                                75P    279
510,63,2,1,69,75;                                                     77P    280
110,0,0,0,0,1,6.12323399573677E-17;                                   79P    281
110,3.06161699786838E-16,3.06161699786838E-16,-5,                     81P    282
3.06161699786838E-16,5,-5;                                            81P    283
120,79,81,0,6.28318530717959;                                         83P    284
126,1,1,1,0,1,0,0,0,1,1,1,1,0,3.14159265358979,0,1,                   85P    285
3.14159265358979,0,0,1,0,0,1;                                         85P    286
126,1,1,1,0,1,0,0,0,1,1,1,1,0,0,0,0,3.14159265358979,0,0,1,0,0,       87P    287
1;                                                                    87P    288
126,1,1,1,0,1,0,0,0,1,1,1,1,0,0,0,1,0,0,0,1,0,0,1;                    89P    289
126,1,1,1,0,1,0,0,0,1,1,1,1,1,0,0,1,3.14159265358979,0,0,1,0,0,       91P    290
1;                                                                    91P    291
508,4,0,43,9,0,1,0,85,0,43,3,0,1,0,87,0,43,10,1,1,0,89,0,43,8,1,      93P    292
1,0,91;                                                               93P    293
510,83,1,1,93;                                                        95P    294
110,0,0,0,0,1,6.12323399573677E-17;                                   97P    295
110,-1.37772764904077E-15,-4.59242549680257E-16,7.5,                  99P    296
-1.37772764904077E-15,5,7.5;                                          99P    297
120,97,99,0,6.28318530717959;                                        101P    298
126,1,1,1,0,1,0,0,0,1,1,1,1,0,0,0,1,0,0,0,1,0,0,1;                   103P    299
126,1,1,1,0,1,0,0,0,1,1,1,1,0,0,0,0,3.14159265358979,0,0,1,0,0,      105P    300
1;                                                                   105P    301
126,1,1,1,0,1,0,0,0,1,1,1,1,0,3.14159265358979,0,1,                  107P    302
3.14159265358979,0,0,1,0,0,1;                                        107P    303
126,1,1,1,0,1,0,0,0,1,1,1,1,1,0,0,1,3.14159265358979,0,0,1,0,0,      109P    304
1;                                                                   109P    305
508,4,0,43,11,0,1,0,103,0,43,1,1,1,0,105,0,43,12,1,1,0,107,0,43,     111P    306
6,0,1,0,109;                                                         111P    307
510,101,1,1,111;                                                     113P    308
110,0,0,0,0,1,6.12323399573677E-17;                                  115P    309
110,-9.18485099360515E-16,-3.06161699786838E-16,5,                   117P    310
-9.18485099360515E-16,5,5;                                           117P    311
120,115,117,0,6.28318530717959;                                      119P    312
126,1,1,1,0,1,0,0,0,1,1,1,1,1,0,0,1,3.14159265358979,0,0,1,0,0,      121P    313
1;                                                                   121P    314
126,1,1,1,0,1,0,0,0,1,1,1,1,0,3.14159265358979,0,1,                  123P    315
3.14159265358979,0,0,1,0,0,1;                                        123P    316
126,1,1,1,0,1,0,0,0,1,1,1,1,0,0,0,0,3.14159265358979,0,0,1,0,0,      125P    317
1;                                                                   125P    318
126,1,1,1,0,1,0,0,0,1,1,1,1,0,0,0,1,0,0,0,1,0,0,1;                   127P    319
508,4,0,43,7,1,1,0,121,0,43,10,0,1,0,123,0,43,4,0,1,0,125,0,43,      129P    320
9,1,1,0,127;                                                         129P    321
510,119,1,1,129;                                                     131P    322
110,0,0,0,0,1,6.12323399573677E-17;                                  133P    323
110,4.59242549680257E-16,4.59242549680257E-16,-7.5,                  135P    324
4.59242549680257E-16,5,-7.5;                                         135P    325
120,133,135,0,6.28318530717959;                                      137P    326
126,1,1,1,0,1,0,0,0,1,1,1,1,1,0,0,1,3.14159265358979,0,0,1,0,0,      139P    327
1;                                                                   139P    328
126,1,1,1,0,1,0,0,0,1,1,1,1,0,0,0,1,0,0,0,1,0,0,1;                   141P    329
126,1,1,1,0,1,0,0,0,1,1,1,1,0,0,0,0,3.14159265358979,0,0,1,0,0,      143P    330
1;                                                                   143P    331
126,1,1,1,0,1,0,0,0,1,1,1,1,0,3.14159265358979,0,1,                  145P    332
3.14159265358979,0,0,1,0,0,1;                                        145P    333
508,4,0,43,5,0,1,0,139,0,43,12,0,1,0,141,0,43,2,1,1,0,143,0,43,      147P    334
11,1,1,0,145;                                                        147P    335
510,137,1,1,147;                                                     149P    336
514,6,61,0,77,1,95,1,113,0,131,1,149,0;                              151P    337
186,151,1,0;                                                         153P    338
S      2G      3D    154P    338                                        T      1
