IGES file generated by C3D Converter 1.8                                S      1
translator by C3D Labs., translator version IGESOUT-5.1.                S      2
1H,,1H;,7H Деталь,38HE:\Сдача задания\Модели\IGES\Зажим.igs,0H,3H1.0,32,G      1
38,6,308,15,7Hunknown,1,2,2HMM,1000,1,16H-17740206:063739,1E-6,50000,4HuG      2
ser,7Hunknown,0,0,13H260306:063740;                                     G      3
     502       1       0       0       0       0       0       000010000D      1
     502       0       0       6       1                               0D      2
     110       7       0       0       0       0       0       000010000D      3
     110       1       0       2       0                               0D      4
     124       9       0       0       0       0       0       001020201D      5
     124       1       0       3       0                               0D      6
     100      12       0       0       0       0       5       000010000D      7
     100       1       0       1       0                               0D      8
     110      13       0       0       0       0       0       000010000D      9
     110       1       0       2       0                               0D     10
     124      15       0       0       0       0       0       001020201D     11
     124       1       0       3       0                               0D     12
     100      18       0       0       0       0      11       000010000D     13
     100       1       0       1       0                               0D     14
     124      19       0       0       0       0       0       001020201D     15
     124       1       0       3       0                               0D     16
     100      22       0       0       0       0      15       000010000D     17
     100       1       0       1       0                               0D     18
     124      23       0       0       0       0       0       001020201D     19
     124       1       0       3       0                               0D     20
     100      26       0       0       0       0      19       000010000D     21
     100       1       0       1       0                               0D     22
     124      27       0       0       0       0       0       001020201D     23
     124       1       0       3       0                               0D     24
     100      30       0       0       0       0      23       000010000D     25
     100       1       0       1       0                               0D     26
     124      31       0       0       0       0       0       001020201D     27
     124       1       0       3       0                               0D     28
     100      34       0       0       0       0      27       000010000D     29
     100       1       0       1       0                               0D     30
     110      35       0       0       0       0       0       000010000D     31
     110       1       0       2       0                               0D     32
     124      37       0       0       0       0       0       001020201D     33
     124       1       0       3       0                               0D     34
     100      40       0       0       0       0      33       000010000D     35
     100       1       0       1       0                               0D     36
     110      41       0       0       0       0       0       000010000D     37
     110       1       0       2       0                               0D     38
     124      43       0       0       0       0       0       001020201D     39
     124       1       0       3       0                               0D     40
     100      46       0       0       0       0      39       000010000D     41
     100       1       0       1       0                               0D     42
     504      47       0       0       0       0       0       000010000D     43
     504       1       0       3       1                               0D     44
     110      50       0       0       0       0       0       001010000D     45
     110       1       0       1       0                               0D     46
     110      51       0       0       0       0       0       001010001D     47
     110       1       0       2       0                               0D     48
     120      53       0       0       0       0       0       000010000D     49
     120       1       0       1       0                               0D     50
     126      54       0       0       0       0       0       001010500D     51
     126       1       0       1       0                               0D     52
     126      55       0       0       0       0       0       001010500D     53
     126       1       0       2       0                               0D     54
     126      57       0       0       0       0       0       001010500D     55
     126       1       0       2       0                               0D     56
     126      59       0       0       0       0       0       001010500D     57
     126       1       0       2       0                               0D     58
     508      61       0       0       0       0       0       000010000D     59
     508       1       0       2       1                               0D     60
     314      63       0       0       0       0       0       001000200D     61
     314       1       0       1       0                               0D     62
     510      64       0       0       0       0       0       000010000D     63
     510       1     -61       1       1                               0D     64
     128      65       0       0       0       0       0       000010000D     65
     128       1       0       2       0                               0D     66
     126      67       0       0       0       0       0       001010500D     67
     126       1       0      27       0                               0D     68
     126      94       0       0       0       0       0       001010500D     69
     126       1       0      27       0                               0D     70
     508     121       0       0       0       0       0       000010000D     71
     508       1       0       1       1                               0D     72
     126     122       0       0       0       0       0       001010500D     73
     126       1       0      28       0                               0D     74
     126     150       0       0       0       0       0       001010500D     75
     126       1       0      28       0                               0D     76
     508     178       0       0       0       0       0       000010000D     77
     508       1       0       1       1                               0D     78
     510     179       0       0       0       0       0       000010000D     79
     510       1     -61       1       1                               0D     80
     128     180       0       0       0       0       0       000010000D     81
     128       1       0       2       0                               0D     82
     126     182       0       0       0       0       0       001010500D     83
     126       1       0      27       0                               0D     84
     126     209       0       0       0       0       0       001010500D     85
     126       1       0      27       0                               0D     86
     508     236       0       0       0       0       0       000010000D     87
     508       1       0       1       1                               0D     88
     510     237       0       0       0       0       0       000010000D     89
     510       1     -61       1       1                               0D     90
     110     238       0       0       0       0       0       001010000D     91
     110       1       0       1       0                               0D     92
     110     239       0       0       0       0       0       001010001D     93
     110       1       0       2       0                               0D     94
     120     241       0       0       0       0       0       000010000D     95
     120       1       0       1       0                               0D     96
     126     242       0       0       0       0       0       001010500D     97
     126       1       0       2       0                               0D     98
     126     244       0       0       0       0       0       001010500D     99
     126       1       0       2       0                               0D    100
     126     246       0       0       0       0       0       001010500D    101
     126       1       0       2       0                               0D    102
     126     248       0       0       0       0       0       001010500D    103
     126       1       0       1       0                               0D    104
     508     249       0       0       0       0       0       000010000D    105
     508       1       0       2       1                               0D    106
     510     251       0       0       0       0       0       000010000D    107
     510       1     -61       1       1                               0D    108
     128     252       0       0       0       0       0       000010000D    109
     128       1       0       2       0                               0D    110
     126     254       0       0       0       0       0       001010500D    111
     126       1       0      27       0                               0D    112
     126     281       0       0       0       0       0       001010500D    113
     126       1       0      27       0                               0D    114
     508     308       0       0       0       0       0       000010000D    115
     508       1       0       1       1                               0D    116
     510     309       0       0       0       0       0       000010000D    117
     510       1     -61       1       1                               0D    118
     110     310       0       0       0       0       0       001010000D    119
     110       1       0       1       0                               0D    120
     110     311       0       0       0       0       0       001010001D    121
     110       1       0       2       0                               0D    122
     120     313       0       0       0       0       0       000010000D    123
     120       1       0       1       0                               0D    124
     126     314       0       0       0       0       0       001010500D    125
     126       1       0       2       0                               0D    126
     126     316       0       0       0       0       0       001010500D    127
     126       1       0       1       0                               0D    128
     126     317       0       0       0       0       0       001010500D    129
     126       1       0       2       0                               0D    130
     126     319       0       0       0       0       0       001010500D    131
     126       1       0       2       0                               0D    132
     508     321       0       0       0       0       0       000010000D    133
     508       1       0       2       1                               0D    134
     510     323       0       0       0       0       0       000010000D    135
     510       1     -61       1       1                               0D    136
     110     324       0       0       0       0       0       001010000D    137
     110       1       0       1       0                               0D    138
     110     325       0       0       0       0       0       001010001D    139
     110       1       0       2       0                               0D    140
     120     327       0       0       0       0       0       000010000D    141
     120       1       0       1       0                               0D    142
     126     328       0       0       0       0       0       001010500D    143
     126       1       0       2       0                               0D    144
     126     330       0       0       0       0       0       001010500D    145
     126       1       0       2       0                               0D    146
     126     332       0       0       0       0       0       001010500D    147
     126       1       0       1       0                               0D    148
     126     333       0       0       0       0       0       001010500D    149
     126       1       0       2       0                               0D    150
     508     335       0       0       0       0       0       000010000D    151
     508       1       0       2       1                               0D    152
     510     337       0       0       0       0       0       000010000D    153
     510       1     -61       1       1                               0D    154
     514     338       0       0       0       0       0       000010000D    155
     514       1       0       1       1                               0D    156
     186     339       0       0       0       0       0       000010000D    157
     186       1       0       1       0                               0D    158
502,8,-4.59242549680257E-15,-1.53080849893419E-15,25,                  1P      1
-4.59242549680257E-15,250,25,4.59242549680257E-15,                     1P      2
1.53080849893419E-15,-25,4.59242549680257E-15,250,-25,                 1P      3
-5.51091059616309E-15,1.83697019872103E-15,-30,                        1P      4
5.51091059616309E-15,-1.83697019872103E-15,30,                         1P      5
-5.51091059616309E-15,-5,-30,5.51091059616309E-15,-5,30;               1P      6
110,-4.59242549680257E-15,-1.53080849893419E-15,25,                    3P      7
-4.59242549680257E-15,250,25;                                          3P      8
124,-1.83697019872103E-16,1,0,0,-6.12323399573677E-17,                 5P      9
-1.12481983699639E-32,1,0,1,1.83697019872103E-16,                      5P     10
6.12323399573677E-17,0;                                                5P     11
100,0,0,0,25,0,-25,3.06161699786838E-15;                               7P     12
110,7.65404249467096E-15,1.53080849893419E-15,-25,                     9P     13
7.65404249467096E-15,250,-25;                                          9P     14
124,-1.83697019872103E-16,1,0,0,-6.12323399573677E-17,                11P     15
-1.12481983699639E-32,1,250,1,1.83697019872103E-16,                   11P     16
6.12323399573677E-17,1.53080849893419E-14;                            11P     17
100,0,0,0,25,0,-25,3.06161699786838E-15;                              13P     18
124,-1.83697019872103E-16,1,0,0,6.12323399573677E-17,                 15P     19
1.12481983699639E-32,-1,0,-1,-1.83697019872103E-16,                   15P     20
-6.12323399573677E-17,0;                                              15P     21
100,0,0,0,30,0,-30,3.67394039744206E-15;                              17P     22
124,6.12323399573677E-17,-1,0,0,-6.12323399573677E-17,                19P     23
-3.74939945665464E-33,-1,0,1,6.12323399573677E-17,                    19P     24
-6.12323399573677E-17,0;                                              19P     25
100,0,0,0,30,0,-30,3.67394039744206E-15;                              21P     26
124,6.12323399573677E-17,-1,0,0,6.12323399573677E-17,                 23P     27
3.74939945665464E-33,1,0,-1,-6.12323399573677E-17,                    23P     28
6.12323399573677E-17,0;                                               23P     29
100,0,0,0,25,0,-25,3.06161699786838E-15;                              25P     30
124,6.12323399573677E-17,-1,0,0,6.12323399573677E-17,                 27P     31
3.74939945665464E-33,1,250,-1,-6.12323399573677E-17,                  27P     32
6.12323399573677E-17,1.53080849893419E-14;                            27P     33
100,0,0,0,25,0,-25,3.06161699786838E-15;                              29P     34
110,-5.51091059616309E-15,1.83697019872103E-15,-30,                   31P     35
-5.51091059616309E-15,-5,-30;                                         31P     36
124,6.12323399573677E-17,-1,0,0,-6.12323399573677E-17,                33P     37
-3.74939945665464E-33,-1,-5,1,6.12323399573677E-17,                   33P     38
-6.12323399573677E-17,-3.06161699786838E-16;                          33P     39
100,0,0,0,30,0,-30,3.67394039744206E-15;                              35P     40
110,9.18485099360515E-15,-1.83697019872103E-15,30,                    37P     41
9.18485099360515E-15,-5,30;                                           37P     42
124,-1.83697019872103E-16,1,0,0,6.12323399573677E-17,                 39P     43
1.12481983699639E-32,-1,-5,-1,-1.83697019872103E-16,                  39P     44
-6.12323399573677E-17,-3.06161699786838E-16;                          39P     45
100,0,0,0,30,0,-30,3.67394039744206E-15;                              41P     46
504,12,3,1,1,1,2,7,1,1,1,3,9,1,3,1,4,13,1,2,1,4,17,1,5,1,6,21,1,      43P     47
6,1,5,25,1,3,1,1,29,1,4,1,2,31,1,5,1,7,35,1,8,1,7,37,1,6,1,8,41,      43P     48
1,7,1,8;                                                              43P     49
110,0,0,0,0,1,6.12323399573677E-17;                                   45P     50
110,-4.59242549680257E-15,-1.53080849893419E-15,25,                   47P     51
-4.59242549680257E-15,250,25;                                         47P     52
120,45,47,0,6.28318530717959;                                         49P     53
126,1,1,1,0,1,0,0,0,1,1,1,1,0,0,0,1,0,0,0,1,0,0,1;                    51P     54
126,1,1,1,0,1,0,0,0,1,1,1,1,0,0,0,0,3.14159265358979,0,0,1,0,0,       53P     55
1;                                                                    53P     56
126,1,1,1,0,1,0,0,0,1,1,1,1,0,3.14159265358979,0,1,                   55P     57
3.14159265358979,0,0,1,0,0,1;                                         55P     58
126,1,1,1,0,1,0,0,0,1,1,1,1,1,0,0,1,3.14159265358979,0,0,1,0,0,       57P     59
1;                                                                    57P     60
508,4,0,43,1,0,1,0,51,0,43,2,1,1,0,53,0,43,3,1,1,0,55,0,43,4,0,       59P     61
1,0,57;                                                               59P     62
314,56.4705882352941,56.4705882352941,56.4705882352941,1H ;           61P     63
510,49,1,1,59;                                                        63P     64
128,1,1,1,1,0,0,1,0,0,0,0,1,1,0,0,1,1,1,1,1,1,30,0,-30,30,0,30,       65P     65
-30,0,-30,-30,0,30,0,1,0,1;                                           65P     66
126,28,3,1,0,1,0,0,0,0,0,0.0384615384615385,0.0769230769230769,       67P     67
0.115384615384615,0.153846153846154,0.192307692307692,                67P     68
0.230769230769231,0.269230769230769,0.307692307692308,                67P     69
0.346153846153846,0.384615384615385,0.423076923076923,                67P     70
0.461538461538461,0.5,0.538461538461538,0.576923076923077,            67P     71
0.615384615384615,0.653846153846154,0.692307692307692,                67P     72
0.73076923076923,0.769230769230769,0.807692307692307,                 67P     73
0.846153846153846,0.884615384615384,0.923076923076923,                67P     74
0.961538461538461,1,1,1,1,1,1,1,1,1,1,1,1,1,1,1,1,1,1,1,1,1,1,1,      67P     75
1,1,1,1,1,1,1,1,1,1,0,0.5,0,0,0.479861585553912,0,                    67P     76
0.00243629641528159,0.439584839418656,0,0.0133463402523529,           67P     77
0.380050642937869,0,0.0313528902971504,0.322265595967195,0,           67P     78
0.0561933705028009,0.267072312065745,0,0.0875055507320162,            67P     79
0.21527563963852,0,0.124832828888165,0.167630889186707,0,             67P     80
0.16763088920202,0.124832828892269,0,0.215275639581368,               67P     81
0.0875055507309168,0,0.267072312279042,0.0561933705030954,0,          67P     82
0.322265595171161,0.0313528902970714,0,0.380050645908708,             67P     83
0.0133463402523745,0,0.43958482833133,0.00243629641527532,0,0.5,      67P     84
-0.00121814820763755,0,0.560415171668669,0.00243629641527532,0,       67P     85
0.61994935409129,0.0133463402523741,0,0.677734404828839,              67P     86
0.0313528902970712,0,0.732927687720958,0.0561933705030954,0,          67P     87
0.784724360418632,0.0875055507309164,0,0.832369110797979,             67P     88
0.124832828892268,0,0.875167171111834,0.167630889186706,0,            67P     89
0.912494449267984,0.21527563963852,0,0.943806629497199,               67P     90
0.267072312065744,0,0.968647109702849,0.322265595967194,0,            67P     91
0.986653659747647,0.380050642937868,0,0.997563703584719,              67P     92
0.439584839418655,0,1,0.479861585553911,0,1,0.5,0,0,1,0,0,1;          67P     93
126,28,3,1,0,1,0,0,0,0,0,0.0384615384615385,0.0769230769230769,       69P     94
0.115384615384615,0.153846153846154,0.192307692307692,                69P     95
0.230769230769231,0.269230769230769,0.307692307692308,                69P     96
0.346153846153846,0.384615384615385,0.423076923076923,                69P     97
0.461538461538461,0.5,0.538461538461538,0.576923076923077,            69P     98
0.615384615384615,0.653846153846154,0.692307692307692,                69P     99
0.73076923076923,0.769230769230769,0.807692307692307,                 69P    100
0.846153846153846,0.884615384615384,0.923076923076923,                69P    101
0.961538461538461,1,1,1,1,1,1,1,1,1,1,1,1,1,1,1,1,1,1,1,1,1,1,1,      69P    102
1,1,1,1,1,1,1,1,1,1,1,0.5,0,1,0.520138414446088,0,                    69P    103
0.997563703584719,0.560415160581344,0,0.986653659747647,              69P    104
0.619949357062131,0,0.968647109702849,0.677734404032805,0,            69P    105
0.943806629497199,0.732927687934255,0,0.912494449267984,              69P    106
0.78472436036148,0,0.875167171111835,0.832369110813293,0,             69P    107
0.83236911079798,0.875167171107732,0,0.784724360418632,               69P    108
0.912494449269083,0,0.732927687720959,0.943806629496904,0,            69P    109
0.677734404828839,0.968647109702929,0,0.619949354091291,              69P    110
0.986653659747626,0,0.56041517166867,0.997563703584725,0,0.5,         69P    111
1.00121814820764,0,0.439584828331331,0.997563703584725,0,             69P    112
0.380050645908709,0.986653659747626,0,0.322265595171161,              69P    113
0.968647109702929,0,0.267072312279042,0.943806629496905,0,            69P    114
0.215275639581368,0.912494449269084,0,0.167630889202021,              69P    115
0.875167171107732,0,0.124832828888165,0.832369110813294,0,            69P    116
0.0875055507320166,0.78472436036148,0,0.0561933705028012,             69P    117
0.732927687934256,0,0.0313528902971507,0.677734404032806,0,           69P    118
0.0133463402523532,0.619949357062132,0,0.00243629641528148,           69P    119
0.560415160581345,0,0,0.520138414446089,0,0,0.5,0,0,1,0,0,1;          69P    120
508,2,0,43,5,0,1,0,67,0,43,6,0,1,0,69;                                71P    121
126,28,3,1,0,1,0,0,0,0,0,0.0384615384615385,0.0769230769230769,       73P    122
0.115384615384615,0.153846153846154,0.192307692307692,                73P    123
0.230769230769231,0.269230769230769,0.307692307692308,                73P    124
0.346153846153846,0.384615384615385,0.423076923076923,                73P    125
0.461538461538461,0.5,0.538461538461538,0.576923076923077,            73P    126
0.615384615384615,0.653846153846154,0.692307692307692,                73P    127
0.73076923076923,0.769230769230769,0.807692307692307,                 73P    128
0.846153846153846,0.884615384615384,0.923076923076923,                73P    129
0.961538461538461,1,1,1,1,1,1,1,1,1,1,1,1,1,1,1,1,1,1,1,1,1,1,1,      73P    130
1,1,1,1,1,1,1,1,1,1,0.916666666666667,0.5,0,0.916666666666667,        73P    131
0.483217987961593,0,0.914636419653932,0.44965403284888,0,             73P    132
0.905544716456373,0.400042202448225,0,0.890539258085708,              73P    133
0.351887996639329,0,0.869838857914332,0.305893593388121,0,            73P    134
0.843745374389987,0.262729699698767,0,0.812639309259863,              73P    135
0.223025740988922,0,0.776974258998316,0.187360690743557,0,            73P    136
0.73727030034886,0.156254625609097,0,0.694106406434132,               73P    137
0.130161142085913,0,0.648112004024033,0.109460741914226,0,            73P    138
0.599957795076076,0.0944552835436454,0,0.550345976390558,             73P    139
0.0853635803460627,0,0.5,0.0823182098269686,0,0.449654023609442,      73P    140
0.0853635803460627,0,0.400042204923925,0.0944552835436452,0,          73P    141
0.351887995975968,0.109460741914226,0,0.305893593565868,              73P    142
0.130161142085913,0,0.26272969965114,0.156254625609097,0,             73P    143
0.223025741001684,0.187360690743556,0,0.187360690740138,              73P    144
0.223025740988922,0,0.156254625610014,0.262729699698767,0,            73P    145
0.130161142085668,0.30589359338812,0,0.109460741914292,               73P    146
0.351887996639328,0,0.0944552835436277,0.400042202448223,0,           73P    147
0.0853635803460678,0.449654032848879,0,0.0833333333333333,            73P    148
0.483217987961593,0,0.0833333333333333,0.5,0,0,1,0,0,1;               73P    149
126,28,3,1,0,1,0,0,0,0,0,0.0384615384615385,0.0769230769230769,       75P    150
0.115384615384615,0.153846153846154,0.192307692307692,                75P    151
0.230769230769231,0.269230769230769,0.307692307692308,                75P    152
0.346153846153846,0.384615384615385,0.423076923076923,                75P    153
0.461538461538461,0.5,0.538461538461538,0.576923076923077,            75P    154
0.615384615384615,0.653846153846154,0.692307692307692,                75P    155
0.73076923076923,0.769230769230769,0.807692307692307,                 75P    156
0.846153846153846,0.884615384615384,0.923076923076923,                75P    157
0.961538461538461,1,1,1,1,1,1,1,1,1,1,1,1,1,1,1,1,1,1,1,1,1,1,1,      75P    158
1,1,1,1,1,1,1,1,1,1,0.0833333333333333,0.5,0,0.0833333333333333,      75P    159
0.516782012038407,0,0.0853635803460679,0.55034596715112,0,            75P    160
0.0944552835436275,0.599957797551776,0,0.109460741914292,             75P    161
0.648112003360671,0,0.130161142085668,0.694106406611879,0,            75P    162
0.156254625610013,0.737270300301233,0,0.187360690740138,              75P    163
0.776974259011078,0,0.223025741001684,0.812639309256443,0,            75P    164
0.26272969965114,0.843745374390903,0,0.305893593565868,               75P    165
0.869838857914087,0,0.351887995975967,0.890539258085774,0,            75P    166
0.400042204923924,0.905544716456355,0,0.449654023609442,              75P    167
0.914636419653937,0,0.5,0.917681790173031,0,0.550345976390558,        75P    168
0.914636419653937,0,0.599957795076076,0.905544716456355,0,            75P    169
0.648112004024032,0.890539258085774,0,0.694106406434132,              75P    170
0.869838857914087,0,0.73727030034886,0.843745374390903,0,             75P    171
0.776974258998316,0.812639309256443,0,0.812639309259862,              75P    172
0.776974259011078,0,0.843745374389986,0.737270300301233,0,            75P    173
0.869838857914332,0.69410640661188,0,0.890539258085708,               75P    174
0.648112003360672,0,0.905544716456372,0.599957797551776,0,            75P    175
0.914636419653932,0.550345967151121,0,0.916666666666667,              75P    176
0.516782012038407,0,0.916666666666667,0.5,0,0,1,0,0,1;                75P    177
508,2,0,43,2,0,1,0,73,0,43,7,0,1,0,75;                                77P    178
510,65,2,1,71,77;                                                     79P    179
128,1,1,1,1,0,0,1,0,0,0,0,1,1,0,0,1,1,1,1,1,1,25,250,25,25,250,       81P    180
-25,-25,250,25,-25,250,-25,0,1,0,1;                                   81P    181
126,28,3,1,0,1,0,0,0,0,0,0.0384615384615385,0.0769230769230769,       83P    182
0.115384615384615,0.153846153846154,0.192307692307692,                83P    183
0.230769230769231,0.269230769230769,0.307692307692308,                83P    184
0.346153846153846,0.384615384615385,0.423076923076923,                83P    185
0.461538461538461,0.5,0.538461538461538,0.576923076923077,            83P    186
0.615384615384615,0.653846153846154,0.692307692307692,                83P    187
0.73076923076923,0.769230769230769,0.807692307692307,                 83P    188
0.846153846153846,0.884615384615384,0.923076923076923,                83P    189
0.961538461538461,1,1,1,1,1,1,1,1,1,1,1,1,1,1,1,1,1,1,1,1,1,1,1,      83P    190
1,1,1,1,1,1,1,1,1,1,1,0.5,0,1,0.520138414446088,0,                    83P    191
0.997563703584719,0.560415160581344,0,0.986653659747647,              83P    192
0.619949357062131,0,0.968647109702849,0.677734404032805,0,            83P    193
0.943806629497199,0.732927687934255,0,0.912494449267984,              83P    194
0.78472436036148,0,0.875167171111835,0.832369110813293,0,             83P    195
0.83236911079798,0.875167171107732,0,0.784724360418632,               83P    196
0.912494449269083,0,0.732927687720959,0.943806629496904,0,            83P    197
0.677734404828839,0.968647109702929,0,0.619949354091291,              83P    198
0.986653659747626,0,0.56041517166867,0.997563703584725,0,0.5,         83P    199
1.00121814820764,0,0.439584828331331,0.997563703584725,0,             83P    200
0.380050645908709,0.986653659747626,0,0.322265595171161,              83P    201
0.968647109702929,0,0.267072312279042,0.943806629496905,0,            83P    202
0.215275639581368,0.912494449269084,0,0.167630889202021,              83P    203
0.875167171107732,0,0.124832828888165,0.832369110813294,0,            83P    204
0.0875055507320165,0.78472436036148,0,0.0561933705028013,             83P    205
0.732927687934256,0,0.0313528902971505,0.677734404032806,0,           83P    206
0.0133463402523532,0.619949357062132,0,0.00243629641528148,           83P    207
0.560415160581345,0,0,0.520138414446089,0,0,0.5,0,0,1,0,0,1;          83P    208
126,28,3,1,0,1,0,0,0,0,0,0.0384615384615385,0.0769230769230769,       85P    209
0.115384615384615,0.153846153846154,0.192307692307692,                85P    210
0.230769230769231,0.269230769230769,0.307692307692308,                85P    211
0.346153846153846,0.384615384615385,0.423076923076923,                85P    212
0.461538461538461,0.5,0.538461538461538,0.576923076923077,            85P    213
0.615384615384615,0.653846153846154,0.692307692307692,                85P    214
0.73076923076923,0.769230769230769,0.807692307692307,                 85P    215
0.846153846153846,0.884615384615384,0.923076923076923,                85P    216
0.961538461538461,1,1,1,1,1,1,1,1,1,1,1,1,1,1,1,1,1,1,1,1,1,1,1,      85P    217
1,1,1,1,1,1,1,1,1,1,0,0.5,0,0,0.479861585553912,0,                    85P    218
0.00243629641528142,0.439584839418656,0,0.0133463402523529,           85P    219
0.380050642937869,0,0.0313528902971504,0.322265595967195,0,           85P    220
0.056193370502801,0.267072312065745,0,0.0875055507320161,             85P    221
0.21527563963852,0,0.124832828888165,0.167630889186707,0,             85P    222
0.16763088920202,0.124832828892269,0,0.215275639581368,               85P    223
0.0875055507309168,0,0.267072312279042,0.0561933705030955,0,          85P    224
0.322265595171161,0.0313528902970714,0,0.380050645908708,             85P    225
0.0133463402523745,0,0.43958482833133,0.00243629641527526,0,0.5,      85P    226
-0.00121814820763766,0,0.560415171668669,0.00243629641527521,0,       85P    227
0.61994935409129,0.0133463402523742,0,0.677734404828839,              85P    228
0.0313528902970711,0,0.732927687720958,0.0561933705030954,0,          85P    229
0.784724360418632,0.0875055507309164,0,0.832369110797979,             85P    230
0.124832828892268,0,0.875167171111834,0.167630889186706,0,            85P    231
0.912494449267984,0.21527563963852,0,0.943806629497199,               85P    232
0.267072312065744,0,0.968647109702849,0.322265595967194,0,            85P    233
0.986653659747647,0.380050642937868,0,0.997563703584719,              85P    234
0.439584839418655,0,1,0.479861585553911,0,1,0.5,0,0,1,0,0,1;          85P    235
508,2,0,43,8,1,1,0,83,0,43,4,1,1,0,85;                                87P    236
510,81,1,1,87;                                                        89P    237
110,0,0,0,0,-1,-6.12323399573677E-17;                                 91P    238
110,1.83697019872103E-15,-1.83697019872103E-15,30,                    93P    239
1.83697019872103E-15,-5,30;                                           93P    240
120,91,93,0,6.28318530717959;                                         95P    241
126,1,1,1,0,1,0,0,0,1,1,1,1,0,0,0,0,3.14159265358979,0,0,1,0,0,       97P    242
1;                                                                    97P    243
126,1,1,1,0,1,0,0,0,1,1,1,1,0,3.14159265358979,0,1,                   99P    244
3.14159265358979,0,0,1,0,0,1;                                         99P    245
126,1,1,1,0,1,0,0,0,1,1,1,1,1,0,0,1,3.14159265358979,0,0,1,0,0,      101P    246
1;                                                                   101P    247
126,1,1,1,0,1,0,0,0,1,1,1,1,0,0,0,1,0,0,0,1,0,0,1;                   103P    248
508,4,0,43,6,1,1,0,97,0,43,9,1,1,0,99,0,43,10,0,1,0,101,0,43,11,     105P    249
0,1,0,103;                                                           105P    250
510,95,1,1,105;                                                      107P    251
128,1,1,1,1,0,0,1,0,0,0,0,1,1,0,0,1,1,1,1,1,1,30,-5,-30,30,-5,       109P    252
30,-30,-5,-30,-30,-5,30,0,1,0,1;                                     109P    253
126,28,3,1,0,1,0,0,0,0,0,0.0384615384615385,0.0769230769230769,      111P    254
0.115384615384615,0.153846153846154,0.192307692307692,               111P    255
0.230769230769231,0.269230769230769,0.307692307692308,               111P    256
0.346153846153846,0.384615384615385,0.423076923076923,               111P    257
0.461538461538461,0.5,0.538461538461538,0.576923076923077,           111P    258
0.615384615384615,0.653846153846154,0.692307692307692,               111P    259
0.73076923076923,0.769230769230769,0.807692307692307,                111P    260
0.846153846153846,0.884615384615384,0.923076923076923,               111P    261
0.961538461538461,1,1,1,1,1,1,1,1,1,1,1,1,1,1,1,1,1,1,1,1,1,1,1,     111P    262
1,1,1,1,1,1,1,1,1,1,1,0.5,0,1,0.520138414446088,0,                   111P    263
0.997563703584719,0.560415160581344,0,0.986653659747647,             111P    264
0.619949357062131,0,0.968647109702849,0.677734404032805,0,           111P    265
0.943806629497199,0.732927687934255,0,0.912494449267984,             111P    266
0.78472436036148,0,0.875167171111835,0.832369110813293,0,            111P    267
0.83236911079798,0.875167171107732,0,0.784724360418632,              111P    268
0.912494449269083,0,0.732927687720959,0.943806629496904,0,           111P    269
0.677734404828839,0.968647109702929,0,0.619949354091291,             111P    270
0.986653659747626,0,0.56041517166867,0.997563703584725,0,0.5,        111P    271
1.00121814820764,0,0.439584828331331,0.997563703584725,0,            111P    272
0.380050645908709,0.986653659747626,0,0.322265595171161,             111P    273
0.968647109702929,0,0.267072312279042,0.943806629496905,0,           111P    274
0.215275639581368,0.912494449269084,0,0.167630889202021,             111P    275
0.875167171107732,0,0.124832828888165,0.832369110813294,0,           111P    276
0.0875055507320166,0.78472436036148,0,0.0561933705028012,            111P    277
0.732927687934256,0,0.0313528902971507,0.677734404032806,0,          111P    278
0.0133463402523532,0.619949357062132,0,0.00243629641528148,          111P    279
0.560415160581345,0,0,0.520138414446089,0,0,0.5,0,0,1,0,0,1;         111P    280
126,28,3,1,0,1,0,0,0,0,0,0.0384615384615385,0.0769230769230769,      113P    281
0.115384615384615,0.153846153846154,0.192307692307692,               113P    282
0.230769230769231,0.269230769230769,0.307692307692308,               113P    283
0.346153846153846,0.384615384615385,0.423076923076923,               113P    284
0.461538461538461,0.5,0.538461538461538,0.576923076923077,           113P    285
0.615384615384615,0.653846153846154,0.692307692307692,               113P    286
0.73076923076923,0.769230769230769,0.807692307692307,                113P    287
0.846153846153846,0.884615384615384,0.923076923076923,               113P    288
0.961538461538461,1,1,1,1,1,1,1,1,1,1,1,1,1,1,1,1,1,1,1,1,1,1,1,     113P    289
1,1,1,1,1,1,1,1,1,1,0,0.5,0,0,0.479861585553912,0,                   113P    290
0.00243629641528159,0.439584839418656,0,0.0133463402523529,          113P    291
0.380050642937869,0,0.0313528902971504,0.322265595967195,0,          113P    292
0.0561933705028009,0.267072312065745,0,0.0875055507320162,           113P    293
0.21527563963852,0,0.124832828888165,0.167630889186707,0,            113P    294
0.16763088920202,0.124832828892269,0,0.215275639581368,              113P    295
0.0875055507309168,0,0.267072312279042,0.0561933705030954,0,         113P    296
0.322265595171161,0.0313528902970714,0,0.380050645908708,            113P    297
0.0133463402523745,0,0.43958482833133,0.00243629641527532,0,0.5,     113P    298
-0.00121814820763755,0,0.560415171668669,0.00243629641527532,0,      113P    299
0.61994935409129,0.0133463402523741,0,0.677734404828839,             113P    300
0.0313528902970712,0,0.732927687720958,0.0561933705030954,0,         113P    301
0.784724360418632,0.0875055507309164,0,0.832369110797979,            113P    302
0.124832828892268,0,0.875167171111834,0.167630889186706,0,           113P    303
0.912494449267984,0.21527563963852,0,0.943806629497199,              113P    304
0.267072312065744,0,0.968647109702849,0.322265595967194,0,           113P    305
0.986653659747647,0.380050642937868,0,0.997563703584719,             113P    306
0.439584839418655,0,1,0.479861585553911,0,1,0.5,0,0,1,0,0,1;         113P    307
508,2,0,43,10,1,1,0,111,0,43,12,1,1,0,113;                           115P    308
510,109,1,1,115;                                                     117P    309
110,0,0,0,0,1,6.12323399573677E-17;                                  119P    310
110,1.53080849893419E-15,1.53080849893419E-15,-25,                   121P    311
1.53080849893419E-15,250,-25;                                        121P    312
120,119,121,0,6.28318530717959;                                      123P    313
126,1,1,1,0,1,0,0,0,1,1,1,1,1,0,0,1,3.14159265358979,0,0,1,0,0,      125P    314
1;                                                                   125P    315
126,1,1,1,0,1,0,0,0,1,1,1,1,0,0,0,1,0,0,0,1,0,0,1;                   127P    316
126,1,1,1,0,1,0,0,0,1,1,1,1,0,0,0,0,3.14159265358979,0,0,1,0,0,      129P    317
1;                                                                   129P    318
126,1,1,1,0,1,0,0,0,1,1,1,1,0,3.14159265358979,0,1,                  131P    319
3.14159265358979,0,0,1,0,0,1;                                        131P    320
508,4,0,43,8,0,1,0,125,0,43,3,0,1,0,127,0,43,7,1,1,0,129,0,43,1,     133P    321
1,1,0,131;                                                           133P    322
510,123,1,1,133;                                                     135P    323
110,0,0,0,0,-1,-6.12323399573677E-17;                                137P    324
110,-5.51091059616309E-15,1.83697019872103E-15,-30,                  139P    325
-5.51091059616309E-15,-5,-30;                                        139P    326
120,137,139,0,6.28318530717959;                                      141P    327
126,1,1,1,0,1,0,0,0,1,1,1,1,0,3.14159265358979,0,1,                  143P    328
3.14159265358979,0,0,1,0,0,1;                                        143P    329
126,1,1,1,0,1,0,0,0,1,1,1,1,1,0,0,1,3.14159265358979,0,0,1,0,0,      145P    330
1;                                                                   145P    331
126,1,1,1,0,1,0,0,0,1,1,1,1,0,0,0,1,0,0,0,1,0,0,1;                   147P    332
126,1,1,1,0,1,0,0,0,1,1,1,1,0,0,0,0,3.14159265358979,0,0,1,0,0,      149P    333
1;                                                                   149P    334
508,4,0,43,11,1,1,0,143,0,43,12,0,1,0,145,0,43,9,0,1,0,147,0,43,     151P    335
5,1,1,0,149;                                                         151P    336
510,141,1,1,151;                                                     153P    337
514,7,63,0,79,0,89,1,107,0,117,1,135,0,153,0;                        155P    338
186,155,1,0;                                                         157P    339
S      2G      3D    158P    339                                        T      1
