IGES file generated by C3D Converter 1.8                                S      1
translator by C3D Labs., translator version IGESOUT-5.1.                S      2
1H,,1H;,7H Деталь,50HE:\Сдача задания\Модели\IGES\Козырёк анти блик.igs,G      1
0H,3H1.0,32,38,6,308,15,7Hunknown,1,2,2HMM,1000,1,16H-17740206:063716,1EG      2
-6,50000,5Hno1se,7Hunknown,0,0,13H260306:063718;                        G      3
     502       1       0       0       0       0       0       000010000D      1
     502       0       0       8       1                               0D      2
     110       9       0       0       0       0       0       000010000D      3
     110       1       0       1       0                               0D      4
     110      10       0       0       0       0       0       000010000D      5
     110       1       0       1       0                               0D      6
     110      11       0       0       0       0       0       000010000D      7
     110       1       0       1       0                               0D      8
     110      12       0       0       0       0       0       000010000D      9
     110       1       0       1       0                               0D     10
     110      13       0       0       0       0       0       000010000D     11
     110       1       0       1       0                               0D     12
     110      14       0       0       0       0       0       000010000D     13
     110       1       0       1       0                               0D     14
     110      15       0       0       0       0       0       000010000D     15
     110       1       0       1       0                               0D     16
     110      16       0       0       0       0       0       000010000D     17
     110       1       0       1       0                               0D     18
     110      17       0       0       0       0       0       000010000D     19
     110       1       0       1       0                               0D     20
     110      18       0       0       0       0       0       000010000D     21
     110       1       0       1       0                               0D     22
     110      19       0       0       0       0       0       000010000D     23
     110       1       0       1       0                               0D     24
     110      20       0       0       0       0       0       000010000D     25
     110       1       0       1       0                               0D     26
     110      21       0       0       0       0       0       000010000D     27
     110       1       0       1       0                               0D     28
     110      22       0       0       0       0       0       000010000D     29
     110       1       0       1       0                               0D     30
     110      23       0       0       0       0       0       000010000D     31
     110       1       0       1       0                               0D     32
     110      24       0       0       0       0       0       000010000D     33
     110       1       0       1       0                               0D     34
     124      25       0       0       0       0       0       001020201D     35
     124       1       0       2       0                               0D     36
     100      27       0       0       0       0      35       000010000D     37
     100       1       0       1       0                               0D     38
     124      28       0       0       0       0       0       001020201D     39
     124       1       0       2       0                               0D     40
     100      30       0       0       0       0      39       000010000D     41
     100       1       0       1       0                               0D     42
     124      31       0       0       0       0       0       001020201D     43
     124       1       0       2       0                               0D     44
     100      33       0       0       0       0      43       000010000D     45
     100       1       0       1       0                               0D     46
     124      34       0       0       0       0       0       001020201D     47
     124       1       0       2       0                               0D     48
     100      36       0       0       0       0      47       000010000D     49
     100       1       0       1       0                               0D     50
     124      37       0       0       0       0       0       001020201D     51
     124       1       0       1       0                               0D     52
     100      38       0       0       0       0      51       000010000D     53
     100       1       0       1       0                               0D     54
     124      39       0       0       0       0       0       001020201D     55
     124       1       0       1       0                               0D     56
     100      40       0       0       0       0      55       000010000D     57
     100       1       0       1       0                               0D     58
     124      41       0       0       0       0       0       001020201D     59
     124       1       0       1       0                               0D     60
     100      42       0       0       0       0      59       000010000D     61
     100       1       0       1       0                               0D     62
     124      43       0       0       0       0       0       001020201D     63
     124       1       0       1       0                               0D     64
     100      44       0       0       0       0      63       000010000D     65
     100       1       0       1       0                               0D     66
     124      45       0       0       0       0       0       001020201D     67
     124       1       0       2       0                               0D     68
     100      47       0       0       0       0      67       000010000D     69
     100       1       0       1       0                               0D     70
     124      48       0       0       0       0       0       001020201D     71
     124       1       0       2       0                               0D     72
     100      50       0       0       0       0      71       000010000D     73
     100       1       0       1       0                               0D     74
     124      51       0       0       0       0       0       001020201D     75
     124       1       0       2       0                               0D     76
     100      53       0       0       0       0      75       000010000D     77
     100       1       0       1       0                               0D     78
     124      54       0       0       0       0       0       001020201D     79
     124       1       0       2       0                               0D     80
     100      56       0       0       0       0      79       000010000D     81
     100       1       0       1       0                               0D     82
     110      57       0       0       0       0       0       000010000D     83
     110       1       0       2       0                               0D     84
     124      59       0       0       0       0       0       001020201D     85
     124       1       0       2       0                               0D     86
     100      61       0       0       0       0      85       000010000D     87
     100       1       0       1       0                               0D     88
     110      62       0       0       0       0       0       000010000D     89
     110       1       0       2       0                               0D     90
     110      64       0       0       0       0       0       000010000D     91
     110       1       0       2       0                               0D     92
     124      66       0       0       0       0       0       001020201D     93
     124       1       0       2       0                               0D     94
     100      68       0       0       0       0      93       000010000D     95
     100       1       0       1       0                               0D     96
     110      69       0       0       0       0       0       000010000D     97
     110       1       0       2       0                               0D     98
     124      71       0       0       0       0       0       001020201D     99
     124       1       0       2       0                               0D    100
     100      73       0       0       0       0      99       000010000D    101
     100       1       0       1       0                               0D    102
     124      74       0       0       0       0       0       001020201D    103
     124       1       0       2       0                               0D    104
     100      76       0       0       0       0     103       000010000D    105
     100       1       0       1       0                               0D    106
     504      77       0       0       0       0       0       000010000D    107
     504       1       0       8       1                               0D    108
     128      85       0       0       0       0       0       000010000D    109
     128       1       0       2       0                               0D    110
     126      87       0       0       0       0       0       001010500D    111
     126       1       0       1       0                               0D    112
     126      88       0       0       0       0       0       001010500D    113
     126       1       0       1       0                               0D    114
     126      89       0       0       0       0       0       001010500D    115
     126       1       0       1       0                               0D    116
     126      90       0       0       0       0       0       001010500D    117
     126       1       0       1       0                               0D    118
     508      91       0       0       0       0       0       000010000D    119
     508       1       0       2       1                               0D    120
     510      93       0       0       0       0       0       000010000D    121
     510       1       1       1       1                               0D    122
     128      94       0       0       0       0       0       000010000D    123
     128       1       0       2       0                               0D    124
     126      96       0       0       0       0       0       001010500D    125
     126       1       0       1       0                               0D    126
     126      97       0       0       0       0       0       001010500D    127
     126       1       0       1       0                               0D    128
     126      98       0       0       0       0       0       001010500D    129
     126       1       0       1       0                               0D    130
     126      99       0       0       0       0       0       001010500D    131
     126       1       0       1       0                               0D    132
     508     100       0       0       0       0       0       000010000D    133
     508       1       0       2       1                               0D    134
     510     102       0       0       0       0       0       000010000D    135
     510       1       1       1       1                               0D    136
     128     103       0       0       0       0       0       000010000D    137
     128       1       0       2       0                               0D    138
     126     105       0       0       0       0       0       001010500D    139
     126       1       0       1       0                               0D    140
     126     106       0       0       0       0       0       001010500D    141
     126       1       0       1       0                               0D    142
     126     107       0       0       0       0       0       001010500D    143
     126       1       0       1       0                               0D    144
     126     108       0       0       0       0       0       001010500D    145
     126       1       0       1       0                               0D    146
     508     109       0       0       0       0       0       000010000D    147
     508       1       0       2       1                               0D    148
     510     111       0       0       0       0       0       000010000D    149
     510       1       1       1       1                               0D    150
     128     112       0       0       0       0       0       000010000D    151
     128       1       0       2       0                               0D    152
     126     114       0       0       0       0       0       001010500D    153
     126       1       0       1       0                               0D    154
     126     115       0       0       0       0       0       001010500D    155
     126       1       0       1       0                               0D    156
     126     116       0       0       0       0       0       001010500D    157
     126       1       0       1       0                               0D    158
     126     117       0       0       0       0       0       001010500D    159
     126       1       0       1       0                               0D    160
     508     118       0       0       0       0       0       000010000D    161
     508       1       0       2       1                               0D    162
     510     120       0       0       0       0       0       000010000D    163
     510       1       1       1       1                               0D    164
     110     121       0       0       0       0       0       001010000D    165
     110       1       0       1       0                               0D    166
     110     122       0       0       0       0       0       001010001D    167
     110       1       0       1       0                               0D    168
     120     123       0       0       0       0       0       000010000D    169
     120       1       0       1       0                               0D    170
     126     124       0       0       0       0       0       001010500D    171
     126       1       0       2       0                               0D    172
     126     126       0       0       0       0       0       001010500D    173
     126       1       0       1       0                               0D    174
     126     127       0       0       0       0       0       001010500D    175
     126       1       0       1       0                               0D    176
     126     128       0       0       0       0       0       001010500D    177
     126       1       0       1       0                               0D    178
     508     129       0       0       0       0       0       000010000D    179
     508       1       0       2       1                               0D    180
     510     131       0       0       0       0       0       000010000D    181
     510       1       1       1       1                               0D    182
     110     132       0       0       0       0       0       001010000D    183
     110       1       0       1       0                               0D    184
     110     133       0       0       0       0       0       001010001D    185
     110       1       0       1       0                               0D    186
     120     134       0       0       0       0       0       000010000D    187
     120       1       0       1       0                               0D    188
     126     135       0       0       0       0       0       001010500D    189
     126       1       0       2       0                               0D    190
     126     137       0       0       0       0       0       001010500D    191
     126       1       0       1       0                               0D    192
     126     138       0       0       0       0       0       001010500D    193
     126       1       0       1       0                               0D    194
     126     139       0       0       0       0       0       001010500D    195
     126       1       0       1       0                               0D    196
     508     140       0       0       0       0       0       000010000D    197
     508       1       0       2       1                               0D    198
     510     142       0       0       0       0       0       000010000D    199
     510       1       1       1       1                               0D    200
     110     143       0       0       0       0       0       001010000D    201
     110       1       0       1       0                               0D    202
     110     144       0       0       0       0       0       001010001D    203
     110       1       0       1       0                               0D    204
     120     145       0       0       0       0       0       000010000D    205
     120       1       0       1       0                               0D    206
     126     146       0       0       0       0       0       001010500D    207
     126       1       0       2       0                               0D    208
     126     148       0       0       0       0       0       001010500D    209
     126       1       0       1       0                               0D    210
     126     149       0       0       0       0       0       001010500D    211
     126       1       0       1       0                               0D    212
     126     150       0       0       0       0       0       001010500D    213
     126       1       0       1       0                               0D    214
     508     151       0       0       0       0       0       000010000D    215
     508       1       0       2       1                               0D    216
     510     153       0       0       0       0       0       000010000D    217
     510       1       1       1       1                               0D    218
     110     154       0       0       0       0       0       001010000D    219
     110       1       0       1       0                               0D    220
     110     155       0       0       0       0       0       001010001D    221
     110       1       0       1       0                               0D    222
     120     156       0       0       0       0       0       000010000D    223
     120       1       0       1       0                               0D    224
     126     157       0       0       0       0       0       001010500D    225
     126       1       0       2       0                               0D    226
     126     159       0       0       0       0       0       001010500D    227
     126       1       0       1       0                               0D    228
     126     160       0       0       0       0       0       001010500D    229
     126       1       0       1       0                               0D    230
     126     161       0       0       0       0       0       001010500D    231
     126       1       0       1       0                               0D    232
     508     162       0       0       0       0       0       000010000D    233
     508       1       0       2       1                               0D    234
     510     164       0       0       0       0       0       000010000D    235
     510       1       1       1       1                               0D    236
     128     165       0       0       0       0       0       000010000D    237
     128       1       0       2       0                               0D    238
     126     167       0       0       0       0       0       001010500D    239
     126       1       0       2       0                               0D    240
     126     169       0       0       0       0       0       001010500D    241
     126       1       0      15       0                               0D    242
     126     184       0       0       0       0       0       001010500D    243
     126       1       0       2       0                               0D    244
     126     186       0       0       0       0       0       001010500D    245
     126       1       0      16       0                               0D    246
     126     202       0       0       0       0       0       001010500D    247
     126       1       0       2       0                               0D    248
     126     204       0       0       0       0       0       001010500D    249
     126       1       0      15       0                               0D    250
     126     219       0       0       0       0       0       001010500D    251
     126       1       0       2       0                               0D    252
     126     221       0       0       0       0       0       001010500D    253
     126       1       0      16       0                               0D    254
     508     237       0       0       0       0       0       000010000D    255
     508       1       0       3       1                               0D    256
     510     240       0       0       0       0       0       000010000D    257
     510       1       1       1       1                               0D    258
     128     241       0       0       0       0       0       000010000D    259
     128       1       0       2       0                               0D    260
     126     243       0       0       0       0       0       001010500D    261
     126       1       0      15       0                               0D    262
     126     258       0       0       0       0       0       001010500D    263
     126       1       0       1       0                               0D    264
     126     259       0       0       0       0       0       001010500D    265
     126       1       0      15       0                               0D    266
     126     274       0       0       0       0       0       001010500D    267
     126       1       0       1       0                               0D    268
     126     275       0       0       0       0       0       001010500D    269
     126       1       0      15       0                               0D    270
     126     290       0       0       0       0       0       001010500D    271
     126       1       0       1       0                               0D    272
     126     291       0       0       0       0       0       001010500D    273
     126       1       0      15       0                               0D    274
     126     306       0       0       0       0       0       001010500D    275
     126       1       0       1       0                               0D    276
     508     307       0       0       0       0       0       000010000D    277
     508       1       0       3       1                               0D    278
     126     310       0       0       0       0       0       001010500D    279
     126       1       0      28       0                               0D    280
     126     338       0       0       0       0       0       001010500D    281
     126       1       0      28       0                               0D    282
     508     366       0       0       0       0       0       000010000D    283
     508       1       0       1       1                               0D    284
     126     367       0       0       0       0       0       001010500D    285
     126       1       0      28       0                               0D    286
     126     395       0       0       0       0       0       001010500D    287
     126       1       0      28       0                               0D    288
     508     423       0       0       0       0       0       000010000D    289
     508       1       0       1       1                               0D    290
     510     424       0       0       0       0       0       000010000D    291
     510       1       1       1       1                               0D    292
     110     425       0       0       0       0       0       001010000D    293
     110       1       0       2       0                               0D    294
     110     427       0       0       0       0       0       001010001D    295
     110       1       0       2       0                               0D    296
     120     429       0       0       0       0       0       000010000D    297
     120       1       0       1       0                               0D    298
     126     430       0       0       0       0       0       001010500D    299
     126       1       0       2       0                               0D    300
     126     432       0       0       0       0       0       001010500D    301
     126       1       0       2       0                               0D    302
     126     434       0       0       0       0       0       001010500D    303
     126       1       0       2       0                               0D    304
     126     436       0       0       0       0       0       001010500D    305
     126       1       0       1       0                               0D    306
     508     437       0       0       0       0       0       000010000D    307
     508       1       0       2       1                               0D    308
     510     439       0       0       0       0       0       000010000D    309
     510       1       1       1       1                               0D    310
     110     440       0       0       0       0       0       001010000D    311
     110       1       0       2       0                               0D    312
     110     442       0       0       0       0       0       001010001D    313
     110       1       0       2       0                               0D    314
     120     444       0       0       0       0       0       000010000D    315
     120       1       0       1       0                               0D    316
     126     445       0       0       0       0       0       001010500D    317
     126       1       0       2       0                               0D    318
     126     447       0       0       0       0       0       001010500D    319
     126       1       0       2       0                               0D    320
     126     449       0       0       0       0       0       001010500D    321
     126       1       0       2       0                               0D    322
     126     451       0       0       0       0       0       001010500D    323
     126       1       0       1       0                               0D    324
     508     452       0       0       0       0       0       000010000D    325
     508       1       0       2       1                               0D    326
     510     454       0       0       0       0       0       000010000D    327
     510       1       1       1       1                               0D    328
     128     455       0       0       0       0       0       000010000D    329
     128       1       0       3       0                               0D    330
     126     458       0       0       0       0       0       001010500D    331
     126       1       0      27       0                               0D    332
     126     485       0       0       0       0       0       001010500D    333
     126       1       0      27       0                               0D    334
     508     512       0       0       0       0       0       000010000D    335
     508       1       0       1       1                               0D    336
     510     513       0       0       0       0       0       000010000D    337
     510       1       1       1       1                               0D    338
     128     514       0       0       0       0       0       000010000D    339
     128       1       0       3       0                               0D    340
     126     517       0       0       0       0       0       001010500D    341
     126       1       0      27       0                               0D    342
     126     544       0       0       0       0       0       001010500D    343
     126       1       0      28       0                               0D    344
     508     572       0       0       0       0       0       000010000D    345
     508       1       0       1       1                               0D    346
     510     573       0       0       0       0       0       000010000D    347
     510       1       1       1       1                               0D    348
     110     574       0       0       0       0       0       001010000D    349
     110       1       0       2       0                               0D    350
     110     576       0       0       0       0       0       001010001D    351
     110       1       0       2       0                               0D    352
     120     578       0       0       0       0       0       000010000D    353
     120       1       0       1       0                               0D    354
     126     579       0       0       0       0       0       001010500D    355
     126       1       0       2       0                               0D    356
     126     581       0       0       0       0       0       001010500D    357
     126       1       0       2       0                               0D    358
     126     583       0       0       0       0       0       001010500D    359
     126       1       0       1       0                               0D    360
     126     584       0       0       0       0       0       001010500D    361
     126       1       0       2       0                               0D    362
     508     586       0       0       0       0       0       000010000D    363
     508       1       0       2       1                               0D    364
     510     588       0       0       0       0       0       000010000D    365
     510       1       1       1       1                               0D    366
     110     589       0       0       0       0       0       001010000D    367
     110       1       0       2       0                               0D    368
     110     591       0       0       0       0       0       001010001D    369
     110       1       0       2       0                               0D    370
     120     593       0       0       0       0       0       000010000D    371
     120       1       0       1       0                               0D    372
     126     594       0       0       0       0       0       001010500D    373
     126       1       0       2       0                               0D    374
     126     596       0       0       0       0       0       001010500D    375
     126       1       0       2       0                               0D    376
     126     598       0       0       0       0       0       001010500D    377
     126       1       0       1       0                               0D    378
     126     599       0       0       0       0       0       001010500D    379
     126       1       0       2       0                               0D    380
     508     601       0       0       0       0       0       000010000D    381
     508       1       0       2       1                               0D    382
     510     603       0       0       0       0       0       000010000D    383
     510       1       1       1       1                               0D    384
     514     604       0       0       0       0       0       000010000D    385
     514       1       0       2       1                               0D    386
     186     606       0       0       0       0       0       000010000D    387
     186       1       0       1       0                               0D    388
502,24,160,24,-2,-60,24,-2,160,-24,-2,-60,-24,-2,-60,-25,              1P      1
0.999999999999999,160,-25,1,-60,-25,-0.999999999999999,160,-25,        1P      2
-1,160,24,2,-60,24,2,-60,-24,2,160,-24,2,160,25,1,-60,25,1,160,        1P      3
25,-1,-60,25,-1,-60,-13.5,-8.1364822110155E-16,-60,-11.5,              1P      4
-6.1665334258824E-16,-60,11.5,-8.46782193305249E-16,-60,13.5,          1P      5
-6.82921286995638E-16,-80,-13.5,-7.39118022502975E-16,-80,-11.5,       1P      6
-6.1665334258824E-16,-80,11.5,-8.05385966910374E-16,-80,13.5,          1P      7
-6.82921286995638E-16;                                                 1P      8
110,160,24,-2,-60,24,-2;                                               3P      9
110,160,-24,-2,160,24,-2;                                              5P     10
110,-60,-24,-2,160,-24,-2;                                             7P     11
110,-60,24,-2,-60,-24,-2;                                              9P     12
110,-60,-25,1,160,-25,1;                                              11P     13
110,-60,-25,-1,-60,-25,1;                                             13P     14
110,-60,-25,-1,160,-25,-1;                                            15P     15
110,160,-25,1,160,-25,-1;                                             17P     16
110,160,24,2,-60,24,2;                                                19P     17
110,-60,24,2,-60,-24,2;                                               21P     18
110,-60,-24,2,160,-24,2;                                              23P     19
110,160,24,2,160,-24,2;                                               25P     20
110,160,25,1,-60,25,1;                                                27P     21
110,160,25,-1,160,25,1;                                               29P     22
110,160,25,-1,-60,25,-1;                                              31P     23
110,-60,25,-1,-60,25,1;                                               33P     24
124,0,0,-1,-60,-7.105427357601E-15,-1,0,-24,-1,                       35P     25
7.105427357601E-15,0,-1;                                              35P     26
100,0,0,0,1,0,7.16665969755837E-15,1;                                 37P     27
124,0,0,1,160,-1,-1.11022302462516E-16,0,-24,                         39P     28
1.11022302462516E-16,-1,0,-1;                                         39P     29
100,0,0,0,1,0,6.12323399573677E-17,1;                                 41P     30
124,0,0,1,160,-7.105427357601E-15,1,0,24,-1,-7.105427357601E-15,      43P     31
0,-1;                                                                 43P     32
100,0,0,0,1,0,-7.04419501764363E-15,1;                                45P     33
124,0,0,-1,-60,1,1.11022302462516E-16,0,24,1.11022302462516E-16,      47P     34
-1,0,-1;                                                              47P     35
100,0,0,0,1,0,9.49410759657493E-16,1;                                 49P     36
124,0,0,1,160,0,-1,0,-24,1,0,0,1;                                     51P     37
100,0,0,0,1,0,6.12323399573677E-17,1;                                 53P     38
124,0,0,-1,-60,-1,0,0,-24,0,1,0,1;                                    55P     39
100,0,0,0,1,0,7.16665969755837E-15,1;                                 57P     40
124,0,0,-1,-60,0,1,0,24,1,0,0,1;                                      59P     41
100,0,0,0,1,0,9.49410759657493E-16,1;                                 61P     42
124,0,0,1,160,1,0,0,24,0,1,0,1;                                       63P     43
100,0,0,0,1,0,-7.04419501764363E-15,1;                                65P     44
124,0,0,-1,-60,-1,-6.12323399573677E-17,0,-12.5,                      67P     45
-6.12323399573677E-17,1,0,-6.66133814775094E-16;                      67P     46
100,0,0,0,1,0,-1,1.22464679914735E-16;                                69P     47
124,0,0,-1,-60,1,-6.12323399573677E-17,0,-12.5,                       71P     48
-6.12323399573677E-17,-1,0,-6.66133814775094E-16;                     71P     49
100,0,0,0,1,0,-1,1.22464679914735E-16;                                73P     50
124,0,0,-1,-60,-1,-6.12323399573677E-17,0,12.5,                       75P     51
-6.12323399573677E-17,1,0,-6.66133814775094E-16;                      75P     52
100,0,0,0,1,0,-1,1.22464679914735E-16;                                77P     53
124,0,0,-1,-60,1,-6.12323399573677E-17,0,12.5,                        79P     54
-6.12323399573677E-17,-1,0,-6.66133814775094E-16;                     79P     55
100,0,0,0,1,0,-1,1.22464679914735E-16;                                81P     56
110,-60,-13.5,-7.39118022502975E-16,-80,-13.5,                        83P     57
-7.39118022502975E-16;                                                83P     58
124,0,0,-1,-80,1,-6.12323399573677E-17,0,-12.5,                       85P     59
-6.12323399573677E-17,-1,0,-6.77885682545608E-16;                     85P     60
100,0,0,0,1,0,-1,1.22464679914735E-16;                                87P     61
110,-60,-11.5,-4.94188662673505E-16,-80,-11.5,                        89P     62
-4.94188662673505E-16;                                                89P     63
110,-60,11.5,-8.05385966910374E-16,-80,11.5,                          91P     64
-8.05385966910374E-16;                                                91P     65
124,0,0,-1,-80,1,-6.12323399573677E-17,0,12.5,                        93P     66
-6.12323399573677E-17,-1,0,-7.44153626953006E-16;                     93P     67
100,0,0,0,1,0,-1,1.22464679914735E-16;                                95P     68
110,-60,13.5,-5.60456607080903E-16,-80,13.5,                          97P     69
-5.60456607080903E-16;                                                97P     70
124,0,0,-1,-80,-1,-6.12323399573677E-17,0,-12.5,                      99P     71
-6.12323399573677E-17,1,0,-6.77885682545608E-16;                      99P     72
100,0,0,0,1,0,-1,1.22464679914735E-16;                               101P     73
124,0,0,-1,-80,-1,-6.12323399573677E-17,0,12.5,                      103P     74
-6.12323399573677E-17,1,0,-7.44153626953006E-16;                     103P     75
100,0,0,0,1,0,-1,1.22464679914735E-16;                               105P     76
504,36,3,1,1,1,2,5,1,3,1,1,7,1,4,1,3,9,1,2,1,4,11,1,5,1,6,13,1,      107P     77
7,1,5,15,1,7,1,8,17,1,6,1,8,19,1,9,1,10,21,1,10,1,11,23,1,11,1,      107P     78
12,25,1,9,1,12,27,1,13,1,14,29,1,15,1,13,31,1,15,1,16,33,1,16,1,     107P     79
14,37,1,4,1,7,41,1,8,1,3,45,1,1,1,15,49,1,16,1,2,53,1,12,1,6,57,     107P     80
1,5,1,11,61,1,10,1,14,65,1,13,1,9,69,1,17,1,18,73,1,18,1,17,77,      107P     81
1,19,1,20,81,1,20,1,19,83,1,17,1,21,87,1,22,1,21,89,1,18,1,22,       107P     82
91,1,19,1,23,95,1,24,1,23,97,1,20,1,24,101,1,21,1,22,105,1,23,1,     107P     83
24;                                                                  107P     84
128,1,1,1,1,0,0,1,0,0,0,0,1,1,0,0,1,1,1,1,1,1,-60,-24,-2,160,        109P     85
-24,-2,-60,24,-2,160,24,-2,0,1,0,1;                                  109P     86
126,1,1,1,0,1,0,0,0,1,1,1,1,1,1,0,0,1,0,0,1,0,0,1;                   111P     87
126,1,1,1,0,1,0,0,0,1,1,1,1,1,0,0,1,1,0,0,1,0,0,1;                   113P     88
126,1,1,1,0,1,0,0,0,1,1,1,1,0,0,0,1,0,0,0,1,0,0,1;                   115P     89
126,1,1,1,0,1,0,0,0,1,1,1,1,0,1,0,0,0,0,0,1,0,0,1;                   117P     90
508,4,0,107,1,0,1,0,111,0,107,2,0,1,0,113,0,107,3,0,1,0,115,0,       119P     91
107,4,0,1,0,117;                                                     119P     92
510,109,1,1,119;                                                     121P     93
128,1,1,1,1,0,0,1,0,0,0,0,1,1,0,0,1,1,1,1,1,1,-60,-25,-1,160,        123P     94
-25,-1,-60,-25,1,160,-25,1,0,1,0,1;                                  123P     95
126,1,1,1,0,1,0,0,0,1,1,1,1,0,1,0,1,1,0,0,1,0,0,1;                   125P     96
126,1,1,1,0,1,0,0,0,1,1,1,1,0,0,0,0,1,0,0,1,0,0,1;                   127P     97
126,1,1,1,0,1,0,0,0,1,1,1,1,0,0,0,1,0,0,0,1,0,0,1;                   129P     98
126,1,1,1,0,1,0,0,0,1,1,1,1,1,1,0,1,0,0,0,1,0,0,1;                   131P     99
508,4,0,107,5,0,1,0,125,0,107,6,0,1,0,127,0,107,7,1,1,0,129,0,       133P    100
107,8,0,1,0,131;                                                     133P    101
510,123,1,1,133;                                                     135P    102
128,1,1,1,1,0,0,1,0,0,0,0,1,1,0,0,1,1,1,1,1,1,-60,-24,2,160,-24,     137P    103
2,-60,24,2,160,24,2,0,1,0,1;                                         137P    104
126,1,1,1,0,1,0,0,0,1,1,1,1,1,1,0,0,1,0,0,1,0,0,1;                   139P    105
126,1,1,1,0,1,0,0,0,1,1,1,1,0,1,0,0,0,0,0,1,0,0,1;                   141P    106
126,1,1,1,0,1,0,0,0,1,1,1,1,0,0,0,1,0,0,0,1,0,0,1;                   143P    107
126,1,1,1,0,1,0,0,0,1,1,1,1,1,1,0,1,0,0,0,1,0,0,1;                   145P    108
508,4,0,107,9,1,1,0,139,0,107,10,1,1,0,141,0,107,11,1,1,0,143,0,     147P    109
107,12,0,1,0,145;                                                    147P    110
510,137,1,1,147;                                                     149P    111
128,1,1,1,1,0,0,1,0,0,0,0,1,1,0,0,1,1,1,1,1,1,160,25,-1,-60,25,      151P    112
-1,160,25,1,-60,25,1,0,1,0,1;                                        151P    113
126,1,1,1,0,1,0,0,0,1,1,1,1,0,1,0,1,1,0,0,1,0,0,1;                   153P    114
126,1,1,1,0,1,0,0,0,1,1,1,1,0,0,0,0,1,0,0,1,0,0,1;                   155P    115
126,1,1,1,0,1,0,0,0,1,1,1,1,0,0,0,1,0,0,0,1,0,0,1;                   157P    116
126,1,1,1,0,1,0,0,0,1,1,1,1,1,0,0,1,1,0,0,1,0,0,1;                   159P    117
508,4,0,107,13,0,1,0,153,0,107,14,0,1,0,155,0,107,15,1,1,0,157,      161P    118
0,107,16,1,1,0,159;                                                  161P    119
510,151,1,1,161;                                                     163P    120
110,-64,-24,-1,-65,-24,-1;                                           165P    121
110,-60,-24,-2,160,-24,-2;                                           167P    122
120,165,167,0,6.28318530717959;                                      169P    123
126,1,1,1,0,1,0,0,0,1,1,1,1,0,1.5707963267949,0,1,                   171P    124
1.5707963267949,0,0,1,0,0,1;                                         171P    125
126,1,1,1,0,1,0,0,0,1,1,1,1,0,0,0,0,1.5707963267949,0,0,1,0,0,1;     173P    126
126,1,1,1,0,1,0,0,0,1,1,1,1,0,0,0,1,0,0,0,1,0,0,1;                   175P    127
126,1,1,1,0,1,0,0,0,1,1,1,1,1,1.5707963267949,0,1,0,0,0,1,0,0,1;     177P    128
508,4,0,107,7,0,1,0,171,0,107,17,0,1,0,173,0,107,3,1,1,0,175,0,      179P    129
107,18,0,1,0,177;                                                    179P    130
510,169,1,1,179;                                                     181P    131
110,64,24,-1,65,24,-1;                                               183P    132
110,160,24,-2,-60,24,-2;                                             185P    133
120,183,185,0,6.28318530717959;                                      187P    134
126,1,1,1,0,1,0,0,0,1,1,1,1,0,1.5707963267949,0,1,                   189P    135
1.5707963267949,0,0,1,0,0,1;                                         189P    136
126,1,1,1,0,1,0,0,0,1,1,1,1,0,0,0,0,1.5707963267949,0,0,1,0,0,1;     191P    137
126,1,1,1,0,1,0,0,0,1,1,1,1,0,0,0,1,0,0,0,1,0,0,1;                   193P    138
126,1,1,1,0,1,0,0,0,1,1,1,1,1,1.5707963267949,0,1,0,0,0,1,0,0,1;     195P    139
508,4,0,107,15,0,1,0,189,0,107,19,0,1,0,191,0,107,1,1,1,0,193,0,     197P    140
107,20,0,1,0,195;                                                    197P    141
510,187,1,1,197;                                                     199P    142
110,-64,-24,1,-63,-24,1;                                             201P    143
110,-60,-24,2,160,-24,2;                                             203P    144
120,201,203,0,6.28318530717959;                                      205P    145
126,1,1,1,0,1,0,0,0,1,1,1,1,0,1.5707963267949,0,1,                   207P    146
1.5707963267949,0,0,1,0,0,1;                                         207P    147
126,1,1,1,0,1,0,0,0,1,1,1,1,1,0,0,1,1.5707963267949,0,0,1,0,0,1;     209P    148
126,1,1,1,0,1,0,0,0,1,1,1,1,0,0,0,1,0,0,0,1,0,0,1;                   211P    149
126,1,1,1,0,1,0,0,0,1,1,1,1,0,1.5707963267949,0,0,0,0,0,1,0,0,1;     213P    150
508,4,0,107,5,1,1,0,207,0,107,21,0,1,0,209,0,107,11,0,1,0,211,0,     215P    151
107,22,0,1,0,213;                                                    215P    152
510,205,1,1,215;                                                     217P    153
110,64,24,1,63,24,1;                                                 219P    154
110,160,24,2,-60,24,2;                                               221P    155
120,219,221,0,6.28318530717959;                                      223P    156
126,1,1,1,0,1,0,0,0,1,1,1,1,0,1.5707963267949,0,1,                   225P    157
1.5707963267949,0,0,1,0,0,1;                                         225P    158
126,1,1,1,0,1,0,0,0,1,1,1,1,1,0,0,1,1.5707963267949,0,0,1,0,0,1;     227P    159
126,1,1,1,0,1,0,0,0,1,1,1,1,0,0,0,1,0,0,0,1,0,0,1;                   229P    160
126,1,1,1,0,1,0,0,0,1,1,1,1,0,1.5707963267949,0,0,0,0,0,1,0,0,1;     231P    161
508,4,0,107,13,1,1,0,225,0,107,23,0,1,0,227,0,107,9,0,1,0,229,0,     233P    162
107,24,0,1,0,231;                                                    233P    163
510,223,1,1,233;                                                     235P    164
128,1,1,1,1,0,0,1,0,0,0,0,1,1,0,0,1,1,1,1,1,1,160,-25,-2,160,25,     237P    165
-2.00000000000017,160,-25,2.00000000000017,160,25,2,0,1,0,1;         237P    166
126,1,1,1,0,1,0,0,0,1,1,1,1,1,0.250000000000033,0,1,                 239P    167
0.750000000000011,0,0,1,0,0,1;                                       239P    168
126,16,3,1,0,1,0,0,0,0,0,0.0714285714285714,0.142857142857143,       241P    169
0.214285714285714,0.285714285714286,0.357142857142857,               241P    170
0.428571428571429,0.5,0.571428571428572,0.642857142857143,           241P    171
0.714285714285714,0.785714285714286,0.857142857142857,               241P    172
0.928571428571428,1,1,1,1,1,1,1,1,1,1,1,1,1,1,1,1,1,1,1,1,1,1,       241P    173
0.750000000000012,0,1,0.759349978135695,0,0.999915986712604,         241P    174
0.778049905847804,0,0.999539511693075,0.80574707648417,0,            241P    175
0.998917315976915,0.832743189150045,0,0.998057224036267,             241P    176
0.858698759848448,0,0.996970052026305,0.883287380132543,0,           241P    177
0.995669471765907,0.906199834394423,0,0.994171838806231,             241P    178
0.927147985077896,0,0.992495986751553,0.945868397073839,0,           241P    179
0.990662990410603,0.962125650328815,0,0.988695900787875,             241P    180
0.975715300453345,0,0.986619455132003,0.986466449711445,0,           241P    181
0.984459766118733,0.994243896163436,0,0.982243992467823,             241P    182
0.998949833907551,0,0.980747998250854,1,0,0.98,1,0,0,1,0,0,1;        241P    183
126,1,1,1,0,1,0,0,0,1,1,1,1,0.98,1,0,0.02,0.999999999999957,0,0,     243P    184
1,0,0,1;                                                             243P    185
126,16,3,1,0,1,0,0,0,0,0,0.0714285714285714,0.142857142857143,       245P    186
0.214285714285714,0.285714285714286,0.357142857142857,               245P    187
0.428571428571429,0.5,0.571428571428571,0.642857142857143,           245P    188
0.714285714285714,0.785714285714286,0.857142857142857,               245P    189
0.928571428571429,1,1,1,1,1,1,1,1,1,1,1,1,1,1,1,1,1,1,1,1,1,         245P    190
0.02,0.999999999999957,0,0.0192520017491452,0.999999999999957,0,     245P    191
0.0177560075321765,0.998949833907508,0,0.0155402338812669,           245P    192
0.994243896163393,0,0.013380544867997,0.986466449711401,0,           245P    193
0.0113040992121244,0.975715300453302,0,0.0093370095893972,           245P    194
0.96212565032877,0,0.0075040132484463,0.945868397073795,0,           245P    195
0.00582816119376872,0.927147985077852,0,0.00433052823409275,         245P    196
0.906199834394379,0,0.00302994797369527,0.883287380132498,0,         245P    197
0.00194277596373227,0.858698759848403,0,0.00108268402308465,         245P    198
0.832743189150001,0,0.000460488306924911,0.805747076484125,0,        245P    199
8.40132873960453E-5,0.778049905847759,0,0,0.759349978135651,0,0,     245P    200
0.749999999999967,0,0,1,0,0,1;                                       245P    201
126,1,1,1,0,1,0,0,0,1,1,1,1,0,0.749999999999967,0,0,                 247P    202
0.249999999999988,0,0,1,0,0,1;                                       247P    203
126,16,3,1,0,1,0,0,0,0,0,0.0714285714285714,0.142857142857143,       249P    204
0.214285714285714,0.285714285714286,0.357142857142857,               249P    205
0.428571428571429,0.5,0.571428571428571,0.642857142857143,           249P    206
0.714285714285714,0.785714285714286,0.857142857142857,               249P    207
0.928571428571429,1,1,1,1,1,1,1,1,1,1,1,1,1,1,1,1,1,1,1,1,1,0,       249P    208
0.249999999999988,0,0,0.240650021864305,0,8.40132873960453E-5,       249P    209
0.221950094152197,0,0.0004604883069248,0.194252923515831,0,          249P    210
0.00108268402308453,0.167256810849955,0,0.00194277596373238,         249P    211
0.141301240151552,0,0.00302994797369494,0.116712619867458,0,         249P    212
0.00433052823409308,0.0938001656055774,0,0.0058281611937685,         249P    213
0.0728520149221042,0,0.00750401324844641,0.054131602926162,0,        249P    214
0.00933700958939709,0.037874349671186,0,0.0113040992121244,          249P    215
0.0242846995466552,0,0.0133805448679973,0.013533550288556,0,         249P    216
0.0155402338812668,0.00575610383656425,0,0.0177560075321761,         249P    217
0.00105016609244881,0,0.0192520017491452,0,0,0.02,0,0,0,1,0,0,1;     249P    218
126,1,1,1,0,1,0,0,0,1,1,1,1,0.0200000000000002,0,0,0.98,0,0,0,1,     251P    219
0,0,1;                                                               251P    220
126,16,3,1,0,1,0,0,0,0,0,0.0714285714285714,0.142857142857143,       253P    221
0.214285714285714,0.285714285714286,0.357142857142857,               253P    222
0.428571428571429,0.5,0.571428571428572,0.642857142857143,           253P    223
0.714285714285714,0.785714285714286,0.857142857142857,               253P    224
0.928571428571428,1,1,1,1,1,1,1,1,1,1,1,1,1,1,1,1,1,1,1,1,1,         253P    225
0.98,0,0,0.980747998250855,0,0,0.982243992467824,                    253P    226
0.00105016609249155,0,0.984459766118733,0.00575610383660695,0,       253P    227
0.986619455132003,0.0135335502885988,0,0.988695900787875,            253P    228
0.024284699546698,0,0.990662990410603,0.037874349671229,0,           253P    229
0.992495986751553,0.0541316029262052,0,0.994171838806231,            253P    230
0.0728520149221474,0,0.995669471765907,0.093800165605621,0,          253P    231
0.996970052026305,0.116712619867501,0,0.998057224036268,             253P    232
0.141301240151596,0,0.998917315976916,0.167256810849998,0,           253P    233
0.999539511693075,0.194252923515875,0,0.999915986712604,             253P    234
0.221950094152241,0,1,0.240650021864349,0,1,0.250000000000033,0,     253P    235
0,1,0,0,1;                                                           253P    236
508,8,0,107,14,1,1,0,239,0,107,24,1,1,0,241,0,107,12,1,1,0,243,      255P    237
0,107,21,1,1,0,245,0,107,8,1,1,0,247,0,107,18,1,1,0,249,0,107,2,     255P    238
1,1,0,251,0,107,19,1,1,0,253;                                        255P    239
510,237,1,1,255;                                                     257P    240
128,1,1,1,1,0,0,1,0,0,0,0,1,1,0,0,1,1,1,1,1,1,-60,25,-2,-60,-25,     259P    241
-2,-60,25,2,-60,-25,2,0,1,0,1;                                       259P    242
126,16,3,1,0,1,0,0,0,0,0,0.0714285714285714,0.142857142857143,       261P    243
0.214285714285714,0.285714285714286,0.357142857142857,               261P    244
0.428571428571429,0.5,0.571428571428571,0.642857142857143,           261P    245
0.714285714285714,0.785714285714286,0.857142857142857,               261P    246
0.928571428571429,1,1,1,1,1,1,1,1,1,1,1,1,1,1,1,1,1,1,1,1,1,         261P    247
0.02,1,0,0.0192520017491453,1,0,0.0177560075321765,                  261P    248
0.998949833907551,0,0.0155402338812672,0.994243896163435,0,          261P    249
0.013380544867997,0.986466449711443,0,0.0113040992121247,            261P    250
0.975715300453343,0,0.00933700958939707,0.962125650328812,0,         261P    251
0.00750401324844656,0.945868397073836,0,0.00582816119376863,         261P    252
0.927147985077892,0,0.00433052823409319,0.906199834394418,0,         261P    253
0.00302994797369504,0.883287380132536,0,0.00194277596373253,         261P    254
0.858698759848441,0,0.00108268402308455,0.832743189150037,0,         261P    255
0.000460488306925176,0.80574707648416,0,8.4013287395918E-5,          261P    256
0.778049905847793,0,0,0.759349978135684,0,0,0.75,0,0,1,0,0,1;        261P    257
126,1,1,1,0,1,0,0,0,1,1,1,1,0,0.25,0,0,0.75,0,0,1,0,0,1;             263P    258
126,16,3,1,0,1,0,0,0,0,0,0.0714285714285714,0.142857142857143,       265P    259
0.214285714285714,0.285714285714286,0.357142857142857,               265P    260
0.428571428571429,0.5,0.571428571428571,0.642857142857143,           265P    261
0.714285714285714,0.785714285714286,0.857142857142857,               265P    262
0.928571428571429,1,1,1,1,1,1,1,1,1,1,1,1,1,1,1,1,1,1,1,1,1,0,       265P    263
0.25,0,0,0.240650021864316,0,8.4013287395918E-5,                     265P    264
0.221950094152207,0,0.000460488306925175,0.19425292351584,0,         265P    265
0.00108268402308455,0.167256810849963,0,0.00194277596373252,         265P    266
0.141301240151559,0,0.00302994797369504,0.116712619867464,0,         265P    267
0.00433052823409318,0.0938001656055823,0,0.00582816119376863,        265P    268
0.072852014922108,0,0.00750401324844655,0.054131602926165,0,         265P    269
0.00933700958939706,0.0378743496711882,0,0.0113040992121247,         265P    270
0.0242846995466567,0,0.013380544867997,0.0135335502885569,0,         265P    271
0.0155402338812672,0.00575610383656475,0,0.0177560075321765,         265P    272
0.001050166092449,0,0.0192520017491453,0,0,0.02,0,0,0,1,0,0,1;       265P    273
126,1,1,1,0,1,0,0,0,1,1,1,1,0.02,0,0,0.98,0,0,0,1,0,0,1;             267P    274
126,16,3,1,0,1,0,0,0,0,0,0.0714285714285714,0.142857142857143,       269P    275
0.214285714285714,0.285714285714286,0.357142857142857,               269P    276
0.428571428571429,0.5,0.571428571428571,0.642857142857143,           269P    277
0.714285714285714,0.785714285714286,0.857142857142857,               269P    278
0.928571428571429,1,1,1,1,1,1,1,1,1,1,1,1,1,1,1,1,1,1,1,1,1,         269P    279
0.98,0,0,0.980747998250855,0,0,0.982243992467824,                    269P    280
0.00105016609244913,0,0.984459766118733,0.00575610383656505,0,       269P    281
0.986619455132003,0.0135335502885572,0,0.988695900787875,            269P    282
0.0242846995466572,0,0.990662990410603,0.0378743496711887,0,         269P    283
0.992495986751554,0.0541316029261653,0,0.994171838806232,            269P    284
0.0728520149221086,0,0.995669471765907,0.0938001656055825,0,         269P    285
0.996970052026305,0.116712619867464,0,0.998057224036268,             269P    286
0.141301240151559,0,0.998917315976915,0.167256810849963,0,           269P    287
0.999539511693075,0.19425292351584,0,0.999915986712604,              269P    288
0.221950094152207,0,1,0.240650021864316,0,1,0.25,0,0,1,0,0,1;        269P    289
126,1,1,1,0,1,0,0,0,1,1,1,1,1,0.25,0,1,0.75,0,0,1,0,0,1;             271P    290
126,16,3,1,0,1,0,0,0,0,0,0.0714285714285714,0.142857142857143,       273P    291
0.214285714285714,0.285714285714286,0.357142857142857,               273P    292
0.428571428571429,0.5,0.571428571428571,0.642857142857143,           273P    293
0.714285714285714,0.785714285714286,0.857142857142857,               273P    294
0.928571428571429,1,1,1,1,1,1,1,1,1,1,1,1,1,1,1,1,1,1,1,1,1,1,       273P    295
0.75,0,1,0.759349978135684,0,0.999915986712604,                      273P    296
0.778049905847793,0,0.999539511693075,0.80574707648416,0,            273P    297
0.998917315976916,0.832743189150037,0,0.998057224036268,             273P    298
0.85869875984844,0,0.996970052026305,0.883287380132536,0,            273P    299
0.995669471765907,0.906199834394417,0,0.994171838806232,             273P    300
0.927147985077891,0,0.992495986751554,0.945868397073835,0,           273P    301
0.990662990410603,0.962125650328812,0,0.988695900787875,             273P    302
0.975715300453343,0,0.986619455132003,0.986466449711443,0,           273P    303
0.984459766118733,0.994243896163435,0,0.982243992467824,             273P    304
0.998949833907551,0,0.980747998250855,1,0,0.98,1,0,0,1,0,0,1;        273P    305
126,1,1,1,0,1,0,0,0,1,1,1,1,0.02,1,0,0.98,1,0,0,1,0,0,1;             275P    306
508,8,0,107,23,1,1,0,261,0,107,16,0,1,0,263,0,107,20,1,1,0,265,      277P    307
0,107,4,1,1,0,267,0,107,17,1,1,0,269,0,107,6,1,1,0,271,0,107,22,     277P    308
1,1,0,273,0,107,10,0,1,0,275;                                        277P    309
126,28,3,1,0,1,0,0,0,0,0,0.0384615384615385,0.0769230769230769,      279P    310
0.115384615384615,0.153846153846154,0.192307692307692,               279P    311
0.230769230769231,0.269230769230769,0.307692307692308,               279P    312
0.346153846153846,0.384615384615385,0.423076923076923,               279P    313
0.461538461538461,0.5,0.538461538461538,0.576923076923077,           279P    314
0.615384615384615,0.653846153846154,0.692307692307692,               279P    315
0.73076923076923,0.769230769230769,0.807692307692307,                279P    316
0.846153846153846,0.884615384615384,0.923076923076923,               279P    317
0.961538461538461,1,1,1,1,1,1,1,1,1,1,1,1,1,1,1,1,1,1,1,1,1,1,1,     279P    318
1,1,1,1,1,1,1,1,1,1,0.77,0.5,0,0.77,0.510069207223044,0,             279P    319
0.769902548143389,0.530207580290672,0,0.769466146389906,             279P    320
0.559974678531065,0,0.768745884388114,0.588867202016402,0,           279P    321
0.767752265179888,0.616463843967127,0,0.766499777970719,             279P    322
0.64236218018074,0,0.765006686844473,0.666184555406646,0,            279P    323
0.763294764431919,0.687583585553865,0,0.761388974416745,             279P    324
0.706247224634541,0,0.759317107508838,0.721903314748452,0,           279P    325
0.757109376193154,0.734323554851464,0,0.754797974163652,             279P    326
0.743326829873813,0,0.752416606866747,0.748781851792362,0,0.75,      279P    327
0.750609074103818,0,0.747583393133253,0.748781851792362,0,           279P    328
0.745202025836348,0.743326829873813,0,0.742890623806847,             279P    329
0.734323554851464,0,0.740682892491162,0.721903314748452,0,           279P    330
0.738611025583255,0.706247224634541,0,0.736705235568081,             279P    331
0.687583585553866,0,0.734993313155527,0.666184555406647,0,           279P    332
0.733500222029281,0.64236218018074,0,0.732247734820112,              279P    333
0.616463843967128,0,0.731254115611886,0.588867202016403,0,           279P    334
0.730533853610094,0.559974678531066,0,0.730097451856611,             279P    335
0.530207580290672,0,0.73,0.510069207223044,0,0.73,0.5,0,0,1,0,0,     279P    336
1;                                                                   279P    337
126,28,3,1,0,1,0,0,0,0,0,0.0384615384615385,0.0769230769230769,      281P    338
0.115384615384615,0.153846153846154,0.192307692307692,               281P    339
0.230769230769231,0.269230769230769,0.307692307692308,               281P    340
0.346153846153846,0.384615384615385,0.423076923076923,               281P    341
0.461538461538461,0.5,0.538461538461538,0.576923076923077,           281P    342
0.615384615384615,0.653846153846154,0.692307692307692,               281P    343
0.73076923076923,0.769230769230769,0.807692307692307,                281P    344
0.846153846153846,0.884615384615384,0.923076923076923,               281P    345
0.961538461538461,1,1,1,1,1,1,1,1,1,1,1,1,1,1,1,1,1,1,1,1,1,1,1,     281P    346
1,1,1,1,1,1,1,1,1,1,0.73,0.5,0,0.73,0.489930792776956,0,             281P    347
0.730097451856611,0.469792419709328,0,0.730533853610094,             281P    348
0.440025321468934,0,0.731254115611886,0.411132797983597,0,           281P    349
0.732247734820112,0.383536156032872,0,0.733500222029281,             281P    350
0.35763781981926,0,0.734993313155526,0.333815444593353,0,            281P    351
0.736705235568081,0.312416414446134,0,0.738611025583255,             281P    352
0.293752775365458,0,0.740682892491161,0.278096685251548,0,           281P    353
0.742890623806847,0.265676445148536,0,0.745202025836348,             281P    354
0.256673170126187,0,0.747583393133253,0.251218148207638,0,0.75,      281P    355
0.249390925896181,0,0.752416606866747,0.251218148207638,0,           281P    356
0.754797974163652,0.256673170126187,0,0.757109376193154,             281P    357
0.265676445148535,0,0.759317107508839,0.278096685251548,0,           281P    358
0.761388974416745,0.293752775365458,0,0.763294764431919,             281P    359
0.312416414446134,0,0.765006686844473,0.333815444593353,0,           281P    360
0.76649977797072,0.35763781981926,0,0.767752265179888,               281P    361
0.383536156032872,0,0.768745884388114,0.411132797983597,0,           281P    362
0.769466146389906,0.440025321468934,0,0.769902548143389,             281P    363
0.469792419709327,0,0.77,0.489930792776955,0,0.77,0.5,0,0,1,0,0,     281P    364
1;                                                                   281P    365
508,2,0,107,25,0,1,0,279,0,107,26,0,1,0,281;                         283P    366
126,28,3,1,0,1,0,0,0,0,0,0.0384615384615385,0.0769230769230769,      285P    367
0.115384615384615,0.153846153846154,0.192307692307692,               285P    368
0.230769230769231,0.269230769230769,0.307692307692308,               285P    369
0.346153846153846,0.384615384615385,0.423076923076923,               285P    370
0.461538461538461,0.5,0.538461538461538,0.576923076923077,           285P    371
0.615384615384615,0.653846153846154,0.692307692307692,               285P    372
0.73076923076923,0.769230769230769,0.807692307692307,                285P    373
0.846153846153846,0.884615384615384,0.923076923076923,               285P    374
0.961538461538461,1,1,1,1,1,1,1,1,1,1,1,1,1,1,1,1,1,1,1,1,1,1,1,     285P    375
1,1,1,1,1,1,1,1,1,1,0.27,0.5,0,0.27,0.510069207223044,0,             285P    376
0.269902548143389,0.530207580290672,0,0.269466146389906,             285P    377
0.559974678531065,0,0.268745884388114,0.588867202016402,0,           285P    378
0.267752265179888,0.616463843967127,0,0.266499777970719,             285P    379
0.64236218018074,0,0.265006686844473,0.666184555406646,0,            285P    380
0.263294764431919,0.687583585553865,0,0.261388974416745,             285P    381
0.706247224634541,0,0.259317107508838,0.721903314748452,0,           285P    382
0.257109376193154,0.734323554851464,0,0.254797974163652,             285P    383
0.743326829873813,0,0.252416606866747,0.748781851792362,0,0.25,      285P    384
0.750609074103818,0,0.247583393133253,0.748781851792362,0,           285P    385
0.245202025836348,0.743326829873813,0,0.242890623806846,             285P    386
0.734323554851464,0,0.240682892491162,0.721903314748452,0,           285P    387
0.238611025583255,0.706247224634541,0,0.236705235568081,             285P    388
0.687583585553866,0,0.234993313155527,0.666184555406647,0,           285P    389
0.233500222029281,0.64236218018074,0,0.232247734820112,              285P    390
0.616463843967128,0,0.231254115611886,0.588867202016403,0,           285P    391
0.230533853610094,0.559974678531066,0,0.230097451856611,             285P    392
0.530207580290672,0,0.23,0.510069207223044,0,0.23,0.5,0,0,1,0,0,     285P    393
1;                                                                   285P    394
126,28,3,1,0,1,0,0,0,0,0,0.0384615384615385,0.0769230769230769,      287P    395
0.115384615384615,0.153846153846154,0.192307692307692,               287P    396
0.230769230769231,0.269230769230769,0.307692307692308,               287P    397
0.346153846153846,0.384615384615385,0.423076923076923,               287P    398
0.461538461538461,0.5,0.538461538461538,0.576923076923077,           287P    399
0.615384615384615,0.653846153846154,0.692307692307692,               287P    400
0.73076923076923,0.769230769230769,0.807692307692307,                287P    401
0.846153846153846,0.884615384615384,0.923076923076923,               287P    402
0.961538461538461,1,1,1,1,1,1,1,1,1,1,1,1,1,1,1,1,1,1,1,1,1,1,1,     287P    403
1,1,1,1,1,1,1,1,1,1,0.23,0.5,0,0.23,0.489930792776956,0,             287P    404
0.230097451856611,0.469792419709328,0,0.230533853610094,             287P    405
0.440025321468934,0,0.231254115611886,0.411132797983597,0,           287P    406
0.232247734820112,0.383536156032872,0,0.233500222029281,             287P    407
0.35763781981926,0,0.234993313155527,0.333815444593353,0,            287P    408
0.236705235568081,0.312416414446134,0,0.238611025583255,             287P    409
0.293752775365458,0,0.240682892491162,0.278096685251548,0,           287P    410
0.242890623806846,0.265676445148536,0,0.245202025836348,             287P    411
0.256673170126187,0,0.247583393133253,0.251218148207638,0,0.25,      287P    412
0.249390925896181,0,0.252416606866747,0.251218148207638,0,           287P    413
0.254797974163652,0.256673170126187,0,0.257109376193154,             287P    414
0.265676445148535,0,0.259317107508838,0.278096685251548,0,           287P    415
0.261388974416745,0.293752775365458,0,0.263294764431919,             287P    416
0.312416414446134,0,0.265006686844473,0.333815444593353,0,           287P    417
0.266499777970719,0.35763781981926,0,0.267752265179888,              287P    418
0.383536156032872,0,0.268745884388114,0.411132797983597,0,           287P    419
0.269466146389906,0.440025321468934,0,0.269902548143389,             287P    420
0.469792419709327,0,0.27,0.489930792776955,0,0.27,0.5,0,0,1,0,0,     287P    421
1;                                                                   287P    422
508,2,0,107,27,0,1,0,285,0,107,28,0,1,0,287;                         289P    423
510,259,3,1,277,283,289;                                             291P    424
110,-60,-12.5,-6.77885682545608E-16,-61,-12.5,                       293P    425
-6.77885682545608E-16;                                               293P    426
110,-60,-11.5,-7.39118022502975E-16,-80,-11.5,                       295P    427
-7.39118022502975E-16;                                               295P    428
120,293,295,0,6.28318530717959;                                      297P    429
126,1,1,1,0,1,0,0,0,1,1,1,1,0,0,0,0,3.14159265358979,0,0,1,0,0,      299P    430
1;                                                                   299P    431
126,1,1,1,0,1,0,0,0,1,1,1,1,0,3.14159265358979,0,1,                  301P    432
3.14159265358979,0,0,1,0,0,1;                                        301P    433
126,1,1,1,0,1,0,0,0,1,1,1,1,1,0,0,1,3.14159265358979,0,0,1,0,0,      303P    434
1;                                                                   303P    435
126,1,1,1,0,1,0,0,0,1,1,1,1,0,0,0,1,0,0,0,1,0,0,1;                   305P    436
508,4,0,107,26,1,1,0,299,0,107,29,1,1,0,301,0,107,30,0,1,0,303,      307P    437
0,107,31,0,1,0,305;                                                  307P    438
510,297,1,1,307;                                                     309P    439
110,-60,12.5,-7.44153626953006E-16,-61,12.5,                         311P    440
-7.44153626953006E-16;                                               311P    441
110,-60,13.5,-8.05385966910374E-16,-80,13.5,                         313P    442
-8.05385966910374E-16;                                               313P    443
120,311,313,0,6.28318530717959;                                      315P    444
126,1,1,1,0,1,0,0,0,1,1,1,1,0,0,0,0,3.14159265358979,0,0,1,0,0,      317P    445
1;                                                                   317P    446
126,1,1,1,0,1,0,0,0,1,1,1,1,0,3.14159265358979,0,1,                  319P    447
3.14159265358979,0,0,1,0,0,1;                                        319P    448
126,1,1,1,0,1,0,0,0,1,1,1,1,1,0,0,1,3.14159265358979,0,0,1,0,0,      321P    449
1;                                                                   321P    450
126,1,1,1,0,1,0,0,0,1,1,1,1,0,0,0,1,0,0,0,1,0,0,1;                   323P    451
508,4,0,107,28,1,1,0,317,0,107,32,1,1,0,319,0,107,33,0,1,0,321,      325P    452
0,107,34,0,1,0,323;                                                  325P    453
510,315,1,1,325;                                                     327P    454
128,1,1,1,1,0,0,1,0,0,0,0,1,1,0,0,1,1,1,1,1,1,-80,-13.5,             329P    455
0.999999999999999,-80,-11.5,0.999999999999999,-80,-13.5,-1,-80,      329P    456
-11.5,-1,0,1,0,1;                                                    329P    457
126,28,3,1,0,1,0,0,0,0,0,0.0384615384615385,0.0769230769230769,      331P    458
0.115384615384615,0.153846153846154,0.192307692307692,               331P    459
0.230769230769231,0.269230769230769,0.307692307692308,               331P    460
0.346153846153846,0.384615384615385,0.423076923076923,               331P    461
0.461538461538461,0.5,0.538461538461538,0.576923076923077,           331P    462
0.615384615384615,0.653846153846154,0.692307692307692,               331P    463
0.73076923076923,0.769230769230769,0.807692307692307,                331P    464
0.846153846153846,0.884615384615384,0.923076923076923,               331P    465
0.961538461538461,1,1,1,1,1,1,1,1,1,1,1,1,1,1,1,1,1,1,1,1,1,1,1,     331P    466
1,1,1,1,1,1,1,1,1,1,1,0.5,0,1,0.520138414446088,0,                   331P    467
0.997563703584719,0.560415160581344,0,0.986653659747647,             331P    468
0.619949357062131,0,0.96864710970285,0.677734404032805,0,            331P    469
0.943806629497201,0.732927687934255,0,0.912494449267983,             331P    470
0.78472436036148,0,0.875167171111837,0.832369110813293,0,            331P    471
0.832369110797979,0.875167171107732,0,0.784724360418633,             331P    472
0.912494449269083,0,0.732927687720959,0.943806629496905,0,           331P    473
0.67773440482884,0.968647109702929,0,0.61994935409129,               331P    474
0.986653659747626,0,0.560415171668669,0.997563703584725,0,0.5,       331P    475
1.00121814820764,0,0.439584828331331,0.997563703584725,0,            331P    476
0.380050645908709,0.986653659747626,0,0.322265595171159,             331P    477
0.968647109702929,0,0.267072312279042,0.943806629496905,0,           331P    478
0.215275639581368,0.912494449269084,0,0.16763088920202,              331P    479
0.875167171107732,0,0.124832828888166,0.832369110813294,0,           331P    480
0.0875055507320148,0.78472436036148,0,0.0561933705028013,            331P    481
0.732927687934256,0,0.0313528902971498,0.677734404032806,0,          331P    482
0.0133463402523519,0.619949357062132,0,0.00243629641528287,          331P    483
0.560415160581345,0,0,0.520138414446089,0,0,0.5,0,0,1,0,0,1;         331P    484
126,28,3,1,0,1,0,0,0,0,0,0.0384615384615385,0.0769230769230769,      333P    485
0.115384615384615,0.153846153846154,0.192307692307692,               333P    486
0.230769230769231,0.269230769230769,0.307692307692308,               333P    487
0.346153846153846,0.384615384615385,0.423076923076923,               333P    488
0.461538461538461,0.5,0.538461538461538,0.576923076923077,           333P    489
0.615384615384615,0.653846153846154,0.692307692307692,               333P    490
0.73076923076923,0.769230769230769,0.807692307692307,                333P    491
0.846153846153846,0.884615384615384,0.923076923076923,               333P    492
0.961538461538461,1,1,1,1,1,1,1,1,1,1,1,1,1,1,1,1,1,1,1,1,1,1,1,     333P    493
1,1,1,1,1,1,1,1,1,1,0,0.5,0,0,0.479861585553912,0,                   333P    494
0.0024362964152802,0.439584839418656,0,0.0133463402523528,           333P    495
0.380050642937869,0,0.0313528902971525,0.322265595967195,0,          333P    496
0.0561933705028013,0.267072312065745,0,0.0875055507320157,           333P    497
0.21527563963852,0,0.124832828888167,0.167630889186707,0,            333P    498
0.167630889202021,0.124832828892269,0,0.215275639581367,             333P    499
0.0875055507309168,0,0.267072312279042,0.0561933705030955,0,         333P    500
0.32226559517116,0.0313528902970715,0,0.380050645908709,             333P    501
0.0133463402523745,0,0.439584828331329,0.00243629641527515,0,        333P    502
0.5,-0.0012181482076376,0,0.560415171668669,0.00243629641527521,     333P    503
0,0.619949354091289,0.013346340252374,0,0.67773440482884,            333P    504
0.0313528902970712,0,0.732927687720958,0.0561933705030954,0,         333P    505
0.784724360418631,0.0875055507309164,0,0.832369110797979,            333P    506
0.124832828892268,0,0.875167171111833,0.167630889186706,0,           333P    507
0.912494449267983,0.21527563963852,0,0.943806629497197,              333P    508
0.267072312065744,0,0.968647109702848,0.322265595967194,0,           333P    509
0.986653659747647,0.380050642937868,0,0.997563703584717,             333P    510
0.439584839418655,0,1,0.479861585553911,0,1,0.5,0,0,1,0,0,1;         333P    511
508,2,0,107,30,1,1,0,331,0,107,35,1,1,0,333;                         335P    512
510,329,1,1,335;                                                     337P    513
128,1,1,1,1,0,0,1,0,0,0,0,1,1,0,0,1,1,1,1,1,1,-80,11.5,              339P    514
0.999999999999999,-80,13.5,0.999999999999999,-80,11.5,-1,-80,        339P    515
13.5,-1,0,1,0,1;                                                     339P    516
126,28,3,1,0,1,0,0,0,0,0,0.0384615384615385,0.0769230769230769,      341P    517
0.115384615384615,0.153846153846154,0.192307692307692,               341P    518
0.230769230769231,0.269230769230769,0.307692307692308,               341P    519
0.346153846153846,0.384615384615385,0.423076923076923,               341P    520
0.461538461538461,0.5,0.538461538461538,0.576923076923077,           341P    521
0.615384615384615,0.653846153846154,0.692307692307692,               341P    522
0.73076923076923,0.769230769230769,0.807692307692307,                341P    523
0.846153846153846,0.884615384615384,0.923076923076923,               341P    524
0.961538461538461,1,1,1,1,1,1,1,1,1,1,1,1,1,1,1,1,1,1,1,1,1,1,1,     341P    525
1,1,1,1,1,1,1,1,1,1,1,0.5,0,1,0.520138414446088,0,                   341P    526
0.99756370358472,0.560415160581344,0,0.986653659747647,              341P    527
0.619949357062131,0,0.968647109702848,0.677734404032805,0,           341P    528
0.943806629497199,0.732927687934255,0,0.912494449267984,             341P    529
0.78472436036148,0,0.875167171111833,0.832369110813293,0,            341P    530
0.832369110797979,0.875167171107732,0,0.784724360418633,             341P    531
0.912494449269083,0,0.732927687720958,0.943806629496905,0,           341P    532
0.67773440482884,0.968647109702929,0,0.619949354091291,              341P    533
0.986653659747626,0,0.560415171668671,0.997563703584725,0,0.5,       341P    534
1.00121814820764,0,0.439584828331331,0.997563703584725,0,            341P    535
0.380050645908709,0.986653659747626,0,0.322265595171162,             341P    536
0.968647109702929,0,0.267072312279042,0.943806629496905,0,           341P    537
0.215275639581369,0.912494449269084,0,0.167630889202021,             341P    538
0.875167171107732,0,0.124832828888167,0.832369110813294,0,           341P    539
0.0875055507320166,0.78472436036148,0,0.056193370502803,             341P    540
0.732927687934256,0,0.0313528902971516,0.677734404032806,0,          341P    541
0.0133463402523528,0.619949357062132,0,0.00243629641528287,          341P    542
0.560415160581345,0,0,0.520138414446089,0,0,0.5,0,0,1,0,0,1;         341P    543
126,28,3,1,0,1,0,0,0,0,0,0.0384615384615385,0.0769230769230769,      343P    544
0.115384615384615,0.153846153846154,0.192307692307692,               343P    545
0.230769230769231,0.269230769230769,0.307692307692308,               343P    546
0.346153846153846,0.384615384615385,0.423076923076923,               343P    547
0.461538461538461,0.5,0.538461538461538,0.576923076923077,           343P    548
0.615384615384615,0.653846153846154,0.692307692307692,               343P    549
0.73076923076923,0.769230769230769,0.807692307692307,                343P    550
0.846153846153846,0.884615384615384,0.923076923076923,               343P    551
0.961538461538461,1,1,1,1,1,1,1,1,1,1,1,1,1,1,1,1,1,1,1,1,1,1,1,     343P    552
1,1,1,1,1,1,1,1,1,1,0,0.5,0,0,0.479861585553912,0,                   343P    553
0.00243629641528109,0.439584839418656,0,0.0133463402523528,          343P    554
0.380050642937869,0,0.0313528902971498,0.322265595967195,0,          343P    555
0.0561933705027995,0.267072312065745,0,0.0875055507320166,           343P    556
0.21527563963852,0,0.124832828888163,0.167630889186707,0,            343P    557
0.167630889202021,0.124832828892269,0,0.215275639581367,             343P    558
0.0875055507309168,0,0.267072312279041,0.0561933705030955,0,         343P    559
0.32226559517116,0.0313528902970714,0,0.38005064590871,              343P    560
0.0133463402523745,0,0.439584828331331,0.00243629641527521,0,        343P    561
0.5,-0.00121814820763755,0,0.560415171668668,                        343P    562
0.00243629641527521,0,0.619949354091291,0.013346340252374,0,         343P    563
0.67773440482884,0.0313528902970712,0,0.732927687720959,             343P    564
0.0561933705030954,0,0.784724360418632,0.0875055507309165,0,         343P    565
0.83236911079798,0.124832828892268,0,0.875167171111834,              343P    566
0.167630889186706,0,0.912494449267985,0.21527563963852,0,            343P    567
0.943806629497199,0.267072312065744,0,0.96864710970285,              343P    568
0.322265595967194,0,0.986653659747648,0.380050642937868,0,           343P    569
0.997563703584717,0.439584839418655,0,1,0.479861585553911,0,1,       343P    570
0.5,0,0,1,0,0,1;                                                     343P    571
508,2,0,107,33,1,1,0,341,0,107,36,1,1,0,343;                         345P    572
510,339,1,1,345;                                                     347P    573
110,-60,-12.5,-6.77885682545608E-16,-61,-12.5,                       349P    574
-6.77885682545608E-16;                                               349P    575
110,-60,-13.5,-7.39118022502975E-16,-80,-13.5,                       351P    576
-7.39118022502975E-16;                                               351P    577
120,349,351,0,6.28318530717959;                                      353P    578
126,1,1,1,0,1,0,0,0,1,1,1,1,0,3.14159265358979,0,1,                  355P    579
3.14159265358979,0,0,1,0,0,1;                                        355P    580
126,1,1,1,0,1,0,0,0,1,1,1,1,1,0,0,1,3.14159265358979,0,0,1,0,0,      357P    581
1;                                                                   357P    582
126,1,1,1,0,1,0,0,0,1,1,1,1,0,0,0,1,0,0,0,1,0,0,1;                   359P    583
126,1,1,1,0,1,0,0,0,1,1,1,1,0,0,0,0,3.14159265358979,0,0,1,0,0,      361P    584
1;                                                                   361P    585
508,4,0,107,31,1,1,0,355,0,107,35,0,1,0,357,0,107,29,0,1,0,359,      363P    586
0,107,25,1,1,0,361;                                                  363P    587
510,353,1,1,363;                                                     365P    588
110,-60,12.5,-7.44153626953006E-16,-61,12.5,                         367P    589
-7.44153626953006E-16;                                               367P    590
110,-60,11.5,-8.05385966910374E-16,-80,11.5,                         369P    591
-8.05385966910374E-16;                                               369P    592
120,367,369,0,6.28318530717959;                                      371P    593
126,1,1,1,0,1,0,0,0,1,1,1,1,0,3.14159265358979,0,1,                  373P    594
3.14159265358979,0,0,1,0,0,1;                                        373P    595
126,1,1,1,0,1,0,0,0,1,1,1,1,1,0,0,1,3.14159265358979,0,0,1,0,0,      375P    596
1;                                                                   375P    597
126,1,1,1,0,1,0,0,0,1,1,1,1,0,0,0,1,0,0,0,1,0,0,1;                   377P    598
126,1,1,1,0,1,0,0,0,1,1,1,1,0,0,0,0,3.14159265358979,0,0,1,0,0,      379P    599
1;                                                                   379P    600
508,4,0,107,34,1,1,0,373,0,107,36,0,1,0,375,0,107,32,0,1,0,377,      381P    601
0,107,27,1,1,0,379;                                                  381P    602
510,371,1,1,381;                                                     383P    603
514,16,121,0,135,1,149,1,163,1,181,1,199,1,217,0,235,0,257,1,        385P    604
291,1,309,0,327,0,337,1,347,1,365,0,383,0;                           385P    605
186,385,1,0;                                                         387P    606
S      2G      3D    388P    606                                        T      1
