IGES file generated by C3D Converter 1.8                                S      1
translator by C3D Labs., translator version IGESOUT-5.1.                S      2
1H,,1H;,7H Деталь,45HE:\Сдача задания\Модели\IGES\крышка плеча.igs,0H,3HG      1
1.0,32,38,6,308,15,7Hunknown,1,2,2HMM,1000,1,16H-17740206:063453,1E-6,50G      2
000,5Hno1se,7Hunknown,0,0,13H260306:063454;                             G      3
     502       1       0       0       0       0       0       000010000D      1
     502       0       0      12       1                               0D      2
     124      13       0       0       0       0       0       001020201D      3
     124       0       0       2       0                               0D      4
     100      15       0       0       0       0       3       000010000D      5
     100       1       0       1       0                               0D      6
     110      16       0       0       0       0       0       000010000D      7
     110       1       0       1       0                               0D      8
     110      17       0       0       0       0       0       000010000D      9
     110       1       0       1       0                               0D     10
     110      18       0       0       0       0       0       000010000D     11
     110       1       0       1       0                               0D     12
     110      19       0       0       0       0       0       000010000D     13
     110       1       0       1       0                               0D     14
     110      20       0       0       0       0       0       000010000D     15
     110       1       0       1       0                               0D     16
     124      21       0       0       0       0       0       001020201D     17
     124       1       0       2       0                               0D     18
     100      23       0       0       0       0      17       000010000D     19
     100       1       0       1       0                               0D     20
     110      24       0       0       0       0       0       000010000D     21
     110       1       0       1       0                               0D     22
     110      25       0       0       0       0       0       000010000D     23
     110       1       0       1       0                               0D     24
     110      26       0       0       0       0       0       000010000D     25
     110       1       0       1       0                               0D     26
     110      27       0       0       0       0       0       000010000D     27
     110       1       0       1       0                               0D     28
     110      28       0       0       0       0       0       000010000D     29
     110       1       0       1       0                               0D     30
     124      29       0       0       0       0       0       001020201D     31
     124       1       0       2       0                               0D     32
     100      31       0       0       0       0      31       000010000D     33
     100       1       0       1       0                               0D     34
     110      32       0       0       0       0       0       000010000D     35
     110       1       0       1       0                               0D     36
     110      33       0       0       0       0       0       000010000D     37
     110       1       0       1       0                               0D     38
     110      34       0       0       0       0       0       000010000D     39
     110       1       0       1       0                               0D     40
     110      35       0       0       0       0       0       000010000D     41
     110       1       0       1       0                               0D     42
     110      36       0       0       0       0       0       000010000D     43
     110       1       0       1       0                               0D     44
     124      37       0       0       0       0       0       001020201D     45
     124       1       0       2       0                               0D     46
     100      39       0       0       0       0      45       000010000D     47
     100       1       0       1       0                               0D     48
     110      40       0       0       0       0       0       000010000D     49
     110       1       0       1       0                               0D     50
     110      41       0       0       0       0       0       000010000D     51
     110       1       0       1       0                               0D     52
     110      42       0       0       0       0       0       000010000D     53
     110       1       0       1       0                               0D     54
     110      43       0       0       0       0       0       000010000D     55
     110       1       0       1       0                               0D     56
     110      44       0       0       0       0       0       000010000D     57
     110       1       0       1       0                               0D     58
     110      45       0       0       0       0       0       000010000D     59
     110       1       0       1       0                               0D     60
     110      46       0       0       0       0       0       000010000D     61
     110       1       0       1       0                               0D     62
     110      47       0       0       0       0       0       000010000D     63
     110       1       0       1       0                               0D     64
     110      48       0       0       0       0       0       000010000D     65
     110       1       0       1       0                               0D     66
     110      49       0       0       0       0       0       000010000D     67
     110       1       0       1       0                               0D     68
     110      50       0       0       0       0       0       000010000D     69
     110       1       0       1       0                               0D     70
     110      51       0       0       0       0       0       000010000D     71
     110       1       0       1       0                               0D     72
     110      52       0       0       0       0       0       000010000D     73
     110       1       0       1       0                               0D     74
     110      53       0       0       0       0       0       000010000D     75
     110       1       0       1       0                               0D     76
     110      54       0       0       0       0       0       000010000D     77
     110       1       0       1       0                               0D     78
     110      55       0       0       0       0       0       000010000D     79
     110       1       0       1       0                               0D     80
     110      56       0       0       0       0       0       000010000D     81
     110       1       0       1       0                               0D     82
     504      57       0       0       0       0       0       000010000D     83
     504       1       0       8       1                               0D     84
     128      65       0       0       0       0       0       000010000D     85
     128       1       0       2       0                               0D     86
     126      67       0       0       0       0       0       001010500D     87
     126       1       0      27       0                               0D     88
     126      94       0       0       0       0       0       001010500D     89
     126       1       0       1       0                               0D     90
     126      95       0       0       0       0       0       001010500D     91
     126       1       0       2       0                               0D     92
     126      97       0       0       0       0       0       001010500D     93
     126       1       0       2       0                               0D     94
     126      99       0       0       0       0       0       001010500D     95
     126       1       0       2       0                               0D     96
     126     101       0       0       0       0       0       001010500D     97
     126       1       0       1       0                               0D     98
     126     102       0       0       0       0       0       001010500D     99
     126       1       0      28       0                               0D    100
     126     130       0       0       0       0       0       001010500D    101
     126       1       0       1       0                               0D    102
     126     131       0       0       0       0       0       001010500D    103
     126       1       0       2       0                               0D    104
     126     133       0       0       0       0       0       001010500D    105
     126       1       0       2       0                               0D    106
     126     135       0       0       0       0       0       001010500D    107
     126       1       0       2       0                               0D    108
     126     137       0       0       0       0       0       001010500D    109
     126       1       0       1       0                               0D    110
     508     138       0       0       0       0       0       000010000D    111
     508       1       0       4       1                               0D    112
     314     142       0       0       0       0       0       001000200D    113
     314       1       0       1       0                               0D    114
     510     143       0       0       0       0       0       000010000D    115
     510       1    -113       1       1                               0D    116
     128     144       0       0       0       0       0       000010000D    117
     128       1       0       3       0                               0D    118
     126     147       0       0       0       0       0       001010500D    119
     126       1       0      27       0                               0D    120
     126     174       0       0       0       0       0       001010500D    121
     126       1       0       1       0                               0D    122
     126     175       0       0       0       0       0       001010500D    123
     126       1       0       2       0                               0D    124
     126     177       0       0       0       0       0       001010500D    125
     126       1       0       2       0                               0D    126
     126     179       0       0       0       0       0       001010500D    127
     126       1       0       2       0                               0D    128
     126     181       0       0       0       0       0       001010500D    129
     126       1       0       1       0                               0D    130
     126     182       0       0       0       0       0       001010500D    131
     126       1       0      28       0                               0D    132
     126     210       0       0       0       0       0       001010500D    133
     126       1       0       1       0                               0D    134
     126     211       0       0       0       0       0       001010500D    135
     126       1       0       2       0                               0D    136
     126     213       0       0       0       0       0       001010500D    137
     126       1       0       2       0                               0D    138
     126     215       0       0       0       0       0       001010500D    139
     126       1       0       2       0                               0D    140
     126     217       0       0       0       0       0       001010500D    141
     126       1       0       1       0                               0D    142
     508     218       0       0       0       0       0       000010000D    143
     508       1       0       4       1                               0D    144
     510     222       0       0       0       0       0       000010000D    145
     510       1    -113       1       1                               0D    146
     128     223       0       0       0       0       0       000010000D    147
     128       1       0       2       0                               0D    148
     126     225       0       0       0       0       0       001010500D    149
     126       1       0       2       0                               0D    150
     126     227       0       0       0       0       0       001010500D    151
     126       1       0       1       0                               0D    152
     126     228       0       0       0       0       0       001010500D    153
     126       1       0       1       0                               0D    154
     126     229       0       0       0       0       0       001010500D    155
     126       1       0       1       0                               0D    156
     508     230       0       0       0       0       0       000010000D    157
     508       1       0       2       1                               0D    158
     510     232       0       0       0       0       0       000010000D    159
     510       1    -113       1       1                               0D    160
     128     233       0       0       0       0       0       000010000D    161
     128       1       0       2       0                               0D    162
     126     235       0       0       0       0       0       001010500D    163
     126       1       0       2       0                               0D    164
     126     237       0       0       0       0       0       001010500D    165
     126       1       0       1       0                               0D    166
     126     238       0       0       0       0       0       001010500D    167
     126       1       0       1       0                               0D    168
     126     239       0       0       0       0       0       001010500D    169
     126       1       0       1       0                               0D    170
     508     240       0       0       0       0       0       000010000D    171
     508       1       0       2       1                               0D    172
     510     242       0       0       0       0       0       000010000D    173
     510       1    -113       1       1                               0D    174
     128     243       0       0       0       0       0       000010000D    175
     128       1       0       2       0                               0D    176
     126     245       0       0       0       0       0       001010500D    177
     126       1       0       1       0                               0D    178
     126     246       0       0       0       0       0       001010500D    179
     126       1       0       2       0                               0D    180
     126     248       0       0       0       0       0       001010500D    181
     126       1       0       2       0                               0D    182
     126     250       0       0       0       0       0       001010500D    183
     126       1       0       1       0                               0D    184
     508     251       0       0       0       0       0       000010000D    185
     508       1       0       2       1                               0D    186
     510     253       0       0       0       0       0       000010000D    187
     510       1    -113       1       1                               0D    188
     128     254       0       0       0       0       0       000010000D    189
     128       1       0       3       0                               0D    190
     126     257       0       0       0       0       0       001010500D    191
     126       1       0       1       0                               0D    192
     126     258       0       0       0       0       0       001010500D    193
     126       1       0       1       0                               0D    194
     126     259       0       0       0       0       0       001010500D    195
     126       1       0       2       0                               0D    196
     126     261       0       0       0       0       0       001010500D    197
     126       1       0       2       0                               0D    198
     508     263       0       0       0       0       0       000010000D    199
     508       1       0       2       1                               0D    200
     510     265       0       0       0       0       0       000010000D    201
     510       1    -113       1       1                               0D    202
     110     266       0       0       0       0       0       001010000D    203
     110       1       0       1       0                               0D    204
     110     267       0       0       0       0       0       001010001D    205
     110       1       0       1       0                               0D    206
     120     268       0       0       0       0       0       000010000D    207
     120       1       0       1       0                               0D    208
     126     269       0       0       0       0       0       001010500D    209
     126       1       0       2       0                               0D    210
     126     271       0       0       0       0       0       001010500D    211
     126       1       0       2       0                               0D    212
     126     273       0       0       0       0       0       001010500D    213
     126       1       0       1       0                               0D    214
     126     274       0       0       0       0       0       001010500D    215
     126       1       0       2       0                               0D    216
     508     276       0       0       0       0       0       000010000D    217
     508       1       0       2       1                               0D    218
     510     278       0       0       0       0       0       000010000D    219
     510       1    -113       1       1                               0D    220
     110     279       0       0       0       0       0       001010000D    221
     110       1       0       1       0                               0D    222
     110     280       0       0       0       0       0       001010001D    223
     110       1       0       1       0                               0D    224
     120     281       0       0       0       0       0       000010000D    225
     120       1       0       1       0                               0D    226
     126     282       0       0       0       0       0       001010500D    227
     126       1       0       2       0                               0D    228
     126     284       0       0       0       0       0       001010500D    229
     126       1       0       2       0                               0D    230
     126     286       0       0       0       0       0       001010500D    231
     126       1       0       1       0                               0D    232
     126     287       0       0       0       0       0       001010500D    233
     126       1       0       2       0                               0D    234
     508     289       0       0       0       0       0       000010000D    235
     508       1       0       2       1                               0D    236
     510     291       0       0       0       0       0       000010000D    237
     510       1    -113       1       1                               0D    238
     128     292       0       0       0       0       0       000010000D    239
     128       1       0       3       0                               0D    240
     126     295       0       0       0       0       0       001010500D    241
     126       1       0       1       0                               0D    242
     126     296       0       0       0       0       0       001010500D    243
     126       1       0       1       0                               0D    244
     126     297       0       0       0       0       0       001010500D    245
     126       1       0       1       0                               0D    246
     126     298       0       0       0       0       0       001010500D    247
     126       1       0       1       0                               0D    248
     508     299       0       0       0       0       0       000010000D    249
     508       1       0       2       1                               0D    250
     510     301       0       0       0       0       0       000010000D    251
     510       1    -113       1       1                               0D    252
     128     302       0       0       0       0       0       000010000D    253
     128       1       0       2       0                               0D    254
     126     304       0       0       0       0       0       001010500D    255
     126       1       0       1       0                               0D    256
     126     305       0       0       0       0       0       001010500D    257
     126       1       0       1       0                               0D    258
     126     306       0       0       0       0       0       001010500D    259
     126       1       0       1       0                               0D    260
     126     307       0       0       0       0       0       001010500D    261
     126       1       0       1       0                               0D    262
     508     308       0       0       0       0       0       000010000D    263
     508       1       0       2       1                               0D    264
     510     310       0       0       0       0       0       000010000D    265
     510       1    -113       1       1                               0D    266
     128     311       0       0       0       0       0       000010000D    267
     128       1       0       2       0                               0D    268
     126     313       0       0       0       0       0       001010500D    269
     126       1       0       1       0                               0D    270
     126     314       0       0       0       0       0       001010500D    271
     126       1       0       1       0                               0D    272
     126     315       0       0       0       0       0       001010500D    273
     126       1       0       1       0                               0D    274
     126     316       0       0       0       0       0       001010500D    275
     126       1       0       1       0                               0D    276
     508     317       0       0       0       0       0       000010000D    277
     508       1       0       2       1                               0D    278
     510     319       0       0       0       0       0       000010000D    279
     510       1    -113       1       1                               0D    280
     128     320       0       0       0       0       0       000010000D    281
     128       1       0       2       0                               0D    282
     126     322       0       0       0       0       0       001010500D    283
     126       1       0       1       0                               0D    284
     126     323       0       0       0       0       0       001010500D    285
     126       1       0       1       0                               0D    286
     126     324       0       0       0       0       0       001010500D    287
     126       1       0       1       0                               0D    288
     126     325       0       0       0       0       0       001010500D    289
     126       1       0       1       0                               0D    290
     508     326       0       0       0       0       0       000010000D    291
     508       1       0       2       1                               0D    292
     510     328       0       0       0       0       0       000010000D    293
     510       1    -113       1       1                               0D    294
     128     329       0       0       0       0       0       000010000D    295
     128       1       0       3       0                               0D    296
     126     332       0       0       0       0       0       001010500D    297
     126       1       0       1       0                               0D    298
     126     333       0       0       0       0       0       001010500D    299
     126       1       0       1       0                               0D    300
     126     334       0       0       0       0       0       001010500D    301
     126       1       0       1       0                               0D    302
     126     335       0       0       0       0       0       001010500D    303
     126       1       0       1       0                               0D    304
     508     336       0       0       0       0       0       000010000D    305
     508       1       0       2       1                               0D    306
     510     338       0       0       0       0       0       000010000D    307
     510       1    -113       1       1                               0D    308
     128     339       0       0       0       0       0       000010000D    309
     128       1       0       3       0                               0D    310
     126     342       0       0       0       0       0       001010500D    311
     126       1       0       1       0                               0D    312
     126     343       0       0       0       0       0       001010500D    313
     126       1       0       1       0                               0D    314
     126     344       0       0       0       0       0       001010500D    315
     126       1       0       1       0                               0D    316
     126     345       0       0       0       0       0       001010500D    317
     126       1       0       1       0                               0D    318
     508     346       0       0       0       0       0       000010000D    319
     508       1       0       2       1                               0D    320
     510     348       0       0       0       0       0       000010000D    321
     510       1    -113       1       1                               0D    322
     514     349       0       0       0       0       0       000010000D    323
     514       1       0       2       1                               0D    324
     186     351       0       0       0       0       0       000010000D    325
     186       1       0       1       0                               0D    326
502,24,-5,1.16341445918999E-14,-190,5,1.16341445918999E-14,-190,       1P      1
20,1.16341445918999E-14,-190,25,1.1327982892113E-14,-185,25,           1P      2
-1.1327982892113E-14,185,20,-1.16341445918999E-14,190,5,               1P      3
-1.16341445918999E-14,190,-5,-1.16341445918999E-14,190,-20,            1P      4
-1.16341445918999E-14,190,-25,-1.1327982892113E-14,185,-25,            1P      5
1.1327982892113E-14,-185,-20,1.16341445918999E-14,-190,5,              1P      6
0.500000000000012,-190,-5,0.500000000000012,-190,-20,                  1P      7
0.500000000000012,-190,-25,0.500000000000011,-185,-25,                 1P      8
0.499999999999989,185,-20,0.499999999999988,190,-5,                    1P      9
0.499999999999988,190,5,0.499999999999988,190,20,                      1P     10
0.499999999999988,190,25,0.499999999999989,185,25,                     1P     11
0.500000000000011,-185,20,0.500000000000012,-190;                      1P     12
124,-1,0,0,0,0,-6.12323399573677E-17,1,1.16341445918999E-14,0,1,       3P     13
6.12323399573677E-17,-190;                                             3P     14
100,0,0,0,5,0,-5,6.12323399573677E-16;                                 5P     15
110,20,1.16341445918999E-14,-190,5,1.16341445918999E-14,-190;          7P     16
110,25,1.1327982892113E-14,-185,20,1.16341445918999E-14,-190;          9P     17
110,25,-1.1327982892113E-14,185,25,1.1327982892113E-14,-185;          11P     18
110,20,-1.16341445918999E-14,190,25,-1.1327982892113E-14,185;         13P     19
110,5,-1.16341445918999E-14,190,20,-1.16341445918999E-14,190;         15P     20
124,1,0,0,0,0,6.12323399573677E-17,1,-1.16341445918999E-14,0,-1,      17P     21
6.12323399573677E-17,190;                                             17P     22
100,0,0,0,5,0,-5,6.12323399573677E-16;                                19P     23
110,-20,-1.16341445918999E-14,190,-5,-1.16341445918999E-14,190;       21P     24
110,-25,-1.1327982892113E-14,185,-20,-1.16341445918999E-14,190;       23P     25
110,-25,1.1327982892113E-14,-185,-25,-1.1327982892113E-14,185;        25P     26
110,-20,1.16341445918999E-14,-190,-25,1.1327982892113E-14,-185;       27P     27
110,-5,1.16341445918999E-14,-190,-20,1.16341445918999E-14,-190;       29P     28
124,-1,0,0,0,0,-6.12323399573677E-17,1,0.500000000000012,0,1,         31P     29
6.12323399573677E-17,-190;                                            31P     30
100,0,0,0,5,0,-5,6.12323399573677E-16;                                33P     31
110,-5,0.500000000000012,-190,-20,0.500000000000012,-190;             35P     32
110,-20,0.500000000000012,-190,-25,0.500000000000011,-185;            37P     33
110,-25,0.500000000000011,-185,-25,0.499999999999989,185;             39P     34
110,-25,0.499999999999989,185,-20,0.499999999999988,190;              41P     35
110,-20,0.499999999999988,190,-5,0.499999999999988,190;               43P     36
124,1,0,0,0,0,6.12323399573677E-17,1,0.499999999999988,0,-1,          45P     37
6.12323399573677E-17,190;                                             45P     38
100,0,0,0,5,0,-5,6.12323399573677E-16;                                47P     39
110,5,0.499999999999988,190,20,0.499999999999988,190;                 49P     40
110,20,0.499999999999988,190,25,0.499999999999989,185;                51P     41
110,25,0.499999999999989,185,25,0.500000000000011,-185;               53P     42
110,25,0.500000000000011,-185,20,0.500000000000012,-190;              55P     43
110,20,0.500000000000012,-190,5,0.500000000000012,-190;               57P     44
110,-5,-1.27998787677563E-14,190,-5,0.499999999999988,190;            59P     45
110,-20,-1.16341445918999E-14,190,-20,0.499999999999988,190;          61P     46
110,5,-1.27998787677563E-14,190,5,0.499999999999988,190;              63P     47
110,20,-1.16341445918999E-14,190,20,0.499999999999988,190;            65P     48
110,5,1.19117003480561E-14,-190,5,0.500000000000012,-190;             67P     49
110,20,1.16341445918999E-14,-190,20,0.500000000000012,-190;           69P     50
110,-5,1.19117003480561E-14,-190,-5,0.500000000000012,-190;           71P     51
110,-20,1.16341445918999E-14,-190,-20,0.500000000000012,-190;         73P     52
110,25,1.1327982892113E-14,-185,25,0.500000000000011,-185;            75P     53
110,25,-1.1327982892113E-14,185,25,0.499999999999989,185;             77P     54
110,-25,-1.1327982892113E-14,185,-25,0.499999999999989,185;           79P     55
110,-25,1.1327982892113E-14,-185,-25,0.500000000000011,-185;          81P     56
504,36,5,1,1,1,2,7,1,3,1,2,9,1,4,1,3,11,1,5,1,4,13,1,6,1,5,15,1,      83P     57
7,1,6,19,1,7,1,8,21,1,9,1,8,23,1,10,1,9,25,1,11,1,10,27,1,12,1,       83P     58
11,29,1,1,1,12,33,1,14,1,13,35,1,14,1,15,37,1,15,1,16,39,1,16,1,      83P     59
17,41,1,17,1,18,43,1,18,1,19,47,1,20,1,19,49,1,20,1,21,51,1,21,       83P     60
1,22,53,1,22,1,23,55,1,23,1,24,57,1,24,1,13,59,1,8,1,19,61,1,9,       83P     61
1,18,63,1,7,1,20,65,1,6,1,21,67,1,2,1,13,69,1,3,1,24,71,1,1,1,        83P     62
14,73,1,12,1,15,75,1,4,1,23,77,1,5,1,22,79,1,10,1,17,81,1,11,1,       83P     63
16;                                                                   83P     64
128,1,1,1,1,0,0,1,0,0,0,0,1,1,0,0,1,1,1,1,1,1,-25,0,190,25,0,         85P     65
190,-25,0,-190,25,0,-190,0,1,0,1;                                     85P     66
126,28,3,1,0,1,0,0,0,0,0,0.0384615384615385,0.0769230769230769,       87P     67
0.115384615384615,0.153846153846154,0.192307692307692,                87P     68
0.230769230769231,0.269230769230769,0.307692307692308,                87P     69
0.346153846153846,0.384615384615385,0.423076923076923,                87P     70
0.461538461538461,0.5,0.538461538461538,0.576923076923077,            87P     71
0.615384615384615,0.653846153846154,0.692307692307692,                87P     72
0.73076923076923,0.769230769230769,0.807692307692307,                 87P     73
0.846153846153846,0.884615384615384,0.923076923076923,                87P     74
0.961538461538461,1,1,1,1,1,1,1,1,1,1,1,1,1,1,1,1,1,1,1,1,1,1,1,      87P     75
1,1,1,1,1,1,1,1,1,1,0.4,1,0,0.4,0.999470041725103,0,                  87P     76
0.400487259283056,0.998410127353123,0,0.402669268050471,              87P     77
0.996843437972049,0,0.40627057805943,0.995322778841242,0,             87P     78
0.41123867410056,0.99387032400173,0,0.417501110146403,                87P     79
0.992507253674698,0,0.424966565777633,0.991253444452281,0,            87P     80
0.433526177840404,0.990127179707691,0,0.443055127916274,              87P     81
0.989144882913972,0,0.453414462455808,0.988320878171134,0,            87P     82
0.464453119034232,0.987667181323607,0,0.476010129181742,              87P     83
0.987193324743483,0,0.487916965666266,0.986906218326718,0,0.5,        87P     84
0.986810048731378,0,0.512083034333734,0.986906218326718,0,            87P     85
0.523989870818258,0.987193324743484,0,0.535546880965768,              87P     86
0.987667181323607,0,0.546585537544192,0.988320878171134,0,            87P     87
0.556944872083726,0.989144882913972,0,0.566473822159596,              87P     88
0.990127179707691,0,0.575033434222367,0.991253444452282,0,            87P     89
0.582498889853597,0.992507253674698,0,0.58876132589944,               87P     90
0.99387032400173,0,0.59372942194057,0.995322778841242,0,              87P     91
0.597330731949529,0.996843437972049,0,0.599512740716944,              87P     92
0.998410127353122,0,0.6,0.999470041725103,0,0.6,1,0,0,1,0,0,1;        87P     93
126,1,1,1,0,1,0,0,0,1,1,1,1,0.9,1,0,0.6,1,0,0,1,0,0,1;                89P     94
126,1,1,1,0,1,0,0,0,1,1,1,1,1,0.986842105263158,0,0.9,1,0,0,1,0,      91P     95
0,1;                                                                  91P     96
126,1,1,1,0,1,0,0,0,1,1,1,1,1,0.0131578947368421,0,1,                 93P     97
0.986842105263158,0,0,1,0,0,1;                                        93P     98
126,1,1,1,0,1,0,0,0,1,1,1,1,0.9,0,0,1,0.0131578947368421,0,0,1,       95P     99
0,0,1;                                                                95P    100
126,1,1,1,0,1,0,0,0,1,1,1,1,0.6,0,0,0.9,0,0,0,1,0,0,1;                97P    101
126,28,3,1,0,1,0,0,0,0,0,0.0384615384615385,0.0769230769230769,       99P    102
0.115384615384615,0.153846153846154,0.192307692307692,                99P    103
0.230769230769231,0.269230769230769,0.307692307692308,                99P    104
0.346153846153846,0.384615384615385,0.423076923076923,                99P    105
0.461538461538461,0.5,0.538461538461538,0.576923076923077,            99P    106
0.615384615384615,0.653846153846154,0.692307692307692,                99P    107
0.73076923076923,0.769230769230769,0.807692307692307,                 99P    108
0.846153846153846,0.884615384615384,0.923076923076923,                99P    109
0.961538461538461,1,1,1,1,1,1,1,1,1,1,1,1,1,1,1,1,1,1,1,1,1,1,1,      99P    110
1,1,1,1,1,1,1,1,1,1,0.6,0,0,0.6,0.000529958274897102,0,               99P    111
0.599512740716944,0.00158987264687738,0,0.597330731949529,            99P    112
0.00315656202795084,0,0.59372942194057,0.00467722115875813,0,         99P    113
0.58876132589944,0.00612967599826991,0,0.582498889853597,             99P    114
0.00749274632530206,0,0.575033434222367,0.00874655554771853,0,        99P    115
0.566473822159596,0.00987282029230863,0,0.556944872083726,            99P    116
0.0108551170860285,0,0.546585537544192,0.0116791218288662,0,          99P    117
0.535546880965768,0.0123328186763926,0,0.523989870818258,             99P    118
0.0128066752565166,0,0.512083034333734,0.0130937816732821,0,0.5,      99P    119
0.0131899512686221,0,0.487916965666266,0.0130937816732822,0,          99P    120
0.476010129181742,0.0128066752565165,0,0.464453119034232,             99P    121
0.0123328186763928,0,0.453414462455808,0.0116791218288659,0,          99P    122
0.443055127916274,0.0108551170860283,0,0.433526177840404,             99P    123
0.00987282029230863,0,0.424966565777633,0.00874655554771819,0,        99P    124
0.417501110146403,0.00749274632530217,0,0.41123867410056,             99P    125
0.00612967599826975,0,0.40627057805943,0.00467722115875802,0,         99P    126
0.402669268050471,0.00315656202795067,0,0.400487259283056,            99P    127
0.0015898726468776,0,0.4,0.000529958274897102,0,0.4,0,0,0,1,0,0,      99P    128
1;                                                                    99P    129
126,1,1,1,0,1,0,0,0,1,1,1,1,0.1,0,0,0.4,0,0,0,1,0,0,1;               101P    130
126,1,1,1,0,1,0,0,0,1,1,1,1,0,0.0131578947368421,0,0.1,0,0,0,1,      103P    131
0,0,1;                                                               103P    132
126,1,1,1,0,1,0,0,0,1,1,1,1,0,0.986842105263158,0,0,                 105P    133
0.0131578947368421,0,0,1,0,0,1;                                      105P    134
126,1,1,1,0,1,0,0,0,1,1,1,1,0.1,1,0,0,0.986842105263158,0,0,1,0,     107P    135
0,1;                                                                 107P    136
126,1,1,1,0,1,0,0,0,1,1,1,1,0.4,1,0,0.1,1,0,0,1,0,0,1;               109P    137
508,12,0,83,1,1,1,0,87,0,83,2,0,1,0,89,0,83,3,0,1,0,91,0,83,4,0,     111P    138
1,0,93,0,83,5,0,1,0,95,0,83,6,0,1,0,97,0,83,7,1,1,0,99,0,83,8,0,     111P    139
1,0,101,0,83,9,0,1,0,103,0,83,10,0,1,0,105,0,83,11,0,1,0,107,0,      111P    140
83,12,0,1,0,109;                                                     111P    141
314,56.4705882352941,56.4705882352941,56.4705882352941,1H ;          113P    142
510,85,1,1,111;                                                      115P    143
128,1,1,1,1,0,0,1,0,0,0,0,1,1,0,0,1,1,1,1,1,1,-25,                   117P    144
0.499999999999988,190,25,0.499999999999988,190,-25,                  117P    145
0.500000000000012,-190,25,0.500000000000012,-190,0,1,0,1;            117P    146
126,28,3,1,0,1,0,0,0,0,0,0.0384615384615385,0.0769230769230769,      119P    147
0.115384615384615,0.153846153846154,0.192307692307692,               119P    148
0.230769230769231,0.269230769230769,0.307692307692308,               119P    149
0.346153846153846,0.384615384615385,0.423076923076923,               119P    150
0.461538461538461,0.5,0.538461538461538,0.576923076923077,           119P    151
0.615384615384615,0.653846153846154,0.692307692307692,               119P    152
0.73076923076923,0.769230769230769,0.807692307692307,                119P    153
0.846153846153846,0.884615384615384,0.923076923076923,               119P    154
0.961538461538461,1,1,1,1,1,1,1,1,1,1,1,1,1,1,1,1,1,1,1,1,1,1,1,     119P    155
1,1,1,1,1,1,1,1,1,1,0.4,1,0,0.4,0.999470041725103,0,                 119P    156
0.400487259283056,0.998410127353123,0,0.402669268050471,             119P    157
0.996843437972049,0,0.40627057805943,0.995322778841242,0,            119P    158
0.41123867410056,0.99387032400173,0,0.417501110146403,               119P    159
0.992507253674698,0,0.424966565777633,0.991253444452281,0,           119P    160
0.433526177840404,0.990127179707691,0,0.443055127916274,             119P    161
0.989144882913972,0,0.453414462455808,0.988320878171134,0,           119P    162
0.464453119034232,0.987667181323607,0,0.476010129181742,             119P    163
0.987193324743483,0,0.487916965666266,0.986906218326718,0,0.5,       119P    164
0.986810048731378,0,0.512083034333734,0.986906218326718,0,           119P    165
0.523989870818258,0.987193324743484,0,0.535546880965768,             119P    166
0.987667181323607,0,0.546585537544192,0.988320878171134,0,           119P    167
0.556944872083726,0.989144882913972,0,0.566473822159596,             119P    168
0.990127179707691,0,0.575033434222367,0.991253444452282,0,           119P    169
0.582498889853597,0.992507253674698,0,0.58876132589944,              119P    170
0.99387032400173,0,0.59372942194057,0.995322778841242,0,             119P    171
0.597330731949529,0.996843437972049,0,0.599512740716944,             119P    172
0.998410127353122,0,0.6,0.999470041725103,0,0.6,1,0,0,1,0,0,1;       119P    173
126,1,1,1,0,1,0,0,0,1,1,1,1,0.4,1,0,0.1,1,0,0,1,0,0,1;               121P    174
126,1,1,1,0,1,0,0,0,1,1,1,1,0.1,1,0,0,0.986842105263158,0,0,1,0,     123P    175
0,1;                                                                 123P    176
126,1,1,1,0,1,0,0,0,1,1,1,1,0,0.986842105263158,0,0,                 125P    177
0.0131578947368421,0,0,1,0,0,1;                                      125P    178
126,1,1,1,0,1,0,0,0,1,1,1,1,0,0.0131578947368421,0,0.1,0,0,0,1,      127P    179
0,0,1;                                                               127P    180
126,1,1,1,0,1,0,0,0,1,1,1,1,0.1,0,0,0.4,0,0,0,1,0,0,1;               129P    181
126,28,3,1,0,1,0,0,0,0,0,0.0384615384615385,0.0769230769230769,      131P    182
0.115384615384615,0.153846153846154,0.192307692307692,               131P    183
0.230769230769231,0.269230769230769,0.307692307692308,               131P    184
0.346153846153846,0.384615384615385,0.423076923076923,               131P    185
0.461538461538461,0.5,0.538461538461538,0.576923076923077,           131P    186
0.615384615384615,0.653846153846154,0.692307692307692,               131P    187
0.73076923076923,0.769230769230769,0.807692307692307,                131P    188
0.846153846153846,0.884615384615384,0.923076923076923,               131P    189
0.961538461538461,1,1,1,1,1,1,1,1,1,1,1,1,1,1,1,1,1,1,1,1,1,1,1,     131P    190
1,1,1,1,1,1,1,1,1,1,0.6,0,0,0.6,0.000529958274897102,0,              131P    191
0.599512740716944,0.00158987264687738,0,0.597330731949529,           131P    192
0.00315656202795084,0,0.59372942194057,0.00467722115875813,0,        131P    193
0.58876132589944,0.00612967599826991,0,0.582498889853597,            131P    194
0.00749274632530206,0,0.575033434222367,0.00874655554771853,0,       131P    195
0.566473822159596,0.00987282029230863,0,0.556944872083726,           131P    196
0.0108551170860285,0,0.546585537544192,0.0116791218288662,0,         131P    197
0.535546880965768,0.0123328186763926,0,0.523989870818258,            131P    198
0.0128066752565166,0,0.512083034333734,0.0130937816732821,0,0.5,     131P    199
0.0131899512686221,0,0.487916965666266,0.0130937816732822,0,         131P    200
0.476010129181742,0.0128066752565165,0,0.464453119034232,            131P    201
0.0123328186763928,0,0.453414462455808,0.0116791218288659,0,         131P    202
0.443055127916274,0.0108551170860283,0,0.433526177840404,            131P    203
0.00987282029230863,0,0.424966565777633,0.00874655554771819,0,       131P    204
0.417501110146403,0.00749274632530217,0,0.41123867410056,            131P    205
0.00612967599826975,0,0.40627057805943,0.00467722115875802,0,        131P    206
0.402669268050471,0.00315656202795067,0,0.400487259283056,           131P    207
0.0015898726468776,0,0.4,0.000529958274897102,0,0.4,0,0,0,1,0,0,     131P    208
1;                                                                   131P    209
126,1,1,1,0,1,0,0,0,1,1,1,1,0.6,0,0,0.9,0,0,0,1,0,0,1;               133P    210
126,1,1,1,0,1,0,0,0,1,1,1,1,0.9,0,0,1,0.0131578947368421,0,0,1,      135P    211
0,0,1;                                                               135P    212
126,1,1,1,0,1,0,0,0,1,1,1,1,1,0.0131578947368421,0,1,                137P    213
0.986842105263158,0,0,1,0,0,1;                                       137P    214
126,1,1,1,0,1,0,0,0,1,1,1,1,1,0.986842105263158,0,0.9,1,0,0,1,0,     139P    215
0,1;                                                                 139P    216
126,1,1,1,0,1,0,0,0,1,1,1,1,0.9,1,0,0.6,1,0,0,1,0,0,1;               141P    217
508,12,0,83,13,0,1,0,119,0,83,14,1,1,0,121,0,83,15,1,1,0,123,0,      143P    218
83,16,1,1,0,125,0,83,17,1,1,0,127,0,83,18,1,1,0,129,0,83,19,0,1,     143P    219
0,131,0,83,20,1,1,0,133,0,83,21,1,1,0,135,0,83,22,1,1,0,137,0,       143P    220
83,23,1,1,0,139,0,83,24,1,1,0,141;                                   143P    221
510,117,1,1,143;                                                     145P    222
128,1,1,1,1,0,0,1,0,0,0,0,1,1,0,0,1,1,1,1,1,1,-20,0,190,-5,0,        147P    223
190,-20,0.499999999999988,190,-5,0.499999999999988,190,0,1,0,1;      147P    224
126,1,1,1,0,1,0,0,0,1,1,1,1,1,0,0,1,0.999999999999999,0,0,1,0,0,     149P    225
1;                                                                   149P    226
126,1,1,1,0,1,0,0,0,1,1,1,1,0,1,0,1,1,0,0,1,0,0,1;                   151P    227
126,1,1,1,0,1,0,0,0,1,1,1,1,0,0,0,0,1,0,0,1,0,0,1;                   153P    228
126,1,1,1,0,1,0,0,0,1,1,1,1,0,0,0,1,0,0,0,1,0,0,1;                   155P    229
508,4,0,83,25,1,1,0,149,0,83,18,0,1,0,151,0,83,26,0,1,0,153,0,       157P    230
83,8,1,1,0,155;                                                      157P    231
510,147,1,1,157;                                                     159P    232
128,1,1,1,1,0,0,1,0,0,0,0,1,1,0,0,1,1,1,1,1,1,5,0,190,20,0,190,      161P    233
5,0.499999999999988,190,20,0.499999999999988,190,0,1,0,1;            161P    234
126,1,1,1,0,1,0,0,0,1,1,1,1,0,0,0,0,0.999999999999999,0,0,1,0,0,     163P    235
1;                                                                   163P    236
126,1,1,1,0,1,0,0,0,1,1,1,1,0,0,0,1,0,0,0,1,0,0,1;                   165P    237
126,1,1,1,0,1,0,0,0,1,1,1,1,1,0,0,1,1,0,0,1,0,0,1;                   167P    238
126,1,1,1,0,1,0,0,0,1,1,1,1,0,1,0,1,1,0,0,1,0,0,1;                   169P    239
508,4,0,83,27,0,1,0,163,0,83,6,1,1,0,165,0,83,28,1,1,0,167,0,83,     171P    240
20,0,1,0,169;                                                        171P    241
510,161,1,1,171;                                                     173P    242
128,1,1,1,1,0,0,1,0,0,0,0,1,1,0,0,1,1,1,1,1,1,20,0,-190,5,0,         175P    243
-190,20,0.500000000000012,-190,5,0.500000000000012,-190,0,1,0,1;     175P    244
126,1,1,1,0,1,0,0,0,1,1,1,1,1,0,0,1,1,0,0,1,0,0,1;                   177P    245
126,1,1,1,0,1,0,0,0,1,1,1,1,0,0.999999999999998,0,1,                 179P    246
0.999999999999998,0,0,1,0,0,1;                                       179P    247
126,1,1,1,0,1,0,0,0,1,1,1,1,0,0,0,0,0.999999999999998,0,0,1,0,0,     181P    248
1;                                                                   181P    249
126,1,1,1,0,1,0,0,0,1,1,1,1,0,0,0,1,0,0,0,1,0,0,1;                   183P    250
508,4,0,83,29,1,1,0,177,0,83,24,0,1,0,179,0,83,30,0,1,0,181,0,       185P    251
83,2,1,1,0,183;                                                      185P    252
510,175,1,1,185;                                                     187P    253
128,1,1,1,1,0,0,1,0,0,0,0,1,1,0,0,1,1,1,1,1,1,-5,0,-190,-20,0,       189P    254
-190,-5,0.500000000000012,-190,-20,0.500000000000012,-190,0,1,0,     189P    255
1;                                                                   189P    256
126,1,1,1,0,1,0,0,0,1,1,1,1,0,0,0,0,1,0,0,1,0,0,1;                   191P    257
126,1,1,1,0,1,0,0,0,1,1,1,1,0,0,0,1,0,0,0,1,0,0,1;                   193P    258
126,1,1,1,0,1,0,0,0,1,1,1,1,1,0,0,1,0.999999999999998,0,0,1,0,0,     195P    259
1;                                                                   195P    260
126,1,1,1,0,1,0,0,0,1,1,1,1,0,0.999999999999998,0,1,                 197P    261
0.999999999999998,0,0,1,0,0,1;                                       197P    262
508,4,0,83,31,0,1,0,191,0,83,12,1,1,0,193,0,83,32,1,1,0,195,0,       199P    263
83,14,0,1,0,197;                                                     199P    264
510,189,1,1,199;                                                     201P    265
110,0,-9.50000000000001,190,0,-8.50000000000001,190;                 203P    266
110,5,-1.24344978758018E-14,190,5,0.499999999999988,190;             205P    267
120,203,205,0,6.28318530717959;                                      207P    268
126,1,1,1,0,1,0,0,0,1,1,1,1,0,3.14159265358979,0,1,                  209P    269
3.14159265358979,0,0,1,0,0,1;                                        209P    270
126,1,1,1,0,1,0,0,0,1,1,1,1,0,0,0,0,3.14159265358979,0,0,1,0,0,      211P    271
1;                                                                   211P    272
126,1,1,1,0,1,0,0,0,1,1,1,1,0,0,0,1,0,0,0,1,0,0,1;                   213P    273
126,1,1,1,0,1,0,0,0,1,1,1,1,1,0,0,1,3.14159265358979,0,0,1,0,0,      215P    274
1;                                                                   215P    275
508,4,0,83,25,0,1,0,209,0,83,7,0,1,0,211,0,83,27,1,1,0,213,0,83,     217P    276
19,1,1,0,215;                                                        217P    277
510,207,1,1,217;                                                     219P    278
110,0,-9.49999999999999,-190,0,-8.49999999999999,-190;               221P    279
110,-5,1.24344978758018E-14,-190,-5,0.500000000000012,-190;          223P    280
120,221,223,0,6.28318530717959;                                      225P    281
126,1,1,1,0,1,0,0,0,1,1,1,1,0,3.14159265358979,0,1,                  227P    282
3.14159265358979,0,0,1,0,0,1;                                        227P    283
126,1,1,1,0,1,0,0,0,1,1,1,1,0,0,0,0,3.14159265358979,0,0,1,0,0,      229P    284
1;                                                                   229P    285
126,1,1,1,0,1,0,0,0,1,1,1,1,0,0,0,1,0,0,0,1,0,0,1;                   231P    286
126,1,1,1,0,1,0,0,0,1,1,1,1,1,0,0,1,3.14159265358979,0,0,1,0,0,      233P    287
1;                                                                   233P    288
508,4,0,83,29,0,1,0,227,0,83,1,0,1,0,229,0,83,31,1,1,0,231,0,83,     235P    289
13,1,1,0,233;                                                        235P    290
510,225,1,1,235;                                                     237P    291
128,1,1,1,1,0,0,1,0,0,0,0,1,1,0,0,1,1,1,1,1,1,25,0,-185,20,0,        239P    292
-190,25,0.500000000000011,-185,20,0.500000000000012,-190,0,1,0,      239P    293
1;                                                                   239P    294
126,1,1,1,0,1,0,0,0,1,1,1,1,0,0,0,1,0,0,0,1,0,0,1;                   241P    295
126,1,1,1,0,1,0,0,0,1,1,1,1,1,0,0,1,1,0,0,1,0,0,1;                   243P    296
126,1,1,1,0,1,0,0,0,1,1,1,1,0,1,0,1,1,0,0,1,0,0,1;                   245P    297
126,1,1,1,0,1,0,0,0,1,1,1,1,0,0,0,0,1,0,0,1,0,0,1;                   247P    298
508,4,0,83,3,1,1,0,241,0,83,30,1,1,0,243,0,83,23,0,1,0,245,0,83,     249P    299
33,0,1,0,247;                                                        249P    300
510,239,1,1,249;                                                     251P    301
128,1,1,1,1,0,0,1,0,0,0,0,1,1,0,0,1,1,1,1,1,1,25,0,185,25,0,         253P    302
-185,25,0.499999999999989,185,25,0.500000000000011,-185,0,1,0,1;     253P    303
126,1,1,1,0,1,0,0,0,1,1,1,1,0,0,0,1,0,0,0,1,0,0,1;                   255P    304
126,1,1,1,0,1,0,0,0,1,1,1,1,1,0,0,1,1,0,0,1,0,0,1;                   257P    305
126,1,1,1,0,1,0,0,0,1,1,1,1,0,1,0,1,1,0,0,1,0,0,1;                   259P    306
126,1,1,1,0,1,0,0,0,1,1,1,1,0,0,0,0,1,0,0,1,0,0,1;                   261P    307
508,4,0,83,4,1,1,0,255,0,83,33,1,1,0,257,0,83,22,0,1,0,259,0,83,     263P    308
34,0,1,0,261;                                                        263P    309
510,253,1,1,263;                                                     265P    310
128,1,1,1,1,0,0,1,0,0,0,0,1,1,0,0,1,1,1,1,1,1,20,0,190,25,0,185,     267P    311
20,0.499999999999988,190,25,0.499999999999989,185,0,1,0,1;           267P    312
126,1,1,1,0,1,0,0,0,1,1,1,1,0,0,0,1,0,0,0,1,0,0,1;                   269P    313
126,1,1,1,0,1,0,0,0,1,1,1,1,1,0,0,1,1,0,0,1,0,0,1;                   271P    314
126,1,1,1,0,1,0,0,0,1,1,1,1,0,1,0,1,1,0,0,1,0,0,1;                   273P    315
126,1,1,1,0,1,0,0,0,1,1,1,1,0,0,0,0,1,0,0,1,0,0,1;                   275P    316
508,4,0,83,5,1,1,0,269,0,83,34,1,1,0,271,0,83,21,0,1,0,273,0,83,     277P    317
28,0,1,0,275;                                                        277P    318
510,267,1,1,277;                                                     279P    319
128,1,1,1,1,0,0,1,0,0,0,0,1,1,0,0,1,1,1,1,1,1,-25,0,185,-20,0,       281P    320
190,-25,0.499999999999989,185,-20,0.499999999999988,190,0,1,0,1;     281P    321
126,1,1,1,0,1,0,0,0,1,1,1,1,0,0,0,1,0,0,0,1,0,0,1;                   283P    322
126,1,1,1,0,1,0,0,0,1,1,1,1,1,0,0,1,1,0,0,1,0,0,1;                   285P    323
126,1,1,1,0,1,0,0,0,1,1,1,1,0,1,0,1,1,0,0,1,0,0,1;                   287P    324
126,1,1,1,0,1,0,0,0,1,1,1,1,0,0,0,0,1,0,0,1,0,0,1;                   289P    325
508,4,0,83,9,1,1,0,283,0,83,26,1,1,0,285,0,83,17,0,1,0,287,0,83,     291P    326
35,0,1,0,289;                                                        291P    327
510,281,1,1,291;                                                     293P    328
128,1,1,1,1,0,0,1,0,0,0,0,1,1,0,0,1,1,1,1,1,1,-25,0,-185,-25,0,      295P    329
185,-25,0.500000000000011,-185,-25,0.499999999999989,185,0,1,0,      295P    330
1;                                                                   295P    331
126,1,1,1,0,1,0,0,0,1,1,1,1,0,0,0,1,0,0,0,1,0,0,1;                   297P    332
126,1,1,1,0,1,0,0,0,1,1,1,1,1,0,0,1,1,0,0,1,0,0,1;                   299P    333
126,1,1,1,0,1,0,0,0,1,1,1,1,0,1,0,1,1,0,0,1,0,0,1;                   301P    334
126,1,1,1,0,1,0,0,0,1,1,1,1,0,0,0,0,1,0,0,1,0,0,1;                   303P    335
508,4,0,83,10,1,1,0,297,0,83,35,1,1,0,299,0,83,16,0,1,0,301,0,       305P    336
83,36,0,1,0,303;                                                     305P    337
510,295,1,1,305;                                                     307P    338
128,1,1,1,1,0,0,1,0,0,0,0,1,1,0,0,1,1,1,1,1,1,-20,0,-190,-25,0,      309P    339
-185,-20,0.500000000000012,-190,-25,0.500000000000011,-185,0,1,      309P    340
0,1;                                                                 309P    341
126,1,1,1,0,1,0,0,0,1,1,1,1,0,0,0,1,0,0,0,1,0,0,1;                   311P    342
126,1,1,1,0,1,0,0,0,1,1,1,1,1,0,0,1,1,0,0,1,0,0,1;                   313P    343
126,1,1,1,0,1,0,0,0,1,1,1,1,0,1,0,1,1,0,0,1,0,0,1;                   315P    344
126,1,1,1,0,1,0,0,0,1,1,1,1,0,0,0,0,1,0,0,1,0,0,1;                   317P    345
508,4,0,83,11,1,1,0,311,0,83,36,1,1,0,313,0,83,15,0,1,0,315,0,       319P    346
83,32,0,1,0,317;                                                     319P    347
510,309,1,1,319;                                                     321P    348
514,14,115,0,145,1,159,1,173,1,187,1,201,1,219,1,237,1,251,1,        323P    349
265,1,279,1,293,1,307,1,321,1;                                       323P    350
186,323,1,0;                                                         325P    351
S      2G      3D    326P    351                                        T      1
