IGES file generated by C3D Converter 1.8                                S      1
translator by C3D Labs., translator version IGESOUT-5.1.                S      2
1H,,1H;,7H Деталь,53HE:\Сдача задания\Модели\IGES\Крепление к П детали.iG      1
gs,0H,3H1.0,32,38,6,308,15,7Hunknown,1,2,2HMM,1000,1,16H-17740206:063609G      2
,1E-6,50000,5Hno1se,7Hunknown,0,0,13H260306:063610;                     G      3
     502       1       0       0       0       0       0       000010000D      1
     502       0       0      12       1                               0D      2
     110      13       0       0       0       0       0       000010000D      3
     110       1       0       1       0                               0D      4
     110      14       0       0       0       0       0       000010000D      5
     110       1       0       1       0                               0D      6
     110      15       0       0       0       0       0       000010000D      7
     110       1       0       1       0                               0D      8
     124      16       0       0       0       0       0       001020201D      9
     124       1       0       4       0                               0D     10
     100      20       0       0       0       0       9       000010000D     11
     100       1       0       1       0                               0D     12
     124      21       0       0       0       0       0       001020201D     13
     124       1       0       3       0                               0D     14
     100      24       0       0       0       0      13       000010000D     15
     100       1       0       1       0                               0D     16
     124      25       0       0       0       0       0       001020201D     17
     124       1       0       3       0                               0D     18
     100      28       0       0       0       0      17       000010000D     19
     100       1       0       1       0                               0D     20
     124      29       0       0       0       0       0       001020201D     21
     124       1       0       2       0                               0D     22
     100      31       0       0       0       0      21       000010000D     23
     100       1       0       1       0                               0D     24
     110      32       0       0       0       0       0       000010000D     25
     110       1       0       1       0                               0D     26
     110      33       0       0       0       0       0       000010000D     27
     110       1       0       1       0                               0D     28
     110      34       0       0       0       0       0       000010000D     29
     110       1       0       1       0                               0D     30
     124      35       0       0       0       0       0       001020201D     31
     124       1       0       2       0                               0D     32
     100      37       0       0       0       0      31       000010000D     33
     100       1       0       1       0                               0D     34
     124      38       0       0       0       0       0       001020201D     35
     124       1       0       2       0                               0D     36
     100      40       0       0       0       0      35       000010000D     37
     100       1       0       1       0                               0D     38
     110      41       0       0       0       0       0       000010000D     39
     110       1       0       2       0                               0D     40
     110      43       0       0       0       0       0       000010000D     41
     110       1       0       2       0                               0D     42
     110      45       0       0       0       0       0       000010000D     43
     110       1       0       1       0                               0D     44
     110      46       0       0       0       0       0       000010000D     45
     110       1       0       1       0                               0D     46
     124      47       0       0       0       0       0       001020201D     47
     124       1       0       3       0                               0D     48
     100      50       0       0       0       0      47       000010000D     49
     100       1       0       1       0                               0D     50
     124      51       0       0       0       0       0       001020201D     51
     124       1       0       3       0                               0D     52
     100      54       0       0       0       0      51       000010000D     53
     100       1       0       1       0                               0D     54
     110      55       0       0       0       0       0       000010000D     55
     110       1       0       1       0                               0D     56
     110      56       0       0       0       0       0       000010000D     57
     110       1       0       1       0                               0D     58
     110      57       0       0       0       0       0       000010000D     59
     110       1       0       1       0                               0D     60
     124      58       0       0       0       0       0       001020201D     61
     124       1       0       3       0                               0D     62
     100      61       0       0       0       0      61       000010000D     63
     100       1       0       1       0                               0D     64
     110      62       0       0       0       0       0       000010000D     65
     110       1       0       1       0                               0D     66
     124      63       0       0       0       0       0       001020201D     67
     124       1       0       3       0                               0D     68
     100      66       0       0       0       0      67       000010000D     69
     100       1       0       1       0                               0D     70
     124      67       0       0       0       0       0       001020201D     71
     124       1       0       3       0                               0D     72
     100      70       0       0       0       0      71       000010000D     73
     100       1       0       1       0                               0D     74
     124      71       0       0       0       0       0       001020201D     75
     124       1       0       3       0                               0D     76
     100      74       0       0       0       0      75       000010000D     77
     100       1       0       1       0                               0D     78
     110      75       0       0       0       0       0       000010000D     79
     110       1       0       2       0                               0D     80
     124      77       0       0       0       0       0       001020201D     81
     124       1       0       3       0                               0D     82
     100      80       0       0       0       0      81       000010000D     83
     100       1       0       1       0                               0D     84
     110      81       0       0       0       0       0       000010000D     85
     110       1       0       2       0                               0D     86
     124      83       0       0       0       0       0       001020201D     87
     124       1       0       3       0                               0D     88
     100      86       0       0       0       0      87       000010000D     89
     100       1       0       1       0                               0D     90
     504      87       0       0       0       0       0       000010000D     91
     504       1       0       6       1                               0D     92
     128      93       0       0       0       0       0       000010000D     93
     128       1       0       2       0                               0D     94
     126      95       0       0       0       0       0       001010500D     95
     126       1       0       1       0                               0D     96
     126      96       0       0       0       0       0       001010500D     97
     126       1       0       1       0                               0D     98
     126      97       0       0       0       0       0       001010500D     99
     126       1       0       1       0                               0D    100
     126      98       0       0       0       0       0       001010500D    101
     126       1       0      28       0                               0D    102
     508     126       0       0       0       0       0       000010000D    103
     508       1       0       2       1                               0D    104
     126     128       0       0       0       0       0       001010500D    105
     126       1       0      28       0                               0D    106
     126     156       0       0       0       0       0       001010500D    107
     126       1       0      28       0                               0D    108
     508     184       0       0       0       0       0       000010000D    109
     508       1       0       1       1                               0D    110
     314     185       0       0       0       0       0       001000200D    111
     314       1       0       1       0                               0D    112
     510     186       0       0       0       0       0       000010000D    113
     510       1    -111       1       1                               0D    114
     128     187       0       0       0       0       0       000010000D    115
     128       1       0       2       0                               0D    116
     126     189       0       0       0       0       0       001010500D    117
     126       1       0      27       0                               0D    118
     126     216       0       0       0       0       0       001010500D    119
     126       1       0       1       0                               0D    120
     126     217       0       0       0       0       0       001010500D    121
     126       1       0       1       0                               0D    122
     126     218       0       0       0       0       0       001010500D    123
     126       1       0       1       0                               0D    124
     508     219       0       0       0       0       0       000010000D    125
     508       1       0       2       1                               0D    126
     126     221       0       0       0       0       0       001010500D    127
     126       1       0      28       0                               0D    128
     126     249       0       0       0       0       0       001010500D    129
     126       1       0      28       0                               0D    130
     508     277       0       0       0       0       0       000010000D    131
     508       1       0       1       1                               0D    132
     510     278       0       0       0       0       0       000010000D    133
     510       1    -111       1       1                               0D    134
     110     279       0       0       0       0       0       001010000D    135
     110       1       0       1       0                               0D    136
     110     280       0       0       0       0       0       001010001D    137
     110       1       0       2       0                               0D    138
     120     282       0       0       0       0       0       000010000D    139
     120       1       0       1       0                               0D    140
     126     283       0       0       0       0       0       001010500D    141
     126       1       0       2       0                               0D    142
     126     285       0       0       0       0       0       001010500D    143
     126       1       0       1       0                               0D    144
     126     286       0       0       0       0       0       001010500D    145
     126       1       0       2       0                               0D    146
     126     288       0       0       0       0       0       001010500D    147
     126       1       0       2       0                               0D    148
     508     290       0       0       0       0       0       000010000D    149
     508       1       0       2       1                               0D    150
     510     292       0       0       0       0       0       000010000D    151
     510       1    -111       1       1                               0D    152
     128     293       0       0       0       0       0       000010000D    153
     128       1       0       2       0                               0D    154
     126     295       0       0       0       0       0       001010500D    155
     126       1       0       1       0                               0D    156
     126     296       0       0       0       0       0       001010500D    157
     126       1       0       1       0                               0D    158
     126     297       0       0       0       0       0       001010500D    159
     126       1       0       2       0                               0D    160
     126     299       0       0       0       0       0       001010500D    161
     126       1       0       2       0                               0D    162
     508     301       0       0       0       0       0       000010000D    163
     508       1       0       2       1                               0D    164
     510     303       0       0       0       0       0       000010000D    165
     510       1    -111       1       1                               0D    166
     128     304       0       0       0       0       0       000010000D    167
     128       1       0       2       0                               0D    168
     126     306       0       0       0       0       0       001010500D    169
     126       1       0      27       0                               0D    170
     126     333       0       0       0       0       0       001010500D    171
     126       1       0      27       0                               0D    172
     508     360       0       0       0       0       0       000010000D    173
     508       1       0       1       1                               0D    174
     126     361       0       0       0       0       0       001010500D    175
     126       1       0       2       0                               0D    176
     126     363       0       0       0       0       0       001010500D    177
     126       1       0       2       0                               0D    178
     126     365       0       0       0       0       0       001010500D    179
     126       1       0       2       0                               0D    180
     126     367       0       0       0       0       0       001010500D    181
     126       1       0       3       0                               0D    182
     508     370       0       0       0       0       0       000010000D    183
     508       1       0       2       1                               0D    184
     510     372       0       0       0       0       0       000010000D    185
     510       1    -111       1       1                               0D    186
     128     373       0       0       0       0       0       000010000D    187
     128       1       0       2       0                               0D    188
     126     375       0       0       0       0       0       001010500D    189
     126       1       0       2       0                               0D    190
     126     377       0       0       0       0       0       001010500D    191
     126       1       0       1       0                               0D    192
     126     378       0       0       0       0       0       001010500D    193
     126       1       0       1       0                               0D    194
     126     379       0       0       0       0       0       001010500D    195
     126       1       0       1       0                               0D    196
     508     380       0       0       0       0       0       000010000D    197
     508       1       0       2       1                               0D    198
     510     382       0       0       0       0       0       000010000D    199
     510       1    -111       1       1                               0D    200
     110     383       0       0       0       0       0       001010000D    201
     110       1       0       1       0                               0D    202
     110     384       0       0       0       0       0       001010001D    203
     110       1       0       1       0                               0D    204
     120     385       0       0       0       0       0       000010000D    205
     120       1       0       1       0                               0D    206
     126     386       0       0       0       0       0       001010500D    207
     126       1       0       2       0                               0D    208
     126     388       0       0       0       0       0       001010500D    209
     126       1       0       2       0                               0D    210
     126     390       0       0       0       0       0       001010500D    211
     126       1       0       1       0                               0D    212
     126     391       0       0       0       0       0       001010500D    213
     126       1       0       2       0                               0D    214
     508     393       0       0       0       0       0       000010000D    215
     508       1       0       2       1                               0D    216
     510     395       0       0       0       0       0       000010000D    217
     510       1    -111       1       1                               0D    218
     110     396       0       0       0       0       0       001010000D    219
     110       1       0       1       0                               0D    220
     110     397       0       0       0       0       0       001010001D    221
     110       1       0       1       0                               0D    222
     120     398       0       0       0       0       0       000010000D    223
     120       1       0       1       0                               0D    224
     126     399       0       0       0       0       0       001010500D    225
     126       1       0       1       0                               0D    226
     126     400       0       0       0       0       0       001010500D    227
     126       1       0       2       0                               0D    228
     126     402       0       0       0       0       0       001010500D    229
     126       1       0       2       0                               0D    230
     126     404       0       0       0       0       0       001010500D    231
     126       1       0       2       0                               0D    232
     508     406       0       0       0       0       0       000010000D    233
     508       1       0       2       1                               0D    234
     510     408       0       0       0       0       0       000010000D    235
     510       1    -111       1       1                               0D    236
     128     409       0       0       0       0       0       000010000D    237
     128       1       0       2       0                               0D    238
     126     411       0       0       0       0       0       001010500D    239
     126       1       0      27       0                               0D    240
     126     438       0       0       0       0       0       001010500D    241
     126       1       0      27       0                               0D    242
     508     465       0       0       0       0       0       000010000D    243
     508       1       0       1       1                               0D    244
     126     466       0       0       0       0       0       001010500D    245
     126       1       0      28       0                               0D    246
     126     494       0       0       0       0       0       001010500D    247
     126       1       0      28       0                               0D    248
     508     522       0       0       0       0       0       000010000D    249
     508       1       0       1       1                               0D    250
     510     523       0       0       0       0       0       000010000D    251
     510       1    -111       1       1                               0D    252
     110     524       0       0       0       0       0       001010000D    253
     110       1       0       1       0                               0D    254
     110     525       0       0       0       0       0       001010001D    255
     110       1       0       2       0                               0D    256
     120     527       0       0       0       0       0       000010000D    257
     120       1       0       1       0                               0D    258
     126     528       0       0       0       0       0       001010500D    259
     126       1       0       1       0                               0D    260
     126     529       0       0       0       0       0       001010500D    261
     126       1       0       2       0                               0D    262
     126     531       0       0       0       0       0       001010500D    263
     126       1       0       2       0                               0D    264
     126     533       0       0       0       0       0       001010500D    265
     126       1       0       2       0                               0D    266
     508     535       0       0       0       0       0       000010000D    267
     508       1       0       2       1                               0D    268
     510     537       0       0       0       0       0       000010000D    269
     510       1    -111       1       1                               0D    270
     128     538       0       0       0       0       0       000010000D    271
     128       1       0       2       0                               0D    272
     126     540       0       0       0       0       0       001010500D    273
     126       1       0      27       0                               0D    274
     126     567       0       0       0       0       0       001010500D    275
     126       1       0      27       0                               0D    276
     508     594       0       0       0       0       0       000010000D    277
     508       1       0       1       1                               0D    278
     510     595       0       0       0       0       0       000010000D    279
     510       1    -111       1       1                               0D    280
     110     596       0       0       0       0       0       001010000D    281
     110       1       0       1       0                               0D    282
     110     597       0       0       0       0       0       001010001D    283
     110       1       0       2       0                               0D    284
     120     599       0       0       0       0       0       000010000D    285
     120       1       0       1       0                               0D    286
     126     600       0       0       0       0       0       001010500D    287
     126       1       0       1       0                               0D    288
     126     601       0       0       0       0       0       001010500D    289
     126       1       0       2       0                               0D    290
     126     603       0       0       0       0       0       001010500D    291
     126       1       0       2       0                               0D    292
     126     605       0       0       0       0       0       001010500D    293
     126       1       0       2       0                               0D    294
     508     607       0       0       0       0       0       000010000D    295
     508       1       0       2       1                               0D    296
     510     609       0       0       0       0       0       000010000D    297
     510       1    -111       1       1                               0D    298
     110     610       0       0       0       0       0       001010000D    299
     110       1       0       1       0                               0D    300
     110     611       0       0       0       0       0       001010001D    301
     110       1       0       1       0                               0D    302
     120     612       0       0       0       0       0       000010000D    303
     120       1       0       1       0                               0D    304
     126     613       0       0       0       0       0       001010500D    305
     126       1       0       2       0                               0D    306
     126     615       0       0       0       0       0       001010500D    307
     126       1       0       1       0                               0D    308
     126     616       0       0       0       0       0       001010500D    309
     126       1       0       2       0                               0D    310
     126     618       0       0       0       0       0       001010500D    311
     126       1       0       2       0                               0D    312
     508     620       0       0       0       0       0       000010000D    313
     508       1       0       2       1                               0D    314
     510     622       0       0       0       0       0       000010000D    315
     510       1    -111       1       1                               0D    316
     110     623       0       0       0       0       0       001010000D    317
     110       1       0       1       0                               0D    318
     110     624       0       0       0       0       0       001010001D    319
     110       1       0       2       0                               0D    320
     120     626       0       0       0       0       0       000010000D    321
     120       1       0       1       0                               0D    322
     126     627       0       0       0       0       0       001010500D    323
     126       1       0       2       0                               0D    324
     126     629       0       0       0       0       0       001010500D    325
     126       1       0       1       0                               0D    326
     126     630       0       0       0       0       0       001010500D    327
     126       1       0       2       0                               0D    328
     126     632       0       0       0       0       0       001010500D    329
     126       1       0       2       0                               0D    330
     508     634       0       0       0       0       0       000010000D    331
     508       1       0       2       1                               0D    332
     510     636       0       0       0       0       0       000010000D    333
     510       1    -111       1       1                               0D    334
     514     637       0       0       0       0       0       000010000D    335
     514       1       0       2       1                               0D    336
     186     639       0       0       0       0       0       000010000D    337
     186       1       0       1       0                               0D    338
502,20,-4.99999999999999,152,-30,-4.99999999999999,172,-30,-5,         1P      1
152,30,-5,172,30,-5,177,5.00000000000001,-5,177,                       1P      2
-4.99999999999999,-4.20544598458803E-15,172,30,                        1P      3
7.30747188867027E-15,172,-30,-5.51091059616309E-15,152,30,             1P      4
9.18485099360515E-15,152,-30,-8.88178419700125E-16,177,                1P      5
5.00000000000001,1.97489770878425E-15,177,-4.99999999999999,-35,       1P      6
152,7.34788079488411E-16,35,152,1.78798432675514E-14,35,150,           1P      7
1.77573785876366E-14,-35,150,6.12323399573676E-16,                     1P      8
1.83697019872103E-15,150,-9.99999999999999,                            1P      9
-1.83697019872103E-15,150,10,-1.83697019872103E-15,                    1P     10
-6.12323399573677E-16,10,1.83697019872103E-15,                         1P     11
6.12323399573677E-16,-10;                                              1P     12
110,-4.99999999999999,152,-30,-4.99999999999999,172,-30;               3P     13
110,-4.99999999999999,152,-30,-5,152,30;                               5P     14
110,-5,152,30,-5,172,30;                                               7P     15
124,-1.77635683940025E-16,1.26217744835362E-32,-1,-5,                  9P     16
1.32757659261038E-63,1,1.26217744835362E-32,172,1,                     9P     17
2.24207754291971E-48,-1.77635683940025E-16,                            9P     18
-1.06581410364015E-14;                                                 9P     19
100,0,0,0,30,0,-30,3.03192929884458E-14;                              11P     20
124,1.77635683940025E-16,-1.26217744835362E-32,-1,-5,0,-1,            13P     21
1.26217744835362E-32,177,-1,-2.24207754291971E-48,                    13P     22
-1.77635683940025E-16,1.4210854715202E-14;                            13P     23
100,0,0,0,5,0,-5,6.12323399573677E-16;                                15P     24
124,-1.77635683940025E-16,1.26217744835362E-32,-1,-5,0,1,             17P     25
1.26217744835362E-32,177,1,2.24207754291971E-48,                      17P     26
-1.77635683940025E-16,1.4210854715202E-14;                            17P     27
100,0,0,0,5,0,-5,6.12323399573677E-16;                                19P     28
124,2.44929359829471E-16,0,1,1.83697019872103E-15,0,1,0,172,-1,       21P     29
0,2.44929359829471E-16,-7.105427357601E-15;                           21P     30
100,0,0,0,30,0,-30,3.67394039744206E-15;                              23P     31
110,-5.32907051820075E-15,152,30,-5.32907051820075E-15,172,30;        25P     32
110,-5.51091059616309E-15,152,30,9.18485099360515E-15,152,-30;        27P     33
110,9.18485099360515E-15,152,-30,9.18485099360515E-15,172,-30;        29P     34
124,-2.44929359829471E-16,0,-1,1.83697019872103E-15,0,1,0,177,1,      31P     35
0,-2.44929359829471E-16,1.4210854715202E-14;                          31P     36
100,0,0,0,5,0,-5,6.12323399573677E-16;                                33P     37
124,2.44929359829471E-16,0,-1,1.83697019872103E-15,0,-1,0,177,        35P     38
-1,0,-2.44929359829471E-16,1.4210854715202E-14;                       35P     39
100,0,0,0,5,0,-5,6.12323399573677E-16;                                37P     40
110,8.88178419700125E-16,177,-4.99999999999999,-5,177,                39P     41
-4.99999999999999;                                                    39P     42
110,-8.88178419700125E-16,177,5.00000000000001,-5,177,                41P     43
5.00000000000001;                                                     41P     44
110,2.07942363600415E-15,172,-30,-5,172,-30;                          43P     45
110,9.18485099360515E-15,152,-30,-4.99999999999999,152,-30;           45P     46
124,-1,-1.22464679914735E-16,0,0,7.49879891330929E-33,                47P     47
-6.12323399573677E-17,1,152,-1.22464679914735E-16,1,                  47P     48
6.12323399573677E-17,9.30731567351988E-15;                            47P     49
100,0,0,0,35,0,-35,4.28626379701574E-15;                              49P     50
124,1,2.44929359829471E-16,0,0,-1.49975978266186E-32,                 51P     51
6.12323399573677E-17,1,152,2.44929359829471E-16,-1,                   51P     52
6.12323399573677E-17,9.30731567351988E-15;                            51P     53
100,0,0,0,35,0,-35,4.28626379701574E-15;                              53P     54
110,-5,152,30,-5.45029723684231E-15,152,30;                           55P     55
110,-5,172,30,-8.88178419700125E-15,172,30;                           57P     56
110,35,150,1.77573785876366E-14,35,152,1.78798432675514E-14;          59P     57
124,1,2.44929359829471E-16,0,0,-1.49975978266186E-32,                 61P     58
6.12323399573677E-17,1,150,2.44929359829471E-16,-1,                   61P     59
6.12323399573677E-17,9.18485099360515E-15;                            61P     60
100,0,0,0,35,0,-35,4.28626379701574E-15;                              63P     61
110,-35,150,-3.67394039744206E-15,-35,152,-3.55147571752733E-15;      65P     62
124,-1,-1.22464679914735E-16,0,0,7.49879891330929E-33,                67P     63
-6.12323399573677E-17,1,150,-1.22464679914735E-16,1,                  67P     64
6.12323399573677E-17,9.18485099360515E-15;                            67P     65
100,0,0,0,35,0,-35,4.28626379701574E-15;                              69P     66
124,6.12323399573677E-17,-1,0,0,6.12323399573677E-17,                 71P     67
3.74939945665464E-33,1,150,-1,-6.12323399573677E-17,                  71P     68
6.12323399573677E-17,9.18485099360515E-15;                            71P     69
100,0,0,0,10,0,-10,1.22464679914735E-15;                              73P     70
124,-1.83697019872103E-16,1,0,0,-6.12323399573677E-17,                75P     71
-1.12481983699639E-32,1,150,1,1.83697019872103E-16,                   75P     72
6.12323399573677E-17,9.18485099360515E-15;                            75P     73
100,0,0,0,10,0,-10,1.22464679914735E-15;                              77P     74
110,-1.83697019872103E-15,-6.12323399573677E-16,10,                   79P     75
-1.83697019872103E-15,150,10;                                         79P     76
124,-1.83697019872103E-16,1,0,0,-6.12323399573677E-17,                81P     77
-1.12481983699639E-32,1,0,1,1.83697019872103E-16,                     81P     78
6.12323399573677E-17,0;                                               81P     79
100,0,0,0,10,0,-10,1.22464679914735E-15;                              83P     80
110,3.06161699786838E-15,6.12323399573677E-16,-10,                    85P     81
3.06161699786838E-15,150,-9.99999999999999;                           85P     82
124,6.12323399573677E-17,-1,0,0,6.12323399573677E-17,                 87P     83
3.74939945665464E-33,1,0,-1,-6.12323399573677E-17,                    87P     84
6.12323399573677E-17,0;                                               87P     85
100,0,0,0,10,0,-10,1.22464679914735E-15;                              89P     86
504,30,3,1,1,1,2,5,1,1,1,3,7,1,3,1,4,11,1,4,1,2,15,1,6,1,5,19,1,      91P     87
5,1,6,23,1,8,1,7,25,1,9,1,7,27,1,9,1,10,29,1,10,1,8,33,1,11,1,        91P     88
12,37,1,12,1,11,39,1,12,1,6,41,1,11,1,5,43,1,8,1,2,45,1,10,1,1,       91P     89
49,1,13,1,14,53,1,14,1,13,55,1,3,1,9,57,1,4,1,7,59,1,15,1,14,63,      91P     90
1,15,1,16,65,1,16,1,13,69,1,16,1,15,73,1,17,1,18,77,1,18,1,17,        91P     91
79,1,19,1,18,83,1,19,1,20,85,1,20,1,17,89,1,20,1,19;                  91P     92
128,1,1,1,1,0,0,1,0,0,0,0,1,1,0,0,1,1,1,1,1,1,-4.99999999999999,      93P     93
152,-30,-5,152,30,-4.99999999999999,202,-30,-5,202,30,0,1,0,1;        93P     94
126,1,1,1,0,1,0,0,0,1,1,1,1,0,0,0,0,0.4,0,0,1,0,0,1;                  95P     95
126,1,1,1,0,1,0,0,0,1,1,1,1,0,0,0,1,0,0,0,1,0,0,1;                    97P     96
126,1,1,1,0,1,0,0,0,1,1,1,1,1,0,0,1,0.4,0,0,1,0,0,1;                  99P     97
126,28,3,1,0,1,0,0,0,0,0,0.0384615384615385,0.0769230769230769,      101P     98
0.115384615384615,0.153846153846154,0.192307692307692,               101P     99
0.230769230769231,0.269230769230769,0.307692307692308,               101P    100
0.346153846153846,0.384615384615385,0.423076923076923,               101P    101
0.461538461538461,0.5,0.538461538461538,0.576923076923077,           101P    102
0.615384615384615,0.653846153846154,0.692307692307692,               101P    103
0.730769230769231,0.769230769230769,0.807692307692307,               101P    104
0.846153846153846,0.884615384615384,0.923076923076923,               101P    105
0.961538461538461,1,1,1,1,1,1,1,1,1,1,1,1,1,1,1,1,1,1,1,1,1,1,1,     101P    106
1,1,1,1,1,1,1,1,1,1,1,0.4,0,1,0.424166097335306,0,                   101P    107
0.997563703584718,0.472498192697613,0,0.986653659747647,             101P    108
0.543939228474557,0,0.968647109702849,0.613281284839366,0,           101P    109
0.943806629497199,0.679513225521106,0,0.912494449267984,             101P    110
0.741669232433775,0,0.875167171111835,0.798842932975952,0,           101P    111
0.83236911079798,0.850200605329278,0,0.784724360418632,              101P    112
0.8949933391229,0,0.732927687720959,0.932567955396286,0,             101P    113
0.677734404828839,0.962376531643514,0,0.619949354091291,             101P    114
0.983984391697151,0,0.56041517166867,0.99707644430167,0,0.5,         101P    115
1.00146177784916,0,0.439584828331331,0.99707644430167,0,             101P    116
0.380050645908709,0.983984391697151,0,0.322265595171161,             101P    117
0.962376531643515,0,0.267072312279042,0.932567955396286,0,           101P    118
0.215275639581368,0.894993339122901,0,0.167630889202021,             101P    119
0.850200605329278,0,0.124832828888166,0.798842932975953,0,           101P    120
0.0875055507320167,0.741669232433776,0,0.0561933705028013,           101P    121
0.679513225521107,0,0.0313528902971506,0.613281284839367,0,          101P    122
0.0133463402523532,0.543939228474558,0,0.00243629641528149,          101P    123
0.472498192697614,0,0,0.424166097335307,0,0,0.400000000000001,0,     101P    124
0,1,0,0,1;                                                           101P    125
508,4,0,91,1,0,1,0,95,0,91,2,1,1,0,97,0,91,3,1,1,0,99,0,91,4,1,      103P    126
1,0,101;                                                             103P    127
126,28,3,1,0,1,0,0,0,0,0,0.0384615384615385,0.0769230769230769,      105P    128
0.115384615384615,0.153846153846154,0.192307692307692,               105P    129
0.230769230769231,0.269230769230769,0.307692307692308,               105P    130
0.346153846153846,0.384615384615385,0.423076923076923,               105P    131
0.461538461538461,0.5,0.538461538461538,0.576923076923077,           105P    132
0.615384615384615,0.653846153846154,0.692307692307692,               105P    133
0.73076923076923,0.769230769230769,0.807692307692307,                105P    134
0.846153846153846,0.884615384615384,0.923076923076923,               105P    135
0.961538461538461,1,1,1,1,1,1,1,1,1,1,1,1,1,1,1,1,1,1,1,1,1,1,1,     105P    136
1,1,1,1,1,1,1,1,1,1,0.416666666666667,0.5,0,0.416666666666667,       105P    137
0.495972317110782,0,0.417072716069214,0.487916967883731,0,           105P    138
0.418891056708726,0.476010128587574,0,0.421892148382859,             105P    139
0.464453119193439,0,0.426032228417134,0.453414462413149,0,           105P    140
0.431250925122003,0.443055127927704,0,0.437472138148028,             105P    141
0.433526177837341,0,0.444605148200337,0.424966565778453,0,           105P    142
0.452545939930228,0.417501110146183,0,0.461178718713174,             105P    143
0.411238674100619,0,0.470377599195194,0.406270578059414,0,           105P    144
0.480008440984785,0.402669268050475,0,0.489930804721889,             105P    145
0.400487259283055,0,0.5,0.399756370358472,0,0.510069195278112,       105P    146
0.400487259283055,0,0.519991559015216,0.402669268050475,0,           105P    147
0.529622400804807,0.406270578059414,0,0.538821281286827,             105P    148
0.411238674100619,0,0.547454060069772,0.417501110146183,0,           105P    149
0.555394851799664,0.424966565778453,0,0.562527861851973,             105P    150
0.433526177837341,0,0.568749074877998,0.443055127927704,0,           105P    151
0.573967771582867,0.453414462413149,0,0.578107851617142,             105P    152
0.464453119193439,0,0.581108943291275,0.476010128587573,0,           105P    153
0.582927283930787,0.487916967883731,0,0.583333333333334,             105P    154
0.495972317110782,0,0.583333333333334,0.5,0,0,1,0,0,1;               105P    155
126,28,3,1,0,1,0,0,0,0,0,0.0384615384615385,0.0769230769230769,      107P    156
0.115384615384615,0.153846153846154,0.192307692307692,               107P    157
0.230769230769231,0.269230769230769,0.307692307692308,               107P    158
0.346153846153846,0.384615384615385,0.423076923076923,               107P    159
0.461538461538461,0.5,0.538461538461538,0.576923076923077,           107P    160
0.615384615384615,0.653846153846154,0.692307692307692,               107P    161
0.73076923076923,0.769230769230769,0.807692307692307,                107P    162
0.846153846153846,0.884615384615384,0.923076923076923,               107P    163
0.961538461538461,1,1,1,1,1,1,1,1,1,1,1,1,1,1,1,1,1,1,1,1,1,1,1,     107P    164
1,1,1,1,1,1,1,1,1,1,0.583333333333334,0.5,0,0.583333333333334,       107P    165
0.504027682889217,0,0.582927283930787,0.512083032116268,0,           107P    166
0.581108943291275,0.523989871412426,0,0.578107851617142,             107P    167
0.535546880806561,0,0.573967771582867,0.546585537586851,0,           107P    168
0.568749074877998,0.556944872072296,0,0.562527861851973,             107P    169
0.566473822162658,0,0.555394851799664,0.575033434221546,0,           107P    170
0.547454060069772,0.582498889853817,0,0.538821281286827,             107P    171
0.588761325899381,0,0.529622400804807,0.593729421940586,0,           107P    172
0.519991559015215,0.597330731949525,0,0.510069195278112,             107P    173
0.599512740716945,0,0.5,0.600243629641527,0,0.489930804721889,       107P    174
0.599512740716945,0,0.480008440984785,0.597330731949525,0,           107P    175
0.470377599195194,0.593729421940586,0,0.461178718713174,             107P    176
0.588761325899381,0,0.452545939930228,0.582498889853817,0,           107P    177
0.444605148200337,0.575033434221546,0,0.437472138148028,             107P    178
0.566473822162659,0,0.431250925122003,0.556944872072296,0,           107P    179
0.426032228417134,0.546585537586851,0,0.421892148382859,             107P    180
0.535546880806561,0,0.418891056708726,0.523989871412426,0,           107P    181
0.417072716069214,0.512083032116269,0,0.416666666666667,             107P    182
0.504027682889218,0,0.416666666666667,0.5,0,0,1,0,0,1;               107P    183
508,2,0,91,5,0,1,0,105,0,91,6,0,1,0,107;                             109P    184
314,56.4705882352941,56.4705882352941,56.4705882352941,1H ;          111P    185
510,93,2,1,103,109;                                                  113P    186
128,1,1,1,1,0,0,1,0,0,0,0,1,1,0,0,1,1,1,1,1,1,0,152,30,0,152,        115P    187
-30,0,202,30,0,202,-30,0,1,0,1;                                      115P    188
126,28,3,1,0,1,0,0,0,0,0,0.0384615384615385,0.0769230769230769,      117P    189
0.115384615384615,0.153846153846154,0.192307692307692,               117P    190
0.230769230769231,0.269230769230769,0.307692307692308,               117P    191
0.346153846153846,0.384615384615385,0.423076923076923,               117P    192
0.461538461538461,0.5,0.538461538461538,0.576923076923077,           117P    193
0.615384615384615,0.653846153846154,0.692307692307692,               117P    194
0.73076923076923,0.769230769230769,0.807692307692307,                117P    195
0.846153846153846,0.884615384615384,0.923076923076923,               117P    196
0.961538461538461,1,1,1,1,1,1,1,1,1,1,1,1,1,1,1,1,1,1,1,1,1,1,1,     117P    197
1,1,1,1,1,1,1,1,1,1,1,0.4,0,1,0.424166097335306,0,                   117P    198
0.997563703584719,0.472498192697613,0,0.986653659747647,             117P    199
0.543939228474557,0,0.968647109702849,0.613281284839366,0,           117P    200
0.943806629497199,0.679513225521106,0,0.912494449267984,             117P    201
0.741669232433775,0,0.875167171111834,0.798842932975952,0,           117P    202
0.83236911079798,0.850200605329278,0,0.784724360418632,              117P    203
0.894993339122899,0,0.732927687720959,0.932567955396285,0,           117P    204
0.67773440482884,0.962376531643514,0,0.619949354091291,              117P    205
0.98398439169715,0,0.56041517166867,0.997076444301669,0,0.5,         117P    206
1.00146177784916,0,0.439584828331331,0.997076444301669,0,            117P    207
0.380050645908709,0.983984391697151,0,0.322265595171161,             117P    208
0.962376531643514,0,0.267072312279042,0.932567955396286,0,           117P    209
0.215275639581368,0.8949933391229,0,0.167630889202021,               117P    210
0.850200605329278,0,0.124832828888166,0.798842932975953,0,           117P    211
0.087505550732017,0.741669232433776,0,0.0561933705028015,            117P    212
0.679513225521107,0,0.031352890297151,0.613281284839367,0,           117P    213
0.0133463402523535,0.543939228474558,0,0.00243629641528176,          117P    214
0.472498192697614,0,0,0.424166097335306,0,0,0.4,0,0,1,0,0,1;         117P    215
126,1,1,1,0,1,0,0,0,1,1,1,1,0,0,0,0,0.4,0,0,1,0,0,1;                 119P    216
126,1,1,1,0,1,0,0,0,1,1,1,1,0,0,0,1,0,0,0,1,0,0,1;                   121P    217
126,1,1,1,0,1,0,0,0,1,1,1,1,1,0,0,1,0.4,0,0,1,0,0,1;                 123P    218
508,4,0,91,7,1,1,0,117,0,91,8,0,1,0,119,0,91,9,1,1,0,121,0,91,       125P    219
10,1,1,0,123;                                                        125P    220
126,28,3,1,0,1,0,0,0,0,0,0.0384615384615385,0.0769230769230769,      127P    221
0.115384615384615,0.153846153846154,0.192307692307692,               127P    222
0.230769230769231,0.269230769230769,0.307692307692308,               127P    223
0.346153846153846,0.384615384615385,0.423076923076923,               127P    224
0.461538461538461,0.5,0.538461538461538,0.576923076923077,           127P    225
0.615384615384615,0.653846153846154,0.692307692307692,               127P    226
0.73076923076923,0.769230769230769,0.807692307692307,                127P    227
0.846153846153846,0.884615384615384,0.923076923076923,               127P    228
0.961538461538461,1,1,1,1,1,1,1,1,1,1,1,1,1,1,1,1,1,1,1,1,1,1,1,     127P    229
1,1,1,1,1,1,1,1,1,1,0.416666666666667,0.5,0,0.416666666666667,       127P    230
0.504027682889217,0,0.417072716069213,0.512083032116268,0,           127P    231
0.418891056708725,0.523989871412426,0,0.421892148382858,             127P    232
0.535546880806561,0,0.426032228417133,0.546585537586851,0,           127P    233
0.431250925122003,0.556944872072296,0,0.437472138148027,             127P    234
0.566473822162658,0,0.444605148200337,0.575033434221546,0,           127P    235
0.452545939930228,0.582498889853817,0,0.461178718713173,             127P    236
0.588761325899381,0,0.470377599195193,0.593729421940586,0,           127P    237
0.480008440984785,0.597330731949525,0,0.489930804721888,             127P    238
0.599512740716945,0,0.5,0.600243629641527,0,0.510069195278111,       127P    239
0.599512740716945,0,0.519991559015215,0.597330731949525,0,           127P    240
0.529622400804806,0.593729421940586,0,0.538821281286826,             127P    241
0.588761325899381,0,0.547454060069772,0.582498889853817,0,           127P    242
0.555394851799663,0.575033434221546,0,0.562527861851972,             127P    243
0.566473822162659,0,0.568749074877997,0.556944872072296,0,           127P    244
0.573967771582866,0.546585537586851,0,0.578107851617142,             127P    245
0.535546880806561,0,0.581108943291274,0.523989871412426,0,           127P    246
0.582927283930786,0.512083032116269,0,0.583333333333333,             127P    247
0.504027682889218,0,0.583333333333333,0.5,0,0,1,0,0,1;               127P    248
126,28,3,1,0,1,0,0,0,0,0,0.0384615384615385,0.0769230769230769,      129P    249
0.115384615384615,0.153846153846154,0.192307692307692,               129P    250
0.230769230769231,0.269230769230769,0.307692307692308,               129P    251
0.346153846153846,0.384615384615385,0.423076923076923,               129P    252
0.461538461538461,0.5,0.538461538461538,0.576923076923077,           129P    253
0.615384615384615,0.653846153846154,0.692307692307692,               129P    254
0.73076923076923,0.769230769230769,0.807692307692307,                129P    255
0.846153846153846,0.884615384615384,0.923076923076923,               129P    256
0.961538461538461,1,1,1,1,1,1,1,1,1,1,1,1,1,1,1,1,1,1,1,1,1,1,1,     129P    257
1,1,1,1,1,1,1,1,1,1,0.583333333333333,0.5,0,0.583333333333333,       129P    258
0.495972317110782,0,0.582927283930786,0.487916967883731,0,           129P    259
0.581108943291274,0.476010128587574,0,0.578107851617141,             129P    260
0.464453119193439,0,0.573967771582866,0.453414462413149,0,           129P    261
0.568749074877997,0.443055127927704,0,0.562527861851972,             129P    262
0.433526177837341,0,0.555394851799663,0.424966565778453,0,           129P    263
0.547454060069772,0.417501110146183,0,0.538821281286826,             129P    264
0.411238674100619,0,0.529622400804806,0.406270578059414,0,           129P    265
0.519991559015215,0.402669268050475,0,0.510069195278111,             129P    266
0.400487259283055,0,0.5,0.399756370358472,0,0.489930804721888,       129P    267
0.400487259283055,0,0.480008440984785,0.402669268050475,0,           129P    268
0.470377599195194,0.406270578059414,0,0.461178718713173,             129P    269
0.411238674100619,0,0.452545939930228,0.417501110146183,0,           129P    270
0.444605148200337,0.424966565778453,0,0.437472138148027,             129P    271
0.433526177837341,0,0.431250925122003,0.443055127927704,0,           129P    272
0.426032228417133,0.453414462413149,0,0.421892148382858,             129P    273
0.464453119193439,0,0.418891056708725,0.476010128587573,0,           129P    274
0.417072716069213,0.487916967883731,0,0.416666666666667,             129P    275
0.495972317110782,0,0.416666666666667,0.5,0,0,1,0,0,1;               129P    276
508,2,0,91,11,1,1,0,127,0,91,12,1,1,0,129;                           131P    277
510,115,2,1,125,131;                                                 133P    278
110,5,177,1.43252726468411E-14,4,177,1.41476369629011E-14;           135P    279
110,8.88178419700125E-16,177,-4.99999999999999,-5,177,               137P    280
-4.99999999999999;                                                   137P    281
120,135,137,0,6.28318530717959;                                      139P    282
126,1,1,1,0,1,0,0,0,1,1,1,1,0,0,0,0,3.14159265358979,0,0,1,0,0,      141P    283
1;                                                                   141P    284
126,1,1,1,0,1,0,0,0,1,1,1,1,0,0,0,1,0,0,0,1,0,0,1;                   143P    285
126,1,1,1,0,1,0,0,0,1,1,1,1,1,0,0,1,3.14159265358979,0,0,1,0,0,      145P    286
1;                                                                   145P    287
126,1,1,1,0,1,0,0,0,1,1,1,1,0,3.14159265358979,0,1,                  147P    288
3.14159265358979,0,0,1,0,0,1;                                        147P    289
508,4,0,91,12,0,1,0,141,0,91,13,1,1,0,143,0,91,5,1,1,0,145,0,91,     149P    290
14,0,1,0,147;                                                        149P    291
510,139,1,1,149;                                                     151P    292
128,1,1,1,1,0,0,1,0,0,0,0,1,1,0,0,1,1,1,1,1,1,0,152,-30,-5,152,      153P    293
-30,0,172,-30,-5,172,-30,0,1,0,1;                                    153P    294
126,1,1,1,0,1,0,0,0,1,1,1,1,0,1,0,1,1,0,0,1,0,0,1;                   155P    295
126,1,1,1,0,1,0,0,0,1,1,1,1,0,0,0,0,1,0,0,1,0,0,1;                   157P    296
126,1,1,1,0,1,0,0,0,1,1,1,1,0,0,0,0.999999999999999,0,0,0,1,0,0,     159P    297
1;                                                                   159P    298
126,1,1,1,0,1,0,0,0,1,1,1,1,0.999999999999999,0,0,                   161P    299
0.999999999999999,1,0,0,1,0,0,1;                                     161P    300
508,4,0,91,15,0,1,0,155,0,91,10,0,1,0,157,0,91,16,1,1,0,159,0,       163P    301
91,1,1,1,0,161;                                                      163P    302
510,153,1,1,163;                                                     165P    303
128,1,1,1,1,0,0,1,0,0,0,0,1,1,0,0,1,1,1,1,1,1,35,152,-35,-35,        167P    304
152,-35,35,152,35,-35,152,35,0,1,0,1;                                167P    305
126,28,3,1,0,1,0,0,0,0,0,0.0384615384615385,0.0769230769230769,      169P    306
0.115384615384615,0.153846153846154,0.192307692307692,               169P    307
0.230769230769231,0.269230769230769,0.307692307692308,               169P    308
0.346153846153846,0.384615384615385,0.423076923076923,               169P    309
0.461538461538461,0.5,0.538461538461538,0.576923076923077,           169P    310
0.615384615384615,0.653846153846154,0.692307692307692,               169P    311
0.73076923076923,0.769230769230769,0.807692307692307,                169P    312
0.846153846153846,0.884615384615384,0.923076923076923,               169P    313
0.961538461538461,1,1,1,1,1,1,1,1,1,1,1,1,1,1,1,1,1,1,1,1,1,1,1,     169P    314
1,1,1,1,1,1,1,1,1,1,1,0.5,0,1,0.520138414446088,0,                   169P    315
0.997563703584719,0.560415160581344,0,0.986653659747647,             169P    316
0.619949357062131,0,0.968647109702849,0.677734404032805,0,           169P    317
0.943806629497199,0.732927687934255,0,0.912494449267984,             169P    318
0.78472436036148,0,0.875167171111835,0.832369110813293,0,            169P    319
0.83236911079798,0.875167171107732,0,0.784724360418632,              169P    320
0.912494449269083,0,0.732927687720959,0.943806629496904,0,           169P    321
0.677734404828839,0.968647109702929,0,0.619949354091291,             169P    322
0.986653659747626,0,0.56041517166867,0.997563703584725,0,0.5,        169P    323
1.00121814820764,0,0.439584828331331,0.997563703584725,0,            169P    324
0.380050645908709,0.986653659747626,0,0.322265595171161,             169P    325
0.968647109702929,0,0.267072312279042,0.943806629496905,0,           169P    326
0.215275639581368,0.912494449269084,0,0.167630889202021,             169P    327
0.875167171107732,0,0.124832828888165,0.832369110813294,0,           169P    328
0.0875055507320165,0.78472436036148,0,0.0561933705028012,            169P    329
0.732927687934256,0,0.0313528902971505,0.677734404032806,0,          169P    330
0.0133463402523533,0.619949357062132,0,0.00243629641528159,          169P    331
0.560415160581345,0,0,0.520138414446089,0,0,0.5,0,0,1,0,0,1;         169P    332
126,28,3,1,0,1,0,0,0,0,0,0.0384615384615385,0.0769230769230769,      171P    333
0.115384615384615,0.153846153846154,0.192307692307692,               171P    334
0.230769230769231,0.269230769230769,0.307692307692308,               171P    335
0.346153846153846,0.384615384615385,0.423076923076923,               171P    336
0.461538461538461,0.5,0.538461538461538,0.576923076923077,           171P    337
0.615384615384615,0.653846153846154,0.692307692307692,               171P    338
0.73076923076923,0.769230769230769,0.807692307692307,                171P    339
0.846153846153846,0.884615384615384,0.923076923076923,               171P    340
0.961538461538461,1,1,1,1,1,1,1,1,1,1,1,1,1,1,1,1,1,1,1,1,1,1,1,     171P    341
1,1,1,1,1,1,1,1,1,1,0,0.5,0,0,0.479861585553912,0,                   171P    342
0.00243629641528159,0.439584839418656,0,0.0133463402523528,          171P    343
0.380050642937869,0,0.0313528902971504,0.322265595967195,0,          171P    344
0.056193370502801,0.267072312065745,0,0.0875055507320161,            171P    345
0.21527563963852,0,0.124832828888165,0.167630889186707,0,            171P    346
0.16763088920202,0.124832828892269,0,0.215275639581368,              171P    347
0.0875055507309168,0,0.267072312279042,0.0561933705030955,0,         171P    348
0.322265595171161,0.0313528902970715,0,0.380050645908708,            171P    349
0.0133463402523744,0,0.43958482833133,0.00243629641527537,0,0.5,     171P    350
-0.00121814820763766,0,0.560415171668669,0.00243629641527537,0,      171P    351
0.61994935409129,0.0133463402523739,0,0.677734404828839,             171P    352
0.0313528902970714,0,0.732927687720958,0.0561933705030954,0,         171P    353
0.784724360418632,0.0875055507309164,0,0.832369110797979,            171P    354
0.124832828892268,0,0.875167171111835,0.167630889186706,0,           171P    355
0.912494449267984,0.21527563963852,0,0.943806629497199,              171P    356
0.267072312065744,0,0.968647109702849,0.322265595967194,0,           171P    357
0.986653659747647,0.380050642937868,0,0.997563703584719,             171P    358
0.439584839418655,0,1,0.479861585553911,0,1,0.5,0,0,1,0,0,1;         171P    359
508,2,0,91,17,1,1,0,169,0,91,18,1,1,0,171;                           173P    360
126,1,1,1,0,1,0,0,0,1,1,1,1,0.5,0.0714285714285715,0,                175P    361
0.571428571428571,0.0714285714285714,0,0,1,0,0,1;                    175P    362
126,1,1,1,0,1,0,0,0,1,1,1,1,0.5,0.928571428571429,0,0.5,             177P    363
0.0714285714285715,0,0,1,0,0,1;                                      177P    364
126,1,1,1,0,1,0,0,0,1,1,1,1,0.571428571428571,0.928571428571428,     179P    365
0,0.5,0.928571428571428,0,0,1,0,0,1;                                 179P    366
126,1,1,1,0,1,0,0,0,1,1,1,1,0.571428571428571,                       181P    367
0.0714285714285715,0,0.571428571428571,0.928571428571429,0,0,1,      181P    368
0,0,1;                                                               181P    369
508,4,0,91,16,0,1,0,175,0,91,9,0,1,0,177,0,91,19,0,1,0,179,0,91,     183P    370
2,0,1,0,181;                                                         183P    371
510,167,2,1,173,183;                                                 185P    372
128,1,1,1,1,0,0,1,0,0,0,0,1,1,0,0,1,1,1,1,1,1,-5,152,30,0,152,       187P    373
30,-5,172,30,0,172,30,0,1,0,1;                                       187P    374
126,1,1,1,0,1,0,0,0,1,1,1,1,0,1,0,0.999999999999999,1,0,0,1,0,0,     189P    375
1;                                                                   189P    376
126,1,1,1,0,1,0,0,0,1,1,1,1,0,0,0,0,1,0,0,1,0,0,1;                   191P    377
126,1,1,1,0,1,0,0,0,1,1,1,1,0,0,0,1,0,0,0,1,0,0,1;                   193P    378
126,1,1,1,0,1,0,0,0,1,1,1,1,1,0,0,1,1,0,0,1,0,0,1;                   195P    379
508,4,0,91,20,0,1,0,189,0,91,3,0,1,0,191,0,91,19,1,1,0,193,0,91,     197P    380
8,1,1,0,195;                                                         197P    381
510,187,1,1,197;                                                     199P    382
110,35,172,3.5527136788005E-14,34,172,3.48165940522449E-14;          201P    383
110,-3.5527136788005E-14,172,30,-5.00000000000006,172,30;            203P    384
120,201,203,0,6.28318530717959;                                      205P    385
126,1,1,1,0,1,0,0,0,1,1,1,1,0,3.14159265358979,0,                    207P    386
0.999999999999996,3.14159265358979,0,0,1,0,0,1;                      207P    387
126,1,1,1,0,1,0,0,0,1,1,1,1,1,0,0,0.999999999999996,                 209P    388
3.14159265358979,0,0,1,0,0,1;                                        209P    389
126,1,1,1,0,1,0,0,0,1,1,1,1,1,0,0,0,0,0,0,1,0,0,1;                   211P    390
126,1,1,1,0,1,0,0,0,1,1,1,1,0,3.14159265358979,0,0,0,0,0,1,0,0,      213P    391
1;                                                                   213P    392
508,4,0,91,15,1,1,0,207,0,91,4,0,1,0,209,0,91,20,1,1,0,211,0,91,     215P    393
7,0,1,0,213;                                                         215P    394
510,205,1,1,215;                                                     217P    395
110,0,150,9.18485099360515E-15,0,151,9.24608333356251E-15;           219P    396
110,35,150,1.77573785876366E-14,35,152,1.78798432675514E-14;         221P    397
120,219,221,0,6.28318530717959;                                      223P    398
126,1,1,1,0,1,0,0,0,1,1,1,1,0,0,0,1,0,0,0,1,0,0,1;                   225P    399
126,1,1,1,0,1,0,0,0,1,1,1,1,0,0,0,0,3.14159265358979,0,0,1,0,0,      227P    400
1;                                                                   227P    401
126,1,1,1,0,1,0,0,0,1,1,1,1,0,3.14159265358979,0,1,                  229P    402
3.14159265358979,0,0,1,0,0,1;                                        229P    403
126,1,1,1,0,1,0,0,0,1,1,1,1,1,0,0,1,3.14159265358979,0,0,1,0,0,      231P    404
1;                                                                   231P    405
508,4,0,91,21,0,1,0,225,0,91,22,1,1,0,227,0,91,23,1,1,0,229,0,       233P    406
91,18,0,1,0,231;                                                     233P    407
510,223,1,1,233;                                                     235P    408
128,1,1,1,1,0,0,1,0,0,0,0,1,1,0,0,1,1,1,1,1,1,35,150,-35,-35,        237P    409
150,-35,35,150,35,-35,150,35,0,1,0,1;                                237P    410
126,28,3,1,0,1,0,0,0,0,0,0.0384615384615385,0.0769230769230769,      239P    411
0.115384615384615,0.153846153846154,0.192307692307692,               239P    412
0.230769230769231,0.269230769230769,0.307692307692308,               239P    413
0.346153846153846,0.384615384615385,0.423076923076923,               239P    414
0.461538461538461,0.5,0.538461538461538,0.576923076923077,           239P    415
0.615384615384615,0.653846153846154,0.692307692307692,               239P    416
0.73076923076923,0.769230769230769,0.807692307692307,                239P    417
0.846153846153846,0.884615384615384,0.923076923076923,               239P    418
0.961538461538461,1,1,1,1,1,1,1,1,1,1,1,1,1,1,1,1,1,1,1,1,1,1,1,     239P    419
1,1,1,1,1,1,1,1,1,1,0,0.5,0,0,0.479861585553912,0,                   239P    420
0.00243629641528159,0.439584839418656,0,0.0133463402523528,          239P    421
0.380050642937869,0,0.0313528902971504,0.322265595967195,0,          239P    422
0.056193370502801,0.267072312065745,0,0.0875055507320161,            239P    423
0.21527563963852,0,0.124832828888165,0.167630889186707,0,            239P    424
0.16763088920202,0.124832828892269,0,0.215275639581368,              239P    425
0.0875055507309168,0,0.267072312279042,0.0561933705030955,0,         239P    426
0.322265595171161,0.0313528902970715,0,0.380050645908708,            239P    427
0.0133463402523744,0,0.43958482833133,0.00243629641527537,0,0.5,     239P    428
-0.00121814820763766,0,0.560415171668669,0.00243629641527537,0,      239P    429
0.61994935409129,0.0133463402523739,0,0.677734404828839,             239P    430
0.0313528902970714,0,0.732927687720958,0.0561933705030954,0,         239P    431
0.784724360418632,0.0875055507309164,0,0.832369110797979,            239P    432
0.124832828892268,0,0.875167171111835,0.167630889186706,0,           239P    433
0.912494449267984,0.21527563963852,0,0.943806629497199,              239P    434
0.267072312065744,0,0.968647109702849,0.322265595967194,0,           239P    435
0.986653659747647,0.380050642937868,0,0.997563703584719,             239P    436
0.439584839418655,0,1,0.479861585553911,0,1,0.5,0,0,1,0,0,1;         239P    437
126,28,3,1,0,1,0,0,0,0,0,0.0384615384615385,0.0769230769230769,      241P    438
0.115384615384615,0.153846153846154,0.192307692307692,               241P    439
0.230769230769231,0.269230769230769,0.307692307692308,               241P    440
0.346153846153846,0.384615384615385,0.423076923076923,               241P    441
0.461538461538461,0.5,0.538461538461538,0.576923076923077,           241P    442
0.615384615384615,0.653846153846154,0.692307692307692,               241P    443
0.73076923076923,0.769230769230769,0.807692307692307,                241P    444
0.846153846153846,0.884615384615384,0.923076923076923,               241P    445
0.961538461538461,1,1,1,1,1,1,1,1,1,1,1,1,1,1,1,1,1,1,1,1,1,1,1,     241P    446
1,1,1,1,1,1,1,1,1,1,1,0.5,0,1,0.520138414446088,0,                   241P    447
0.997563703584719,0.560415160581344,0,0.986653659747647,             241P    448
0.619949357062131,0,0.968647109702849,0.677734404032805,0,           241P    449
0.943806629497199,0.732927687934255,0,0.912494449267984,             241P    450
0.78472436036148,0,0.875167171111835,0.832369110813293,0,            241P    451
0.83236911079798,0.875167171107732,0,0.784724360418632,              241P    452
0.912494449269083,0,0.732927687720959,0.943806629496904,0,           241P    453
0.677734404828839,0.968647109702929,0,0.619949354091291,             241P    454
0.986653659747626,0,0.56041517166867,0.997563703584725,0,0.5,        241P    455
1.00121814820764,0,0.439584828331331,0.997563703584725,0,            241P    456
0.380050645908709,0.986653659747626,0,0.322265595171161,             241P    457
0.968647109702929,0,0.267072312279042,0.943806629496905,0,           241P    458
0.215275639581368,0.912494449269084,0,0.167630889202021,             241P    459
0.875167171107732,0,0.124832828888165,0.832369110813294,0,           241P    460
0.0875055507320165,0.78472436036148,0,0.0561933705028012,            241P    461
0.732927687934256,0,0.0313528902971505,0.677734404032806,0,          241P    462
0.0133463402523533,0.619949357062132,0,0.00243629641528159,          241P    463
0.560415160581345,0,0,0.520138414446089,0,0,0.5,0,0,1,0,0,1;         241P    464
508,2,0,91,22,0,1,0,239,0,91,24,0,1,0,241;                           243P    465
126,28,3,1,0,1,0,0,0,0,0,0.0384615384615385,0.0769230769230769,      245P    466
0.115384615384615,0.153846153846154,0.192307692307692,               245P    467
0.230769230769231,0.269230769230769,0.307692307692308,               245P    468
0.346153846153846,0.384615384615385,0.423076923076923,               245P    469
0.461538461538461,0.5,0.538461538461538,0.576923076923077,           245P    470
0.615384615384615,0.653846153846154,0.692307692307692,               245P    471
0.73076923076923,0.769230769230769,0.807692307692307,                245P    472
0.846153846153846,0.884615384615384,0.923076923076923,               245P    473
0.961538461538461,1,1,1,1,1,1,1,1,1,1,1,1,1,1,1,1,1,1,1,1,1,1,1,     245P    474
1,1,1,1,1,1,1,1,1,1,0.5,0.357142857142857,0,0.505753832698882,       245P    475
0.357142857142857,0,0.517261474451813,0.357838941832938,0,           245P    476
0.534271244874895,0.360956097214958,0,0.550781258295087,             245P    477
0.366100825799186,0,0.566550767981216,0.373198105857943,0,           245P    478
0.581349817246137,0.38214444306629,0,0.594962603089512,              245P    479
0.392809379682333,0,0.607190620316495,0.405037396914863,0,           245P    480
0.617855556934024,0.418650182737534,0,0.626801894141973,             245P    481
0.433449232079726,0,0.633899174200837,0.449218741477474,0,           245P    482
0.639043902785036,0.465728755973917,0,0.642161058167064,             245P    483
0.48273852238038,0,0.643205185202182,0.5,0,0.642161058167064,        245P    484
0.51726147761962,0,0.639043902785036,0.534271244026083,0,            245P    485
0.633899174200837,0.550781258522525,0,0.626801894141973,             245P    486
0.566550767920274,0,0.617855556934024,0.581349817262466,0,           245P    487
0.607190620316495,0.594962603085137,0,0.594962603089512,             245P    488
0.607190620317667,0,0.581349817246137,0.61785555693371,0,            245P    489
0.566550767981216,0.626801894142057,0,0.550781258295087,             245P    490
0.633899174200814,0,0.534271244874895,0.639043902785042,0,           245P    491
0.517261474451813,0.642161058167062,0,0.505753832698883,             245P    492
0.642857142857143,0,0.5,0.642857142857143,0,0,1,0,0,1;               245P    493
126,28,3,1,0,1,0,0,0,0,0,0.0384615384615385,0.0769230769230769,      247P    494
0.115384615384615,0.153846153846154,0.192307692307692,               247P    495
0.230769230769231,0.269230769230769,0.307692307692308,               247P    496
0.346153846153846,0.384615384615385,0.423076923076923,               247P    497
0.461538461538461,0.5,0.538461538461538,0.576923076923077,           247P    498
0.615384615384615,0.653846153846154,0.692307692307692,               247P    499
0.73076923076923,0.769230769230769,0.807692307692307,                247P    500
0.846153846153846,0.884615384615384,0.923076923076923,               247P    501
0.961538461538461,1,1,1,1,1,1,1,1,1,1,1,1,1,1,1,1,1,1,1,1,1,1,1,     247P    502
1,1,1,1,1,1,1,1,1,1,0.5,0.642857142857143,0,0.494246167301118,       247P    503
0.642857142857143,0,0.482738525548187,0.642161058167062,0,           247P    504
0.465728755125106,0.639043902785042,0,0.449218741704913,             247P    505
0.633899174200814,0,0.433449232018784,0.626801894142057,0,           247P    506
0.418650182753863,0.61785555693371,0,0.405037396910488,              247P    507
0.607190620317667,0,0.392809379683505,0.594962603085137,0,           247P    508
0.382144443065976,0.581349817262466,0,0.373198105858027,             247P    509
0.566550767920274,0,0.366100825799163,0.550781258522526,0,           247P    510
0.360956097214964,0.534271244026083,0,0.357838941832936,             247P    511
0.51726147761962,0,0.356794814797818,0.5,0,0.357838941832936,        247P    512
0.48273852238038,0,0.360956097214964,0.465728755973917,0,            247P    513
0.366100825799163,0.449218741477475,0,0.373198105858027,             247P    514
0.433449232079726,0,0.382144443065976,0.418650182737534,0,           247P    515
0.392809379683505,0.405037396914863,0,0.405037396910487,             247P    516
0.392809379682333,0,0.418650182753863,0.38214444306629,0,            247P    517
0.433449232018784,0.373198105857943,0,0.449218741704913,             247P    518
0.366100825799186,0,0.465728755125105,0.360956097214958,0,           247P    519
0.482738525548187,0.357838941832938,0,0.494246167301117,             247P    520
0.357142857142857,0,0.5,0.357142857142857,0,0,1,0,0,1;               247P    521
508,2,0,91,25,1,1,0,245,0,91,26,1,1,0,247;                           249P    522
510,237,2,1,243,249;                                                 251P    523
110,0,0,0,0,1,6.12323399573677E-17;                                  253P    524
110,-1.83697019872103E-15,-6.12323399573677E-16,10,                  255P    525
-1.83697019872103E-15,150,10;                                        255P    526
120,253,255,0,6.28318530717959;                                      257P    527
126,1,1,1,0,1,0,0,0,1,1,1,1,0,0,0,1,0,0,0,1,0,0,1;                   259P    528
126,1,1,1,0,1,0,0,0,1,1,1,1,0,0,0,0,3.14159265358979,0,0,1,0,0,      261P    529
1;                                                                   261P    530
126,1,1,1,0,1,0,0,0,1,1,1,1,0,3.14159265358979,0,1,                  263P    531
3.14159265358979,0,0,1,0,0,1;                                        263P    532
126,1,1,1,0,1,0,0,0,1,1,1,1,1,0,0,1,3.14159265358979,0,0,1,0,0,      265P    533
1;                                                                   265P    534
508,4,0,91,27,0,1,0,259,0,91,28,1,1,0,261,0,91,29,1,1,0,263,0,       267P    535
91,26,0,1,0,265;                                                     267P    536
510,257,1,1,267;                                                     269P    537
128,1,1,1,1,0,0,1,0,0,0,0,1,1,0,0,1,1,1,1,1,1,10,0,10,10,0,-10,      271P    538
-10,0,10,-10,0,-10,0,1,0,1;                                          271P    539
126,28,3,1,0,1,0,0,0,0,0,0.0384615384615385,0.0769230769230769,      273P    540
0.115384615384615,0.153846153846154,0.192307692307692,               273P    541
0.230769230769231,0.269230769230769,0.307692307692308,               273P    542
0.346153846153846,0.384615384615385,0.423076923076923,               273P    543
0.461538461538461,0.5,0.538461538461538,0.576923076923077,           273P    544
0.615384615384615,0.653846153846154,0.692307692307692,               273P    545
0.73076923076923,0.769230769230769,0.807692307692307,                273P    546
0.846153846153846,0.884615384615384,0.923076923076923,               273P    547
0.961538461538461,1,1,1,1,1,1,1,1,1,1,1,1,1,1,1,1,1,1,1,1,1,1,1,     273P    548
1,1,1,1,1,1,1,1,1,1,0,0.5,0,0,0.479861585553912,0,                   273P    549
0.00243629641528131,0.439584839418656,0,0.0133463402523529,          273P    550
0.380050642937869,0,0.0313528902971505,0.322265595967195,0,          273P    551
0.0561933705028009,0.267072312065745,0,0.0875055507320162,           273P    552
0.21527563963852,0,0.124832828888165,0.167630889186707,0,            273P    553
0.16763088920202,0.124832828892269,0,0.215275639581368,              273P    554
0.0875055507309168,0,0.267072312279042,0.0561933705030955,0,         273P    555
0.322265595171161,0.0313528902970713,0,0.380050645908708,            273P    556
0.0133463402523745,0,0.43958482833133,0.00243629641527521,0,0.5,     273P    557
-0.00121814820763766,0,0.560415171668669,0.00243629641527532,0,      273P    558
0.61994935409129,0.0133463402523739,0,0.677734404828839,             273P    559
0.0313528902970713,0,0.732927687720958,0.0561933705030954,0,         273P    560
0.784724360418632,0.0875055507309164,0,0.832369110797979,            273P    561
0.124832828892268,0,0.875167171111834,0.167630889186706,0,           273P    562
0.912494449267984,0.21527563963852,0,0.943806629497199,              273P    563
0.267072312065744,0,0.968647109702849,0.322265595967194,0,           273P    564
0.986653659747647,0.380050642937868,0,0.997563703584719,             273P    565
0.439584839418655,0,1,0.479861585553911,0,1,0.5,0,0,1,0,0,1;         273P    566
126,28,3,1,0,1,0,0,0,0,0,0.0384615384615385,0.0769230769230769,      275P    567
0.115384615384615,0.153846153846154,0.192307692307692,               275P    568
0.230769230769231,0.269230769230769,0.307692307692308,               275P    569
0.346153846153846,0.384615384615385,0.423076923076923,               275P    570
0.461538461538461,0.5,0.538461538461538,0.576923076923077,           275P    571
0.615384615384615,0.653846153846154,0.692307692307692,               275P    572
0.73076923076923,0.769230769230769,0.807692307692307,                275P    573
0.846153846153846,0.884615384615384,0.923076923076923,               275P    574
0.961538461538461,1,1,1,1,1,1,1,1,1,1,1,1,1,1,1,1,1,1,1,1,1,1,1,     275P    575
1,1,1,1,1,1,1,1,1,1,1,0.5,0,1,0.520138414446088,0,                   275P    576
0.997563703584719,0.560415160581344,0,0.986653659747647,             275P    577
0.619949357062131,0,0.968647109702849,0.677734404032805,0,           275P    578
0.943806629497199,0.732927687934255,0,0.912494449267984,             275P    579
0.78472436036148,0,0.875167171111835,0.832369110813293,0,            275P    580
0.83236911079798,0.875167171107732,0,0.784724360418632,              275P    581
0.912494449269083,0,0.732927687720959,0.943806629496905,0,           275P    582
0.677734404828839,0.968647109702929,0,0.619949354091291,             275P    583
0.986653659747626,0,0.56041517166867,0.997563703584725,0,0.5,        275P    584
1.00121814820764,0,0.439584828331331,0.997563703584725,0,            275P    585
0.380050645908709,0.986653659747626,0,0.322265595171161,             275P    586
0.968647109702929,0,0.267072312279042,0.943806629496905,0,           275P    587
0.215275639581368,0.912494449269084,0,0.167630889202021,             275P    588
0.875167171107732,0,0.124832828888165,0.832369110813294,0,           275P    589
0.0875055507320165,0.78472436036148,0,0.0561933705028013,            275P    590
0.732927687934256,0,0.0313528902971506,0.677734404032806,0,          275P    591
0.0133463402523532,0.619949357062132,0,0.00243629641528154,          275P    592
0.560415160581345,0,0,0.520138414446089,0,0,0.5,0,0,1,0,0,1;         275P    593
508,2,0,91,28,0,1,0,273,0,91,30,0,1,0,275;                           277P    594
510,271,1,1,277;                                                     279P    595
110,5,177,1.43252726468411E-14,4,177,1.41476369629011E-14;           281P    596
110,-8.88178419700125E-16,177,5.00000000000001,-5,177,               283P    597
5.00000000000001;                                                    283P    598
120,281,283,0,6.28318530717959;                                      285P    599
126,1,1,1,0,1,0,0,0,1,1,1,1,0,0,0,1,0,0,0,1,0,0,1;                   287P    600
126,1,1,1,0,1,0,0,0,1,1,1,1,1,0,0,1,3.14159265358979,0,0,1,0,0,      289P    601
1;                                                                   289P    602
126,1,1,1,0,1,0,0,0,1,1,1,1,0,3.14159265358979,0,1,                  291P    603
3.14159265358979,0,0,1,0,0,1;                                        291P    604
126,1,1,1,0,1,0,0,0,1,1,1,1,0,0,0,0,3.14159265358979,0,0,1,0,0,      293P    605
1;                                                                   293P    606
508,4,0,91,14,1,1,0,287,0,91,6,1,1,0,289,0,91,13,0,1,0,291,0,91,     295P    607
11,0,1,0,293;                                                        295P    608
510,285,1,1,295;                                                     297P    609
110,0,150,9.18485099360515E-15,0,151,9.24608333356251E-15;           299P    610
110,-35,150,4.89858719658941E-15,-35,152,5.02105187650415E-15;       301P    611
120,299,301,0,6.28318530717959;                                      303P    612
126,1,1,1,0,1,0,0,0,1,1,1,1,1,0,0,1,3.14159265358979,0,0,1,0,0,      305P    613
1;                                                                   305P    614
126,1,1,1,0,1,0,0,0,1,1,1,1,0,0,0,1,0,0,0,1,0,0,1;                   307P    615
126,1,1,1,0,1,0,0,0,1,1,1,1,0,0,0,0,3.14159265358979,0,0,1,0,0,      309P    616
1;                                                                   309P    617
126,1,1,1,0,1,0,0,0,1,1,1,1,0,3.14159265358979,0,1,                  311P    618
3.14159265358979,0,0,1,0,0,1;                                        311P    619
508,4,0,91,17,0,1,0,305,0,91,23,0,1,0,307,0,91,24,1,1,0,309,0,       313P    620
91,21,1,1,0,311;                                                     313P    621
510,303,1,1,313;                                                     315P    622
110,0,0,0,0,1,6.12323399573677E-17;                                  317P    623
110,6.12323399573677E-16,6.12323399573677E-16,-10,                   319P    624
6.12323399573677E-16,150,-9.99999999999999;                          319P    625
120,317,319,0,6.28318530717959;                                      321P    626
126,1,1,1,0,1,0,0,0,1,1,1,1,1,0,0,1,3.14159265358979,0,0,1,0,0,      323P    627
1;                                                                   323P    628
126,1,1,1,0,1,0,0,0,1,1,1,1,0,0,0,1,0,0,0,1,0,0,1;                   325P    629
126,1,1,1,0,1,0,0,0,1,1,1,1,0,0,0,0,3.14159265358979,0,0,1,0,0,      327P    630
1;                                                                   327P    631
126,1,1,1,0,1,0,0,0,1,1,1,1,0,3.14159265358979,0,1,                  329P    632
3.14159265358979,0,0,1,0,0,1;                                        329P    633
508,4,0,91,25,0,1,0,323,0,91,29,0,1,0,325,0,91,30,1,1,0,327,0,       331P    634
91,27,1,1,0,329;                                                     331P    635
510,321,1,1,331;                                                     333P    636
514,14,113,1,133,1,151,1,165,1,185,1,199,1,217,0,235,0,251,0,        335P    637
269,0,279,0,297,1,315,0,333,0;                                       335P    638
186,335,1,0;                                                         337P    639
S      2G      3D    338P    639                                        T      1
