IGES file generated by C3D Converter 1.8                                S      1
translator by C3D Labs., translator version IGESOUT-5.1.                S      2
1H,,1H;,7H Деталь,55HE:\Сдача задания\Модели\IGES\Крепление к монитору 1G      1
.igs,0H,3H1.0,32,38,6,308,15,7Hunknown,1,2,2HMM,1000,1,16H-17740206:0644G      2
39,1E-6,50000,5Hno1se,7Hunknown,0,0,13H260306:064440;                   G      3
     502       1       0       0       0       0       0       000010000D      1
     502       0       0       7       1                               0D      2
     110       8       0       0       0       0       0       000010000D      3
     110       1       0       1       0                               0D      4
     110       9       0       0       0       0       0       000010000D      5
     110       1       0       1       0                               0D      6
     124      10       0       0       0       0       0       001020201D      7
     124       1       0       2       0                               0D      8
     100      12       0       0       0       0       7       000010000D      9
     100       1       0       1       0                               0D     10
     124      13       0       0       0       0       0       001020201D     11
     124       1       0       2       0                               0D     12
     100      15       0       0       0       0      11       000010000D     13
     100       1       0       1       0                               0D     14
     110      16       0       0       0       0       0       000010000D     15
     110       1       0       1       0                               0D     16
     124      17       0       0       0       0       0       001020201D     17
     124       1       0       2       0                               0D     18
     100      19       0       0       0       0      17       000010000D     19
     100       1       0       1       0                               0D     20
     124      20       0       0       0       0       0       001020201D     21
     124       1       0       2       0                               0D     22
     100      22       0       0       0       0      21       000010000D     23
     100       1       0       1       0                               0D     24
     110      23       0       0       0       0       0       000010000D     25
     110       1       0       1       0                               0D     26
     110      24       0       0       0       0       0       000010000D     27
     110       1       0       1       0                               0D     28
     124      25       0       0       0       0       0       001020201D     29
     124       1       0       2       0                               0D     30
     100      27       0       0       0       0      29       000010000D     31
     100       1       0       1       0                               0D     32
     124      28       0       0       0       0       0       001020201D     33
     124       1       0       2       0                               0D     34
     100      30       0       0       0       0      33       000010000D     35
     100       1       0       1       0                               0D     36
     110      31       0       0       0       0       0       000010000D     37
     110       1       0       1       0                               0D     38
     124      32       0       0       0       0       0       001020201D     39
     124       1       0       2       0                               0D     40
     100      34       0       0       0       0      39       000010000D     41
     100       1       0       1       0                               0D     42
     124      35       0       0       0       0       0       001020201D     43
     124       1       0       2       0                               0D     44
     100      37       0       0       0       0      43       000010000D     45
     100       1       0       1       0                               0D     46
     110      38       0       0       0       0       0       000010000D     47
     110       1       0       1       0                               0D     48
     110      39       0       0       0       0       0       000010000D     49
     110       1       0       1       0                               0D     50
     124      40       0       0       0       0       0       001020201D     51
     124       1       0       4       0                               0D     52
     100      44       0       0       0       0      51       000010000D     53
     100       1       0       1       0                               0D     54
     124      45       0       0       0       0       0       001020201D     55
     124       1       0       3       0                               0D     56
     100      48       0       0       0       0      55       000010000D     57
     100       1       0       1       0                               0D     58
     110      49       0       0       0       0       0       000010000D     59
     110       1       0       1       0                               0D     60
     124      50       0       0       0       0       0       001020201D     61
     124       1       0       3       0                               0D     62
     100      53       0       0       0       0      61       000010000D     63
     100       1       0       1       0                               0D     64
     124      54       0       0       0       0       0       001020201D     65
     124       1       0       3       0                               0D     66
     100      57       0       0       0       0      65       000010000D     67
     100       1       0       1       0                               0D     68
     110      58       0       0       0       0       0       000010000D     69
     110       1       0       1       0                               0D     70
     110      59       0       0       0       0       0       000010000D     71
     110       1       0       1       0                               0D     72
     124      60       0       0       0       0       0       001020201D     73
     124       1       0       3       0                               0D     74
     100      63       0       0       0       0      73       000010000D     75
     100       1       0       1       0                               0D     76
     124      64       0       0       0       0       0       001020201D     77
     124       1       0       3       0                               0D     78
     100      67       0       0       0       0      77       000010000D     79
     100       1       0       1       0                               0D     80
     110      68       0       0       0       0       0       000010000D     81
     110       1       0       1       0                               0D     82
     110      69       0       0       0       0       0       000010000D     83
     110       1       0       1       0                               0D     84
     504      70       0       0       0       0       0       000010000D     85
     504       1       0       6       1                               0D     86
     128      76       0       0       0       0       0       000010000D     87
     128       1       0       2       0                               0D     88
     126      78       0       0       0       0       0       001010500D     89
     126       1       0       2       0                               0D     90
     126      80       0       0       0       0       0       001010500D     91
     126       1       0       2       0                               0D     92
     126      82       0       0       0       0       0       001010500D     93
     126       1       0      29       0                               0D     94
     126     111       0       0       0       0       0       001010500D     95
     126       1       0      25       0                               0D     96
     126     136       0       0       0       0       0       001010500D     97
     126       1       0       2       0                               0D     98
     508     138       0       0       0       0       0       000010000D     99
     508       1       0       2       1                               0D    100
     126     140       0       0       0       0       0       001010500D    101
     126       1       0      27       0                               0D    102
     126     167       0       0       0       0       0       001010500D    103
     126       1       0      27       0                               0D    104
     508     194       0       0       0       0       0       000010000D    105
     508       1       0       1       1                               0D    106
     314     195       0       0       0       0       0       001000200D    107
     314       1       0       1       0                               0D    108
     510     196       0       0       0       0       0       000010000D    109
     510       1    -107       1       1                               0D    110
     128     197       0       0       0       0       0       000010000D    111
     128       1       0       2       0                               0D    112
     126     199       0       0       0       0       0       001010500D    113
     126       1       0       2       0                               0D    114
     126     201       0       0       0       0       0       001010500D    115
     126       1       0       2       0                               0D    116
     126     203       0       0       0       0       0       001010500D    117
     126       1       0      26       0                               0D    118
     126     229       0       0       0       0       0       001010500D    119
     126       1       0      31       0                               0D    120
     126     260       0       0       0       0       0       001010500D    121
     126       1       0       2       0                               0D    122
     508     262       0       0       0       0       0       000010000D    123
     508       1       0       2       1                               0D    124
     126     264       0       0       0       0       0       001010500D    125
     126       1       0      27       0                               0D    126
     126     291       0       0       0       0       0       001010500D    127
     126       1       0      27       0                               0D    128
     508     318       0       0       0       0       0       000010000D    129
     508       1       0       1       1                               0D    130
     510     319       0       0       0       0       0       000010000D    131
     510       1    -107       1       1                               0D    132
     110     320       0       0       0       0       0       001010000D    133
     110       1       0       1       0                               0D    134
     110     321       0       0       0       0       0       001010001D    135
     110       1       0       1       0                               0D    136
     120     322       0       0       0       0       0       000010000D    137
     120       1       0       1       0                               0D    138
     126     323       0       0       0       0       0       001010500D    139
     126       1       0       2       0                               0D    140
     126     325       0       0       0       0       0       001010500D    141
     126       1       0       1       0                               0D    142
     126     326       0       0       0       0       0       001010500D    143
     126       1       0       2       0                               0D    144
     126     328       0       0       0       0       0       001010500D    145
     126       1       0       2       0                               0D    146
     508     330       0       0       0       0       0       000010000D    147
     508       1       0       2       1                               0D    148
     510     332       0       0       0       0       0       000010000D    149
     510       1    -107       1       1                               0D    150
     110     333       0       0       0       0       0       001010000D    151
     110       1       0       1       0                               0D    152
     110     334       0       0       0       0       0       001010001D    153
     110       1       0       1       0                               0D    154
     120     335       0       0       0       0       0       000010000D    155
     120       1       0       1       0                               0D    156
     126     336       0       0       0       0       0       001010500D    157
     126       1       0       2       0                               0D    158
     126     338       0       0       0       0       0       001010500D    159
     126       1       0       2       0                               0D    160
     126     340       0       0       0       0       0       001010500D    161
     126       1       0       1       0                               0D    162
     126     341       0       0       0       0       0       001010500D    163
     126       1       0       2       0                               0D    164
     508     343       0       0       0       0       0       000010000D    165
     508       1       0       2       1                               0D    166
     510     345       0       0       0       0       0       000010000D    167
     510       1    -107       1       1                               0D    168
     128     346       0       0       0       0       0       000010000D    169
     128       1       0       3       0                               0D    170
     126     349       0       0       0       0       0       001010500D    171
     126       1       0      28       0                               0D    172
     126     377       0       0       0       0       0       001010500D    173
     126       1       0       2       0                               0D    174
     126     379       0       0       0       0       0       001010500D    175
     126       1       0       1       0                               0D    176
     126     380       0       0       0       0       0       001010500D    177
     126       1       0       2       0                               0D    178
     508     382       0       0       0       0       0       000010000D    179
     508       1       0       2       1                               0D    180
     126     384       0       0       0       0       0       001010500D    181
     126       1       0      29       0                               0D    182
     126     413       0       0       0       0       0       001010500D    183
     126       1       0      29       0                               0D    184
     508     442       0       0       0       0       0       000010000D    185
     508       1       0       1       1                               0D    186
     510     443       0       0       0       0       0       000010000D    187
     510       1    -107       1       1                               0D    188
     110     444       0       0       0       0       0       001010000D    189
     110       1       0       1       0                               0D    190
     110     445       0       0       0       0       0       001010001D    191
     110       1       0       2       0                               0D    192
     120     447       0       0       0       0       0       000010000D    193
     120       1       0       1       0                               0D    194
     126     448       0       0       0       0       0       001010500D    195
     126       1       0       1       0                               0D    196
     126     449       0       0       0       0       0       001010500D    197
     126       1       0       2       0                               0D    198
     126     451       0       0       0       0       0       001010500D    199
     126       1       0       2       0                               0D    200
     126     453       0       0       0       0       0       001010500D    201
     126       1       0       2       0                               0D    202
     508     455       0       0       0       0       0       000010000D    203
     508       1       0       2       1                               0D    204
     510     457       0       0       0       0       0       000010000D    205
     510       1    -107       1       1                               0D    206
     128     458       0       0       0       0       0       000010000D    207
     128       1       0       3       0                               0D    208
     126     461       0       0       0       0       0       001010500D    209
     126       1       0       2       0                               0D    210
     126     463       0       0       0       0       0       001010500D    211
     126       1       0       1       0                               0D    212
     126     464       0       0       0       0       0       001010500D    213
     126       1       0       2       0                               0D    214
     126     466       0       0       0       0       0       001010500D    215
     126       1       0      28       0                               0D    216
     508     494       0       0       0       0       0       000010000D    217
     508       1       0       2       1                               0D    218
     126     496       0       0       0       0       0       001010500D    219
     126       1       0      29       0                               0D    220
     126     525       0       0       0       0       0       001010500D    221
     126       1       0      29       0                               0D    222
     508     554       0       0       0       0       0       000010000D    223
     508       1       0       1       1                               0D    224
     510     555       0       0       0       0       0       000010000D    225
     510       1    -107       1       1                               0D    226
     110     556       0       0       0       0       0       001010000D    227
     110       1       0       1       0                               0D    228
     110     557       0       0       0       0       0       001010001D    229
     110       1       0       1       0                               0D    230
     120     558       0       0       0       0       0       000010000D    231
     120       1       0       1       0                               0D    232
     126     559       0       0       0       0       0       001010500D    233
     126       1       0       2       0                               0D    234
     126     561       0       0       0       0       0       001010500D    235
     126       1       0       2       0                               0D    236
     126     563       0       0       0       0       0       001010500D    237
     126       1       0       2       0                               0D    238
     126     565       0       0       0       0       0       001010500D    239
     126       1       0       1       0                               0D    240
     508     566       0       0       0       0       0       000010000D    241
     508       1       0       2       1                               0D    242
     510     568       0       0       0       0       0       000010000D    243
     510       1    -107       1       1                               0D    244
     110     569       0       0       0       0       0       001010000D    245
     110       1       0       1       0                               0D    246
     110     570       0       0       0       0       0       001010001D    247
     110       1       0       1       0                               0D    248
     120     571       0       0       0       0       0       000010000D    249
     120       1       0       1       0                               0D    250
     126     572       0       0       0       0       0       001010500D    251
     126       1       0       1       0                               0D    252
     126     573       0       0       0       0       0       001010500D    253
     126       1       0       2       0                               0D    254
     126     575       0       0       0       0       0       001010500D    255
     126       1       0       2       0                               0D    256
     126     577       0       0       0       0       0       001010500D    257
     126       1       0       2       0                               0D    258
     508     579       0       0       0       0       0       000010000D    259
     508       1       0       2       1                               0D    260
     510     581       0       0       0       0       0       000010000D    261
     510       1    -107       1       1                               0D    262
     110     582       0       0       0       0       0       001010000D    263
     110       1       0       1       0                               0D    264
     110     583       0       0       0       0       0       001010001D    265
     110       1       0       1       0                               0D    266
     120     584       0       0       0       0       0       000010000D    267
     120       1       0       1       0                               0D    268
     126     585       0       0       0       0       0       001010500D    269
     126       1       0       2       0                               0D    270
     126     587       0       0       0       0       0       001010500D    271
     126       1       0       1       0                               0D    272
     126     588       0       0       0       0       0       001010500D    273
     126       1       0       2       0                               0D    274
     126     590       0       0       0       0       0       001010500D    275
     126       1       0       2       0                               0D    276
     508     592       0       0       0       0       0       000010000D    277
     508       1       0       2       1                               0D    278
     510     594       0       0       0       0       0       000010000D    279
     510       1    -107       1       1                               0D    280
     110     595       0       0       0       0       0       001010000D    281
     110       1       0       1       0                               0D    282
     110     596       0       0       0       0       0       001010001D    283
     110       1       0       1       0                               0D    284
     120     597       0       0       0       0       0       000010000D    285
     120       1       0       1       0                               0D    286
     126     598       0       0       0       0       0       001010500D    287
     126       1       0       2       0                               0D    288
     126     600       0       0       0       0       0       001010500D    289
     126       1       0       2       0                               0D    290
     126     602       0       0       0       0       0       001010500D    291
     126       1       0       1       0                               0D    292
     126     603       0       0       0       0       0       001010500D    293
     126       1       0       2       0                               0D    294
     508     605       0       0       0       0       0       000010000D    295
     508       1       0       2       1                               0D    296
     510     607       0       0       0       0       0       000010000D    297
     510       1    -107       1       1                               0D    298
     514     608       0       0       0       0       0       000010000D    299
     514       1       0       2       1                               0D    300
     186     610       0       0       0       0       0       000010000D    301
     186       1       0       1       0                               0D    302
502,18,30,20,2.50000000000001,30,20,-2.49999999999999,30,              1P      1
-0.209800542250961,2.5,30,-29.790199457749,-2.5,30,                    1P      2
-0.20980054225096,-2.5,30,-10,1.22464679914735E-15,30,-20,             1P      3
5.82016719913287E-16,-30,20,-2.5,-30,20,2.5,-30,                       1P      4
-0.209800542250961,-2.5,-30,-29.790199457749,-2.50000000000001,        1P      5
-30,-0.209800542250961,2.5,-30,-10,1.22464679914735E-15,-30,-20,       1P      6
5.82016719913287E-16,5,25,2.5,-5,25,2.5,5,25,-2.5,-5,25,-2.5;          1P      7
110,30,20,2.50000000000001,30,20,-2.49999999999999;                    3P      8
110,30,-0.209800542250961,2.5,30,20,2.5;                               5P      9
124,0,0,1,30,0.986013297183269,-0.166666666666667,0,-15,               7P     10
0.166666666666667,0.986013297183269,0,1.77635683940025E-15;            7P     11
100,0,0,0,15,0,-15,1.83697019872103E-15;                               9P     12
124,0,0,1,30,-0.986013297183269,0.166666666666667,0,-15,              11P     13
-0.166666666666667,-0.986013297183269,0,1.77635683940025E-15;         11P     14
100,0,0,0,15,0,-14.1666666666667,4.93006648591635;                    13P     15
110,30,-0.20980054225096,-2.5,30,20,-2.5;                             15P     16
124,0,0,-1,30,1,-6.12323399573677E-17,0,-15,                          17P     17
-6.12323399573677E-17,-1,0,8.88178419700125E-16;                      17P     18
100,0,0,0,5,0,-5,6.12323399573677E-16;                                19P     19
124,0,0,-1,30,-1,-6.12323399573677E-17,0,-15,                         21P     20
-6.12323399573677E-17,1,0,8.88178419700125E-16;                       21P     21
100,0,0,0,5,0,-5,6.12323399573677E-16;                                23P     22
110,-30,20,-2.5,-30,20,2.5;                                           25P     23
110,-30,-0.209800542250963,-2.5,-30,20,-2.5;                          27P     24
124,0,0,1,-30,-0.986013297183269,0.166666666666668,0,-15,             29P     25
-0.166666666666668,-0.986013297183269,0,1.77635683940025E-15;         29P     26
100,0,0,0,15,0,-14.1666666666667,4.93006648591636;                    31P     27
124,0,0,1,-30,0.986013297183269,-0.166666666666667,0,-15,             33P     28
0.166666666666667,0.986013297183269,0,1.77635683940025E-15;           33P     29
100,0,0,0,15,0,-15,-1.14857060967808E-14;                             35P     30
110,-30,-0.209800542250961,2.5,-30,20,2.5;                            37P     31
124,0,0,-1,-30,-1,-6.12323399573677E-17,0,-15,                        39P     32
-6.12323399573677E-17,1,0,8.88178419700125E-16;                       39P     33
100,0,0,0,5,0,-5,6.12323399573677E-16;                                41P     34
124,0,0,-1,-30,1,-6.12323399573677E-17,0,-15,                         43P     35
-6.12323399573677E-17,-1,0,8.88178419700125E-16;                      43P     36
100,0,0,0,5,0,-5,6.12323399573677E-16;                                45P     37
110,30,-20,6.12323399573677E-16,-30,-20,6.12323399573677E-16;         47P     38
110,30,-10,6.12323399573677E-16,-30,-10,6.12323399573677E-16;         49P     39
124,-1,-3.68135089103139E-33,5.9211894646675E-17,                     51P     40
-3.5527136788005E-15,-4.08712052094738E-49,1,                         51P     41
6.21724893790088E-17,20,-5.9211894646675E-17,                         51P     42
6.21724893790088E-17,-1,-2.5;                                         51P     43
100,0,0,0,30,0,-30,3.67394039744206E-15;                              53P     44
124,1,-3.68135089103139E-33,-5.9211894646675E-17,0,0,1,               55P     45
-6.21724893790088E-17,20,5.9211894646675E-17,                         55P     46
6.21724893790088E-17,1,2.5;                                           55P     47
100,0,0,0,30,0,-30,3.67394039744206E-15;                              57P     48
110,-30,-0.20980054225096,2.5,30,-0.20980054225096,2.5;               59P     49
124,-1,5.52202633654708E-33,-5.9211894646675E-17,0,                   61P     50
-1.84067544551569E-33,-1,-6.21724893790088E-17,25,                    61P     51
-5.9211894646675E-17,-6.21724893790088E-17,1,2.5;                     61P     52
100,0,0,0,5,0,-5,6.12323399573677E-16;                                63P     53
124,1,-5.52202633654708E-33,-5.9211894646675E-17,0,                   65P     54
1.84067544551569E-33,1,-6.21724893790088E-17,25,                      65P     55
5.9211894646675E-17,6.21724893790088E-17,1,2.5;                       65P     56
100,0,0,0,5,0,-5,6.12323399573677E-16;                                67P     57
110,-30,-29.790199457749,-2.5,30,-29.790199457749,-2.5;               69P     58
110,-30,-0.20980054225096,-2.5,30,-0.20980054225096,-2.5;             71P     59
124,1,-5.52202633654708E-33,-5.9211894646675E-17,0,                   73P     60
1.84067544551569E-33,1,-6.21724893790088E-17,25,                      73P     61
5.9211894646675E-17,6.21724893790088E-17,1,-2.5;                      73P     62
100,0,0,0,5,0,-5,6.12323399573677E-16;                                75P     63
124,-1,5.52202633654708E-33,-5.9211894646675E-17,0,                   77P     64
-1.84067544551569E-33,-1,-6.21724893790088E-17,25,                    77P     65
-5.9211894646675E-17,-6.21724893790088E-17,1,-2.5;                    77P     66
100,0,0,0,5,0,-5,6.12323399573677E-16;                                79P     67
110,-5,25,-2.5,-5,25,2.5;                                             81P     68
110,5,25,-2.5,5,25,2.5;                                               83P     69
504,27,3,1,1,1,2,5,1,3,1,1,9,1,3,1,4,13,1,4,1,5,15,1,5,1,2,19,1,      85P     70
6,1,7,23,1,7,1,6,25,1,8,1,9,27,1,10,1,8,31,1,11,1,10,35,1,12,1,       85P     71
11,37,1,12,1,9,41,1,14,1,13,45,1,13,1,14,47,1,7,1,14,49,1,6,1,        85P     72
13,53,1,8,1,2,57,1,1,1,9,59,1,12,1,3,63,1,16,1,15,67,1,15,1,16,       85P     73
69,1,11,1,4,71,1,10,1,5,75,1,17,1,18,79,1,18,1,17,81,1,18,1,16,       85P     74
83,1,17,1,15;                                                         85P     75
128,1,1,1,1,0,0,1,0,0,0,0,1,1,0,0,1,1,1,1,1,1,30,-30,15,30,-30,       87P     76
-15,30,20,15,30,20,-15,0,1,0,1;                                       87P     77
126,1,1,1,0,1,0,0,0,1,1,1,1,0.416666666666666,1,0,                    89P     78
0.583333333333333,1,0,0,1,0,0,1;                                      89P     79
126,1,1,1,0,1,0,0,0,1,1,1,1,0.416666666666667,0.595803989154981,      91P     80
0,0.416666666666667,1,0,0,1,0,0,1;                                    91P     81
126,28,3,1,0,1,0,0,0,0,0,0.0384615384615385,0.0769230769230769,       93P     82
0.115384615384615,0.153846153846154,0.192307692307692,                93P     83
0.230769230769231,0.269230769230769,0.307692307692308,                93P     84
0.346153846153846,0.384615384615385,0.423076923076923,                93P     85
0.461538461538461,0.5,0.538461538461538,0.576923076923077,            93P     86
0.615384615384615,0.653846153846154,0.692307692307692,                93P     87
0.73076923076923,0.769230769230769,0.807692307692307,                 93P     88
0.846153846153846,0.884615384615384,0.923076923076923,                93P     89
0.961538461538461,1,1,1,1,1,1,1,1,1,1,1,1,1,1,1,1,1,1,1,1,1,1,1,      93P     90
1,1,1,1,1,1,1,1,1,1,0.416666666666667,0.595803989154981,0,            93P     91
0.396809922238636,0.593790147710372,0,0.357502564384546,              93P     92
0.588321140700038,0,0.300619395656881,0.575913252074236,0,            93P     93
0.246643662639569,0.559481928708829,0,0.196362430831803,              93P     94
0.539266774043971,0,0.150508919773583,0.515562571159365,0,            93P     95
0.109751775313141,0.488714980548411,0,0.0746853288214827,             93P     96
0.459115500581099,0,0.0458209279366226,0.427195758315956,0,           93P     97
0.0235794806511375,0.39342121547532,0,0.00828531734159943,            93P     98
0.358284380946621,0,0.000161461350723591,0.322297628898772,0,         93P     99
-0.000673623208404861,0.285985727211678,0,0.00579224107769455,        93P    100
0.249878185179237,0,0.0194647673478185,0.214501532071377,0,           93P    101
0.0401445793811535,0.180371639151703,0,0.0675301189512127,            93P    102
0.147986197112793,0,0.10122204322479,0.1178174586253,0,               93P    103
0.140729048076166,0.0903053518302277,0,0.185475032420808,             93P    104
0.0658510651973548,0,0.234807499017085,0.0448111972889306,0,          93P    105
0.288007069529576,0.0274925567683394,0,0.344297973997536,             93P    106
0.0141476883691782,0,0.402859365873851,0.00497119048460992,0,         93P    107
0.462837282239429,9.68765133374516E-5,0,0.523357132246117,            93P    108
-0.000404172816306891,0,0.563476588905302,0.00218216940041027,0,      93P    109
0.583333333333333,0.00419601084501919,0,0,1,0,0,1;                    93P    110
126,26,3,1,0,1,0,0,0,0,0,0.0416666666666667,0.0833333333333333,       95P    111
0.125,0.166666666666667,0.208333333333333,0.25,                       95P    112
0.291666666666667,0.333333333333333,0.375,0.416666666666667,          95P    113
0.458333333333333,0.5,0.541666666666667,0.583333333333333,0.625,      95P    114
0.666666666666667,0.708333333333333,0.75,0.791666666666667,           95P    115
0.833333333333334,0.875,0.916666666666667,0.958333333333334,1,1,      95P    116
1,1,1,1,1,1,1,1,1,1,1,1,1,1,1,1,1,1,1,1,1,1,1,1,1,1,1,1,1,            95P    117
0.583333333333333,0.00419601084501919,0,0.602551667120667,            95P    118
0.00614510563331805,0,0.640607935192396,0.0113933265086223,0,         95P    119
0.695771588065552,0.0232082367204074,0,0.748260846348602,             95P    120
0.0388043185738508,0,0.797358688169823,0.0579685203680386,0,          95P    121
0.842394396888626,0.0804390449076401,0,0.882752753918104,             95P    122
0.105908928918037,0,0.917882434916877,0.134030235557987,0,            95P    123
0.94730354345265,0.164418807706377,0,0.970614166146234,               95P    124
0.196659515763606,0,0.987495863251795,0.230311928634249,0,            95P    125
0.997718018729261,0.264916330326087,0,1.00114099063537,0.3,0,         95P    126
0.997718018729261,0.335083669673913,0,0.987495863251795,              95P    127
0.369688071365752,0,0.970614166146234,0.403340484236394,0,            95P    128
0.94730354345265,0.435581192293624,0,0.917882434916877,               95P    129
0.465969764442013,0,0.882752753918104,0.494091071081963,0,            95P    130
0.842394396888626,0.51956095509236,0,0.797358688169823,               95P    131
0.542031479631961,0,0.748260846348602,0.561195681426149,0,            95P    132
0.695771588065551,0.576791763279593,0,0.640607935192396,              95P    133
0.588606673491378,0,0.602551667120666,0.593854894366682,0,            95P    134
0.583333333333333,0.595803989154981,0,0,1,0,0,1;                      95P    135
126,1,1,1,0,1,0,0,0,1,1,1,1,0.583333333333333,0.595803989154981,      97P    136
0,0.583333333333333,1,0,0,1,0,0,1;                                    97P    137
508,5,0,85,1,0,1,0,89,0,85,2,0,1,0,91,0,85,3,1,1,0,93,0,85,4,1,       99P    138
1,0,95,0,85,5,1,1,0,97;                                               99P    139
126,28,3,1,0,1,0,0,0,0,0,0.0384615384615385,0.0769230769230769,      101P    140
0.115384615384615,0.153846153846154,0.192307692307692,               101P    141
0.230769230769231,0.269230769230769,0.307692307692308,               101P    142
0.346153846153846,0.384615384615385,0.423076923076923,               101P    143
0.461538461538461,0.5,0.538461538461538,0.576923076923077,           101P    144
0.615384615384615,0.653846153846154,0.692307692307692,               101P    145
0.73076923076923,0.769230769230769,0.807692307692307,                101P    146
0.846153846153846,0.884615384615384,0.923076923076923,               101P    147
0.961538461538461,1,1,1,1,1,1,1,1,1,1,1,1,1,1,1,1,1,1,1,1,1,1,1,     101P    148
1,1,1,1,1,1,1,1,1,1,0.5,0.4,0,0.506712804815363,0.4,0,               101P    149
0.520138386860448,0.399512740716944,0,0.53998311902071,              101P    150
0.397330731949529,0,0.559244801344268,0.39372942194057,0,            101P    151
0.577642562644752,0.38876132589944,0,0.594908120120493,              101P    152
0.382498889853597,0,0.610789703604431,0.375033434222367,0,           101P    153
0.625055723702577,0.366473822159596,0,0.637498149756361,             101P    154
0.356944872083726,0,0.647935543165635,0.346585537544192,0,           101P    155
0.65621570323431,0.335546880965768,0,0.662217886582542,              101P    156
0.323989870818258,0,0.665854567861575,0.312083034333734,0,           101P    157
0.667072716069212,0.3,0,0.665854567861575,0.287916965666266,0,       101P    158
0.662217886582542,0.276010129181742,0,0.65621570323431,              101P    159
0.264453119034232,0,0.647935543165635,0.253414462455808,0,           101P    160
0.637498149756361,0.243055127916274,0,0.625055723702577,             101P    161
0.233526177840404,0,0.610789703604431,0.224966565777633,0,           101P    162
0.594908120120493,0.217501110146403,0,0.577642562644752,             101P    163
0.21123867410056,0,0.559244801344269,0.20627057805943,0,             101P    164
0.539983119020711,0.20266926805047,0,0.520138386860448,              101P    165
0.200487259283056,0,0.506712804815363,0.2,0,0.5,0.2,0,0,1,0,0,1;     101P    166
126,28,3,1,0,1,0,0,0,0,0,0.0384615384615385,0.0769230769230769,      103P    167
0.115384615384615,0.153846153846154,0.192307692307692,               103P    168
0.230769230769231,0.269230769230769,0.307692307692308,               103P    169
0.346153846153846,0.384615384615385,0.423076923076923,               103P    170
0.461538461538461,0.5,0.538461538461538,0.576923076923077,           103P    171
0.615384615384615,0.653846153846154,0.692307692307692,               103P    172
0.73076923076923,0.769230769230769,0.807692307692307,                103P    173
0.846153846153846,0.884615384615384,0.923076923076923,               103P    174
0.961538461538461,1,1,1,1,1,1,1,1,1,1,1,1,1,1,1,1,1,1,1,1,1,1,1,     103P    175
1,1,1,1,1,1,1,1,1,1,0.5,0.2,0,0.493287195184637,0.2,0,               103P    176
0.479861613139552,0.200487259283056,0,0.46001688097929,              103P    177
0.202669268050471,0,0.440755198655732,0.20627057805943,0,            103P    178
0.422357437355248,0.21123867410056,0,0.405091879879507,              103P    179
0.217501110146403,0,0.389210296395569,0.224966565777633,0,           103P    180
0.374944276297423,0.233526177840404,0,0.362501850243639,             103P    181
0.243055127916274,0,0.352064456834365,0.253414462455808,0,           103P    182
0.343784296765691,0.264453119034232,0,0.337782113417458,             103P    183
0.276010129181742,0,0.334145432138425,0.287916965666266,0,           103P    184
0.332927283930787,0.3,0,0.334145432138425,0.312083034333734,0,       103P    185
0.337782113417458,0.323989870818258,0,0.34378429676569,              103P    186
0.335546880965768,0,0.352064456834365,0.346585537544192,0,           103P    187
0.362501850243639,0.356944872083726,0,0.374944276297423,             103P    188
0.366473822159596,0,0.389210296395569,0.375033434222367,0,           103P    189
0.405091879879507,0.382498889853597,0,0.422357437355248,             103P    190
0.38876132589944,0,0.440755198655731,0.39372942194057,0,             103P    191
0.460016880979289,0.397330731949529,0,0.479861613139552,             103P    192
0.399512740716944,0,0.493287195184637,0.4,0,0.5,0.4,0,0,1,0,0,1;     103P    193
508,2,0,85,6,1,1,0,101,0,85,7,1,1,0,103;                             105P    194
314,56.4705882352941,56.4705882352941,56.4705882352941,1H ;          107P    195
510,87,2,1,99,105;                                                   109P    196
128,1,1,1,1,0,0,1,0,0,0,0,1,1,0,0,1,1,1,1,1,1,-30,-30,-15,-30,       111P    197
-30,15,-30,20,-15,-30,20,15,0,1,0,1;                                 111P    198
126,1,1,1,0,1,0,0,0,1,1,1,1,0.416666666666667,1,0,                   113P    199
0.583333333333333,1,0,0,1,0,0,1;                                     113P    200
126,1,1,1,0,1,0,0,0,1,1,1,1,0.416666666666667,0.595803989154981,     115P    201
0,0.416666666666667,1,0,0,1,0,0,1;                                   115P    202
126,26,3,1,0,1,0,0,0,0,0,0.0416666666666667,0.0833333333333333,      117P    203
0.125,0.166666666666667,0.208333333333333,0.25,                      117P    204
0.291666666666667,0.333333333333333,0.375,0.416666666666667,         117P    205
0.458333333333333,0.5,0.541666666666667,0.583333333333333,0.625,     117P    206
0.666666666666667,0.708333333333334,0.75,0.791666666666667,          117P    207
0.833333333333334,0.875,0.916666666666667,0.958333333333334,1,1,     117P    208
1,1,1,1,1,1,1,1,1,1,1,1,1,1,1,1,1,1,1,1,1,1,1,1,1,1,1,1,1,           117P    209
0.416666666666666,0.00419601084501919,0,0.397448332879333,           117P    210
0.00614510563331816,0,0.359392064807603,0.0113933265086221,0,        117P    211
0.304228411934448,0.0232082367204076,0,0.251739153651398,            117P    212
0.0388043185738507,0,0.202641311830177,0.0579685203680389,0,         117P    213
0.157605603111374,0.0804390449076404,0,0.117247246081896,            117P    214
0.105908928918037,0,0.0821175650831222,0.134030235557987,0,          117P    215
0.0526964565473498,0.164418807706376,0,0.0293858338537661,           117P    216
0.196659515763607,0,0.0125041367482051,0.230311928634249,0,          117P    217
0.00228198127073853,0.264916330326087,0,-0.00114099063536904,        117P    218
0.3,0,0.00228198127073864,0.335083669673914,0,                       117P    219
0.0125041367482052,0.369688071365751,0,0.0293858338537663,           117P    220
0.403340484236395,0,0.0526964565473498,0.435581192293624,0,          117P    221
0.0821175650831229,0.465969764442013,0,0.117247246081896,            117P    222
0.494091071081963,0,0.157605603111374,0.51956095509236,0,            117P    223
0.202641311830178,0.542031479631962,0,0.251739153651398,             117P    224
0.561195681426149,0,0.304228411934449,0.576791763279593,0,           117P    225
0.359392064807603,0.588606673491378,0,0.397448332879334,             117P    226
0.593854894366682,0,0.416666666666667,0.595803989154981,0,0,1,0,     117P    227
0,1;                                                                 117P    228
126,29,3,1,0,1,0,0,0,0,0,0.037037037037037,0.0740740740740741,       119P    229
0.111111111111111,0.148148148148148,0.185185185185185,               119P    230
0.222222222222222,0.259259259259259,0.296296296296296,               119P    231
0.333333333333333,0.37037037037037,0.407407407407407,                119P    232
0.444444444444444,0.481481481481481,0.518518518518519,               119P    233
0.555555555555555,0.592592592592593,0.62962962962963,                119P    234
0.666666666666667,0.703703703703704,0.740740740740741,               119P    235
0.777777777777778,0.814814814814815,0.851851851851852,               119P    236
0.888888888888889,0.925925925925926,0.962962962962963,1,1,1,1,1,     119P    237
1,1,1,1,1,1,1,1,1,1,1,1,1,1,1,1,1,1,1,1,1,1,1,1,1,1,1,1,1,           119P    238
0.583333333333333,0.595803989154981,0,0.602454642782548,             119P    239
0.593864734430543,0,0.640320698754679,0.588649805853109,0,           119P    240
0.695222240164469,0.576923914041589,0,0.747483721157988,             119P    241
0.561453102823628,0,0.796398413267443,0.542446586514019,0,           119P    242
0.841304824261764,0.520161396140738,0,0.88159567329018,              119P    243
0.494898900539653,0,0.916726095383734,0.467000731662284,0,           119P    244
0.946221011944179,0.436844164374212,0,0.96968155479766,              119P    245
0.404837014517482,0,0.986790460355081,0.371412123885468,0,           119P    246
0.997316360017005,0.337021506784288,0,1.001116909048,                119P    247
0.30213023731364,0,0.998140711542084,0.267210160037714,0,            119P    248
0.988428015464926,0.232733509096837,0,0.972110168369001,             119P    249
0.199166522050842,0,0.949407841143244,0.166963134815906,0,           119P    250
0.920628043818038,0.136558842959976,0,0.886159973780438,             119P    251
0.108364812372381,0,0.846469752550109,0.0827623189502261,0,          119P    252
0.802094122274445,0.0600975924970734,0,0.753633187252671,            119P    253
0.0406771345546496,0,0.70174229840211,0.024763573510768,0,           119P    254
0.647123191330631,0.012572112943171,0,0.590514494441476,             119P    255
0.00426762157582727,0,0.532681748181419,-3.75970920037938E-5,0,      119P    256
0.474407022823567,-0.000285320496368313,0,0.435787976115881,         119P    257
0.00225675612058107,0,0.416666666666666,0.00419601084501919,0,0,     119P    258
1,0,0,1;                                                             119P    259
126,1,1,1,0,1,0,0,0,1,1,1,1,0.583333333333333,0.595803989154981,     121P    260
0,0.583333333333333,1,0,0,1,0,0,1;                                   121P    261
508,5,0,85,8,0,1,0,113,0,85,9,0,1,0,115,0,85,10,0,1,0,117,0,85,      123P    262
11,0,1,0,119,0,85,12,1,1,0,121;                                      123P    263
126,28,3,1,0,1,0,0,0,0,0,0.0384615384615385,0.0769230769230769,      125P    264
0.115384615384615,0.153846153846154,0.192307692307692,               125P    265
0.230769230769231,0.269230769230769,0.307692307692308,               125P    266
0.346153846153846,0.384615384615385,0.423076923076923,               125P    267
0.461538461538461,0.5,0.538461538461538,0.576923076923077,           125P    268
0.615384615384615,0.653846153846154,0.692307692307692,               125P    269
0.73076923076923,0.769230769230769,0.807692307692307,                125P    270
0.846153846153846,0.884615384615384,0.923076923076923,               125P    271
0.961538461538461,1,1,1,1,1,1,1,1,1,1,1,1,1,1,1,1,1,1,1,1,1,1,1,     125P    272
1,1,1,1,1,1,1,1,1,1,0.5,0.2,0,0.506712804815363,0.2,0,               125P    273
0.520138386860448,0.200487259283056,0,0.53998311902071,              125P    274
0.202669268050471,0,0.559244801344268,0.20627057805943,0,            125P    275
0.577642562644752,0.21123867410056,0,0.594908120120493,              125P    276
0.217501110146403,0,0.610789703604431,0.224966565777633,0,           125P    277
0.625055723702577,0.233526177840404,0,0.637498149756361,             125P    278
0.243055127916274,0,0.647935543165635,0.253414462455808,0,           125P    279
0.656215703234309,0.264453119034232,0,0.662217886582542,             125P    280
0.276010129181742,0,0.665854567861575,0.287916965666266,0,           125P    281
0.667072716069212,0.3,0,0.665854567861575,0.312083034333734,0,       125P    282
0.662217886582542,0.323989870818258,0,0.656215703234309,             125P    283
0.335546880965768,0,0.647935543165635,0.346585537544192,0,           125P    284
0.637498149756361,0.356944872083726,0,0.625055723702577,             125P    285
0.366473822159596,0,0.610789703604431,0.375033434222367,0,           125P    286
0.594908120120493,0.382498889853597,0,0.577642562644752,             125P    287
0.38876132589944,0,0.559244801344269,0.39372942194057,0,             125P    288
0.539983119020711,0.397330731949529,0,0.520138386860448,             125P    289
0.399512740716944,0,0.506712804815363,0.4,0,0.5,0.4,0,0,1,0,0,1;     125P    290
126,28,3,1,0,1,0,0,0,0,0,0.0384615384615385,0.0769230769230769,      127P    291
0.115384615384615,0.153846153846154,0.192307692307692,               127P    292
0.230769230769231,0.269230769230769,0.307692307692308,               127P    293
0.346153846153846,0.384615384615385,0.423076923076923,               127P    294
0.461538461538461,0.5,0.538461538461538,0.576923076923077,           127P    295
0.615384615384615,0.653846153846154,0.692307692307692,               127P    296
0.73076923076923,0.769230769230769,0.807692307692307,                127P    297
0.846153846153846,0.884615384615384,0.923076923076923,               127P    298
0.961538461538461,1,1,1,1,1,1,1,1,1,1,1,1,1,1,1,1,1,1,1,1,1,1,1,     127P    299
1,1,1,1,1,1,1,1,1,1,0.5,0.4,0,0.493287195184637,0.4,0,               127P    300
0.479861613139552,0.399512740716944,0,0.46001688097929,              127P    301
0.397330731949529,0,0.440755198655732,0.39372942194057,0,            127P    302
0.422357437355248,0.38876132589944,0,0.405091879879507,              127P    303
0.382498889853597,0,0.389210296395569,0.375033434222367,0,           127P    304
0.374944276297423,0.366473822159596,0,0.362501850243639,             127P    305
0.356944872083726,0,0.352064456834365,0.346585537544192,0,           127P    306
0.343784296765691,0.335546880965768,0,0.337782113417458,             127P    307
0.323989870818258,0,0.334145432138425,0.312083034333734,0,           127P    308
0.332927283930787,0.3,0,0.334145432138425,0.287916965666266,0,       127P    309
0.337782113417458,0.276010129181742,0,0.34378429676569,              127P    310
0.264453119034232,0,0.352064456834365,0.253414462455808,0,           127P    311
0.362501850243639,0.243055127916274,0,0.374944276297423,             127P    312
0.233526177840404,0,0.389210296395569,0.224966565777633,0,           127P    313
0.405091879879507,0.217501110146403,0,0.422357437355248,             127P    314
0.21123867410056,0,0.440755198655731,0.20627057805943,0,             127P    315
0.460016880979289,0.20266926805047,0,0.479861613139552,              127P    316
0.200487259283056,0,0.493287195184637,0.2,0,0.5,0.2,0,0,1,0,0,1;     127P    317
508,2,0,85,13,0,1,0,125,0,85,14,0,1,0,127;                           129P    318
510,111,2,1,123,129;                                                 131P    319
110,30,-15,9.18485099360515E-16,29,-15,9.18485099360515E-16;         133P    320
110,30,-20,6.12323399573677E-16,-30,-20,6.12323399573677E-16;        135P    321
120,133,135,0,6.28318530717959;                                      137P    322
126,1,1,1,0,1,0,0,0,1,1,1,1,0,0,0,0,3.14159265358979,0,0,1,0,0,      139P    323
1;                                                                   139P    324
126,1,1,1,0,1,0,0,0,1,1,1,1,0,0,0,1,0,0,0,1,0,0,1;                   141P    325
126,1,1,1,0,1,0,0,0,1,1,1,1,1,0,0,1,3.14159265358979,0,0,1,0,0,      143P    326
1;                                                                   143P    327
126,1,1,1,0,1,0,0,0,1,1,1,1,0,3.14159265358979,0,1,                  145P    328
3.14159265358979,0,0,1,0,0,1;                                        145P    329
508,4,0,85,7,0,1,0,139,0,85,15,1,1,0,141,0,85,13,1,1,0,143,0,85,     147P    330
16,0,1,0,145;                                                        147P    331
510,137,1,1,147;                                                     149P    332
110,0,20,37.5,0,20,36.5;                                             151P    333
110,-30,20,2.50000000000001,-30,20,-2.49999999999999;                153P    334
120,151,153,0,6.28318530717959;                                      155P    335
126,1,1,1,0,1,0,0,0,1,1,1,1,0,3.14159265358979,0,1,                  157P    336
3.14159265358979,0,0,1,0,0,1;                                        157P    337
126,1,1,1,0,1,0,0,0,1,1,1,1,1,0,0,1,3.14159265358979,0,0,1,0,0,      159P    338
1;                                                                   159P    339
126,1,1,1,0,1,0,0,0,1,1,1,1,1,0,0,0,0,0,0,1,0,0,1;                   161P    340
126,1,1,1,0,1,0,0,0,1,1,1,1,0,3.14159265358979,0,0,0,0,0,1,0,0,      163P    341
1;                                                                   163P    342
508,4,0,85,1,1,1,0,157,0,85,17,0,1,0,159,0,85,8,1,1,0,161,0,85,      165P    343
18,0,1,0,163;                                                        165P    344
510,155,1,1,165;                                                     167P    345
128,1,1,1,1,0,0,1,0,0,0,0,1,1,0,0,1,1,1,1,1,1,-30,                   169P    346
-0.209800542250961,2.5,30,-0.209800542250961,2.5,-30,50,2.5,30,      169P    347
50,2.5,0,1,0,1;                                                      169P    348
126,28,3,1,0,1,0,0,0,0,0,0.0384615384615385,0.0769230769230769,      171P    349
0.115384615384615,0.153846153846154,0.192307692307692,               171P    350
0.230769230769231,0.269230769230769,0.307692307692308,               171P    351
0.346153846153846,0.384615384615385,0.423076923076923,               171P    352
0.461538461538461,0.5,0.538461538461538,0.576923076923077,           171P    353
0.615384615384615,0.653846153846154,0.692307692307692,               171P    354
0.73076923076923,0.769230769230769,0.807692307692307,                171P    355
0.846153846153846,0.884615384615384,0.923076923076923,               171P    356
0.961538461538461,1,1,1,1,1,1,1,1,1,1,1,1,1,1,1,1,1,1,1,1,1,1,1,     171P    357
1,1,1,1,1,1,1,1,1,1,1,0.402507086743845,0,1,0.426572206575351,0,     171P    358
0.997563703584719,0.474702347345017,0,0.986653659747647,             171P    359
0.545844868332356,0,0.96864710970285,0.61489718044666,0,             171P    360
0.943806629497199,0.680852372427562,0,0.912494449267984,             171P    361
0.742748661838597,0,0.875167171111835,0.79968346333623,0,            171P    362
0.832369110797979,0.850826538790303,0,0.784724360418632,             171P    363
0.8954321071354,0,0.732927687720958,0.932849718704846,0,             171P    364
0.677734404828839,0.962533740474804,0,0.619949354091291,             171P    365
0.984051312562602,0,0.56041517166867,0.997088660314563,0,0.5,        171P    366
1.00145566984272,0,0.439584828331331,0.997088660314563,0,            171P    367
0.380050645908709,0.984051312562602,0,0.322265595171161,             171P    368
0.962533740474804,0,0.267072312279042,0.932849718704846,0,           171P    369
0.215275639581368,0.895432107135401,0,0.167630889202021,             171P    370
0.850826538790304,0,0.124832828888165,0.799683463336231,0,           171P    371
0.0875055507320167,0.742748661838597,0,0.0561933705028012,           171P    372
0.680852372427563,0,0.0313528902971507,0.61489718044666,0,           171P    373
0.0133463402523532,0.545844868332356,0,0.00243629641528147,          171P    374
0.474702347345018,0,0,0.426572206575352,0,0,0.402507086743845,0,     171P    375
0,1,0,0,1;                                                           171P    376
126,1,1,1,0,1,0,0,0,1,1,1,1,0,0,0,0,0.402507086743845,0,0,1,0,0,     173P    377
1;                                                                   173P    378
126,1,1,1,0,1,0,0,0,1,1,1,1,0,0,0,1,0,0,0,1,0,0,1;                   175P    379
126,1,1,1,0,1,0,0,0,1,1,1,1,1,0,0,1,0.402507086743845,0,0,1,0,0,     177P    380
1;                                                                   177P    381
508,4,0,85,18,1,1,0,171,0,85,12,0,1,0,173,0,85,19,1,1,0,175,0,       179P    382
85,2,1,1,0,177;                                                      179P    383
126,28,3,1,0,1,0,0,0,0,0,0.0384615384615385,0.0769230769230769,      181P    384
0.115384615384615,0.153846153846154,0.192307692307692,               181P    385
0.230769230769231,0.269230769230769,0.307692307692308,               181P    386
0.346153846153846,0.384615384615385,0.423076923076923,               181P    387
0.461538461538461,0.5,0.538461538461538,0.576923076923077,           181P    388
0.615384615384615,0.653846153846154,0.692307692307692,               181P    389
0.73076923076923,0.769230769230769,0.807692307692307,                181P    390
0.846153846153846,0.884615384615384,0.923076923076923,               181P    391
0.961538461538461,1,1,1,1,1,1,1,1,1,1,1,1,1,1,1,1,1,1,1,1,1,1,1,     181P    392
1,1,1,1,1,1,1,1,1,1,0.416666666666667,0.502089238953204,0,           181P    393
0.416666666666667,0.498078385647953,0,0.417072716069214,             181P    394
0.490056695519676,0,0.418891056708726,0.478199608688452,0,           181P    395
0.421892148382858,0.466690890002735,0,0.426032228417133,             181P    396
0.455698358005918,0,0.431250925122003,0.445382309770746,0,           181P    397
0.437472138148027,0.435893176187807,0,0.444605148200337,             181P    398
0.427369330278794,0,0.452545939930228,0.419935068887945,0,           181P    399
0.461178718713174,0.413698800293037,0,0.470377599195193,             181P    400
0.408751463331378,0,0.480008440984785,0.405165201316745,0,           181P    401
0.489930804721888,0.402992310024751,0,0.5,0.402264475103392,0,       181P    402
0.510069195278111,0.402992310024751,0,0.519991559015215,             181P    403
0.405165201316745,0,0.529622400804806,0.408751463331378,0,           181P    404
0.538821281286826,0.413698800293037,0,0.547454060069772,             181P    405
0.419935068887945,0,0.555394851799663,0.427369330278794,0,           181P    406
0.562527861851972,0.435893176187807,0,0.568749074877997,             181P    407
0.445382309770746,0,0.573967771582867,0.455698358005918,0,           181P    408
0.578107851617141,0.466690890002735,0,0.581108943291275,             181P    409
0.478199608688452,0,0.582927283930786,0.490056695519676,0,           181P    410
0.583333333333333,0.498078385647953,0,0.583333333333333,             181P    411
0.502089238953204,0,0,1,0,0,1;                                       181P    412
126,28,3,1,0,1,0,0,0,0,0,0.0384615384615385,0.0769230769230769,      183P    413
0.115384615384615,0.153846153846154,0.192307692307692,               183P    414
0.230769230769231,0.269230769230769,0.307692307692308,               183P    415
0.346153846153846,0.384615384615385,0.423076923076923,               183P    416
0.461538461538461,0.5,0.538461538461538,0.576923076923077,           183P    417
0.615384615384615,0.653846153846154,0.692307692307692,               183P    418
0.73076923076923,0.769230769230769,0.807692307692307,                183P    419
0.846153846153846,0.884615384615384,0.923076923076923,               183P    420
0.961538461538461,1,1,1,1,1,1,1,1,1,1,1,1,1,1,1,1,1,1,1,1,1,1,1,     183P    421
1,1,1,1,1,1,1,1,1,1,0.583333333333333,0.502089238953204,0,           183P    422
0.583333333333333,0.506100092258455,0,0.582927283930786,             183P    423
0.514121782386733,0,0.581108943291274,0.525978869217956,0,           183P    424
0.578107851617142,0.537487587903673,0,0.573967771582867,             183P    425
0.54848011990049,0,0.568749074877997,0.558796168135663,0,            183P    426
0.562527861851972,0.568285301718601,0,0.555394851799663,             183P    427
0.576809147627614,0,0.547454060069772,0.584243409018463,0,           183P    428
0.538821281286826,0.590479677613371,0,0.529622400804807,             183P    429
0.595427014575031,0,0.519991559015215,0.599013276589664,0,           183P    430
0.510069195278112,0.601186167881657,0,0.5,0.601914002803016,0,       183P    431
0.489930804721889,0.601186167881657,0,0.480008440984785,             183P    432
0.599013276589664,0,0.470377599195193,0.595427014575031,0,           183P    433
0.461178718713174,0.590479677613371,0,0.452545939930228,             183P    434
0.584243409018464,0,0.444605148200337,0.576809147627614,0,           183P    435
0.437472138148028,0.568285301718602,0,0.431250925122003,             183P    436
0.558796168135663,0,0.426032228417133,0.548480119900491,0,           183P    437
0.421892148382859,0.537487587903674,0,0.418891056708726,             183P    438
0.525978869217956,0,0.417072716069214,0.514121782386733,0,           183P    439
0.416666666666667,0.506100092258455,0,0.416666666666667,             183P    440
0.502089238953204,0,0,1,0,0,1;                                       183P    441
508,2,0,85,20,0,1,0,181,0,85,21,0,1,0,183;                           185P    442
510,169,2,1,179,185;                                                 187P    443
110,-30,-15,1.83697019872103E-15,-29,-15,1.83697019872103E-15;       189P    444
110,-30,-0.209800542250962,2.50000000000001,30,                      191P    445
-0.209800542250962,2.50000000000001;                                 191P    446
120,189,191,0,6.28318530717959;                                      193P    447
126,1,1,1,0,1,0,0,0,1,1,1,1,0,0,0,1,0,0,0,1,0,0,1;                   195P    448
126,1,1,1,0,1,0,0,0,1,1,1,1,0,0,0,0,3.14159265358979,0,0,1,0,0,      197P    449
1;                                                                   197P    450
126,1,1,1,0,1,0,0,0,1,1,1,1,0,3.14159265358979,0,1,                  199P    451
3.14159265358979,0,0,1,0,0,1;                                        199P    452
126,1,1,1,0,1,0,0,0,1,1,1,1,1,0,0,1,3.14159265358979,0,0,1,0,0,      201P    453
1;                                                                   201P    454
508,4,0,85,19,0,1,0,195,0,85,11,1,1,0,197,0,85,22,1,1,0,199,0,       203P    455
85,3,0,1,0,201;                                                      203P    456
510,193,1,1,203;                                                     205P    457
128,1,1,1,1,0,0,1,0,0,0,0,1,1,0,0,1,1,1,1,1,1,30,                    207P    458
-0.209800542250963,-2.5,-30,-0.209800542250963,-2.5,30,50,-2.5,      207P    459
-30,50,-2.5,0,1,0,1;                                                 207P    460
126,1,1,1,0,1,0,0,0,1,1,1,1,0,0,0,0,0.402507086743845,0,0,1,0,0,     209P    461
1;                                                                   209P    462
126,1,1,1,0,1,0,0,0,1,1,1,1,1,0,0,0,0,0,0,1,0,0,1;                   211P    463
126,1,1,1,0,1,0,0,0,1,1,1,1,1,0,0,1,0.402507086743845,0,0,1,0,0,     213P    464
1;                                                                   213P    465
126,28,3,1,0,1,0,0,0,0,0,0.0384615384615385,0.0769230769230769,      215P    466
0.115384615384615,0.153846153846154,0.192307692307692,               215P    467
0.230769230769231,0.269230769230769,0.307692307692308,               215P    468
0.346153846153846,0.384615384615385,0.423076923076923,               215P    469
0.461538461538461,0.5,0.538461538461538,0.576923076923077,           215P    470
0.615384615384615,0.653846153846154,0.692307692307692,               215P    471
0.73076923076923,0.769230769230769,0.807692307692307,                215P    472
0.846153846153846,0.884615384615384,0.923076923076923,               215P    473
0.961538461538461,1,1,1,1,1,1,1,1,1,1,1,1,1,1,1,1,1,1,1,1,1,1,1,     215P    474
1,1,1,1,1,1,1,1,1,1,1,0.402507086743845,0,1,0.426572206575351,0,     215P    475
0.997563703584719,0.474702347345017,0,0.986653659747647,             215P    476
0.545844868332356,0,0.968647109702849,0.61489718044666,0,            215P    477
0.943806629497199,0.680852372427562,0,0.912494449267984,             215P    478
0.742748661838597,0,0.875167171111835,0.79968346333623,0,            215P    479
0.832369110797979,0.850826538790303,0,0.784724360418632,             215P    480
0.895432107135401,0,0.732927687720959,0.932849718704846,0,           215P    481
0.67773440482884,0.962533740474805,0,0.619949354091291,              215P    482
0.984051312562602,0,0.56041517166867,0.997088660314563,0,0.5,        215P    483
1.00145566984272,0,0.439584828331331,0.997088660314563,0,            215P    484
0.380050645908709,0.984051312562602,0,0.322265595171161,             215P    485
0.962533740474805,0,0.267072312279042,0.932849718704846,0,           215P    486
0.215275639581368,0.895432107135401,0,0.167630889202021,             215P    487
0.850826538790303,0,0.124832828888166,0.799683463336231,0,           215P    488
0.0875055507320168,0.742748661838597,0,0.0561933705028013,           215P    489
0.680852372427563,0,0.0313528902971508,0.614897180446661,0,          215P    490
0.0133463402523533,0.545844868332357,0,0.00243629641528159,          215P    491
0.474702347345018,0,0,0.426572206575352,0,0,0.402507086743845,0,     215P    492
0,1,0,0,1;                                                           215P    493
508,4,0,85,5,0,1,0,209,0,85,23,0,1,0,211,0,85,9,1,1,0,213,0,85,      217P    494
17,1,1,0,215;                                                        217P    495
126,28,3,1,0,1,0,0,0,0,0,0.0384615384615385,0.0769230769230769,      219P    496
0.115384615384615,0.153846153846154,0.192307692307692,               219P    497
0.230769230769231,0.269230769230769,0.307692307692308,               219P    498
0.346153846153846,0.384615384615385,0.423076923076923,               219P    499
0.461538461538461,0.5,0.538461538461538,0.576923076923077,           219P    500
0.615384615384615,0.653846153846154,0.692307692307692,               219P    501
0.73076923076923,0.769230769230769,0.807692307692307,                219P    502
0.846153846153846,0.884615384615384,0.923076923076923,               219P    503
0.961538461538461,1,1,1,1,1,1,1,1,1,1,1,1,1,1,1,1,1,1,1,1,1,1,1,     219P    504
1,1,1,1,1,1,1,1,1,1,0.416666666666667,0.502089238953204,0,           219P    505
0.416666666666667,0.506100092258455,0,0.417072716069214,             219P    506
0.514121782386733,0,0.418891056708726,0.525978869217956,0,           219P    507
0.421892148382858,0.537487587903673,0,0.426032228417133,             219P    508
0.54848011990049,0,0.431250925122003,0.558796168135663,0,            219P    509
0.437472138148027,0.568285301718601,0,0.444605148200337,             219P    510
0.576809147627614,0,0.452545939930228,0.584243409018464,0,           219P    511
0.461178718713174,0.590479677613371,0,0.470377599195193,             219P    512
0.595427014575031,0,0.480008440984785,0.599013276589664,0,           219P    513
0.489930804721888,0.601186167881657,0,0.5,0.601914002803016,0,       219P    514
0.510069195278111,0.601186167881657,0,0.519991559015215,             219P    515
0.599013276589664,0,0.529622400804807,0.595427014575031,0,           219P    516
0.538821281286826,0.590479677613371,0,0.547454060069772,             219P    517
0.584243409018464,0,0.555394851799663,0.576809147627614,0,           219P    518
0.562527861851972,0.568285301718602,0,0.568749074877997,             219P    519
0.558796168135663,0,0.573967771582867,0.548480119900491,0,           219P    520
0.578107851617141,0.537487587903674,0,0.581108943291275,             219P    521
0.525978869217956,0,0.582927283930786,0.514121782386733,0,           219P    522
0.583333333333333,0.506100092258455,0,0.583333333333333,             219P    523
0.502089238953204,0,0,1,0,0,1;                                       219P    524
126,28,3,1,0,1,0,0,0,0,0,0.0384615384615385,0.0769230769230769,      221P    525
0.115384615384615,0.153846153846154,0.192307692307692,               221P    526
0.230769230769231,0.269230769230769,0.307692307692308,               221P    527
0.346153846153846,0.384615384615385,0.423076923076923,               221P    528
0.461538461538461,0.5,0.538461538461538,0.576923076923077,           221P    529
0.615384615384615,0.653846153846154,0.692307692307692,               221P    530
0.73076923076923,0.769230769230769,0.807692307692307,                221P    531
0.846153846153846,0.884615384615384,0.923076923076923,               221P    532
0.961538461538461,1,1,1,1,1,1,1,1,1,1,1,1,1,1,1,1,1,1,1,1,1,1,1,     221P    533
1,1,1,1,1,1,1,1,1,1,0.583333333333333,0.502089238953204,0,           221P    534
0.583333333333333,0.498078385647953,0,0.582927283930786,             221P    535
0.490056695519676,0,0.581108943291274,0.478199608688452,0,           221P    536
0.578107851617142,0.466690890002735,0,0.573967771582867,             221P    537
0.455698358005918,0,0.568749074877997,0.445382309770746,0,           221P    538
0.562527861851972,0.435893176187807,0,0.555394851799663,             221P    539
0.427369330278795,0,0.547454060069772,0.419935068887945,0,           221P    540
0.538821281286826,0.413698800293037,0,0.529622400804806,             221P    541
0.408751463331378,0,0.519991559015215,0.405165201316745,0,           221P    542
0.510069195278112,0.402992310024751,0,0.5,0.402264475103392,0,       221P    543
0.489930804721889,0.402992310024751,0,0.480008440984785,             221P    544
0.405165201316745,0,0.470377599195194,0.408751463331378,0,           221P    545
0.461178718713174,0.413698800293037,0,0.452545939930228,             221P    546
0.419935068887945,0,0.444605148200337,0.427369330278794,0,           221P    547
0.437472138148028,0.435893176187807,0,0.431250925122003,             221P    548
0.445382309770746,0,0.426032228417134,0.455698358005918,0,           221P    549
0.421892148382859,0.466690890002735,0,0.418891056708726,             221P    550
0.478199608688452,0,0.417072716069214,0.490056695519676,0,           221P    551
0.416666666666667,0.498078385647953,0,0.416666666666667,             221P    552
0.502089238953204,0,0,1,0,0,1;                                       221P    553
508,2,0,85,24,1,1,0,219,0,85,25,1,1,0,221;                           223P    554
510,207,2,1,217,223;                                                 225P    555
110,2.96059473233375E-16,25,-2.5,2.368475785867E-16,25,-1.5;         227P    556
110,5,25,-2.5,5,25,2.5;                                              229P    557
120,227,229,0,6.28318530717959;                                      231P    558
126,1,1,1,0,1,0,0,0,1,1,1,1,1,0,0,1,3.14159265358979,0,0,1,0,0,      233P    559
1;                                                                   233P    560
126,1,1,1,0,1,0,0,0,1,1,1,1,0,3.14159265358979,0,1,                  235P    561
3.14159265358979,0,0,1,0,0,1;                                        235P    562
126,1,1,1,0,1,0,0,0,1,1,1,1,0,0,0,0,3.14159265358979,0,0,1,0,0,      237P    563
1;                                                                   237P    564
126,1,1,1,0,1,0,0,0,1,1,1,1,0,0,0,1,0,0,0,1,0,0,1;                   239P    565
508,4,0,85,21,1,1,0,233,0,85,26,0,1,0,235,0,85,24,0,1,0,237,0,       241P    566
85,27,1,1,0,239;                                                     241P    567
510,231,1,1,241;                                                     243P    568
110,30,-15,9.18485099360515E-16,29,-15,9.18485099360515E-16;         245P    569
110,30,-10,6.12323399573677E-16,-30,-10,6.12323399573677E-16;        247P    570
120,245,247,0,6.28318530717959;                                      249P    571
126,1,1,1,0,1,0,0,0,1,1,1,1,0,0,0,1,0,0,0,1,0,0,1;                   251P    572
126,1,1,1,0,1,0,0,0,1,1,1,1,1,0,0,1,3.14159265358979,0,0,1,0,0,      253P    573
1;                                                                   253P    574
126,1,1,1,0,1,0,0,0,1,1,1,1,0,3.14159265358979,0,1,                  255P    575
3.14159265358979,0,0,1,0,0,1;                                        255P    576
126,1,1,1,0,1,0,0,0,1,1,1,1,0,0,0,0,3.14159265358979,0,0,1,0,0,      257P    577
1;                                                                   257P    578
508,4,0,85,16,1,1,0,251,0,85,14,1,1,0,253,0,85,15,0,1,0,255,0,       259P    579
85,6,0,1,0,257;                                                      259P    580
510,249,1,1,259;                                                     261P    581
110,-30,-15,1.83697019872103E-15,-29,-15,1.83697019872103E-15;       263P    582
110,-30,-29.790199457749,-2.5,30,-29.790199457749,-2.5;              265P    583
120,263,265,0,6.28318530717959;                                      267P    584
126,1,1,1,0,1,0,0,0,1,1,1,1,1,0,0,1,2.80669649515041,0,0,1,0,0,      269P    585
1;                                                                   269P    586
126,1,1,1,0,1,0,0,0,1,1,1,1,0,0,0,1,0,0,0,1,0,0,1;                   271P    587
126,1,1,1,0,1,0,0,0,1,1,1,1,0,0,0,0,2.80669649515041,0,0,1,0,0,      273P    588
1;                                                                   273P    589
126,1,1,1,0,1,0,0,0,1,1,1,1,0,2.80669649515041,0,1,                  275P    590
2.80669649515041,0,0,1,0,0,1;                                        275P    591
508,4,0,85,4,0,1,0,269,0,85,22,0,1,0,271,0,85,10,1,1,0,273,0,85,     277P    592
23,1,1,0,275;                                                        277P    593
510,267,1,1,277;                                                     279P    594
110,2.96059473233375E-16,25,-2.5,2.368475785867E-16,25,-1.5;         281P    595
110,-5,25,-2.5,-5,25,2.5;                                            283P    596
120,281,283,0,6.28318530717959;                                      285P    597
126,1,1,1,0,1,0,0,0,1,1,1,1,0,3.14159265358979,0,1,                  287P    598
3.14159265358979,0,0,1,0,0,1;                                        287P    599
126,1,1,1,0,1,0,0,0,1,1,1,1,0,0,0,0,3.14159265358979,0,0,1,0,0,      289P    600
1;                                                                   289P    601
126,1,1,1,0,1,0,0,0,1,1,1,1,0,0,0,1,0,0,0,1,0,0,1;                   291P    602
126,1,1,1,0,1,0,0,0,1,1,1,1,1,0,0,1,3.14159265358979,0,0,1,0,0,      293P    603
1;                                                                   293P    604
508,4,0,85,27,0,1,0,287,0,85,25,0,1,0,289,0,85,26,1,1,0,291,0,       295P    605
85,20,1,1,0,293;                                                     295P    606
510,285,1,1,295;                                                     297P    607
514,11,109,1,131,1,149,1,167,0,187,1,205,0,225,1,243,1,261,1,        299P    608
279,0,297,1;                                                         299P    609
186,299,1,0;                                                         301P    610
S      2G      3D    302P    610                                        T      1
