IGES file generated by C3D Converter 1.8                                S      1
translator by C3D Labs., translator version IGESOUT-5.1.                S      2
1H,,1H;,7H Деталь,40HE:\Сдача задания\Модели\IGES\Монитор.igs,0H,3H1.0,3G      1
2,38,6,308,15,7Hunknown,1,2,2HMM,1000,1,16H-17740206:063407,1E-6,50000,5G      2
Hno1se,7Hunknown,0,0,13H260306:063408;                                  G      3
     502       1       0       0       0       0       0       000010000D      1
     502       0       0       7       1                               0D      2
     110       8       0       0       0       0       0       000010000D      3
     110       1       0       1       0                               0D      4
     110       9       0       0       0       0       0       000010000D      5
     110       1       0       1       0                               0D      6
     110      10       0       0       0       0       0       000010000D      7
     110       1       0       1       0                               0D      8
     110      11       0       0       0       0       0       000010000D      9
     110       1       0       1       0                               0D     10
     124      12       0       0       0       0       0       001020201D     11
     124       1       0       2       0                               0D     12
     100      14       0       0       0       0      11       000010000D     13
     100       1       0       1       0                               0D     14
     124      15       0       0       0       0       0       001020201D     15
     124       1       0       3       0                               0D     16
     100      18       0       0       0       0      15       000010000D     17
     100       1       0       1       0                               0D     18
     110      19       0       0       0       0       0       000010000D     19
     110       1       0       1       0                               0D     20
     110      20       0       0       0       0       0       000010000D     21
     110       1       0       1       0                               0D     22
     110      21       0       0       0       0       0       000010000D     23
     110       1       0       1       0                               0D     24
     110      22       0       0       0       0       0       000010000D     25
     110       1       0       1       0                               0D     26
     124      23       0       0       0       0       0       001020201D     27
     124       1       0       2       0                               0D     28
     100      25       0       0       0       0      27       000010000D     29
     100       1       0       1       0                               0D     30
     124      26       0       0       0       0       0       001020201D     31
     124       1       0       2       0                               0D     32
     100      28       0       0       0       0      31       000010000D     33
     100       1       0       1       0                               0D     34
     110      29       0       0       0       0       0       000010000D     35
     110       1       0       1       0                               0D     36
     110      30       0       0       0       0       0       000010000D     37
     110       1       0       1       0                               0D     38
     110      31       0       0       0       0       0       000010000D     39
     110       1       0       1       0                               0D     40
     110      32       0       0       0       0       0       000010000D     41
     110       1       0       1       0                               0D     42
     124      33       0       0       0       0       0       001020201D     43
     124       1       0       2       0                               0D     44
     100      35       0       0       0       0      43       000010000D     45
     100       1       0       1       0                               0D     46
     124      36       0       0       0       0       0       001020201D     47
     124       1       0       2       0                               0D     48
     100      38       0       0       0       0      47       000010000D     49
     100       1       0       1       0                               0D     50
     110      39       0       0       0       0       0       000010000D     51
     110       1       0       1       0                               0D     52
     110      40       0       0       0       0       0       000010000D     53
     110       1       0       1       0                               0D     54
     110      41       0       0       0       0       0       000010000D     55
     110       1       0       1       0                               0D     56
     110      42       0       0       0       0       0       000010000D     57
     110       1       0       1       0                               0D     58
     124      43       0       0       0       0       0       001020201D     59
     124       1       0       2       0                               0D     60
     100      45       0       0       0       0      59       000010000D     61
     100       1       0       1       0                               0D     62
     124      46       0       0       0       0       0       001020201D     63
     124       1       0       2       0                               0D     64
     100      48       0       0       0       0      63       000010000D     65
     100       1       0       1       0                               0D     66
     124      49       0       0       0       0       0       001020201D     67
     124       1       0       2       0                               0D     68
     100      51       0       0       0       0      67       000010000D     69
     100       1       0       2       0                               0D     70
     110      53       0       0       0       0       0       000010000D     71
     110       1       0       1       0                               0D     72
     124      54       0       0       0       0       0       001020201D     73
     124       1       0       2       0                               0D     74
     100      56       0       0       0       0      73       000010000D     75
     100       1       0       1       0                               0D     76
     110      57       0       0       0       0       0       000010000D     77
     110       1       0       1       0                               0D     78
     124      58       0       0       0       0       0       001020201D     79
     124       1       0       3       0                               0D     80
     100      61       0       0       0       0      79       000010000D     81
     100       1       0       1       0                               0D     82
     110      62       0       0       0       0       0       000010000D     83
     110       1       0       1       0                               0D     84
     124      63       0       0       0       0       0       001020201D     85
     124       1       0       3       0                               0D     86
     100      66       0       0       0       0      85       000010000D     87
     100       1       0       1       0                               0D     88
     110      67       0       0       0       0       0       000010000D     89
     110       1       0       1       0                               0D     90
     110      68       0       0       0       0       0       000010000D     91
     110       1       0       1       0                               0D     92
     110      69       0       0       0       0       0       000010000D     93
     110       1       0       1       0                               0D     94
     124      70       0       0       0       0       0       001020201D     95
     124       1       0       2       0                               0D     96
     100      72       0       0       0       0      95       000010000D     97
     100       1       0       1       0                               0D     98
     110      73       0       0       0       0       0       000010000D     99
     110       1       0       1       0                               0D    100
     110      74       0       0       0       0       0       000010000D    101
     110       1       0       1       0                               0D    102
     110      75       0       0       0       0       0       000010000D    103
     110       1       0       1       0                               0D    104
     124      76       0       0       0       0       0       001020201D    105
     124       1       0       2       0                               0D    106
     100      78       0       0       0       0     105       000010000D    107
     100       1       0       2       0                               0D    108
     110      80       0       0       0       0       0       000010000D    109
     110       1       0       1       0                               0D    110
     110      81       0       0       0       0       0       000010000D    111
     110       1       0       1       0                               0D    112
     110      82       0       0       0       0       0       000010000D    113
     110       1       0       1       0                               0D    114
     124      83       0       0       0       0       0       001020201D    115
     124       1       0       3       0                               0D    116
     100      86       0       0       0       0     115       000010000D    117
     100       1       0       1       0                               0D    118
     110      87       0       0       0       0       0       000010000D    119
     110       1       0       1       0                               0D    120
     110      88       0       0       0       0       0       000010000D    121
     110       1       0       1       0                               0D    122
     110      89       0       0       0       0       0       000010000D    123
     110       1       0       1       0                               0D    124
     124      90       0       0       0       0       0       001020201D    125
     124       1       0       2       0                               0D    126
     100      92       0       0       0       0     125       000010000D    127
     100       1       0       2       0                               0D    128
     110      94       0       0       0       0       0       000010000D    129
     110       1       0       1       0                               0D    130
     504      95       0       0       0       0       0       000010000D    131
     504       1       0      10       1                               0D    132
     128     105       0       0       0       0       0       000010000D    133
     128       1       0       2       0                               0D    134
     126     107       0       0       0       0       0       001010500D    135
     126       1       0       1       0                               0D    136
     126     108       0       0       0       0       0       001010500D    137
     126       1       0       1       0                               0D    138
     126     109       0       0       0       0       0       001010500D    139
     126       1       0       1       0                               0D    140
     126     110       0       0       0       0       0       001010500D    141
     126       1       0       1       0                               0D    142
     508     111       0       0       0       0       0       000010000D    143
     508       1       0       2       1                               0D    144
     314     113       0       0       0       0       0       001000200D    145
     314       1       0       1       0                               0D    146
     510     114       0       0       0       0       0       000010000D    147
     510       1    -145       1       1                               0D    148
     110     115       0       0       0       0       0       001010000D    149
     110       1       0       1       0                               0D    150
     110     116       0       0       0       0       0       001010001D    151
     110       1       0       1       0                               0D    152
     120     117       0       0       0       0       0       000010000D    153
     120       1       0       1       0                               0D    154
     126     118       0       0       0       0       0       001010500D    155
     126       1       0       1       0                               0D    156
     126     119       0       0       0       0       0       001010500D    157
     126       1       0       1       0                               0D    158
     126     120       0       0       0       0       0       001010500D    159
     126       1       0       1       0                               0D    160
     126     121       0       0       0       0       0       001010500D    161
     126       1       0       2       0                               0D    162
     508     123       0       0       0       0       0       000010000D    163
     508       1       0       2       1                               0D    164
     510     125       0       0       0       0       0       000010000D    165
     510       1    -145       1       1                               0D    166
     128     126       0       0       0       0       0       000010000D    167
     128       1       0       2       0                               0D    168
     126     128       0       0       0       0       0       001010500D    169
     126       1       0       1       0                               0D    170
     126     129       0       0       0       0       0       001010500D    171
     126       1       0       1       0                               0D    172
     126     130       0       0       0       0       0       001010500D    173
     126       1       0       1       0                               0D    174
     126     131       0       0       0       0       0       001010500D    175
     126       1       0       1       0                               0D    176
     508     132       0       0       0       0       0       000010000D    177
     508       1       0       2       1                               0D    178
     510     134       0       0       0       0       0       000010000D    179
     510       1    -145       1       1                               0D    180
     110     135       0       0       0       0       0       001010000D    181
     110       1       0       1       0                               0D    182
     110     136       0       0       0       0       0       001010001D    183
     110       1       0       1       0                               0D    184
     120     137       0       0       0       0       0       000010000D    185
     120       1       0       1       0                               0D    186
     126     138       0       0       0       0       0       001010500D    187
     126       1       0       1       0                               0D    188
     126     139       0       0       0       0       0       001010500D    189
     126       1       0       1       0                               0D    190
     126     140       0       0       0       0       0       001010500D    191
     126       1       0       1       0                               0D    192
     126     141       0       0       0       0       0       001010500D    193
     126       1       0       2       0                               0D    194
     508     143       0       0       0       0       0       000010000D    195
     508       1       0       2       1                               0D    196
     510     145       0       0       0       0       0       000010000D    197
     510       1    -145       1       1                               0D    198
     128     146       0       0       0       0       0       000010000D    199
     128       1       0       2       0                               0D    200
     126     148       0       0       0       0       0       001010500D    201
     126       1       0       1       0                               0D    202
     126     149       0       0       0       0       0       001010500D    203
     126       1       0       1       0                               0D    204
     126     150       0       0       0       0       0       001010500D    205
     126       1       0       1       0                               0D    206
     126     151       0       0       0       0       0       001010500D    207
     126       1       0       1       0                               0D    208
     508     152       0       0       0       0       0       000010000D    209
     508       1       0       2       1                               0D    210
     510     154       0       0       0       0       0       000010000D    211
     510       1    -145       1       1                               0D    212
     110     155       0       0       0       0       0       001010000D    213
     110       1       0       1       0                               0D    214
     110     156       0       0       0       0       0       001010001D    215
     110       1       0       1       0                               0D    216
     120     157       0       0       0       0       0       000010000D    217
     120       1       0       1       0                               0D    218
     126     158       0       0       0       0       0       001010500D    219
     126       1       0       1       0                               0D    220
     126     159       0       0       0       0       0       001010500D    221
     126       1       0       1       0                               0D    222
     126     160       0       0       0       0       0       001010500D    223
     126       1       0       1       0                               0D    224
     126     161       0       0       0       0       0       001010500D    225
     126       1       0       2       0                               0D    226
     508     163       0       0       0       0       0       000010000D    227
     508       1       0       2       1                               0D    228
     510     165       0       0       0       0       0       000010000D    229
     510       1    -145       1       1                               0D    230
     128     166       0       0       0       0       0       000010000D    231
     128       1       0       2       0                               0D    232
     126     168       0       0       0       0       0       001010500D    233
     126       1       0       1       0                               0D    234
     126     169       0       0       0       0       0       001010500D    235
     126       1       0       1       0                               0D    236
     126     170       0       0       0       0       0       001010500D    237
     126       1       0       1       0                               0D    238
     126     171       0       0       0       0       0       001010500D    239
     126       1       0       1       0                               0D    240
     508     172       0       0       0       0       0       000010000D    241
     508       1       0       2       1                               0D    242
     510     174       0       0       0       0       0       000010000D    243
     510       1    -145       1       1                               0D    244
     110     175       0       0       0       0       0       001010000D    245
     110       1       0       1       0                               0D    246
     110     176       0       0       0       0       0       001010001D    247
     110       1       0       1       0                               0D    248
     120     177       0       0       0       0       0       000010000D    249
     120       1       0       1       0                               0D    250
     126     178       0       0       0       0       0       001010500D    251
     126       1       0       1       0                               0D    252
     126     179       0       0       0       0       0       001010500D    253
     126       1       0       1       0                               0D    254
     126     180       0       0       0       0       0       001010500D    255
     126       1       0       1       0                               0D    256
     126     181       0       0       0       0       0       001010500D    257
     126       1       0       2       0                               0D    258
     508     183       0       0       0       0       0       000010000D    259
     508       1       0       2       1                               0D    260
     510     185       0       0       0       0       0       000010000D    261
     510       1    -145       1       1                               0D    262
     128     186       0       0       0       0       0       000010000D    263
     128       1       0       2       0                               0D    264
     126     188       0       0       0       0       0       001010500D    265
     126       1       0      16       0                               0D    266
     126     204       0       0       0       0       0       001010500D    267
     126       1       0       2       0                               0D    268
     126     206       0       0       0       0       0       001010500D    269
     126       1       0      16       0                               0D    270
     126     222       0       0       0       0       0       001010500D    271
     126       1       0       2       0                               0D    272
     126     224       0       0       0       0       0       001010500D    273
     126       1       0      16       0                               0D    274
     126     240       0       0       0       0       0       001010500D    275
     126       1       0       2       0                               0D    276
     126     242       0       0       0       0       0       001010500D    277
     126       1       0      16       0                               0D    278
     126     258       0       0       0       0       0       001010500D    279
     126       1       0       2       0                               0D    280
     508     260       0       0       0       0       0       000010000D    281
     508       1       0       3       1                               0D    282
     510     263       0       0       0       0       0       000010000D    283
     510       1    -145       1       1                               0D    284
     128     264       0       0       0       0       0       000010000D    285
     128       1       0       2       0                               0D    286
     126     266       0       0       0       0       0       001010500D    287
     126       1       0      16       0                               0D    288
     126     282       0       0       0       0       0       001010500D    289
     126       1       0       2       0                               0D    290
     126     284       0       0       0       0       0       001010500D    291
     126       1       0      16       0                               0D    292
     126     300       0       0       0       0       0       001010500D    293
     126       1       0       2       0                               0D    294
     126     302       0       0       0       0       0       001010500D    295
     126       1       0      16       0                               0D    296
     126     318       0       0       0       0       0       001010500D    297
     126       1       0       2       0                               0D    298
     126     320       0       0       0       0       0       001010500D    299
     126       1       0      16       0                               0D    300
     126     336       0       0       0       0       0       001010500D    301
     126       1       0       2       0                               0D    302
     508     338       0       0       0       0       0       000010000D    303
     508       1       0       3       1                               0D    304
     126     341       0       0       0       0       0       001010500D    305
     126       1       0      16       0                               0D    306
     126     357       0       0       0       0       0       001010500D    307
     126       1       0       2       0                               0D    308
     126     359       0       0       0       0       0       001010500D    309
     126       1       0      16       0                               0D    310
     126     375       0       0       0       0       0       001010500D    311
     126       1       0       2       0                               0D    312
     126     377       0       0       0       0       0       001010500D    313
     126       1       0      17       0                               0D    314
     126     394       0       0       0       0       0       001010500D    315
     126       1       0       2       0                               0D    316
     126     396       0       0       0       0       0       001010500D    317
     126       1       0      16       0                               0D    318
     126     412       0       0       0       0       0       001010500D    319
     126       1       0       2       0                               0D    320
     508     414       0       0       0       0       0       000010000D    321
     508       1       0       3       1                               0D    322
     510     417       0       0       0       0       0       000010000D    323
     510       1    -145       1       1                               0D    324
     110     418       0       0       0       0       0       001010000D    325
     110       1       0       1       0                               0D    326
     110     419       0       0       0       0       0       001010001D    327
     110       1       0       1       0                               0D    328
     120     420       0       0       0       0       0       000010000D    329
     120       1       0       1       0                               0D    330
     126     421       0       0       0       0       0       001010500D    331
     126       1       0       2       0                               0D    332
     126     423       0       0       0       0       0       001010500D    333
     126       1       0       1       0                               0D    334
     126     424       0       0       0       0       0       001010500D    335
     126       1       0       1       0                               0D    336
     126     425       0       0       0       0       0       001010500D    337
     126       1       0       1       0                               0D    338
     508     426       0       0       0       0       0       000010000D    339
     508       1       0       2       1                               0D    340
     510     428       0       0       0       0       0       000010000D    341
     510       1    -145       1       1                               0D    342
     128     429       0       0       0       0       0       000010000D    343
     128       1       0       2       0                               0D    344
     126     431       0       0       0       0       0       001010500D    345
     126       1       0       1       0                               0D    346
     126     432       0       0       0       0       0       001010500D    347
     126       1       0       1       0                               0D    348
     126     433       0       0       0       0       0       001010500D    349
     126       1       0       1       0                               0D    350
     126     434       0       0       0       0       0       001010500D    351
     126       1       0       1       0                               0D    352
     508     435       0       0       0       0       0       000010000D    353
     508       1       0       2       1                               0D    354
     510     437       0       0       0       0       0       000010000D    355
     510       1    -145       1       1                               0D    356
     110     438       0       0       0       0       0       001010000D    357
     110       1       0       1       0                               0D    358
     110     439       0       0       0       0       0       001010001D    359
     110       1       0       1       0                               0D    360
     120     440       0       0       0       0       0       000010000D    361
     120       1       0       1       0                               0D    362
     126     441       0       0       0       0       0       001010500D    363
     126       1       0       2       0                               0D    364
     126     443       0       0       0       0       0       001010500D    365
     126       1       0       1       0                               0D    366
     126     444       0       0       0       0       0       001010500D    367
     126       1       0       1       0                               0D    368
     126     445       0       0       0       0       0       001010500D    369
     126       1       0       1       0                               0D    370
     508     446       0       0       0       0       0       000010000D    371
     508       1       0       2       1                               0D    372
     510     448       0       0       0       0       0       000010000D    373
     510       1    -145       1       1                               0D    374
     128     449       0       0       0       0       0       000010000D    375
     128       1       0       2       0                               0D    376
     126     451       0       0       0       0       0       001010500D    377
     126       1       0       1       0                               0D    378
     126     452       0       0       0       0       0       001010500D    379
     126       1       0       1       0                               0D    380
     126     453       0       0       0       0       0       001010500D    381
     126       1       0       1       0                               0D    382
     126     454       0       0       0       0       0       001010500D    383
     126       1       0       1       0                               0D    384
     508     455       0       0       0       0       0       000010000D    385
     508       1       0       2       1                               0D    386
     510     457       0       0       0       0       0       000010000D    387
     510       1    -145       1       1                               0D    388
     110     458       0       0       0       0       0       001010000D    389
     110       1       0       1       0                               0D    390
     110     459       0       0       0       0       0       001010001D    391
     110       1       0       1       0                               0D    392
     120     460       0       0       0       0       0       000010000D    393
     120       1       0       1       0                               0D    394
     126     461       0       0       0       0       0       001010500D    395
     126       1       0       2       0                               0D    396
     126     463       0       0       0       0       0       001010500D    397
     126       1       0       1       0                               0D    398
     126     464       0       0       0       0       0       001010500D    399
     126       1       0       1       0                               0D    400
     126     465       0       0       0       0       0       001010500D    401
     126       1       0       1       0                               0D    402
     508     466       0       0       0       0       0       000010000D    403
     508       1       0       2       1                               0D    404
     510     468       0       0       0       0       0       000010000D    405
     510       1    -145       1       1                               0D    406
     128     469       0       0       0       0       0       000010000D    407
     128       1       0       2       0                               0D    408
     126     471       0       0       0       0       0       001010500D    409
     126       1       0       1       0                               0D    410
     126     472       0       0       0       0       0       001010500D    411
     126       1       0       1       0                               0D    412
     126     473       0       0       0       0       0       001010500D    413
     126       1       0       1       0                               0D    414
     126     474       0       0       0       0       0       001010500D    415
     126       1       0       1       0                               0D    416
     508     475       0       0       0       0       0       000010000D    417
     508       1       0       2       1                               0D    418
     510     477       0       0       0       0       0       000010000D    419
     510       1    -145       1       1                               0D    420
     110     478       0       0       0       0       0       001010000D    421
     110       1       0       1       0                               0D    422
     110     479       0       0       0       0       0       001010001D    423
     110       1       0       1       0                               0D    424
     120     480       0       0       0       0       0       000010000D    425
     120       1       0       1       0                               0D    426
     126     481       0       0       0       0       0       001010500D    427
     126       1       0       2       0                               0D    428
     126     483       0       0       0       0       0       001010500D    429
     126       1       0       1       0                               0D    430
     126     484       0       0       0       0       0       001010500D    431
     126       1       0       1       0                               0D    432
     126     485       0       0       0       0       0       001010500D    433
     126       1       0       1       0                               0D    434
     508     486       0       0       0       0       0       000010000D    435
     508       1       0       2       1                               0D    436
     510     488       0       0       0       0       0       000010000D    437
     510       1    -145       1       1                               0D    438
     128     489       0       0       0       0       0       000010000D    439
     128       1       0       2       0                               0D    440
     126     491       0       0       0       0       0       001010500D    441
     126       1       0       1       0                               0D    442
     126     492       0       0       0       0       0       001010500D    443
     126       1       0       1       0                               0D    444
     126     493       0       0       0       0       0       001010500D    445
     126       1       0       1       0                               0D    446
     126     494       0       0       0       0       0       001010500D    447
     126       1       0       1       0                               0D    448
     508     495       0       0       0       0       0       000010000D    449
     508       1       0       2       1                               0D    450
     510     497       0       0       0       0       0       000010000D    451
     510       1    -145       1       1                               0D    452
     128     498       0       0       0       0       0       000010000D    453
     128       1       0       2       0                               0D    454
     126     500       0       0       0       0       0       001010500D    455
     126       1       0      16       0                               0D    456
     126     516       0       0       0       0       0       001010500D    457
     126       1       0       2       0                               0D    458
     126     518       0       0       0       0       0       001010500D    459
     126       1       0      16       0                               0D    460
     126     534       0       0       0       0       0       001010500D    461
     126       1       0       2       0                               0D    462
     126     536       0       0       0       0       0       001010500D    463
     126       1       0      16       0                               0D    464
     126     552       0       0       0       0       0       001010500D    465
     126       1       0       2       0                               0D    466
     126     554       0       0       0       0       0       001010500D    467
     126       1       0      16       0                               0D    468
     126     570       0       0       0       0       0       001010500D    469
     126       1       0       2       0                               0D    470
     508     572       0       0       0       0       0       000010000D    471
     508       1       0       3       1                               0D    472
     510     575       0       0       0       0       0       000010000D    473
     510       1    -145       1       1                               0D    474
     514     576       0       0       0       0       0       000010000D    475
     514       1       0       2       1                               0D    476
     186     578       0       0       0       0       0       000010000D    477
     186       1       0       1       0                               0D    478
502,32,40.0000000000001,-300,140,40,-300,-140,50,-300,-140,50,         1P      1
-300,140,40,-290,150,50,-290,150,40.0000000000001,290,150,50,          1P      2
290,150,40,300,140,50,300,140,40,300,-140,50,300,-140,40,290,          1P      3
-150,50,290,-150,40,-290,-150,50,-290,-150,50,275,135,50,270,          1P      4
140,50,275,-135,50,270,-140,50,-270,-140,50,-275,-135,50,-275,         1P      5
135,50,-270,140,45,275,135,45,270,140,45,275,-135,45,270,-140,         1P      6
45,-270,-140,45,-275,-135,45,-275,135,45,-270,140;                     1P      7
110,40,-300,-140,40,-300,140;                                          3P      8
110,40,-300,-140,50,-300,-140;                                         5P      9
110,50,-300,140,50,-300,-140;                                          7P     10
110,40.0000000000002,-300,140,50,-300,140;                             9P     11
124,0,1.83697019872103E-16,-1,40,-1,0,0,-290,0,1,                     11P     12
1.83697019872103E-16,140;                                             11P     13
100,0,0,0,10,0,6.12323399573677E-16,10;                               13P     14
124,1.83697019872103E-16,-2.08839332881442E-30,1,50,                  15P     15
-1.13686837721616E-14,-1,0,-290,1,-1.13686837721616E-14,              15P     16
-1.83697019872103E-16,140;                                            15P     17
100,0,0,0,10,0,8.72097193203359E-14,10;                               17P     18
110,40,-290,150,50,-290,150;                                          19P     19
110,40,-290,150,40,290,150;                                           21P     20
110,50,290,150,50,-290,150;                                           23P     21
110,40.0000000000001,290,150,50,290,150;                              25P     22
124,1.83697019872103E-16,0,-1,40,0,1,0,290,1,0,                       27P     23
1.83697019872103E-16,140;                                             27P     24
100,0,0,0,10,0,-1.60812264967664E-15,10;                              29P     25
124,0,1.83697019872103E-16,1,50,1,0,0,290,0,1,                        31P     26
-1.83697019872103E-16,140;                                            31P     27
100,0,0,0,10,0,6.12323399573677E-16,10;                               33P     28
110,40,300,140,50,300,140;                                            35P     29
110,40,300,140,40,300,-140;                                           37P     30
110,50,300,-140,50,300,140;                                           39P     31
110,40,300,-140,50,300,-140;                                          41P     32
124,0,-1.83697019872103E-16,-1,40,1,0,0,290,0,-1,                     43P     33
1.83697019872103E-16,-140;                                            43P     34
100,0,0,0,10,0,6.12323399573677E-16,10;                               45P     35
124,-1.83697019872103E-16,0,1,50,0,1,0,290,-1,0,                      47P     36
-1.83697019872103E-16,-140;                                           47P     37
100,0,0,0,10,0,6.12323399573677E-16,10;                               49P     38
110,40,290,-150,50,290,-150;                                          51P     39
110,40,290,-150,40,-290,-150;                                         53P     40
110,50,-290,-150,50,290,-150;                                         55P     41
110,40,-290,-150,50,-290,-150;                                        57P     42
124,-1.83697019872103E-16,0,-1,40,0,-1,0,-290,-1,0,                   59P     43
1.83697019872103E-16,-140;                                            59P     44
100,0,0,0,10,0,-1.60812264967664E-15,10;                              61P     45
124,0,-1.83697019872103E-16,1,50,-1,0,0,-290,0,-1,                    63P     46
-1.83697019872103E-16,-140;                                           63P     47
100,0,0,0,10,0,6.12323399573677E-16,10;                               65P     48
124,1.83697019872103E-16,0,-1,50,0,1,0,270,1,0,                       67P     49
1.83697019872103E-16,135;                                             67P     50
100,0,0,0,5.00000000000006,0,3.06161699786842E-16,                    69P     51
5.00000000000006;                                                     69P     52
110,50,275,-135,50,275,135;                                           71P     53
124,0,-1.83697019872103E-16,-1,50,1,0,0,270,0,-1,                     73P     54
1.83697019872103E-16,-135;                                            73P     55
100,0,0,0,5,0,3.06161699786838E-16,5;                                 75P     56
110,50,-270,-140,50,270,-140;                                         77P     57
124,-1.83697019872103E-16,-2.08839332881442E-30,-1,50,                79P     58
1.13686837721616E-14,-1,0,-270,-1,-1.13686837721616E-14,              79P     59
1.83697019872103E-16,-135;                                            79P     60
100,0,0,0,5,0,-2.85596369404672E-14,5;                                81P     61
110,50,-275,135,50,-275,-135;                                         83P     62
124,1.04419666440721E-30,1.83697019872103E-16,-1,50,-1,               85P     63
5.6843418860808E-15,0,-270,5.6843418860808E-15,1,                     85P     64
1.83697019872103E-16,135;                                             85P     65
100,0,0,0,5,0,2.91719603400409E-14,5;                                 87P     66
110,50,270,140,50,-270,140;                                           89P     67
110,45,275,135,50,275,135;                                            91P     68
110,45,270,140,50,270,140;                                            93P     69
124,0,1.83697019872103E-16,1,45,1,0,0,270,0,1,                        95P     70
-1.83697019872103E-16,135;                                            95P     71
100,0,0,0,5,0,3.06161699786838E-16,5;                                 97P     72
110,45,275,-135,45,275,135;                                           99P     73
110,45,275,-135,50,275,-135;                                         101P     74
110,45,270,-140,50,270,-140;                                         103P     75
124,-1.83697019872103E-16,0,1,45,0,1,0,270,-1,0,                     105P     76
-1.83697019872103E-16,-135;                                          105P     77
100,0,0,0,4.99999999999997,0,3.06161699786837E-16,                   107P     78
4.99999999999997;                                                    107P     79
110,45,-270,-140,50,-270,-140;                                       109P     80
110,45,-270,-140,45,270,-140;                                        111P     81
110,45,-275,-135,50,-275,-135;                                       113P     82
124,1.04419666440721E-30,-1.83697019872103E-16,1,45,-1,              115P     83
-5.6843418860808E-15,0,-270,5.6843418860808E-15,-1,                  115P     84
-1.83697019872103E-16,-135;                                          115P     85
100,0,0,0,5,0,-2.85596369404672E-14,5;                               117P     86
110,45,-275,135,50,-275,135;                                         119P     87
110,45,-275,135,45,-275,-135;                                        121P     88
110,45,-270,140,50,-270,140;                                         123P     89
124,1.83697019872103E-16,0,1,45,0,-1,0,-270,1,0,                     125P     90
-1.83697019872103E-16,135;                                           125P     91
100,0,0,0,5.00000000000003,0,2.91719603400411E-14,                   127P     92
5.00000000000003;                                                    127P     93
110,45,270,140,45,-270,140;                                          129P     94
504,48,3,1,2,1,1,5,1,2,1,3,7,1,4,1,3,9,1,1,1,4,13,1,1,1,5,17,1,      131P     95
6,1,4,19,1,5,1,6,21,1,5,1,7,23,1,8,1,6,25,1,7,1,8,29,1,7,1,9,33,     131P     96
1,10,1,8,35,1,9,1,10,37,1,9,1,11,39,1,12,1,10,41,1,11,1,12,45,1,     131P     97
11,1,13,49,1,14,1,12,51,1,13,1,14,53,1,13,1,15,55,1,16,1,14,57,      131P     98
1,15,1,16,61,1,15,1,2,65,1,3,1,16,69,1,18,1,17,71,1,19,1,17,75,      131P     99
1,19,1,20,77,1,21,1,20,81,1,21,1,22,83,1,23,1,22,87,1,23,1,24,       131P    100
89,1,18,1,24,91,1,25,1,17,93,1,26,1,18,97,1,25,1,26,99,1,27,1,       131P    101
25,101,1,27,1,19,103,1,28,1,20,107,1,28,1,27,109,1,29,1,21,111,      131P    102
1,29,1,28,113,1,30,1,22,117,1,30,1,29,119,1,31,1,23,121,1,31,1,      131P    103
30,123,1,32,1,24,127,1,32,1,31,129,1,26,1,32;                        131P    104
128,1,1,1,1,0,0,1,0,0,0,0,1,1,0,0,1,1,1,1,1,1,40,-300,140,40,        133P    105
-300,-140,50,-300,140,50,-300,-140,0,1,0,1;                          133P    106
126,1,1,1,0,1,0,0,0,1,1,1,1,1,0,0,0,0,0,0,1,0,0,1;                   135P    107
126,1,1,1,0,1,0,0,0,1,1,1,1,1,0,0,1,1,0,0,1,0,0,1;                   137P    108
126,1,1,1,0,1,0,0,0,1,1,1,1,0,1,0,1,1,0,0,1,0,0,1;                   139P    109
126,1,1,1,0,1,0,0,0,1,1,1,1,0,0,0,0,1,0,0,1,0,0,1;                   141P    110
508,4,0,131,1,0,1,0,135,0,131,2,1,1,0,137,0,131,3,0,1,0,139,0,       143P    111
131,4,0,1,0,141;                                                     143P    112
314,56.4705882352941,56.4705882352941,56.4705882352941,1H ;          145P    113
510,133,1,1,143;                                                     147P    114
110,-40,-290,140,-41,-290,140;                                       149P    115
110,40,-300,140,50,-300,140;                                         151P    116
120,149,151,0,6.28318530717959;                                      153P    117
126,1,1,1,0,1,0,0,0,1,1,1,1,0,0,0,0,1.5707963267949,0,0,1,0,0,1;     155P    118
126,1,1,1,0,1,0,0,0,1,1,1,1,0,0,0,1,0,0,0,1,0,0,1;                   157P    119
126,1,1,1,0,1,0,0,0,1,1,1,1,1,1.5707963267949,0,1,0,0,0,1,0,0,1;     159P    120
126,1,1,1,0,1,0,0,0,1,1,1,1,0,1.5707963267949,0,1,                   161P    121
1.5707963267949,0,0,1,0,0,1;                                         161P    122
508,4,0,131,5,0,1,0,155,0,131,4,1,1,0,157,0,131,6,0,1,0,159,0,       163P    123
131,7,0,1,0,161;                                                     163P    124
510,153,1,1,163;                                                     165P    125
128,1,1,1,1,0,0,1,0,0,0,0,1,1,0,0,1,1,1,1,1,1,40,290,150,40,         167P    126
-290,150,50,290,150,50,-290,150,0,1,0,1;                             167P    127
126,1,1,1,0,1,0,0,0,1,1,1,1,1,0,0,0,0,0,0,1,0,0,1;                   169P    128
126,1,1,1,0,1,0,0,0,1,1,1,1,1,0,0,1,1,0,0,1,0,0,1;                   171P    129
126,1,1,1,0,1,0,0,0,1,1,1,1,0,1,0,1,1,0,0,1,0,0,1;                   173P    130
126,1,1,1,0,1,0,0,0,1,1,1,1,0,0,0,0,1,0,0,1,0,0,1;                   175P    131
508,4,0,131,8,0,1,0,169,0,131,7,1,1,0,171,0,131,9,0,1,0,173,0,       177P    132
131,10,0,1,0,175;                                                    177P    133
510,167,1,1,177;                                                     179P    134
110,-40,290,140,-41,290,140;                                         181P    135
110,40,290,150,50,290,150;                                           183P    136
120,181,183,0,6.28318530717959;                                      185P    137
126,1,1,1,0,1,0,0,0,1,1,1,1,0,0,0,0,1.5707963267949,0,0,1,0,0,1;     187P    138
126,1,1,1,0,1,0,0,0,1,1,1,1,0,0,0,1,0,0,0,1,0,0,1;                   189P    139
126,1,1,1,0,1,0,0,0,1,1,1,1,1,1.5707963267949,0,1,0,0,0,1,0,0,1;     191P    140
126,1,1,1,0,1,0,0,0,1,1,1,1,0,1.5707963267949,0,1,                   193P    141
1.5707963267949,0,0,1,0,0,1;                                         193P    142
508,4,0,131,11,0,1,0,187,0,131,10,1,1,0,189,0,131,12,0,1,0,191,      195P    143
0,131,13,0,1,0,193;                                                  195P    144
510,185,1,1,195;                                                     197P    145
128,1,1,1,1,0,0,1,0,0,0,0,1,1,0,0,1,1,1,1,1,1,40,300,-140,40,        199P    146
300,140,50,300,-140,50,300,140,0,1,0,1;                              199P    147
126,1,1,1,0,1,0,0,0,1,1,1,1,1,0,0,0,0,0,0,1,0,0,1;                   201P    148
126,1,1,1,0,1,0,0,0,1,1,1,1,1,0,0,1,1,0,0,1,0,0,1;                   203P    149
126,1,1,1,0,1,0,0,0,1,1,1,1,0,1,0,1,1,0,0,1,0,0,1;                   205P    150
126,1,1,1,0,1,0,0,0,1,1,1,1,0,0,0,0,1,0,0,1,0,0,1;                   207P    151
508,4,0,131,14,0,1,0,201,0,131,13,1,1,0,203,0,131,15,0,1,0,205,      209P    152
0,131,16,0,1,0,207;                                                  209P    153
510,199,1,1,209;                                                     211P    154
110,-40,290,-140,-41,290,-140;                                       213P    155
110,40,300,-140,50,300,-140;                                         215P    156
120,213,215,0,6.28318530717959;                                      217P    157
126,1,1,1,0,1,0,0,0,1,1,1,1,0,0,0,0,1.5707963267949,0,0,1,0,0,1;     219P    158
126,1,1,1,0,1,0,0,0,1,1,1,1,0,0,0,1,0,0,0,1,0,0,1;                   221P    159
126,1,1,1,0,1,0,0,0,1,1,1,1,1,1.5707963267949,0,1,0,0,0,1,0,0,1;     223P    160
126,1,1,1,0,1,0,0,0,1,1,1,1,0,1.5707963267949,0,1,                   225P    161
1.5707963267949,0,0,1,0,0,1;                                         225P    162
508,4,0,131,17,0,1,0,219,0,131,16,1,1,0,221,0,131,18,0,1,0,223,      227P    163
0,131,19,0,1,0,225;                                                  227P    164
510,217,1,1,227;                                                     229P    165
128,1,1,1,1,0,0,1,0,0,0,0,1,1,0,0,1,1,1,1,1,1,40,-290,-150,40,       231P    166
290,-150,50,-290,-150,50,290,-150,0,1,0,1;                           231P    167
126,1,1,1,0,1,0,0,0,1,1,1,1,1,0,0,0,0,0,0,1,0,0,1;                   233P    168
126,1,1,1,0,1,0,0,0,1,1,1,1,1,0,0,1,1,0,0,1,0,0,1;                   235P    169
126,1,1,1,0,1,0,0,0,1,1,1,1,0,1,0,1,1,0,0,1,0,0,1;                   237P    170
126,1,1,1,0,1,0,0,0,1,1,1,1,0,0,0,0,1,0,0,1,0,0,1;                   239P    171
508,4,0,131,20,0,1,0,233,0,131,19,1,1,0,235,0,131,21,0,1,0,237,      241P    172
0,131,22,0,1,0,239;                                                  241P    173
510,231,1,1,241;                                                     243P    174
110,-40,-290,-140,-41,-290,-140;                                     245P    175
110,40,-290,-150,50,-290,-150;                                       247P    176
120,245,247,0,6.28318530717959;                                      249P    177
126,1,1,1,0,1,0,0,0,1,1,1,1,0,0,0,0,1.5707963267949,0,0,1,0,0,1;     251P    178
126,1,1,1,0,1,0,0,0,1,1,1,1,0,0,0,1,0,0,0,1,0,0,1;                   253P    179
126,1,1,1,0,1,0,0,0,1,1,1,1,1,1.5707963267949,0,1,0,0,0,1,0,0,1;     255P    180
126,1,1,1,0,1,0,0,0,1,1,1,1,0,1.5707963267949,0,1,                   257P    181
1.5707963267949,0,0,1,0,0,1;                                         257P    182
508,4,0,131,23,0,1,0,251,0,131,22,1,1,0,253,0,131,24,0,1,0,255,      259P    183
0,131,2,0,1,0,257;                                                   259P    184
510,249,1,1,259;                                                     261P    185
128,1,1,1,1,0,0,1,0,0,0,0,1,1,0,0,1,1,1,1,1,1,40,-300,150,40,        263P    186
-300,-150,40,300,150,40,300,-150,0,1,0,1;                            263P    187
126,16,3,1,0,1,0,0,0,0,0,0.0714285714285714,0.142857142857143,       265P    188
0.214285714285714,0.285714285714286,0.357142857142857,               265P    189
0.428571428571429,0.5,0.571428571428571,0.642857142857143,           265P    190
0.714285714285714,0.785714285714286,0.857142857142857,               265P    191
0.928571428571429,1,1,1,1,1,1,1,1,1,1,1,1,1,1,1,1,1,1,1,1,1,1,       265P    192
0.0166666666666666,0,1,0.0160433347909544,0,0.99985997785434,        265P    193
0.0147966729434807,0,0.999232519488458,0.0129501949010555,0,         265P    194
0.998195526628192,0.0111504540566647,0,0.996762040060446,            265P    195
0.00942008267677008,0,0.994950086710508,0.00778084132449763,0,       265P    196
0.992782452943178,0.00625334437370528,0,0.990286398010386,           265P    197
0.00485680099480701,0,0.987493311252589,0.00360877352841071,0,       265P    198
0.984438317351005,0.00252495664474539,0,0.981159834646459,           265P    199
0.00161897996977689,0,0.977699091886672,0.000902236685903945,0,      265P    200
0.974099610197888,0.000383740255770482,0,0.970406654113039,          265P    201
7.00110728298897E-5,0,0.967913330418091,0,0,0.966666666666667,0,     265P    202
0,0,1,0,0,1;                                                         265P    203
126,1,1,1,0,1,0,0,0,1,1,1,1,0.966666666666667,0,0,                   267P    204
0.0333333333333335,0,0,0,1,0,0,1;                                    267P    205
126,16,3,1,0,1,0,0,0,0,0,0.0714285714285714,0.142857142857143,       269P    206
0.214285714285714,0.285714285714286,0.357142857142857,               269P    207
0.428571428571429,0.5,0.571428571428571,0.642857142857143,           269P    208
0.714285714285714,0.785714285714286,0.857142857142857,               269P    209
0.928571428571429,1,1,1,1,1,1,1,1,1,1,1,1,1,1,1,1,1,1,1,1,1,         269P    210
0.0333333333333337,0,0,0.0320866695819092,0,0,                       269P    211
0.0295933458869609,7.00110728301118E-5,0,0.0259003898021124,         269P    212
0.000383740255770482,0,0.0223009081133286,0.000902236685903723,      269P    213
0,0.0188401653535417,0.00161897996977689,0,0.0155616826489952,       269P    214
0.00252495664474561,0,0.0125066887474112,0.0036087735284106,0,       269P    215
0.00971360198961479,0.00485680099480701,0,0.00721754705682243,       269P    216
0.00625334437370528,0,0.00504991328949211,0.00778084132449763,0,     269P    217
0.00323795993955478,0.00942008267677041,0,0.00180447337180778,       269P    218
0.0111504540566641,0,0.000767480511542296,0.0129501949010561,0,      269P    219
0.00014002214565989,0.0147966729434797,0,0,0.0160433347909544,0,     269P    220
0,0.0166666666666666,0,0,1,0,0,1;                                    269P    221
126,1,1,1,0,1,0,0,0,1,1,1,1,0,0.0166666666666664,0,0,                271P    222
0.983333333333333,0,0,1,0,0,1;                                       271P    223
126,16,3,1,0,1,0,0,0,0,0,0.0714285714285714,0.142857142857143,       273P    224
0.214285714285714,0.285714285714286,0.357142857142857,               273P    225
0.428571428571429,0.5,0.571428571428571,0.642857142857143,           273P    226
0.714285714285714,0.785714285714286,0.857142857142857,               273P    227
0.928571428571429,1,1,1,1,1,1,1,1,1,1,1,1,1,1,1,1,1,1,1,1,1,0,       273P    228
0.983333333333333,0,0,0.983956665209046,0,0.000140022145660001,      273P    229
0.98520332705652,0,0.000767480511541629,0.987049805098944,0,         273P    230
0.00180447337180789,0.988849545943336,0,0.003237959939554,           273P    231
0.990579917323229,0,0.00504991328949189,0.992219158675502,0,         273P    232
0.00721754705682198,0.993746655626295,0,0.00971360198961446,         273P    233
0.995143199005193,0,0.0125066887474109,0.996391226471589,0,          273P    234
0.0155616826489948,0.997475043355254,0,0.0188401653535414,           273P    235
0.998381020030223,0,0.0223009081133282,0.999097763314096,0,          273P    236
0.0259003898021118,0.999616259744229,0,0.0295933458869605,           273P    237
0.99992998892717,0,0.0320866695819088,1,0,0.0333333333333333,1,      273P    238
0,0,1,0,0,1;                                                         273P    239
126,1,1,1,0,1,0,0,0,1,1,1,1,0.0333333333333331,1,0,                  275P    240
0.966666666666666,1,0,0,1,0,0,1;                                     275P    241
126,16,3,1,0,1,0,0,0,0,0,0.0714285714285714,0.142857142857143,       277P    242
0.214285714285714,0.285714285714286,0.357142857142857,               277P    243
0.428571428571429,0.5,0.571428571428571,0.642857142857143,           277P    244
0.714285714285714,0.785714285714286,0.857142857142857,               277P    245
0.928571428571429,1,1,1,1,1,1,1,1,1,1,1,1,1,1,1,1,1,1,1,1,1,         277P    246
0.966666666666666,1,0,0.967913330418091,1,0,0.970406654113039,       277P    247
0.99992998892717,0,0.974099610197888,0.999616259744229,0,            277P    248
0.977699091886671,0.999097763314096,0,0.981159834646458,             277P    249
0.998381020030223,0,0.984438317351005,0.997475043355254,0,           277P    250
0.987493311252589,0.996391226471589,0,0.990286398010385,             277P    251
0.995143199005193,0,0.992782452943178,0.993746655626295,0,           277P    252
0.994950086710508,0.992219158675502,0,0.996762040060445,             277P    253
0.990579917323229,0,0.998195526628192,0.988849545943336,0,           277P    254
0.999232519488458,0.987049805098944,0,0.99985997785434,              277P    255
0.98520332705652,0,1,0.983956665209046,0,1,0.983333333333333,0,      277P    256
0,1,0,0,1;                                                           277P    257
126,1,1,1,0,1,0,0,0,1,1,1,1,1,0.983333333333333,0,1,                 279P    258
0.0166666666666666,0,0,1,0,0,1;                                      279P    259
508,8,0,131,23,1,1,0,265,0,131,1,1,1,0,267,0,131,5,1,1,0,269,0,      281P    260
131,8,1,1,0,271,0,131,11,1,1,0,273,0,131,14,1,1,0,275,0,131,17,      281P    261
1,1,0,277,0,131,20,1,1,0,279;                                        281P    262
510,263,1,1,281;                                                     283P    263
128,1,1,1,1,0,0,1,0,0,0,0,1,1,0,0,1,1,1,1,1,1,50,-300,-150,50,       285P    264
300,-150,50,-300,150,50,300,150,0,1,0,1;                             285P    265
126,16,3,1,0,1,0,0,0,0,0,0.0714285714285714,0.142857142857143,       287P    266
0.214285714285714,0.285714285714286,0.357142857142857,               287P    267
0.428571428571429,0.5,0.571428571428571,0.642857142857143,           287P    268
0.714285714285714,0.785714285714286,0.857142857142857,               287P    269
0.928571428571429,1,1,1,1,1,1,1,1,1,1,1,1,1,1,1,1,1,1,1,1,1,0,       287P    270
0.0333333333333333,0,0,0.0320866695819088,0,7.00110728297787E-5,     287P    271
0.0295933458869609,0,0.000383740255771037,0.025900389802112,0,       287P    272
0.000902236685903668,0.0223009081133284,0,0.00161897996977717,       287P    273
0.0188401653535412,0,0.00252495664474583,0.0155616826489952,0,       287P    274
0.00360877352841099,0.0125066887474109,0,0.00485680099480718,        287P    275
0.00971360198961435,0,0.00625334437370539,0.00721754705682193,0,     287P    276
0.00778084132449747,0.00504991328949178,0,0.00942008267677064,       287P    277
0.00323795993955428,0,0.0111504540566642,0.00180447337180756,0,      287P    278
0.0129501949010559,0.000767480511541963,0,0.0147966729434802,        287P    279
0.000140022145659668,0,0.0160433347909544,0,0,                       287P    280
0.0166666666666667,0,0,0,1,0,0,1;                                    287P    281
126,1,1,1,0,1,0,0,0,1,1,1,1,0.0166666666666667,0,0,                  289P    282
0.983333333333333,0,0,0,1,0,0,1;                                     289P    283
126,16,3,1,0,1,0,0,0,0,0,0.0714285714285714,0.142857142857143,       291P    284
0.214285714285714,0.285714285714286,0.357142857142857,               291P    285
0.428571428571429,0.5,0.571428571428571,0.642857142857143,           291P    286
0.714285714285714,0.785714285714286,0.857142857142857,               291P    287
0.928571428571429,1,1,1,1,1,1,1,1,1,1,1,1,1,1,1,1,1,1,1,1,1,         291P    288
0.983333333333333,0,0,0.983956665209046,0,0,0.98520332705652,        291P    289
0.00014002214565989,0,0.987049805098944,0.000767480511542074,0,      291P    290
0.988849545943336,0.00180447337180767,0,0.990579917323229,           291P    291
0.00323795993955439,0,0.992219158675502,0.00504991328949178,0,       291P    292
0.993746655626295,0.00721754705682193,0,0.995143199005193,           291P    293
0.00971360198961452,0,0.996391226471589,0.012506688747411,0,         291P    294
0.997475043355254,0.0155616826489954,0,0.998381020030223,            291P    295
0.0188401653535413,0,0.999097763314096,0.0223009081133285,0,         291P    296
0.999616259744229,0.025900389802112,0,0.99992998892717,              291P    297
0.0295933458869609,0,1,0.0320866695819089,0,1,                       291P    298
0.0333333333333334,0,0,1,0,0,1;                                      291P    299
126,1,1,1,0,1,0,0,0,1,1,1,1,1,0.0333333333333335,0,1,                293P    300
0.966666666666667,0,0,1,0,0,1;                                       293P    301
126,16,3,1,0,1,0,0,0,0,0,0.0714285714285714,0.142857142857143,       295P    302
0.214285714285714,0.285714285714286,0.357142857142857,               295P    303
0.428571428571429,0.5,0.571428571428571,0.642857142857143,           295P    304
0.714285714285714,0.785714285714286,0.857142857142857,               295P    305
0.928571428571429,1,1,1,1,1,1,1,1,1,1,1,1,1,1,1,1,1,1,1,1,1,1,       295P    306
0.966666666666667,0,1,0.967913330418091,0,0.99992998892717,          295P    307
0.970406654113039,0,0.999616259744229,0.974099610197888,0,           295P    308
0.999097763314096,0.977699091886672,0,0.998381020030223,             295P    309
0.981159834646459,0,0.997475043355254,0.984438317351005,0,           295P    310
0.996391226471589,0.987493311252589,0,0.995143199005193,             295P    311
0.990286398010386,0,0.993746655626295,0.992782452943178,0,           295P    312
0.992219158675502,0.994950086710508,0,0.990579917323229,             295P    313
0.996762040060446,0,0.988849545943336,0.998195526628192,0,           295P    314
0.987049805098944,0.999232519488458,0,0.98520332705652,              295P    315
0.99985997785434,0,0.983956665209046,1,0,0.983333333333333,1,0,      295P    316
0,1,0,0,1;                                                           295P    317
126,1,1,1,0,1,0,0,0,1,1,1,1,0.983333333333333,1,0,                   297P    318
0.0166666666666664,1,0,0,1,0,0,1;                                    297P    319
126,16,3,1,0,1,0,0,0,0,0,0.0714285714285714,0.142857142857143,       299P    320
0.214285714285714,0.285714285714286,0.357142857142857,               299P    321
0.428571428571428,0.5,0.571428571428571,0.642857142857143,           299P    322
0.714285714285714,0.785714285714285,0.857142857142857,               299P    323
0.928571428571428,1,1,1,1,1,1,1,1,1,1,1,1,1,1,1,1,1,1,1,1,1,         299P    324
0.0166666666666664,1,0,0.0160433347909542,1,0,                       299P    325
0.0147966729434801,0.99985997785434,0,0.0129501949010559,            299P    326
0.999232519488458,0,0.0111504540566638,0.998195526628192,0,          299P    327
0.00942008267677052,0.996762040060445,0,0.00778084132449725,         299P    328
0.994950086710508,0,0.00625334437370534,0.992782452943178,0,         299P    329
0.0048568009948069,0.990286398010386,0,0.00360877352841088,          299P    330
0.987493311252589,0,0.00252495664474561,0.984438317351005,0,         299P    331
0.00161897996977678,0.981159834646459,0,0.000902236685903668,        299P    332
0.977699091886672,0,0.00038374025577087,0.974099610197888,0,         299P    333
7.00110728298897E-5,0.970406654113039,0,0,0.967913330418091,0,0,     299P    334
0.966666666666667,0,0,1,0,0,1;                                       299P    335
126,1,1,1,0,1,0,0,0,1,1,1,1,0,0.966666666666667,0,0,                 301P    336
0.0333333333333333,0,0,1,0,0,1;                                      301P    337
508,8,0,131,24,1,1,0,287,0,131,21,1,1,0,289,0,131,18,1,1,0,291,      303P    338
0,131,15,1,1,0,293,0,131,12,1,1,0,295,0,131,9,1,1,0,297,0,131,6,     303P    339
1,1,0,299,0,131,3,1,1,0,301;                                         303P    340
126,16,3,1,0,1,0,0,0,0,0,0.0714285714285714,0.142857142857143,       305P    341
0.214285714285714,0.285714285714286,0.357142857142857,               305P    342
0.428571428571429,0.5,0.571428571428571,0.642857142857143,           305P    343
0.714285714285714,0.785714285714286,0.857142857142857,               305P    344
0.928571428571429,1,1,1,1,1,1,1,1,1,1,1,1,1,1,1,1,1,1,1,1,1,         305P    345
0.95,0.966666666666667,0,0.950311665937856,0.966666666666667,0,      305P    346
0.950934996861593,0.966596655593837,0,0.951858235882805,             305P    347
0.966282926410896,0,0.952758106305001,0.965764429980763,0,           305P    348
0.953623291994948,0.96504768669689,0,0.954442912671085,              305P    349
0.964141710021921,0,0.955206661146481,0.963057893138256,0,           305P    350
0.95590493283593,0.961809865671859,0,0.956528946569128,              305P    351
0.960413322292961,0,0.957070855010961,0.958885825342169,0,           305P    352
0.957523843348445,0.957246583989896,0,0.957882214990382,             305P    353
0.955516212610003,0,0.958141463205448,0.953716471765611,0,           305P    354
0.958298327796919,0.951869993723186,0,0.958333333333334,             305P    355
0.950623331875712,0,0.958333333333334,0.95,0,0,1,0,0,1;              305P    356
126,1,1,1,0,1,0,0,0,1,1,1,1,0.958333333333333,                       307P    357
0.0500000000000001,0,0.958333333333333,0.95,0,0,1,0,0,1;             307P    358
126,16,3,1,0,1,0,0,0,0,0,0.0714285714285714,0.142857142857143,       309P    359
0.214285714285714,0.285714285714286,0.357142857142857,               309P    360
0.428571428571429,0.5,0.571428571428571,0.642857142857143,           309P    361
0.714285714285714,0.785714285714286,0.857142857142857,               309P    362
0.928571428571429,1,1,1,1,1,1,1,1,1,1,1,1,1,1,1,1,1,1,1,1,1,         309P    363
0.958333333333333,0.05,0,0.958333333333333,0.0493766681242877,0,     309P    364
0.958298327796918,0.0481300062768137,0,0.958141463205448,            309P    365
0.0462835282343892,0,0.957882214990381,0.0444837873899975,0,         309P    366
0.957523843348445,0.042753416010104,0,0.95707085501096,              309P    367
0.0411141746578307,0,0.956528946569128,0.0395866777070388,0,         309P    368
0.95590493283593,0.0381901343281404,0,0.955206661146481,             309P    369
0.0369421068617443,0,0.954442912671085,0.0358582899780793,0,         309P    370
0.953623291994948,0.0349523133031103,0,0.952758106305001,            309P    371
0.0342355700192372,0,0.951858235882805,0.0337170735891042,0,         309P    372
0.950934996861593,0.0334033444061632,0,0.950311665937856,            309P    373
0.0333333333333333,0,0.95,0.0333333333333333,0,0,1,0,0,1;            309P    374
126,1,1,1,0,1,0,0,0,1,1,1,1,0.05,0.0333333333333333,0,0.95,          311P    375
0.0333333333333334,0,0,1,0,0,1;                                      311P    376
126,16,3,1,0,1,0,0,0,0,0,0.0714285714285714,0.142857142857143,       313P    377
0.214285714285714,0.285714285714286,0.357142857142857,               313P    378
0.428571428571429,0.5,0.571428571428572,0.642857142857143,           313P    379
0.714285714285714,0.785714285714286,0.857142857142857,               313P    380
0.928571428571429,1,1,1,1,1,1,1,1,1,1,1,1,1,1,1,1,1,1,1,1,1,         313P    381
0.05,0.0333333333333333,0,0.0496883340621439,0.0333333333333333,     313P    382
0,0.0490650031384067,0.033403344406163,0,0.0481417641171948,         313P    383
0.0337170735891046,0,0.0472418936949986,0.034235570019237,0,         313P    384
0.046376708005052,0.0349523133031105,0,0.0455570873289154,           313P    385
0.0358582899780792,0,0.0447933388535192,0.0369421068617443,0,        313P    386
0.0440950671640701,0.0381901343281404,0,0.0434710534308722,          313P    387
0.0395866777070389,0,0.0429291449890395,0.0411141746578309,0,        313P    388
0.0424761566515551,0.0427534160101039,0,0.0421177850096185,          313P    389
0.0444837873899976,0,0.0418585367945519,0.0462835282343894,0,        313P    390
0.0417016722030818,0.0481300062768139,0,0.0416666666666666,          313P    391
0.0493766681242878,0,0.0416666666666666,0.0500000000000001,0,0,      313P    392
1,0,0,1;                                                             313P    393
126,1,1,1,0,1,0,0,0,1,1,1,1,0.0416666666666666,0.95,0,               315P    394
0.0416666666666666,0.0500000000000001,0,0,1,0,0,1;                   315P    395
126,16,3,1,0,1,0,0,0,0,0,0.0714285714285714,0.142857142857143,       317P    396
0.214285714285714,0.285714285714286,0.357142857142857,               317P    397
0.428571428571429,0.5,0.571428571428571,0.642857142857143,           317P    398
0.714285714285714,0.785714285714286,0.857142857142857,               317P    399
0.928571428571428,1,1,1,1,1,1,1,1,1,1,1,1,1,1,1,1,1,1,1,1,1,         317P    400
0.0416666666666666,0.95,0,0.0416666666666666,0.950623331875712,      317P    401
0,0.0417016722030816,0.951869993723186,0,0.0418585367945523,         317P    402
0.953716471765611,0,0.0421177850096183,0.955516212610003,0,          317P    403
0.0424761566515551,0.957246583989896,0,0.0429291449890395,           317P    404
0.958885825342169,0,0.043471053430872,0.960413322292961,0,           317P    405
0.0440950671640704,0.961809865671859,0,0.0447933388535193,           317P    406
0.963057893138256,0,0.0455570873289153,0.964141710021921,0,          317P    407
0.0463767080050519,0.965047686696889,0,0.0472418936949988,           317P    408
0.965764429980763,0,0.0481417641171947,0.966282926410895,0,          317P    409
0.0490650031384066,0.966596655593837,0,0.0496883340621439,           317P    410
0.966666666666667,0,0.05,0.966666666666667,0,0,1,0,0,1;              317P    411
126,1,1,1,0,1,0,0,0,1,1,1,1,0.95,0.966666666666667,0,0.05,           319P    412
0.966666666666667,0,0,1,0,0,1;                                       319P    413
508,8,0,131,25,1,1,0,305,0,131,26,0,1,0,307,0,131,27,1,1,0,309,      321P    414
0,131,28,0,1,0,311,0,131,29,1,1,0,313,0,131,30,0,1,0,315,0,131,      321P    415
31,1,1,0,317,0,131,32,0,1,0,319;                                     321P    416
510,285,2,1,303,321;                                                 323P    417
110,25,270,135,24,270,135;                                           325P    418
110,45,270,140,50,270,140;                                           327P    419
120,325,327,0,6.28318530717959;                                      329P    420
126,1,1,1,0,1,0,0,0,1,1,1,1,0,1.5707963267949,0,1,                   331P    421
1.5707963267949,0,0,1,0,0,1;                                         331P    422
126,1,1,1,0,1,0,0,0,1,1,1,1,1,0,0,1,1.5707963267949,0,0,1,0,0,1;     333P    423
126,1,1,1,0,1,0,0,0,1,1,1,1,0,0,0,1,0,0,0,1,0,0,1;                   335P    424
126,1,1,1,0,1,0,0,0,1,1,1,1,0,1.5707963267949,0,0,0,0,0,1,0,0,1;     337P    425
508,4,0,131,33,1,1,0,331,0,131,25,0,1,0,333,0,131,34,0,1,0,335,      339P    426
0,131,35,0,1,0,337;                                                  339P    427
510,329,1,1,339;                                                     341P    428
128,1,1,1,1,0,0,1,0,0,0,0,1,1,0,0,1,1,1,1,1,1,45,275,-135,45,        343P    429
275,135,50,275,-135,50,275,135,0,1,0,1;                              343P    430
126,1,1,1,0,1,0,0,0,1,1,1,1,1,0,0,1,1,0,0,1,0,0,1;                   345P    431
126,1,1,1,0,1,0,0,0,1,1,1,1,0,0,0,1,0,0,0,1,0,0,1;                   347P    432
126,1,1,1,0,1,0,0,0,1,1,1,1,0,0,0,0,1,0,0,1,0,0,1;                   349P    433
126,1,1,1,0,1,0,0,0,1,1,1,1,0,1,0,1,1,0,0,1,0,0,1;                   351P    434
508,4,0,131,33,0,1,0,345,0,131,36,0,1,0,347,0,131,37,1,1,0,349,      353P    435
0,131,26,1,1,0,351;                                                  353P    436
510,343,1,1,353;                                                     355P    437
110,25,270,-135,24,270,-135;                                         357P    438
110,45,275,-135,50,275,-135;                                         359P    439
120,357,359,0,6.28318530717959;                                      361P    440
126,1,1,1,0,1,0,0,0,1,1,1,1,0,1.5707963267949,0,1,                   363P    441
1.5707963267949,0,0,1,0,0,1;                                         363P    442
126,1,1,1,0,1,0,0,0,1,1,1,1,1,0,0,1,1.5707963267949,0,0,1,0,0,1;     365P    443
126,1,1,1,0,1,0,0,0,1,1,1,1,0,0,0,1,0,0,0,1,0,0,1;                   367P    444
126,1,1,1,0,1,0,0,0,1,1,1,1,0,1.5707963267949,0,0,0,0,0,1,0,0,1;     369P    445
508,4,0,131,38,1,1,0,363,0,131,27,0,1,0,365,0,131,37,0,1,0,367,      371P    446
0,131,39,0,1,0,369;                                                  371P    447
510,361,1,1,371;                                                     373P    448
128,1,1,1,1,0,0,1,0,0,0,0,1,1,0,0,1,1,1,1,1,1,45,-270,-140,45,       375P    449
270,-140,50,-270,-140,50,270,-140,0,1,0,1;                           375P    450
126,1,1,1,0,1,0,0,0,1,1,1,1,0,0,0,0,1,0,0,1,0,0,1;                   377P    451
126,1,1,1,0,1,0,0,0,1,1,1,1,0,1,0,1,1,0,0,1,0,0,1;                   379P    452
126,1,1,1,0,1,0,0,0,1,1,1,1,1,0,0,1,1,0,0,1,0,0,1;                   381P    453
126,1,1,1,0,1,0,0,0,1,1,1,1,0,0,0,1,0,0,0,1,0,0,1;                   383P    454
508,4,0,131,40,1,1,0,377,0,131,28,1,1,0,379,0,131,38,0,1,0,381,      385P    455
0,131,41,0,1,0,383;                                                  385P    456
510,375,1,1,385;                                                     387P    457
110,25,-270,-135,24,-270,-135;                                       389P    458
110,45,-270,-140,50,-270,-140;                                       391P    459
120,389,391,0,6.28318530717959;                                      393P    460
126,1,1,1,0,1,0,0,0,1,1,1,1,0,1.5707963267949,0,1,                   395P    461
1.5707963267949,0,0,1,0,0,1;                                         395P    462
126,1,1,1,0,1,0,0,0,1,1,1,1,1,0,0,1,1.5707963267949,0,0,1,0,0,1;     397P    463
126,1,1,1,0,1,0,0,0,1,1,1,1,0,0,0,1,0,0,0,1,0,0,1;                   399P    464
126,1,1,1,0,1,0,0,0,1,1,1,1,0,1.5707963267949,0,0,0,0,0,1,0,0,1;     401P    465
508,4,0,131,42,1,1,0,395,0,131,29,0,1,0,397,0,131,40,0,1,0,399,      403P    466
0,131,43,0,1,0,401;                                                  403P    467
510,393,1,1,403;                                                     405P    468
128,1,1,1,1,0,0,1,0,0,0,0,1,1,0,0,1,1,1,1,1,1,45,-275,135,45,        407P    469
-275,-135,50,-275,135,50,-275,-135,0,1,0,1;                          407P    470
126,1,1,1,0,1,0,0,0,1,1,1,1,0,0,0,0,1,0,0,1,0,0,1;                   409P    471
126,1,1,1,0,1,0,0,0,1,1,1,1,0,1,0,1,1,0,0,1,0,0,1;                   411P    472
126,1,1,1,0,1,0,0,0,1,1,1,1,1,0,0,1,1,0,0,1,0,0,1;                   413P    473
126,1,1,1,0,1,0,0,0,1,1,1,1,0,0,0,1,0,0,0,1,0,0,1;                   415P    474
508,4,0,131,44,1,1,0,409,0,131,30,1,1,0,411,0,131,42,0,1,0,413,      417P    475
0,131,45,0,1,0,415;                                                  417P    476
510,407,1,1,417;                                                     419P    477
110,25,-270,135,24,-270,135;                                         421P    478
110,45,-275,135,50,-275,135;                                         423P    479
120,421,423,0,6.28318530717959;                                      425P    480
126,1,1,1,0,1,0,0,0,1,1,1,1,0,1.5707963267949,0,1,                   427P    481
1.5707963267949,0,0,1,0,0,1;                                         427P    482
126,1,1,1,0,1,0,0,0,1,1,1,1,1,0,0,1,1.5707963267949,0,0,1,0,0,1;     429P    483
126,1,1,1,0,1,0,0,0,1,1,1,1,0,0,0,1,0,0,0,1,0,0,1;                   431P    484
126,1,1,1,0,1,0,0,0,1,1,1,1,0,1.5707963267949,0,0,0,0,0,1,0,0,1;     433P    485
508,4,0,131,46,1,1,0,427,0,131,31,0,1,0,429,0,131,44,0,1,0,431,      435P    486
0,131,47,0,1,0,433;                                                  435P    487
510,425,1,1,435;                                                     437P    488
128,1,1,1,1,0,0,1,0,0,0,0,1,1,0,0,1,1,1,1,1,1,45,270,140,45,         439P    489
-270,140,50,270,140,50,-270,140,0,1,0,1;                             439P    490
126,1,1,1,0,1,0,0,0,1,1,1,1,0,0,0,0,1,0,0,1,0,0,1;                   441P    491
126,1,1,1,0,1,0,0,0,1,1,1,1,0,1,0,1,1,0,0,1,0,0,1;                   443P    492
126,1,1,1,0,1,0,0,0,1,1,1,1,1,0,0,1,1,0,0,1,0,0,1;                   445P    493
126,1,1,1,0,1,0,0,0,1,1,1,1,0,0,0,1,0,0,0,1,0,0,1;                   447P    494
508,4,0,131,34,1,1,0,441,0,131,32,1,1,0,443,0,131,46,0,1,0,445,      449P    495
0,131,48,0,1,0,447;                                                  449P    496
510,439,1,1,449;                                                     451P    497
128,1,1,1,1,0,0,1,0,0,0,0,1,1,0,0,1,1,1,1,1,1,45,-275,-140,45,       453P    498
275,-140,45,-275,140,45,275,140,0,1,0,1;                             453P    499
126,16,3,1,0,1,0,0,0,0,0,0.0714285714285714,0.142857142857143,       455P    500
0.214285714285714,0.285714285714286,0.357142857142857,               455P    501
0.428571428571429,0.5,0.571428571428571,0.642857142857143,           455P    502
0.714285714285714,0.785714285714286,0.857142857142857,               455P    503
0.928571428571429,1,1,1,1,1,1,1,1,1,1,1,1,1,1,1,1,1,1,1,1,1,1,       455P    504
0.982142857142857,0,1,0.982810712723977,0,0.999961812142093,         455P    505
0.984146421846271,0,0.999790687133216,0.98612479117744,0,            455P    506
0.999507870898598,0.988053084939288,0,0.999116920016485,             455P    507
0.989907054274888,0,0.998622750921048,0.991663384295181,0,           455P    508
0.998031578075412,0.99329998817103,0,0.997350835821014,              455P    509
0.994796284648421,0,0.99658908488707,0.996133456933845,0,            455P    510
0.995755904732092,0.997294689309201,0,0.994861773085398,             455P    511
0.99826537860381,0,0.99391793415091,0.999033317836532,0,             455P    512
0.992936257326697,0.99958884972596,0,0.991929087485375,              455P    513
0.999924988136254,0,0.991249090114025,1,0,0.990909090909091,1,0,     455P    514
0,1,0,0,1;                                                           455P    515
126,1,1,1,0,1,0,0,0,1,1,1,1,0.990909090909091,1,0,                   457P    516
0.00909090909090909,1,0,0,1,0,0,1;                                   457P    517
126,16,3,1,0,1,0,0,0,0,0,0.0714285714285714,0.142857142857143,       459P    518
0.214285714285714,0.285714285714286,0.357142857142857,               459P    519
0.428571428571429,0.5,0.571428571428571,0.642857142857143,           459P    520
0.714285714285714,0.785714285714286,0.857142857142857,               459P    521
0.928571428571428,1,1,1,1,1,1,1,1,1,1,1,1,1,1,1,1,1,1,1,1,1,         459P    522
0.00909090909090909,1,0,0.00875090988597515,1,0,                     459P    523
0.00807091251462566,0.999924988136254,0,0.00706374267330345,         459P    524
0.99958884972596,0,0.00608206584908938,0.999033317836532,0,          459P    525
0.00513822691460208,0.99826537860381,0,0.0042440952679077,           459P    526
0.997294689309201,0,0.00341091511293007,0.996133456933845,0,         459P    527
0.00264916417898575,0.994796284648421,0,0.00196842192458774,         459P    528
0.99329998817103,0,0.00137724907895209,0.991663384295181,0,          459P    529
0.000883079983514834,0.989907054274889,0,0.00049212910140195,        459P    530
0.988053084939288,0,0.000209312866784106,0.98612479117744,0,         459P    531
3.8187857907046E-5,0.984146421846271,0,0,0.982810712723977,0,0,      459P    532
0.982142857142857,0,0,1,0,0,1;                                       459P    533
126,1,1,1,0,1,0,0,0,1,1,1,1,0,0.982142857142857,0,0,                 461P    534
0.0178571428571429,0,0,1,0,0,1;                                      461P    535
126,16,3,1,0,1,0,0,0,0,0,0.0714285714285714,0.142857142857143,       463P    536
0.214285714285714,0.285714285714286,0.357142857142857,               463P    537
0.428571428571429,0.5,0.571428571428572,0.642857142857143,           463P    538
0.714285714285714,0.785714285714286,0.857142857142857,               463P    539
0.928571428571429,1,1,1,1,1,1,1,1,1,1,1,1,1,1,1,1,1,1,1,1,1,0,       463P    540
0.0178571428571429,0,0,0.0171892872760226,0,3.81878579072126E-5,     463P    541
0.0158535781537291,0,0.000209312866784328,0.0138752088225602,0,      463P    542
0.000492129101402061,0.0119469150607117,0,0.000883079983514723,      463P    543
0.0100929457251113,0,0.00137724907895226,0.00833661570481881,0,      463P    544
0.00196842192458774,0.00670001182897012,0,0.00264916417898564,       463P    545
0.00520371535157904,0,0.00341091511293029,0.00386654306615475,0,     463P    546
0.0042440952679077,0.00270531069079921,0,0.00513822691460197,        463P    547
0.00173462139618974,0,0.00608206584908949,0.000966682163468291,      463P    548
0,0.00706374267330312,0.000411150274040317,0,                        463P    549
0.00807091251462577,7.50118637464214E-5,0,0.00875090988597515,0,     463P    550
0,0.00909090909090909,0,0,0,1,0,0,1;                                 463P    551
126,1,1,1,0,1,0,0,0,1,1,1,1,0.00909090909090909,0,0,                 465P    552
0.990909090909091,0,0,0,1,0,0,1;                                     465P    553
126,16,3,1,0,1,0,0,0,0,0,0.0714285714285714,0.142857142857143,       467P    554
0.214285714285714,0.285714285714286,0.357142857142857,               467P    555
0.428571428571429,0.5,0.571428571428571,0.642857142857143,           467P    556
0.714285714285714,0.785714285714286,0.857142857142857,               467P    557
0.928571428571429,1,1,1,1,1,1,1,1,1,1,1,1,1,1,1,1,1,1,1,1,1,         467P    558
0.990909090909091,0,0,0.991249090114025,0,0,0.991929087485375,       467P    559
7.50118637463104E-5,0,0.992936257326697,0.000411150274040428,0,      467P    560
0.99391793415091,0.000966682163468291,0,0.994861773085398,           467P    561
0.00173462139618991,0,0.995755904732092,0.0027053106907991,0,        467P    562
0.99658908488707,0.00386654306615464,0,0.997350835821014,            467P    563
0.00520371535157915,0,0.998031578075412,0.00670001182897012,0,       467P    564
0.998622750921048,0.00833661570481892,0,0.999116920016485,           467P    565
0.0100929457251113,0,0.999507870898598,0.0119469150607117,0,         467P    566
0.999790687133216,0.0138752088225598,0,0.999961812142093,            467P    567
0.0158535781537288,0,1,0.0171892872760225,0,1,                       467P    568
0.0178571428571428,0,0,1,0,0,1;                                      467P    569
126,1,1,1,0,1,0,0,0,1,1,1,1,1,0.0178571428571429,0,1,                469P    570
0.982142857142857,0,0,1,0,0,1;                                       469P    571
508,8,0,131,35,1,1,0,455,0,131,48,1,1,0,457,0,131,47,1,1,0,459,      471P    572
0,131,45,1,1,0,461,0,131,43,1,1,0,463,0,131,41,1,1,0,465,0,131,      471P    573
39,1,1,0,467,0,131,36,1,1,0,469;                                     471P    574
510,453,1,1,471;                                                     473P    575
514,19,147,1,165,1,179,1,197,1,211,1,229,1,243,1,261,1,283,0,        475P    576
323,1,341,0,355,0,373,0,387,0,405,0,419,0,437,0,451,0,473,1;         475P    577
186,475,1,0;                                                         477P    578
S      2G      3D    478P    578                                        T      1
