IGES file generated by C3D Converter 1.8                                S      1
translator by C3D Labs., translator version IGESOUT-5.1.                S      2
1H,,1H;,7H Деталь,46HE:\Сдача задания\Модели\IGES\П - крепление.igs,0H,3G      1
H1.0,32,38,6,308,15,7Hunknown,1,2,2HMM,1000,1,16H-17740206:063325,1E-6,5G      2
0000,5Hno1se,7Hunknown,0,0,13H260306:063326;                            G      3
     502       1       0       0       0       0       0       000010000D      1
     502       0       0       9       1                               0D      2
     124      10       0       0       0       0       0       001020201D      3
     124       0       0       1       0                               0D      4
     100      11       0       0       0       0       3       000010000D      5
     100       1       0       1       0                               0D      6
     110      12       0       0       0       0       0       000010000D      7
     110       1       0       1       0                               0D      8
     124      13       0       0       0       0       0       001020201D      9
     124       1       0       2       0                               0D     10
     100      15       0       0       0       0       9       000010000D     11
     100       1       0       1       0                               0D     12
     110      16       0       0       0       0       0       000010000D     13
     110       1       0       1       0                               0D     14
     110      17       0       0       0       0       0       000010000D     15
     110       1       0       1       0                               0D     16
     110      18       0       0       0       0       0       000010000D     17
     110       1       0       1       0                               0D     18
     110      19       0       0       0       0       0       000010000D     19
     110       1       0       1       0                               0D     20
     110      20       0       0       0       0       0       000010000D     21
     110       1       0       1       0                               0D     22
     110      21       0       0       0       0       0       000010000D     23
     110       1       0       1       0                               0D     24
     110      22       0       0       0       0       0       000010000D     25
     110       1       0       1       0                               0D     26
     124      23       0       0       0       0       0       001020201D     27
     124       1       0       2       0                               0D     28
     100      25       0       0       0       0      27       000010000D     29
     100       1       0       1       0                               0D     30
     110      26       0       0       0       0       0       000010000D     31
     110       1       0       1       0                               0D     32
     110      27       0       0       0       0       0       000010000D     33
     110       1       0       2       0                               0D     34
     110      29       0       0       0       0       0       000010000D     35
     110       1       0       1       0                               0D     36
     110      30       0       0       0       0       0       000010000D     37
     110       1       0       1       0                               0D     38
     110      31       0       0       0       0       0       000010000D     39
     110       1       0       1       0                               0D     40
     110      32       0       0       0       0       0       000010000D     41
     110       1       0       1       0                               0D     42
     110      33       0       0       0       0       0       000010000D     43
     110       1       0       1       0                               0D     44
     124      34       0       0       0       0       0       001020201D     45
     124       1       0       1       0                               0D     46
     100      35       0       0       0       0      45       000010000D     47
     100       1       0       1       0                               0D     48
     110      36       0       0       0       0       0       000010000D     49
     110       1       0       1       0                               0D     50
     110      37       0       0       0       0       0       000010000D     51
     110       1       0       1       0                               0D     52
     110      38       0       0       0       0       0       000010000D     53
     110       1       0       1       0                               0D     54
     110      39       0       0       0       0       0       000010000D     55
     110       1       0       1       0                               0D     56
     110      40       0       0       0       0       0       000010000D     57
     110       1       0       1       0                               0D     58
     110      41       0       0       0       0       0       000010000D     59
     110       1       0       1       0                               0D     60
     110      42       0       0       0       0       0       000010000D     61
     110       1       0       2       0                               0D     62
     110      44       0       0       0       0       0       000010000D     63
     110       1       0       1       0                               0D     64
     110      45       0       0       0       0       0       000010000D     65
     110       1       0       1       0                               0D     66
     110      46       0       0       0       0       0       000010000D     67
     110       1       0       1       0                               0D     68
     110      47       0       0       0       0       0       000010000D     69
     110       1       0       2       0                               0D     70
     504      49       0       0       0       0       0       000010000D     71
     504       1       0       6       1                               0D     72
     128      55       0       0       0       0       0       000010000D     73
     128       1       0       2       0                               0D     74
     126      57       0       0       0       0       0       001010500D     75
     126       1       0      16       0                               0D     76
     126      73       0       0       0       0       0       001010500D     77
     126       1       0       2       0                               0D     78
     126      75       0       0       0       0       0       001010500D     79
     126       1       0      16       0                               0D     80
     126      91       0       0       0       0       0       001010500D     81
     126       1       0       2       0                               0D     82
     126      93       0       0       0       0       0       001010500D     83
     126       1       0       2       0                               0D     84
     126      95       0       0       0       0       0       001010500D     85
     126       1       0       2       0                               0D     86
     126      97       0       0       0       0       0       001010500D     87
     126       1       0       3       0                               0D     88
     126     100       0       0       0       0       0       001010500D     89
     126       1       0       2       0                               0D     90
     126     102       0       0       0       0       0       001010500D     91
     126       1       0       2       0                               0D     92
     126     104       0       0       0       0       0       001010500D     93
     126       1       0       2       0                               0D     94
     508     106       0       0       0       0       0       000010000D     95
     508       1       0       3       1                               0D     96
     314     109       0       0       0       0       0       001000200D     97
     314       1       0       1       0                               0D     98
     510     110       0       0       0       0       0       000010000D     99
     510       1     -97       1       1                               0D    100
     128     111       0       0       0       0       0       000010000D    101
     128       1       0       2       0                               0D    102
     126     113       0       0       0       0       0       001010500D    103
     126       1       0      16       0                               0D    104
     126     129       0       0       0       0       0       001010500D    105
     126       1       0       2       0                               0D    106
     126     131       0       0       0       0       0       001010500D    107
     126       1       0       2       0                               0D    108
     126     133       0       0       0       0       0       001010500D    109
     126       1       0       2       0                               0D    110
     126     135       0       0       0       0       0       001010500D    111
     126       1       0       3       0                               0D    112
     126     138       0       0       0       0       0       001010500D    113
     126       1       0       2       0                               0D    114
     126     140       0       0       0       0       0       001010500D    115
     126       1       0       2       0                               0D    116
     126     142       0       0       0       0       0       001010500D    117
     126       1       0       2       0                               0D    118
     126     144       0       0       0       0       0       001010500D    119
     126       1       0      16       0                               0D    120
     126     160       0       0       0       0       0       001010500D    121
     126       1       0       2       0                               0D    122
     508     162       0       0       0       0       0       000010000D    123
     508       1       0       3       1                               0D    124
     510     165       0       0       0       0       0       000010000D    125
     510       1     -97       1       1                               0D    126
     128     166       0       0       0       0       0       000010000D    127
     128       1       0       2       0                               0D    128
     126     168       0       0       0       0       0       001010500D    129
     126       1       0       1       0                               0D    130
     126     169       0       0       0       0       0       001010500D    131
     126       1       0       1       0                               0D    132
     126     170       0       0       0       0       0       001010500D    133
     126       1       0       1       0                               0D    134
     126     171       0       0       0       0       0       001010500D    135
     126       1       0       1       0                               0D    136
     508     172       0       0       0       0       0       000010000D    137
     508       1       0       2       1                               0D    138
     510     174       0       0       0       0       0       000010000D    139
     510       1     -97       1       1                               0D    140
     128     175       0       0       0       0       0       000010000D    141
     128       1       0       2       0                               0D    142
     126     177       0       0       0       0       0       001010500D    143
     126       1       0       1       0                               0D    144
     126     178       0       0       0       0       0       001010500D    145
     126       1       0       1       0                               0D    146
     126     179       0       0       0       0       0       001010500D    147
     126       1       0       1       0                               0D    148
     126     180       0       0       0       0       0       001010500D    149
     126       1       0       1       0                               0D    150
     508     181       0       0       0       0       0       000010000D    151
     508       1       0       2       1                               0D    152
     510     183       0       0       0       0       0       000010000D    153
     510       1     -97       1       1                               0D    154
     128     184       0       0       0       0       0       000010000D    155
     128       1       0       3       0                               0D    156
     126     187       0       0       0       0       0       001010500D    157
     126       1       0       1       0                               0D    158
     126     188       0       0       0       0       0       001010500D    159
     126       1       0       1       0                               0D    160
     126     189       0       0       0       0       0       001010500D    161
     126       1       0       1       0                               0D    162
     126     190       0       0       0       0       0       001010500D    163
     126       1       0       1       0                               0D    164
     508     191       0       0       0       0       0       000010000D    165
     508       1       0       2       1                               0D    166
     510     193       0       0       0       0       0       000010000D    167
     510       1     -97       1       1                               0D    168
     110     194       0       0       0       0       0       001010000D    169
     110       1       0       1       0                               0D    170
     110     195       0       0       0       0       0       001010001D    171
     110       1       0       1       0                               0D    172
     120     196       0       0       0       0       0       000010000D    173
     120       1       0       1       0                               0D    174
     126     197       0       0       0       0       0       001010500D    175
     126       1       0       2       0                               0D    176
     126     199       0       0       0       0       0       001010500D    177
     126       1       0       1       0                               0D    178
     126     200       0       0       0       0       0       001010500D    179
     126       1       0       1       0                               0D    180
     126     201       0       0       0       0       0       001010500D    181
     126       1       0       1       0                               0D    182
     508     202       0       0       0       0       0       000010000D    183
     508       1       0       2       1                               0D    184
     510     204       0       0       0       0       0       000010000D    185
     510       1     -97       1       1                               0D    186
     128     205       0       0       0       0       0       000010000D    187
     128       1       0       3       0                               0D    188
     126     208       0       0       0       0       0       001010500D    189
     126       1       0       1       0                               0D    190
     126     209       0       0       0       0       0       001010500D    191
     126       1       0       1       0                               0D    192
     126     210       0       0       0       0       0       001010500D    193
     126       1       0       1       0                               0D    194
     126     211       0       0       0       0       0       001010500D    195
     126       1       0       1       0                               0D    196
     508     212       0       0       0       0       0       000010000D    197
     508       1       0       2       1                               0D    198
     510     214       0       0       0       0       0       000010000D    199
     510       1     -97       1       1                               0D    200
     128     215       0       0       0       0       0       000010000D    201
     128       1       0       3       0                               0D    202
     126     218       0       0       0       0       0       001010500D    203
     126       1       0       1       0                               0D    204
     126     219       0       0       0       0       0       001010500D    205
     126       1       0       1       0                               0D    206
     126     220       0       0       0       0       0       001010500D    207
     126       1       0       1       0                               0D    208
     126     221       0       0       0       0       0       001010500D    209
     126       1       0       1       0                               0D    210
     508     222       0       0       0       0       0       000010000D    211
     508       1       0       2       1                               0D    212
     510     224       0       0       0       0       0       000010000D    213
     510       1     -97       1       1                               0D    214
     128     225       0       0       0       0       0       000010000D    215
     128       1       0       3       0                               0D    216
     126     228       0       0       0       0       0       001010500D    217
     126       1       0       1       0                               0D    218
     126     229       0       0       0       0       0       001010500D    219
     126       1       0       1       0                               0D    220
     126     230       0       0       0       0       0       001010500D    221
     126       1       0       1       0                               0D    222
     126     231       0       0       0       0       0       001010500D    223
     126       1       0       1       0                               0D    224
     508     232       0       0       0       0       0       000010000D    225
     508       1       0       2       1                               0D    226
     510     234       0       0       0       0       0       000010000D    227
     510       1     -97       1       1                               0D    228
     128     235       0       0       0       0       0       000010000D    229
     128       1       0       3       0                               0D    230
     126     238       0       0       0       0       0       001010500D    231
     126       1       0       1       0                               0D    232
     126     239       0       0       0       0       0       001010500D    233
     126       1       0       1       0                               0D    234
     126     240       0       0       0       0       0       001010500D    235
     126       1       0       1       0                               0D    236
     126     241       0       0       0       0       0       001010500D    237
     126       1       0       1       0                               0D    238
     508     242       0       0       0       0       0       000010000D    239
     508       1       0       2       1                               0D    240
     510     244       0       0       0       0       0       000010000D    241
     510       1     -97       1       1                               0D    242
     128     245       0       0       0       0       0       000010000D    243
     128       1       0       3       0                               0D    244
     126     248       0       0       0       0       0       001010500D    245
     126       1       0       1       0                               0D    246
     126     249       0       0       0       0       0       001010500D    247
     126       1       0       1       0                               0D    248
     126     250       0       0       0       0       0       001010500D    249
     126       1       0       1       0                               0D    250
     126     251       0       0       0       0       0       001010500D    251
     126       1       0       1       0                               0D    252
     508     252       0       0       0       0       0       000010000D    253
     508       1       0       2       1                               0D    254
     510     254       0       0       0       0       0       000010000D    255
     510       1     -97       1       1                               0D    256
     110     255       0       0       0       0       0       001010000D    257
     110       1       0       1       0                               0D    258
     110     256       0       0       0       0       0       001010001D    259
     110       1       0       1       0                               0D    260
     120     257       0       0       0       0       0       000010000D    261
     120       1       0       1       0                               0D    262
     126     258       0       0       0       0       0       001010500D    263
     126       1       0       2       0                               0D    264
     126     260       0       0       0       0       0       001010500D    265
     126       1       0       1       0                               0D    266
     126     261       0       0       0       0       0       001010500D    267
     126       1       0       1       0                               0D    268
     126     262       0       0       0       0       0       001010500D    269
     126       1       0       1       0                               0D    270
     508     263       0       0       0       0       0       000010000D    271
     508       1       0       2       1                               0D    272
     510     265       0       0       0       0       0       000010000D    273
     510       1     -97       1       1                               0D    274
     514     266       0       0       0       0       0       000010000D    275
     514       1       0       2       1                               0D    276
     186     268       0       0       0       0       0       000010000D    277
     186       1       0       1       0                               0D    278
502,20,-1177.5,100,100,-1277.5,100,-5.06434935902208E-15,1177.5,       1P      1
100,100,1277.5,100,9.473903143468E-15,1277.5,99.9999999999999,         1P      2
-500,1177.5,99.9999999999999,-500,1177.5,100,                          1P      3
2.69587357315508E-15,-1177.5,100,6.77802957031292E-15,-1177.5,         1P      4
100,-500,-1277.5,100,-500,-1277.5,-100,9.473903143468E-15,             1P      5
-1177.5,-100,100,-1277.5,-99.9999999999999,-500,-1177.5,               1P      6
-99.9999999999999,-500,-1177.5,-100,2.69587357315508E-15,1177.5,       1P      7
-100,-5.06434935902208E-15,1177.5,-100,-500,1277.5,-100,-500,          1P      8
1277.5,-100,-5.06434935902208E-15,1177.5,-100,100;                     1P      9
124,-1,0,0,-1177.5,0,0,1,100,0,1,0,0;                                  3P     10
100,0,0,0,100,0,6.12323399573677E-15,100;                              5P     11
110,1177.5,100,100,-1177.5,100,100;                                    7P     12
124,-2.27373675443232E-15,1,0,1177.5,0,0,1,100,1,                      9P     13
2.27373675443232E-15,0,0;                                              9P     14
100,0,0,0,100,0,-1.27103528959282E-13,100;                            11P     15
110,1277.5,100,-500,1277.5,100,2.8421709430404E-14;                   13P     16
110,1177.5,99.9999999999999,-500,1277.5,99.9999999999999,-500;        15P     17
110,1177.5,100,-500,1177.5,100,0;                                     17P     18
110,1177.5,100,0,-1177.5,100,0;                                       19P     19
110,-1177.5,100,1.4210854715202E-14,-1177.5,100,-500;                 21P     20
110,-1177.5,100,-500,-1277.5,100,-500;                                23P     21
110,-1277.5,100,-1.4210854715202E-14,-1277.5,100,-500;                25P     22
124,2.27373675443232E-15,-1,0,-1177.5,0,0,-1,-100,1,                  27P     23
2.27373675443232E-15,0,0;                                             27P     24
100,0,0,0,100,0,-1.27103528959282E-13,100;                            29P     25
110,-1277.5,-100,-500,-1277.5,-100,2.8421709430404E-14;               31P     26
110,-1177.5,-99.9999999999999,-500,-1277.5,-99.9999999999999,         33P     27
-500;                                                                 33P     28
110,-1177.5,-100,-500,-1177.5,-100,0;                                 35P     29
110,-1177.5,-100,0,1177.5,-100,0;                                     37P     30
110,1177.5,-100,-1.4210854715202E-14,1177.5,-100,-500;                39P     31
110,1177.5,-100,-500,1277.5,-100,-500;                                41P     32
110,1277.5,-100,-1.4210854715202E-14,1277.5,-100,-500;                43P     33
124,1,0,0,1177.5,0,0,-1,-100,0,1,0,0;                                 45P     34
100,0,0,0,100,0,6.12323399573677E-15,100;                             47P     35
110,-1177.5,-100,100,1177.5,-100,100;                                 49P     36
110,-1177.5,-100,100,-1177.5,100,100;                                 51P     37
110,1177.5,100,100,1177.5,-100,100;                                   53P     38
110,-1177.5,100,0,-1177.5,-100,0;                                     55P     39
110,1177.5,-100,0,1177.5,100,0;                                       57P     40
110,-1177.5,100,-500,-1177.5,-99.9999999999999,-500;                  59P     41
110,1277.5,100,-4.73316543132607E-30,1277.5,-100,                     61P     42
4.73316543132607E-30;                                                 61P     43
110,1277.5,-100,-500,1277.5,99.9999999999999,-500;                    63P     44
110,1177.5,-100,-500,1177.5,99.9999999999999,-500;                    65P     45
110,-1277.5,100,-500,-1277.5,-99.9999999999999,-500;                  67P     46
110,-1277.5,-100,-4.73316543132607E-30,-1277.5,100,                   69P     47
4.73316543132607E-30;                                                 69P     48
504,30,5,1,2,1,1,7,1,3,1,1,11,1,3,1,4,13,1,5,1,4,15,1,6,1,5,17,       71P     49
1,6,1,7,19,1,7,1,8,21,1,8,1,9,23,1,9,1,10,25,1,2,1,10,29,1,12,1,      71P     50
11,31,1,13,1,11,33,1,14,1,13,35,1,14,1,15,37,1,15,1,16,39,1,16,       71P     51
1,17,41,1,17,1,18,43,1,19,1,18,47,1,19,1,20,49,1,12,1,20,51,1,        71P     52
12,1,1,53,1,3,1,20,55,1,8,1,15,57,1,16,1,7,59,1,9,1,14,61,1,4,1,      71P     53
19,63,1,18,1,5,65,1,17,1,6,67,1,10,1,13,69,1,11,1,2;                  71P     54
128,1,1,1,1,0,0,1,0,0,0,0,1,1,0,0,1,1,1,1,1,1,1277.5,100,-500,        73P     55
-1277.5,100,-500,1277.5,100,100,-1277.5,100,100,0,1,0,1;              73P     56
126,16,3,1,0,1,0,0,0,0,0,0.0714285714285714,0.142857142857143,        75P     57
0.214285714285714,0.285714285714286,0.357142857142857,                75P     58
0.428571428571429,0.5,0.571428571428571,0.642857142857143,            75P     59
0.714285714285714,0.785714285714286,0.857142857142857,                75P     60
0.928571428571429,1,1,1,1,1,1,1,1,1,1,1,1,1,1,1,1,1,1,1,1,1,1,        75P     61
0.833333333333333,0,1,0.839566652090456,0,0.999835590435625,          75P     62
0.852033270565195,0,0.999098848714432,0.87049805098944,0,             75P     63
0.99788124457322,0.888495459433358,0,0.996198090090543,               75P     64
0.905799173232294,0,0.994070551910577,0.922191586755024,0,            75P     65
0.991525385060483,0.937466556262945,0,0.98859459648969,               75P     66
0.951431990051928,0,0.985315042566641,0.96391226471589,0,             75P     67
0.981727965578479,0.974750433552541,0,0.977878475123044,              75P     68
0.983810200302229,0,0.973814980688851,0.990977633140962,0,            75P     69
0.969588583402608,0.99616259744229,0,0.965252431443882,               75P     70
0.999299889271701,0,0.962324849805978,1,0,0.960861056751468,1,0,      75P     71
0,1,0,0,1;                                                            75P     72
126,1,1,1,0,1,0,0,0,1,1,1,1,0.0391389432485323,1,0,                   77P     73
0.960861056751468,1,0,0,1,0,0,1;                                      77P     74
126,16,3,1,0,1,0,0,0,0,0,0.0714285714285714,0.142857142857143,        79P     75
0.214285714285714,0.285714285714286,0.357142857142857,                79P     76
0.428571428571429,0.5,0.571428571428571,0.642857142857143,            79P     77
0.714285714285714,0.785714285714286,0.857142857142857,                79P     78
0.928571428571428,1,1,1,1,1,1,1,1,1,1,1,1,1,1,1,1,1,1,1,1,1,          79P     79
0.0391389432485323,1,0,0.0376751501940221,1,0,                        79P     80
0.0347475685561186,0.999299889271701,0,0.0304114165973918,            79P     81
0.99616259744229,0,0.0261850193111488,0.990977633140962,0,            79P     82
0.0221215248769565,0.983810200302229,0,0.0182720344215207,            79P     83
0.974750433552541,0,0.0146849574333593,0.96391226471589,0,            79P     84
0.0114054035103105,0.951431990051928,0,0.008474614939517,             79P     85
0.937466556262945,0,0.00592944808942279,0.922191586755024,0,          79P     86
0.00380190990945699,0.905799173232294,0,0.00211875542677995,          79P     87
0.888495459433358,0,0.00090115128556785,0.87049805098944,0,           79P     88
0.000164409564375585,0.852033270565195,0,0,0.839566652090456,0,       79P     89
0,0.833333333333333,0,0,1,0,0,1;                                      79P     90
126,1,1,1,0,1,0,0,0,1,1,1,1,0,0,0,0,0.833333333333333,0,0,1,0,0,      81P     91
1;                                                                    81P     92
126,1,1,1,0,1,0,0,0,1,1,1,1,0.0391389432485323,0,0,0,0,0,0,1,0,       83P     93
0,1;                                                                  83P     94
126,1,1,1,0,1,0,0,0,1,1,1,1,0.0391389432485323,0,0,                   85P     95
0.0391389432485323,0.833333333333333,0,0,1,0,0,1;                     85P     96
126,1,1,1,0,1,0,0,0,1,1,1,1,0.0391389432485323,                       87P     97
0.833333333333333,0,0.960861056751468,0.833333333333333,0,0,1,0,      87P     98
0,1;                                                                  87P     99
126,1,1,1,0,1,0,0,0,1,1,1,1,0.960861056751468,0.833333333333333,      89P    100
0,0.960861056751468,0,0,0,1,0,0,1;                                    89P    101
126,1,1,1,0,1,0,0,0,1,1,1,1,0.960861056751468,0,0,1,0,0,0,1,0,0,      91P    102
1;                                                                    91P    103
126,1,1,1,0,1,0,0,0,1,1,1,1,1,0.833333333333333,0,1,0,0,0,1,0,0,      93P    104
1;                                                                    93P    105
508,10,0,71,1,1,1,0,75,0,71,2,0,1,0,77,0,71,3,1,1,0,79,0,71,4,0,      95P    106
1,0,81,0,71,5,0,1,0,83,0,71,6,1,1,0,85,0,71,7,1,1,0,87,0,71,8,1,      95P    107
1,0,89,0,71,9,1,1,0,91,0,71,10,0,1,0,93;                              95P    108
314,56.4705882352941,56.4705882352941,56.4705882352941,1H ;           97P    109
510,73,1,1,95;                                                        99P    110
128,1,1,1,1,0,0,1,0,0,0,0,1,1,0,0,1,1,1,1,1,1,-1277.5,-100,-500,     101P    111
1277.5,-100,-500,-1277.5,-100,100,1277.5,-100,100,0,1,0,1;           101P    112
126,16,3,1,0,1,0,0,0,0,0,0.0714285714285714,0.142857142857143,       103P    113
0.214285714285714,0.285714285714286,0.357142857142857,               103P    114
0.428571428571429,0.5,0.571428571428571,0.642857142857143,           103P    115
0.714285714285714,0.785714285714286,0.857142857142857,               103P    116
0.928571428571428,1,1,1,1,1,1,1,1,1,1,1,1,1,1,1,1,1,1,1,1,1,         103P    117
0.0391389432485323,1,0,0.0376751501940221,1,0,                       103P    118
0.0347475685561186,0.999299889271701,0,0.0304114165973918,           103P    119
0.99616259744229,0,0.0261850193111488,0.990977633140962,0,           103P    120
0.0221215248769565,0.983810200302229,0,0.0182720344215207,           103P    121
0.974750433552541,0,0.0146849574333593,0.96391226471589,0,           103P    122
0.0114054035103105,0.951431990051928,0,0.008474614939517,            103P    123
0.937466556262945,0,0.00592944808942279,0.922191586755024,0,         103P    124
0.00380190990945699,0.905799173232294,0,0.00211875542677995,         103P    125
0.888495459433358,0,0.00090115128556785,0.87049805098944,0,          103P    126
0.000164409564375585,0.852033270565195,0,0,0.839566652090456,0,      103P    127
0,0.833333333333333,0,0,1,0,0,1;                                     103P    128
126,1,1,1,0,1,0,0,0,1,1,1,1,0,0,0,0,0.833333333333333,0,0,1,0,0,     105P    129
1;                                                                   105P    130
126,1,1,1,0,1,0,0,0,1,1,1,1,0.0391389432485323,0,0,0,0,0,0,1,0,      107P    131
0,1;                                                                 107P    132
126,1,1,1,0,1,0,0,0,1,1,1,1,0.0391389432485323,0,0,                  109P    133
0.0391389432485323,0.833333333333333,0,0,1,0,0,1;                    109P    134
126,1,1,1,0,1,0,0,0,1,1,1,1,0.0391389432485323,                      111P    135
0.833333333333333,0,0.960861056751468,0.833333333333333,0,0,1,0,     111P    136
0,1;                                                                 111P    137
126,1,1,1,0,1,0,0,0,1,1,1,1,0.960861056751468,0.833333333333333,     113P    138
0,0.960861056751468,0,0,0,1,0,0,1;                                   113P    139
126,1,1,1,0,1,0,0,0,1,1,1,1,0.960861056751468,0,0,1,0,0,0,1,0,0,     115P    140
1;                                                                   115P    141
126,1,1,1,0,1,0,0,0,1,1,1,1,1,0.833333333333333,0,1,0,0,0,1,0,0,     117P    142
1;                                                                   117P    143
126,16,3,1,0,1,0,0,0,0,0,0.0714285714285714,0.142857142857143,       119P    144
0.214285714285714,0.285714285714286,0.357142857142857,               119P    145
0.428571428571429,0.5,0.571428571428571,0.642857142857143,           119P    146
0.714285714285714,0.785714285714286,0.857142857142857,               119P    147
0.928571428571429,1,1,1,1,1,1,1,1,1,1,1,1,1,1,1,1,1,1,1,1,1,1,       119P    148
0.833333333333333,0,1,0.839566652090456,0,0.999835590435625,         119P    149
0.852033270565195,0,0.999098848714432,0.87049805098944,0,            119P    150
0.99788124457322,0.888495459433358,0,0.996198090090543,              119P    151
0.905799173232294,0,0.994070551910577,0.922191586755024,0,           119P    152
0.991525385060483,0.937466556262945,0,0.98859459648969,              119P    153
0.951431990051928,0,0.985315042566641,0.96391226471589,0,            119P    154
0.981727965578479,0.974750433552541,0,0.977878475123044,             119P    155
0.983810200302229,0,0.973814980688851,0.990977633140962,0,           119P    156
0.969588583402608,0.99616259744229,0,0.965252431443882,              119P    157
0.999299889271701,0,0.962324849805978,1,0,0.960861056751468,1,0,     119P    158
0,1,0,0,1;                                                           119P    159
126,1,1,1,0,1,0,0,0,1,1,1,1,0.0391389432485323,1,0,                  121P    160
0.960861056751468,1,0,0,1,0,0,1;                                     121P    161
508,10,0,71,11,1,1,0,103,0,71,12,0,1,0,105,0,71,13,0,1,0,107,0,      123P    162
71,14,1,1,0,109,0,71,15,1,1,0,111,0,71,16,1,1,0,113,0,71,17,1,1,     123P    163
0,115,0,71,18,0,1,0,117,0,71,19,1,1,0,119,0,71,20,0,1,0,121;         123P    164
510,101,1,1,123;                                                     125P    165
128,1,1,1,1,0,0,1,0,0,0,0,1,1,0,0,1,1,1,1,1,1,-1177.5,-100,100,      127P    166
1177.5,-100,100,-1177.5,100,100,1177.5,100,100,0,1,0,1;              127P    167
126,1,1,1,0,1,0,0,0,1,1,1,1,0,0,0,0,1,0,0,1,0,0,1;                   129P    168
126,1,1,1,0,1,0,0,0,1,1,1,1,0,0,0,1,0,0,0,1,0,0,1;                   131P    169
126,1,1,1,0,1,0,0,0,1,1,1,1,1,1,0,1,0,0,0,1,0,0,1;                   133P    170
126,1,1,1,0,1,0,0,0,1,1,1,1,1,1,0,0,1,0,0,1,0,0,1;                   135P    171
508,4,0,71,21,0,1,0,129,0,71,20,1,1,0,131,0,71,22,0,1,0,133,0,       137P    172
71,2,1,1,0,135;                                                      137P    173
510,127,1,1,137;                                                     139P    174
128,1,1,1,1,0,0,1,0,0,0,0,1,1,0,0,1,1,1,1,1,1,-1177.5,-100,0,        141P    175
1177.5,-100,0,-1177.5,100,0,1177.5,100,0,0,1,0,1;                    141P    176
126,1,1,1,0,1,0,0,0,1,1,1,1,0,1,0,0,0,0,0,1,0,0,1;                   143P    177
126,1,1,1,0,1,0,0,0,1,1,1,1,1,1,0,0,1,0,0,1,0,0,1;                   145P    178
126,1,1,1,0,1,0,0,0,1,1,1,1,1,0,0,1,1,0,0,1,0,0,1;                   147P    179
126,1,1,1,0,1,0,0,0,1,1,1,1,0,0,0,1,0,0,0,1,0,0,1;                   149P    180
508,4,0,71,23,0,1,0,143,0,71,7,0,1,0,145,0,71,24,0,1,0,147,0,71,     151P    181
15,0,1,0,149;                                                        151P    182
510,141,1,1,151;                                                     153P    183
128,1,1,1,1,0,0,1,0,0,0,0,1,1,0,0,1,1,1,1,1,1,-1177.5,               155P    184
-99.9999999999999,-500,-1177.5,-100,0,-1177.5,100,-500,-1177.5,      155P    185
100,0,0,1,0,1;                                                       155P    186
126,1,1,1,0,1,0,0,0,1,1,1,1,1,1,0,1,0,0,0,1,0,0,1;                   157P    187
126,1,1,1,0,1,0,0,0,1,1,1,1,0,0,0,1,0,0,0,1,0,0,1;                   159P    188
126,1,1,1,0,1,0,0,0,1,1,1,1,0,1,0,0,0,0,0,1,0,0,1;                   161P    189
126,1,1,1,0,1,0,0,0,1,1,1,1,1,1,0,0,1,0,0,1,0,0,1;                   163P    190
508,4,0,71,23,1,1,0,157,0,71,14,0,1,0,159,0,71,25,0,1,0,161,0,       165P    191
71,8,0,1,0,163;                                                      165P    192
510,155,1,1,165;                                                     167P    193
110,1177.5,500,0,1177.5,499,0;                                       169P    194
110,1277.5,100,0,1277.5,-100,0;                                      171P    195
120,169,171,0,6.28318530717959;                                      173P    196
126,1,1,1,0,1,0,0,0,1,1,1,1,0,1.5707963267949,0,1,                   175P    197
1.5707963267949,0,0,1,0,0,1;                                         175P    198
126,1,1,1,0,1,0,0,0,1,1,1,1,1,0,0,1,1.5707963267949,0,0,1,0,0,1;     177P    199
126,1,1,1,0,1,0,0,0,1,1,1,1,0,0,0,1,0,0,0,1,0,0,1;                   179P    200
126,1,1,1,0,1,0,0,0,1,1,1,1,0,1.5707963267949,0,0,0,0,0,1,0,0,1;     181P    201
508,4,0,71,22,1,1,0,175,0,71,19,0,1,0,177,0,71,26,0,1,0,179,0,       183P    202
71,3,0,1,0,181;                                                      183P    203
510,173,1,1,183;                                                     185P    204
128,1,1,1,1,0,0,1,0,0,0,0,1,1,0,0,1,1,1,1,1,1,1277.5,-100,0,         187P    205
1277.5,-100,-500,1277.5,100,0,1277.5,99.9999999999999,-500,0,1,      187P    206
0,1;                                                                 187P    207
126,1,1,1,0,1,0,0,0,1,1,1,1,0,1,0,0,0,0,0,1,0,0,1;                   189P    208
126,1,1,1,0,1,0,0,0,1,1,1,1,0,0,0,1,0,0,0,1,0,0,1;                   191P    209
126,1,1,1,0,1,0,0,0,1,1,1,1,1,0,0,1,1,0,0,1,0,0,1;                   193P    210
126,1,1,1,0,1,0,0,0,1,1,1,1,1,1,0,0,1,0,0,1,0,0,1;                   195P    211
508,4,0,71,26,1,1,0,189,0,71,18,1,1,0,191,0,71,27,1,1,0,193,0,       197P    212
71,4,1,1,0,195;                                                      197P    213
510,187,1,1,197;                                                     199P    214
128,1,1,1,1,0,0,1,0,0,0,0,1,1,0,0,1,1,1,1,1,1,1177.5,-100,-500,      201P    215
1177.5,99.9999999999999,-500,1277.5,-100,-500,1277.5,                201P    216
99.9999999999999,-500,0,1,0,1;                                       201P    217
126,1,1,1,0,1,0,0,0,1,1,1,1,0,0,0,1,0,0,0,1,0,0,1;                   203P    218
126,1,1,1,0,1,0,0,0,1,1,1,1,1,0,0,1,1,0,0,1,0,0,1;                   205P    219
126,1,1,1,0,1,0,0,0,1,1,1,1,0,1,0,1,1,0,0,1,0,0,1;                   207P    220
126,1,1,1,0,1,0,0,0,1,1,1,1,0,0,0,0,1,0,0,1,0,0,1;                   209P    221
508,4,0,71,28,1,1,0,203,0,71,5,1,1,0,205,0,71,27,0,1,0,207,0,71,     211P    222
17,0,1,0,209;                                                        211P    223
510,201,1,1,211;                                                     213P    224
128,1,1,1,1,0,0,1,0,0,0,0,1,1,0,0,1,1,1,1,1,1,1177.5,-100,0,         215P    225
1177.5,-100,-500,1177.5,100,0,1177.5,99.9999999999999,-500,0,1,      215P    226
0,1;                                                                 215P    227
126,1,1,1,0,1,0,0,0,1,1,1,1,0,0,0,0,1,0,0,1,0,0,1;                   217P    228
126,1,1,1,0,1,0,0,0,1,1,1,1,1,1,0,0,1,0,0,1,0,0,1;                   219P    229
126,1,1,1,0,1,0,0,0,1,1,1,1,1,0,0,1,1,0,0,1,0,0,1;                   221P    230
126,1,1,1,0,1,0,0,0,1,1,1,1,0,0,0,1,0,0,0,1,0,0,1;                   223P    231
508,4,0,71,24,1,1,0,217,0,71,6,0,1,0,219,0,71,28,0,1,0,221,0,71,     225P    232
16,0,1,0,223;                                                        225P    233
510,215,1,1,225;                                                     227P    234
128,1,1,1,1,0,0,1,0,0,0,0,1,1,0,0,1,1,1,1,1,1,-1177.5,100,-500,      229P    235
-1177.5,-99.9999999999999,-500,-1277.5,100,-500,-1277.5,             229P    236
-99.9999999999999,-500,0,1,0,1;                                      229P    237
126,1,1,1,0,1,0,0,0,1,1,1,1,0,0,0,1,0,0,0,1,0,0,1;                   231P    238
126,1,1,1,0,1,0,0,0,1,1,1,1,1,0,0,1,1,0,0,1,0,0,1;                   233P    239
126,1,1,1,0,1,0,0,0,1,1,1,1,0,1,0,1,1,0,0,1,0,0,1;                   235P    240
126,1,1,1,0,1,0,0,0,1,1,1,1,0,0,0,0,1,0,0,1,0,0,1;                   237P    241
508,4,0,71,25,1,1,0,231,0,71,13,1,1,0,233,0,71,29,0,1,0,235,0,       239P    242
71,9,0,1,0,237;                                                      239P    243
510,229,1,1,239;                                                     241P    244
128,1,1,1,1,0,0,1,0,0,0,0,1,1,0,0,1,1,1,1,1,1,-1277.5,               243P    245
-99.9999999999999,-500,-1277.5,-100,0,-1277.5,100,-500,-1277.5,      243P    246
100,0,0,1,0,1;                                                       243P    247
126,1,1,1,0,1,0,0,0,1,1,1,1,1,0,0,1,1,0,0,1,0,0,1;                   245P    248
126,1,1,1,0,1,0,0,0,1,1,1,1,1,1,0,0,1,0,0,1,0,0,1;                   247P    249
126,1,1,1,0,1,0,0,0,1,1,1,1,0,1,0,0,0,0,0,1,0,0,1;                   249P    250
126,1,1,1,0,1,0,0,0,1,1,1,1,0,0,0,1,0,0,0,1,0,0,1;                   251P    251
508,4,0,71,30,1,1,0,245,0,71,10,1,1,0,247,0,71,29,1,1,0,249,0,       253P    252
71,12,1,1,0,251;                                                     253P    253
510,243,1,1,253;                                                     255P    254
110,-1177.5,-500,0,-1177.5,-499,0;                                   257P    255
110,-1277.5,-100,0,-1277.5,100,0;                                    259P    256
120,257,259,0,6.28318530717959;                                      261P    257
126,1,1,1,0,1,0,0,0,1,1,1,1,0,1.5707963267949,0,1,                   263P    258
1.5707963267949,0,0,1,0,0,1;                                         263P    259
126,1,1,1,0,1,0,0,0,1,1,1,1,1,0,0,1,1.5707963267949,0,0,1,0,0,1;     265P    260
126,1,1,1,0,1,0,0,0,1,1,1,1,0,0,0,1,0,0,0,1,0,0,1;                   267P    261
126,1,1,1,0,1,0,0,0,1,1,1,1,0,1.5707963267949,0,0,0,0,0,1,0,0,1;     269P    262
508,4,0,71,21,1,1,0,263,0,71,1,0,1,0,265,0,71,30,0,1,0,267,0,71,     271P    263
11,0,1,0,269;                                                        271P    264
510,261,1,1,271;                                                     273P    265
514,12,99,1,125,1,139,1,153,0,167,0,185,0,199,1,213,1,227,0,241,     275P    266
1,255,1,273,0;                                                       275P    267
186,275,1,0;                                                         277P    268
S      2G      3D    278P    268                                        T      1
