IGES file generated by C3D Converter 1.8                                S      1
translator by C3D Labs., translator version IGESOUT-5.1.                S      2
1H,,1H;,7H Деталь,40HE:\Сдача задания\Модели\IGES\Полочка.igs,0H,3H1.0,3G      1
2,38,6,308,15,7Hunknown,1,2,2HMM,1000,1,16H-17740206:063212,1E-6,50000,5G      2
Hno1se,7Hunknown,0,0,13H260306:063214;                                  G      3
     502       1       0       0       0       0       0       000010000D      1
     502       0       0       6       1                               0D      2
     110       7       0       0       0       0       0       000010000D      3
     110       1       0       1       0                               0D      4
     110       8       0       0       0       0       0       000010000D      5
     110       1       0       1       0                               0D      6
     110       9       0       0       0       0       0       000010000D      7
     110       1       0       1       0                               0D      8
     110      10       0       0       0       0       0       000010000D      9
     110       1       0       1       0                               0D     10
     124      11       0       0       0       0       0       001020201D     11
     124       1       0       1       0                               0D     12
     100      12       0       0       0       0      11       000010000D     13
     100       1       0       1       0                               0D     14
     110      13       0       0       0       0       0       000010000D     15
     110       1       0       1       0                               0D     16
     110      14       0       0       0       0       0       000010000D     17
     110       1       0       1       0                               0D     18
     110      15       0       0       0       0       0       000010000D     19
     110       1       0       1       0                               0D     20
     110      16       0       0       0       0       0       000010000D     21
     110       1       0       1       0                               0D     22
     110      17       0       0       0       0       0       000010000D     23
     110       1       0       1       0                               0D     24
     110      18       0       0       0       0       0       000010000D     25
     110       1       0       1       0                               0D     26
     110      19       0       0       0       0       0       000010000D     27
     110       1       0       1       0                               0D     28
     124      20       0       0       0       0       0       001020201D     29
     124       1       0       1       0                               0D     30
     100      21       0       0       0       0      29       000010000D     31
     100       1       0       1       0                               0D     32
     124      22       0       0       0       0       0       001020201D     33
     124       1       0       1       0                               0D     34
     100      23       0       0       0       0      33       000010000D     35
     100       1       0       1       0                               0D     36
     124      24       0       0       0       0       0       001020201D     37
     124       1       0       1       0                               0D     38
     100      25       0       0       0       0      37       000010000D     39
     100       1       0       1       0                               0D     40
     110      26       0       0       0       0       0       000010000D     41
     110       1       0       1       0                               0D     42
     110      27       0       0       0       0       0       000010000D     43
     110       1       0       1       0                               0D     44
     110      28       0       0       0       0       0       000010000D     45
     110       1       0       1       0                               0D     46
     110      29       0       0       0       0       0       000010000D     47
     110       1       0       1       0                               0D     48
     110      30       0       0       0       0       0       000010000D     49
     110       1       0       1       0                               0D     50
     110      31       0       0       0       0       0       000010000D     51
     110       1       0       1       0                               0D     52
     110      32       0       0       0       0       0       000010000D     53
     110       1       0       1       0                               0D     54
     110      33       0       0       0       0       0       000010000D     55
     110       1       0       1       0                               0D     56
     110      34       0       0       0       0       0       000010000D     57
     110       1       0       1       0                               0D     58
     110      35       0       0       0       0       0       000010000D     59
     110       1       0       1       0                               0D     60
     110      36       0       0       0       0       0       000010000D     61
     110       1       0       1       0                               0D     62
     110      37       0       0       0       0       0       000010000D     63
     110       1       0       1       0                               0D     64
     110      38       0       0       0       0       0       000010000D     65
     110       1       0       1       0                               0D     66
     110      39       0       0       0       0       0       000010000D     67
     110       1       0       1       0                               0D     68
     124      40       0       0       0       0       0       001020201D     69
     124       1       0       1       0                               0D     70
     100      41       0       0       0       0      69       000010000D     71
     100       1       0       1       0                               0D     72
     124      42       0       0       0       0       0       001020201D     73
     124       1       0       2       0                               0D     74
     100      44       0       0       0       0      73       000010000D     75
     100       1       0       1       0                               0D     76
     124      45       0       0       0       0       0       001020201D     77
     124       1       0       1       0                               0D     78
     100      46       0       0       0       0      77       000010000D     79
     100       1       0       1       0                               0D     80
     124      47       0       0       0       0       0       001020201D     81
     124       1       0       2       0                               0D     82
     100      49       0       0       0       0      81       000010000D     83
     100       1       0       1       0                               0D     84
     110      50       0       0       0       0       0       000010000D     85
     110       1       0       1       0                               0D     86
     124      51       0       0       0       0       0       001020201D     87
     124       1       0       2       0                               0D     88
     100      53       0       0       0       0      87       000010000D     89
     100       1       0       1       0                               0D     90
     124      54       0       0       0       0       0       001020201D     91
     124       1       0       1       0                               0D     92
     100      55       0       0       0       0      91       000010000D     93
     100       1       0       1       0                               0D     94
     124      56       0       0       0       0       0       001020201D     95
     124       1       0       2       0                               0D     96
     100      58       0       0       0       0      95       000010000D     97
     100       1       0       1       0                               0D     98
     124      59       0       0       0       0       0       001020201D     99
     124       1       0       1       0                               0D    100
     100      60       0       0       0       0      99       000010000D    101
     100       1       0       1       0                               0D    102
     110      61       0       0       0       0       0       000010000D    103
     110       1       0       1       0                               0D    104
     110      62       0       0       0       0       0       000010000D    105
     110       1       0       1       0                               0D    106
     110      63       0       0       0       0       0       000010000D    107
     110       1       0       1       0                               0D    108
     110      64       0       0       0       0       0       000010000D    109
     110       1       0       1       0                               0D    110
     504      65       0       0       0       0       0       000010000D    111
     504       1       0       9       1                               0D    112
     128      74       0       0       0       0       0       000010000D    113
     128       1       0       2       0                               0D    114
     126      76       0       0       0       0       0       001010500D    115
     126       1       0       1       0                               0D    116
     126      77       0       0       0       0       0       001010500D    117
     126       1       0       1       0                               0D    118
     126      78       0       0       0       0       0       001010500D    119
     126       1       0       1       0                               0D    120
     126      79       0       0       0       0       0       001010500D    121
     126       1       0       1       0                               0D    122
     508      80       0       0       0       0       0       000010000D    123
     508       1       0       2       1                               0D    124
     314      82       0       0       0       0       0       001000200D    125
     314       1       0       1       0                               0D    126
     510      83       0       0       0       0       0       000010000D    127
     510       1    -125       1       1                               0D    128
     128      84       0       0       0       0       0       000010000D    129
     128       1       0       2       0                               0D    130
     126      86       0       0       0       0       0       001010500D    131
     126       1       0      16       0                               0D    132
     126     102       0       0       0       0       0       001010500D    133
     126       1       0       2       0                               0D    134
     126     104       0       0       0       0       0       001010500D    135
     126       1       0       2       0                               0D    136
     126     106       0       0       0       0       0       001010500D    137
     126       1       0       2       0                               0D    138
     126     108       0       0       0       0       0       001010500D    139
     126       1       0       2       0                               0D    140
     126     110       0       0       0       0       0       001010500D    141
     126       1       0       2       0                               0D    142
     126     112       0       0       0       0       0       001010500D    143
     126       1       0       1       0                               0D    144
     126     113       0       0       0       0       0       001010500D    145
     126       1       0       2       0                               0D    146
     126     115       0       0       0       0       0       001010500D    147
     126       1       0      16       0                               0D    148
     126     131       0       0       0       0       0       001010500D    149
     126       1       0       2       0                               0D    150
     508     133       0       0       0       0       0       000010000D    151
     508       1       0       3       1                               0D    152
     510     136       0       0       0       0       0       000010000D    153
     510       1    -125       1       1                               0D    154
     128     137       0       0       0       0       0       000010000D    155
     128       1       0       2       0                               0D    156
     126     139       0       0       0       0       0       001010500D    157
     126       1       0      16       0                               0D    158
     126     155       0       0       0       0       0       001010500D    159
     126       1       0       2       0                               0D    160
     126     157       0       0       0       0       0       001010500D    161
     126       1       0      16       0                               0D    162
     126     173       0       0       0       0       0       001010500D    163
     126       1       0       2       0                               0D    164
     126     175       0       0       0       0       0       001010500D    165
     126       1       0       1       0                               0D    166
     126     176       0       0       0       0       0       001010500D    167
     126       1       0       2       0                               0D    168
     126     178       0       0       0       0       0       001010500D    169
     126       1       0       2       0                               0D    170
     126     180       0       0       0       0       0       001010500D    171
     126       1       0       2       0                               0D    172
     126     182       0       0       0       0       0       001010500D    173
     126       1       0       2       0                               0D    174
     126     184       0       0       0       0       0       001010500D    175
     126       1       0       2       0                               0D    176
     508     186       0       0       0       0       0       000010000D    177
     508       1       0       4       1                               0D    178
     510     190       0       0       0       0       0       000010000D    179
     510       1    -125       1       1                               0D    180
     128     191       0       0       0       0       0       000010000D    181
     128       1       0       2       0                               0D    182
     126     193       0       0       0       0       0       001010500D    183
     126       1       0       1       0                               0D    184
     126     194       0       0       0       0       0       001010500D    185
     126       1       0       1       0                               0D    186
     126     195       0       0       0       0       0       001010500D    187
     126       1       0       1       0                               0D    188
     126     196       0       0       0       0       0       001010500D    189
     126       1       0       1       0                               0D    190
     508     197       0       0       0       0       0       000010000D    191
     508       1       0       2       1                               0D    192
     510     199       0       0       0       0       0       000010000D    193
     510       1    -125       1       1                               0D    194
     128     200       0       0       0       0       0       000010000D    195
     128       1       0       2       0                               0D    196
     126     202       0       0       0       0       0       001010500D    197
     126       1       0       1       0                               0D    198
     126     203       0       0       0       0       0       001010500D    199
     126       1       0       1       0                               0D    200
     126     204       0       0       0       0       0       001010500D    201
     126       1       0       1       0                               0D    202
     126     205       0       0       0       0       0       001010500D    203
     126       1       0       1       0                               0D    204
     508     206       0       0       0       0       0       000010000D    205
     508       1       0       2       1                               0D    206
     510     208       0       0       0       0       0       000010000D    207
     510       1    -125       1       1                               0D    208
     128     209       0       0       0       0       0       000010000D    209
     128       1       0       2       0                               0D    210
     126     211       0       0       0       0       0       001010500D    211
     126       1       0       1       0                               0D    212
     126     212       0       0       0       0       0       001010500D    213
     126       1       0       1       0                               0D    214
     126     213       0       0       0       0       0       001010500D    215
     126       1       0       1       0                               0D    216
     126     214       0       0       0       0       0       001010500D    217
     126       1       0       1       0                               0D    218
     508     215       0       0       0       0       0       000010000D    219
     508       1       0       2       1                               0D    220
     510     217       0       0       0       0       0       000010000D    221
     510       1    -125       1       1                               0D    222
     128     218       0       0       0       0       0       000010000D    223
     128       1       0       2       0                               0D    224
     126     220       0       0       0       0       0       001010500D    225
     126       1       0       1       0                               0D    226
     126     221       0       0       0       0       0       001010500D    227
     126       1       0       1       0                               0D    228
     126     222       0       0       0       0       0       001010500D    229
     126       1       0       1       0                               0D    230
     126     223       0       0       0       0       0       001010500D    231
     126       1       0       1       0                               0D    232
     508     224       0       0       0       0       0       000010000D    233
     508       1       0       2       1                               0D    234
     510     226       0       0       0       0       0       000010000D    235
     510       1    -125       1       1                               0D    236
     128     227       0       0       0       0       0       000010000D    237
     128       1       0       2       0                               0D    238
     126     229       0       0       0       0       0       001010500D    239
     126       1       0       1       0                               0D    240
     126     230       0       0       0       0       0       001010500D    241
     126       1       0       1       0                               0D    242
     126     231       0       0       0       0       0       001010500D    243
     126       1       0       1       0                               0D    244
     126     232       0       0       0       0       0       001010500D    245
     126       1       0       1       0                               0D    246
     508     233       0       0       0       0       0       000010000D    247
     508       1       0       2       1                               0D    248
     126     235       0       0       0       0       0       001010500D    249
     126       1       0      29       0                               0D    250
     126     264       0       0       0       0       0       001010500D    251
     126       1       0      29       0                               0D    252
     508     293       0       0       0       0       0       000010000D    253
     508       1       0       1       1                               0D    254
     126     294       0       0       0       0       0       001010500D    255
     126       1       0      29       0                               0D    256
     126     323       0       0       0       0       0       001010500D    257
     126       1       0      29       0                               0D    258
     508     352       0       0       0       0       0       000010000D    259
     508       1       0       1       1                               0D    260
     510     353       0       0       0       0       0       000010000D    261
     510       1    -125       1       1                               0D    262
     128     354       0       0       0       0       0       000010000D    263
     128       1       0       2       0                               0D    264
     126     356       0       0       0       0       0       001010500D    265
     126       1       0       1       0                               0D    266
     126     357       0       0       0       0       0       001010500D    267
     126       1       0       1       0                               0D    268
     126     358       0       0       0       0       0       001010500D    269
     126       1       0       1       0                               0D    270
     126     359       0       0       0       0       0       001010500D    271
     126       1       0       1       0                               0D    272
     508     360       0       0       0       0       0       000010000D    273
     508       1       0       2       1                               0D    274
     126     362       0       0       0       0       0       001010500D    275
     126       1       0      29       0                               0D    276
     126     391       0       0       0       0       0       001010500D    277
     126       1       0      29       0                               0D    278
     508     420       0       0       0       0       0       000010000D    279
     508       1       0       1       1                               0D    280
     126     421       0       0       0       0       0       001010500D    281
     126       1       0      29       0                               0D    282
     126     450       0       0       0       0       0       001010500D    283
     126       1       0      29       0                               0D    284
     508     479       0       0       0       0       0       000010000D    285
     508       1       0       1       1                               0D    286
     510     480       0       0       0       0       0       000010000D    287
     510       1    -125       1       1                               0D    288
     128     481       0       0       0       0       0       000010000D    289
     128       1       0       2       0                               0D    290
     126     483       0       0       0       0       0       001010500D    291
     126       1       0       1       0                               0D    292
     126     484       0       0       0       0       0       001010500D    293
     126       1       0       1       0                               0D    294
     126     485       0       0       0       0       0       001010500D    295
     126       1       0       1       0                               0D    296
     126     486       0       0       0       0       0       001010500D    297
     126       1       0       1       0                               0D    298
     508     487       0       0       0       0       0       000010000D    299
     508       1       0       2       1                               0D    300
     510     489       0       0       0       0       0       000010000D    301
     510       1    -125       1       1                               0D    302
     110     490       0       0       0       0       0       001010000D    303
     110       1       0       1       0                               0D    304
     110     491       0       0       0       0       0       001010001D    305
     110       1       0       1       0                               0D    306
     120     492       0       0       0       0       0       000010000D    307
     120       1       0       1       0                               0D    308
     126     493       0       0       0       0       0       001010500D    309
     126       1       0       2       0                               0D    310
     126     495       0       0       0       0       0       001010500D    311
     126       1       0       2       0                               0D    312
     126     497       0       0       0       0       0       001010500D    313
     126       1       0       2       0                               0D    314
     126     499       0       0       0       0       0       001010500D    315
     126       1       0       1       0                               0D    316
     508     500       0       0       0       0       0       000010000D    317
     508       1       0       2       1                               0D    318
     510     502       0       0       0       0       0       000010000D    319
     510       1    -125       1       1                               0D    320
     110     503       0       0       0       0       0       001010000D    321
     110       1       0       1       0                               0D    322
     110     504       0       0       0       0       0       001010001D    323
     110       1       0       1       0                               0D    324
     120     505       0       0       0       0       0       000010000D    325
     120       1       0       1       0                               0D    326
     126     506       0       0       0       0       0       001010500D    327
     126       1       0       2       0                               0D    328
     126     508       0       0       0       0       0       001010500D    329
     126       1       0       2       0                               0D    330
     126     510       0       0       0       0       0       001010500D    331
     126       1       0       2       0                               0D    332
     126     512       0       0       0       0       0       001010500D    333
     126       1       0       1       0                               0D    334
     508     513       0       0       0       0       0       000010000D    335
     508       1       0       2       1                               0D    336
     510     515       0       0       0       0       0       000010000D    337
     510       1    -125       1       1                               0D    338
     110     516       0       0       0       0       0       001010000D    339
     110       1       0       1       0                               0D    340
     110     517       0       0       0       0       0       001010001D    341
     110       1       0       1       0                               0D    342
     120     518       0       0       0       0       0       000010000D    343
     120       1       0       1       0                               0D    344
     126     519       0       0       0       0       0       001010500D    345
     126       1       0       2       0                               0D    346
     126     521       0       0       0       0       0       001010500D    347
     126       1       0       1       0                               0D    348
     126     522       0       0       0       0       0       001010500D    349
     126       1       0       1       0                               0D    350
     126     523       0       0       0       0       0       001010500D    351
     126       1       0       1       0                               0D    352
     508     524       0       0       0       0       0       000010000D    353
     508       1       0       2       1                               0D    354
     510     526       0       0       0       0       0       000010000D    355
     510       1    -125       1       1                               0D    356
     110     527       0       0       0       0       0       001010000D    357
     110       1       0       1       0                               0D    358
     110     528       0       0       0       0       0       001010001D    359
     110       1       0       1       0                               0D    360
     120     529       0       0       0       0       0       000010000D    361
     120       1       0       1       0                               0D    362
     126     530       0       0       0       0       0       001010500D    363
     126       1       0       2       0                               0D    364
     126     532       0       0       0       0       0       001010500D    365
     126       1       0       1       0                               0D    366
     126     533       0       0       0       0       0       001010500D    367
     126       1       0       1       0                               0D    368
     126     534       0       0       0       0       0       001010500D    369
     126       1       0       1       0                               0D    370
     508     535       0       0       0       0       0       000010000D    371
     508       1       0       2       1                               0D    372
     510     537       0       0       0       0       0       000010000D    373
     510       1    -125       1       1                               0D    374
     110     538       0       0       0       0       0       001010000D    375
     110       1       0       1       0                               0D    376
     110     539       0       0       0       0       0       001010001D    377
     110       1       0       1       0                               0D    378
     120     540       0       0       0       0       0       000010000D    379
     120       1       0       1       0                               0D    380
     126     541       0       0       0       0       0       001010500D    381
     126       1       0       2       0                               0D    382
     126     543       0       0       0       0       0       001010500D    383
     126       1       0       2       0                               0D    384
     126     545       0       0       0       0       0       001010500D    385
     126       1       0       1       0                               0D    386
     126     546       0       0       0       0       0       001010500D    387
     126       1       0       2       0                               0D    388
     508     548       0       0       0       0       0       000010000D    389
     508       1       0       2       1                               0D    390
     510     550       0       0       0       0       0       000010000D    391
     510       1    -125       1       1                               0D    392
     110     551       0       0       0       0       0       001010000D    393
     110       1       0       1       0                               0D    394
     110     552       0       0       0       0       0       001010001D    395
     110       1       0       1       0                               0D    396
     120     553       0       0       0       0       0       000010000D    397
     120       1       0       1       0                               0D    398
     126     554       0       0       0       0       0       001010500D    399
     126       1       0       2       0                               0D    400
     126     556       0       0       0       0       0       001010500D    401
     126       1       0       2       0                               0D    402
     126     558       0       0       0       0       0       001010500D    403
     126       1       0       1       0                               0D    404
     126     559       0       0       0       0       0       001010500D    405
     126       1       0       2       0                               0D    406
     508     561       0       0       0       0       0       000010000D    407
     508       1       0       2       1                               0D    408
     510     563       0       0       0       0       0       000010000D    409
     510       1    -125       1       1                               0D    410
     514     564       0       0       0       0       0       000010000D    411
     514       1       0       2       1                               0D    412
     186     566       0       0       0       0       0       000010000D    413
     186       1       0       1       0                               0D    414
502,28,-235,-1.5,155,235,-1.5,155,-235,-6.5,155,235,-6.5,155,          1P      1
-235,-0.5,154,-235,-0.5,153,-235,-5.5,153,-235,-5.5,5,-235,7.5,        1P      2
5,-235,7.5,0,-235,-7.5,0,-235,-7.5,154,235,-0.5,154,235,-7.5,          1P      3
154,235,-7.5,0,235,7.5,0,235,7.5,5,235,-5.5,5,235,-5.5,153,235,        1P      4
-0.5,153,-27.5,1,0,-32.5,1,0,32.5,1,0,27.5,1,0,-27.5,1,5,-32.5,        1P      5
1,5,32.5,1,5,27.5,1,5;                                                 1P      6
110,-235,-1.5,155,235,-1.5,155;                                        3P      7
110,-235,-6.5,155,-235,-1.5,155;                                       5P      8
110,-235,-6.5,155,235,-6.5,155;                                        7P      9
110,235,-6.5,155,235,-1.5,155;                                         9P     10
124,0,0,-1,-235,0,1,0,-1.5,1,0,0,154;                                 11P     11
100,0,0,0,1,0,6.12323399573677E-17,1;                                 13P     12
110,-235,-0.5,153,-235,-0.5,154;                                      15P     13
110,-235,-5.5,153,-235,-0.5,153;                                      17P     14
110,-235,-5.5,153,-235,-5.5,5;                                        19P     15
110,-235,-5.5,5,-235,7.5,5;                                           21P     16
110,-235,7.5,5,-235,7.5,0;                                            23P     17
110,-235,7.5,0,-235,-7.5,0;                                           25P     18
110,-235,-7.5,0,-235,-7.5,154;                                        27P     19
124,0,0,-1,-235,-1,0,0,-6.5,0,1,0,154;                                29P     20
100,0,0,0,1,0,6.12323399573677E-17,1;                                 31P     21
124,0,0,1,235,1,0,0,-1.5,0,1,0,154;                                   33P     22
100,0,0,0,1,0,9.49410759657493E-16,1;                                 35P     23
124,0,0,1,235,0,-1,0,-6.5,1,0,0,154;                                  37P     24
100,0,0,0,1,0,2.83276944882399E-16,1;                                 39P     25
110,235,-7.5,154,235,-7.5,0;                                          41P     26
110,235,-7.5,0,235,7.5,0;                                             43P     27
110,235,7.5,0,235,7.5,5;                                              45P     28
110,235,7.5,5,235,-5.5,5;                                             47P     29
110,235,-5.5,5,235,-5.5,153;                                          49P     30
110,235,-5.5,153,235,-0.5,153;                                        51P     31
110,235,-0.5,154,235,-0.5,153;                                        53P     32
110,235,-5.5,153,-235,-5.5,153;                                       55P     33
110,235,-5.5,5,-235,-5.5,5;                                           57P     34
110,235,-0.5,153,-235,-0.5,153;                                       59P     35
110,-235,-7.5,154,235,-7.5,154;                                       61P     36
110,-235,-7.5,0,235,-7.5,0;                                           63P     37
110,-235,-0.5,154,235,-0.5,154;                                       65P     38
110,235,7.5,0,-235,7.5,0;                                             67P     39
124,1,0,0,-30,0,1,0,1,0,0,1,0;                                        69P     40
100,0,0,0,2.5,0,-2.5,3.06161699786838E-16;                            71P     41
124,-1,-8.88178419700125E-17,0,-30,8.88178419700125E-17,-1,0,1,       73P     42
0,0,1,0;                                                              73P     43
100,0,0,0,2.5,0,-2.5,3.06161699786838E-16;                            75P     44
124,1,0,0,30,0,1,0,1,0,0,1,0;                                         77P     45
100,0,0,0,2.5,0,-2.5,3.06161699786838E-16;                            79P     46
124,-1,-8.88178419700125E-17,0,30,8.88178419700125E-17,-1,0,1,0,      81P     47
0,1,0;                                                                81P     48
100,0,0,0,2.5,0,-2.5,3.06161699786838E-16;                            83P     49
110,235,7.5,5,-235,7.5,5;                                             85P     50
124,-1,-8.88178419700125E-17,0,-30,8.88178419700125E-17,-1,0,1,       87P     51
0,0,1,5;                                                              87P     52
100,0,0,0,2.5,0,-2.5,3.06161699786838E-16;                            89P     53
124,1,0,0,-30,0,1,0,1,0,0,1,5;                                        91P     54
100,0,0,0,2.5,0,-2.5,3.06161699786838E-16;                            93P     55
124,-1,-8.88178419700125E-17,0,30,8.88178419700125E-17,-1,0,1,0,      95P     56
0,1,5;                                                                95P     57
100,0,0,0,2.5,0,-2.5,3.06161699786838E-16;                            97P     58
124,1,0,0,30,0,1,0,1,0,0,1,5;                                         99P     59
100,0,0,0,2.5,0,-2.5,3.06161699786838E-16;                           101P     60
110,-32.5,1,0,-32.5,1,5;                                             103P     61
110,-27.5,1,0,-27.5,1,5;                                             105P     62
110,27.5,1,0,27.5,1,5;                                               107P     63
110,32.5,1,0,32.5,1,5;                                               109P     64
504,42,3,1,1,1,2,5,1,3,1,1,7,1,3,1,4,9,1,4,1,2,13,1,1,1,5,15,1,      111P     65
6,1,5,17,1,7,1,6,19,1,7,1,8,21,1,8,1,9,23,1,9,1,10,25,1,10,1,11,     111P     66
27,1,11,1,12,31,1,12,1,3,35,1,13,1,2,39,1,4,1,14,41,1,14,1,15,       111P     67
43,1,15,1,16,45,1,16,1,17,47,1,17,1,18,49,1,18,1,19,51,1,19,1,       111P     68
20,53,1,13,1,20,55,1,19,1,7,57,1,18,1,8,59,1,20,1,6,61,1,12,1,       111P     69
14,63,1,11,1,15,65,1,5,1,13,67,1,16,1,10,71,1,21,1,22,75,1,22,1,     111P     70
21,79,1,23,1,24,83,1,24,1,23,85,1,17,1,9,89,1,26,1,25,93,1,25,1,     111P     71
26,97,1,28,1,27,101,1,27,1,28,103,1,22,1,26,105,1,21,1,25,107,1,     111P     72
24,1,28,109,1,23,1,27;                                               111P     73
128,1,1,1,1,0,0,1,0,0,0,0,1,1,0,0,1,1,1,1,1,1,-235,-6.5,155,235,     113P     74
-6.5,155,-235,-1.5,155,235,-1.5,155,0,1,0,1;                         113P     75
126,1,1,1,0,1,0,0,0,1,1,1,1,0,1,0,1,1,0,0,1,0,0,1;                   115P     76
126,1,1,1,0,1,0,0,0,1,1,1,1,0,0,0,0,1,0,0,1,0,0,1;                   117P     77
126,1,1,1,0,1,0,0,0,1,1,1,1,0,0,0,1,0,0,0,1,0,0,1;                   119P     78
126,1,1,1,0,1,0,0,0,1,1,1,1,1,0,0,1,1,0,0,1,0,0,1;                   121P     79
508,4,0,111,1,0,1,0,115,0,111,2,0,1,0,117,0,111,3,1,1,0,119,0,       123P     80
111,4,1,1,0,121;                                                     123P     81
314,56.4705882352941,56.4705882352941,56.4705882352941,1H ;          125P     82
510,113,1,1,123;                                                     127P     83
128,1,1,1,1,0,0,1,0,0,0,0,1,1,0,0,1,1,1,1,1,1,-235,7.5,0,-235,       129P     84
-7.5,0,-235,7.5,155,-235,-7.5,155,0,1,0,1;                           129P     85
126,16,3,1,0,1,0,0,0,0,0,0.0714285714285714,0.142857142857143,       131P     86
0.214285714285714,0.285714285714286,0.357142857142857,               131P     87
0.428571428571429,0.5,0.571428571428571,0.642857142857143,           131P     88
0.714285714285714,0.785714285714286,0.857142857142857,               131P     89
0.928571428571429,1,1,1,1,1,1,1,1,1,1,1,1,1,1,1,1,1,1,1,1,1,0.6,     131P     90
1,0,0.597506672497151,1,0,0.592520025107255,0.99997289893955,0,      131P     91
0.585134112937557,0.999851455384863,0,0.57793514955999,              131P     92
0.999650747089328,0,0.571013664040416,0.999373298076215,0,           131P     93
0.564456698631323,0.99902259742784,0,0.558346710828155,              131P     94
0.998603055408357,0,0.552760537312562,0.99811994800201,0,            131P     95
0.547768427446977,0.997579350565017,0,0.543433159912317,             131P     96
0.996988061422775,0,0.539809253212442,0.996353516383186,0,           131P     97
0.536942280076949,0.995683695203872,0,0.534868294356417,             131P     98
0.994987021328623,0,0.533613377624653,0.994272255634782,0,           131P     99
0.533333333333333,0.993789676855114,0,0.533333333333333,             131P    100
0.993548387096774,0,0,1,0,0,1;                                       131P    101
126,1,1,1,0,1,0,0,0,1,1,1,1,0.533333333333333,0.987096774193548,     133P    102
0,0.533333333333333,0.993548387096774,0,0,1,0,0,1;                   133P    103
126,1,1,1,0,1,0,0,0,1,1,1,1,0.866666666666667,0.987096774193548,     135P    104
0,0.533333333333333,0.987096774193548,0,0,1,0,0,1;                   135P    105
126,1,1,1,0,1,0,0,0,1,1,1,1,0.866666666666667,0.987096774193548,     137P    106
0,0.866666666666667,0.032258064516129,0,0,1,0,0,1;                   137P    107
126,1,1,1,0,1,0,0,0,1,1,1,1,0.866666666666667,0.032258064516129,     139P    108
0,0,0.032258064516129,0,0,1,0,0,1;                                   139P    109
126,1,1,1,0,1,0,0,0,1,1,1,1,0,0.032258064516129,0,0,0,0,0,1,0,0,     141P    110
1;                                                                   141P    111
126,1,1,1,0,1,0,0,0,1,1,1,1,0,0,0,1,0,0,0,1,0,0,1;                   143P    112
126,1,1,1,0,1,0,0,0,1,1,1,1,1,0,0,1,0.993548387096774,0,0,1,0,0,     145P    113
1;                                                                   145P    114
126,16,3,1,0,1,0,0,0,0,0,0.0714285714285714,0.142857142857143,       147P    115
0.214285714285714,0.285714285714286,0.357142857142857,               147P    116
0.428571428571429,0.5,0.571428571428571,0.642857142857143,           147P    117
0.714285714285714,0.785714285714286,0.857142857142857,               147P    118
0.928571428571429,1,1,1,1,1,1,1,1,1,1,1,1,1,1,1,1,1,1,1,1,1,1,       147P    119
0.993548387096774,0,1,0.993789676855114,0,0.999719955708681,         147P    120
0.994272255634782,0,0.998465038976916,0.994987021328624,0,           147P    121
0.996391053256385,0.995683695203872,0,0.993524080120892,             147P    122
0.996353516383186,0,0.989900173421016,0.996988061422775,0,           147P    123
0.985564905886356,0.997579350565017,0,0.980572796020771,             147P    124
0.99811994800201,0,0.974986622505178,0.998603055408357,0,            147P    125
0.96887663470201,0.99902259742784,0,0.962319669292918,               147P    126
0.999373298076215,0,0.955398183773343,0.999650747089328,0,           147P    127
0.948199220395776,0.999851455384863,0,0.940813308226078,             147P    128
0.99997289893955,0,0.935826660836182,1,0,0.933333333333333,1,0,      147P    129
0,1,0,0,1;                                                           147P    130
126,1,1,1,0,1,0,0,0,1,1,1,1,0.933333333333333,1,0,0.6,1,0,0,1,0,     149P    131
0,1;                                                                 149P    132
508,10,0,111,5,1,1,0,131,0,111,6,0,1,0,133,0,111,7,0,1,0,135,0,      151P    133
111,8,1,1,0,137,0,111,9,1,1,0,139,0,111,10,1,1,0,141,0,111,11,1,     151P    134
1,0,143,0,111,12,1,1,0,145,0,111,13,1,1,0,147,0,111,2,1,1,0,149;     151P    135
510,129,1,1,151;                                                     153P    136
128,1,1,1,1,0,0,1,0,0,0,0,1,1,0,0,1,1,1,1,1,1,235,-7.5,0,235,        155P    137
7.5,0,235,-7.5,155,235,7.5,155,0,1,0,1;                              155P    138
126,16,3,1,0,1,0,0,0,0,0,0.0714285714285714,0.142857142857143,       157P    139
0.214285714285714,0.285714285714286,0.357142857142857,               157P    140
0.428571428571429,0.5,0.571428571428571,0.642857142857143,           157P    141
0.714285714285714,0.785714285714286,0.857142857142857,               157P    142
0.928571428571429,1,1,1,1,1,1,1,1,1,1,1,1,1,1,1,1,1,1,1,1,1,         157P    143
0.466666666666667,0.993548387096774,0,0.466666666666667,             157P    144
0.993789676855114,0,0.466386622375347,0.994272255634782,0,           157P    145
0.465131705643583,0.994987021328623,0,0.463057719923052,             157P    146
0.995683695203872,0,0.460190746787558,0.996353516383185,0,           157P    147
0.456566840087683,0.996988061422775,0,0.452231572553023,             157P    148
0.997579350565017,0,0.447239462687438,0.99811994800201,0,            157P    149
0.441653289171845,0.998603055408357,0,0.435543301368676,             157P    150
0.99902259742784,0,0.428986335959584,0.999373298076215,0,            157P    151
0.42206485044001,0.999650747089327,0,0.414865887062443,              157P    152
0.999851455384862,0,0.407479974892745,0.99997289893955,0,            157P    153
0.402493327502849,1,0,0.4,1,0,0,1,0,0,1;                             157P    154
126,1,1,1,0,1,0,0,0,1,1,1,1,0.0666666666666667,1,0,0.4,1,0,0,1,      159P    155
0,0,1;                                                               159P    156
126,16,3,1,0,1,0,0,0,0,0,0.0714285714285714,0.142857142857143,       161P    157
0.214285714285714,0.285714285714286,0.357142857142857,               161P    158
0.428571428571429,0.5,0.571428571428572,0.642857142857143,           161P    159
0.714285714285714,0.785714285714286,0.857142857142857,               161P    160
0.928571428571429,1,1,1,1,1,1,1,1,1,1,1,1,1,1,1,1,1,1,1,1,1,         161P    161
0.0666666666666667,1,0,0.0641733391638176,1,0,                       161P    162
0.0591866917739218,0.99997289893955,0,0.0518007796042239,            161P    163
0.999851455384862,0,0.0446018162266567,0.999650747089328,0,          161P    164
0.0376803307070825,0.999373298076214,0,0.0311233652979903,           161P    165
0.99902259742784,0,0.0250133774948219,0.998603055408357,0,           161P    166
0.0194272039792288,0.99811994800201,0,0.014435094113644,             161P    167
0.997579350565017,0,0.0100998265789835,0.996988061422775,0,          161P    168
0.00647591987910844,0.996353516383185,0,0.00360894674361515,         161P    169
0.995683695203872,0,0.00153496102308392,0.994987021328623,0,         161P    170
0.000280044291319726,0.994272255634782,0,0,0.993789676855114,0,      161P    171
0,0.993548387096774,0,0,1,0,0,1;                                     161P    172
126,1,1,1,0,1,0,0,0,1,1,1,1,0,0.993548387096774,0,0,0,0,0,1,0,0,     163P    173
1;                                                                   163P    174
126,1,1,1,0,1,0,0,0,1,1,1,1,0,0,0,1,0,0,0,1,0,0,1;                   165P    175
126,1,1,1,0,1,0,0,0,1,1,1,1,1,0,0,1,0.032258064516129,0,0,1,0,0,     167P    176
1;                                                                   167P    177
126,1,1,1,0,1,0,0,0,1,1,1,1,1,0.032258064516129,0,                   169P    178
0.133333333333333,0.032258064516129,0,0,1,0,0,1;                     169P    179
126,1,1,1,0,1,0,0,0,1,1,1,1,0.133333333333333,0.032258064516129,     171P    180
0,0.133333333333333,0.987096774193548,0,0,1,0,0,1;                   171P    181
126,1,1,1,0,1,0,0,0,1,1,1,1,0.133333333333333,0.987096774193548,     173P    182
0,0.466666666666667,0.987096774193548,0,0,1,0,0,1;                   173P    183
126,1,1,1,0,1,0,0,0,1,1,1,1,0.466666666666667,0.993548387096774,     175P    184
0,0.466666666666667,0.987096774193548,0,0,1,0,0,1;                   175P    185
508,10,0,111,14,1,1,0,157,0,111,4,0,1,0,159,0,111,15,1,1,0,161,      177P    186
0,111,16,1,1,0,163,0,111,17,1,1,0,165,0,111,18,1,1,0,167,0,111,      177P    187
19,1,1,0,169,0,111,20,1,1,0,171,0,111,21,1,1,0,173,0,111,22,0,1,     177P    188
0,175;                                                               177P    189
510,155,1,1,177;                                                     179P    190
128,1,1,1,1,0,0,1,0,0,0,0,1,1,0,0,1,1,1,1,1,1,235,-5.5,5,-235,       181P    191
-5.5,5,235,-5.5,153,-235,-5.5,153,0,1,0,1;                           181P    192
126,1,1,1,0,1,0,0,0,1,1,1,1,0,1,0,1,1,0,0,1,0,0,1;                   183P    193
126,1,1,1,0,1,0,0,0,1,1,1,1,0,0,0,0,1,0,0,1,0,0,1;                   185P    194
126,1,1,1,0,1,0,0,0,1,1,1,1,0,0,0,1,0,0,0,1,0,0,1;                   187P    195
126,1,1,1,0,1,0,0,0,1,1,1,1,1,1,0,1,0,0,0,1,0,0,1;                   189P    196
508,4,0,111,23,0,1,0,183,0,111,20,0,1,0,185,0,111,24,1,1,0,187,      191P    197
0,111,8,0,1,0,189;                                                   191P    198
510,181,1,1,191;                                                     193P    199
128,1,1,1,1,0,0,1,0,0,0,0,1,1,0,0,1,1,1,1,1,1,235,-5.5,153,-235,     195P    200
-5.5,153,235,-0.5,153,-235,-0.5,153,0,1,0,1;                         195P    201
126,1,1,1,0,1,0,0,0,1,1,1,1,0,0,0,1,0,0,0,1,0,0,1;                   197P    202
126,1,1,1,0,1,0,0,0,1,1,1,1,1,0,0,1,1,0,0,1,0,0,1;                   199P    203
126,1,1,1,0,1,0,0,0,1,1,1,1,0,1,0,1,1,0,0,1,0,0,1;                   201P    204
126,1,1,1,0,1,0,0,0,1,1,1,1,0,0,0,0,1,0,0,1,0,0,1;                   203P    205
508,4,0,111,23,1,1,0,197,0,111,7,1,1,0,199,0,111,25,0,1,0,201,0,     205P    206
111,21,0,1,0,203;                                                    205P    207
510,195,1,1,205;                                                     207P    208
128,1,1,1,1,0,0,1,0,0,0,0,1,1,0,0,1,1,1,1,1,1,-235,-7.5,0,235,       209P    209
-7.5,0,-235,-7.5,154,235,-7.5,154,0,1,0,1;                           209P    210
126,1,1,1,0,1,0,0,0,1,1,1,1,0,1,0,1,1,0,0,1,0,0,1;                   211P    211
126,1,1,1,0,1,0,0,0,1,1,1,1,0,0,0,0,1,0,0,1,0,0,1;                   213P    212
126,1,1,1,0,1,0,0,0,1,1,1,1,0,0,0,1,0,0,0,1,0,0,1;                   215P    213
126,1,1,1,0,1,0,0,0,1,1,1,1,1,1,0,1,0,0,0,1,0,0,1;                   217P    214
508,4,0,111,26,0,1,0,211,0,111,12,0,1,0,213,0,111,27,1,1,0,215,      219P    215
0,111,16,0,1,0,217;                                                  219P    216
510,209,1,1,219;                                                     221P    217
128,1,1,1,1,0,0,1,0,0,0,0,1,1,0,0,1,1,1,1,1,1,235,-0.5,154,235,      223P    218
-0.5,153,-235,-0.5,154,-235,-0.5,153,0,1,0,1;                        223P    219
126,1,1,1,0,1,0,0,0,1,1,1,1,0,1,0,0,0,0,0,1,0,0,1;                   225P    220
126,1,1,1,0,1,0,0,0,1,1,1,1,0,0,0,1,0,0,0,1,0,0,1;                   227P    221
126,1,1,1,0,1,0,0,0,1,1,1,1,1,0,0,1,1,0,0,1,0,0,1;                   229P    222
126,1,1,1,0,1,0,0,0,1,1,1,1,1,1,0,0,1,0,0,1,0,0,1;                   231P    223
508,4,0,111,28,1,1,0,225,0,111,22,1,1,0,227,0,111,25,1,1,0,229,      233P    224
0,111,6,1,1,0,231;                                                   233P    225
510,223,1,1,233;                                                     235P    226
128,1,1,1,1,0,0,1,0,0,0,0,1,1,0,0,1,1,1,1,1,1,-235,-7.5,0,235,       237P    227
-7.5,0,-235,7.5,0,235,7.5,0,0,1,0,1;                                 237P    228
126,1,1,1,0,1,0,0,0,1,1,1,1,0,0,0,1,0,0,0,1,0,0,1;                   239P    229
126,1,1,1,0,1,0,0,0,1,1,1,1,0,1,0,0,0,0,0,1,0,0,1;                   241P    230
126,1,1,1,0,1,0,0,0,1,1,1,1,1,1,0,0,1,0,0,1,0,0,1;                   243P    231
126,1,1,1,0,1,0,0,0,1,1,1,1,1,0,0,1,1,0,0,1,0,0,1;                   245P    232
508,4,0,111,27,0,1,0,239,0,111,11,0,1,0,241,0,111,29,0,1,0,243,      247P    233
0,111,17,0,1,0,245;                                                  247P    234
126,28,3,1,0,1,0,0,0,0,0,0.0384615384615385,0.0769230769230769,      249P    235
0.115384615384615,0.153846153846154,0.192307692307692,               249P    236
0.230769230769231,0.269230769230769,0.307692307692308,               249P    237
0.346153846153846,0.384615384615385,0.423076923076923,               249P    238
0.461538461538461,0.5,0.538461538461538,0.576923076923077,           249P    239
0.615384615384615,0.653846153846154,0.692307692307692,               249P    240
0.73076923076923,0.769230769230769,0.807692307692307,                249P    241
0.846153846153846,0.884615384615384,0.923076923076923,               249P    242
0.961538461538461,1,1,1,1,1,1,1,1,1,1,1,1,1,1,1,1,1,1,1,1,1,1,1,     249P    243
1,1,1,1,1,1,1,1,1,1,0.441489361702128,0.566666666666667,0,           249P    244
0.441489361702128,0.57337947148203,0,0.441463443655157,              249P    245
0.586805053527115,0,0.441347379359018,0.606649785687377,0,           249P    246
0.441155820315988,0.625911468010935,0,0.440891559888268,             249P    247
0.644309229311418,0,0.440558451587957,0.66157478678716,0,            249P    248
0.440161352884168,0.677456370271098,0,0.439706054370191,             249P    249
0.691722390369244,0,0.439199195323602,0.704164816423028,0,           249P    250
0.438648166890648,0.714602209832301,0,0.43806100430669,              249P    251
0.722882369900976,0,0.437446269724375,0.728884553249209,0,           249P    252
0.436812927358177,0.732521234528242,0,0.436170212765957,             249P    253
0.733739382735879,0,0.435527498173738,0.732521234528242,0,           249P    254
0.434894155807539,0.728884553249209,0,0.434279421225225,             249P    255
0.722882369900976,0,0.433692258641266,0.714602209832302,0,           249P    256
0.433141230208312,0.704164816423028,0,0.432634371161724,             249P    257
0.691722390369244,0,0.432179072647746,0.677456370271098,0,           249P    258
0.431781973943958,0.66157478678716,0,0.431448865643647,              249P    259
0.644309229311419,0,0.431184605215927,0.625911468010935,0,           249P    260
0.430993046172897,0.606649785687377,0,0.430876981876758,             249P    261
0.586805053527115,0,0.430851063829787,0.57337947148203,0,            249P    262
0.430851063829787,0.566666666666667,0,0,1,0,0,1;                     249P    263
126,28,3,1,0,1,0,0,0,0,0,0.0384615384615385,0.0769230769230769,      251P    264
0.115384615384615,0.153846153846154,0.192307692307692,               251P    265
0.230769230769231,0.269230769230769,0.307692307692308,               251P    266
0.346153846153846,0.384615384615385,0.423076923076923,               251P    267
0.461538461538461,0.5,0.538461538461538,0.576923076923077,           251P    268
0.615384615384615,0.653846153846154,0.692307692307692,               251P    269
0.73076923076923,0.769230769230769,0.807692307692307,                251P    270
0.846153846153846,0.884615384615384,0.923076923076923,               251P    271
0.961538461538461,1,1,1,1,1,1,1,1,1,1,1,1,1,1,1,1,1,1,1,1,1,1,1,     251P    272
1,1,1,1,1,1,1,1,1,1,0.430851063829787,0.566666666666667,0,           251P    273
0.430851063829787,0.559953861851304,0,0.430876981876758,             251P    274
0.546528279806219,0,0.430993046172897,0.526683547645956,0,           251P    275
0.431184605215927,0.507421865322398,0,0.431448865643647,             251P    276
0.489024104021915,0,0.431781973943958,0.471758546546173,0,           251P    277
0.432179072647746,0.455876963062236,0,0.432634371161724,             251P    278
0.44161094296409,0,0.433141230208312,0.429168516910306,0,            251P    279
0.433692258641266,0.418731123501032,0,0.434279421225225,             251P    280
0.410450963432357,0,0.434894155807539,0.404448780084125,0,           251P    281
0.435527498173738,0.400812098805092,0,0.436170212765957,             251P    282
0.399593950597454,0,0.436812927358177,0.400812098805092,0,           251P    283
0.437446269724375,0.404448780084125,0,0.43806100430669,              251P    284
0.410450963432357,0,0.438648166890648,0.418731123501032,0,           251P    285
0.439199195323602,0.429168516910306,0,0.439706054370191,             251P    286
0.441610942964089,0,0.440161352884168,0.455876963062235,0,           251P    287
0.440558451587957,0.471758546546173,0,0.440891559888268,             251P    288
0.489024104021915,0,0.441155820315988,0.507421865322398,0,           251P    289
0.441347379359018,0.526683547645956,0,0.441463443655157,             251P    290
0.546528279806218,0,0.441489361702128,0.559953861851304,0,           251P    291
0.441489361702128,0.566666666666667,0,0,1,0,0,1;                     251P    292
508,2,0,111,30,1,1,0,249,0,111,31,1,1,0,251;                         253P    293
126,28,3,1,0,1,0,0,0,0,0,0.0384615384615385,0.0769230769230769,      255P    294
0.115384615384615,0.153846153846154,0.192307692307692,               255P    295
0.230769230769231,0.269230769230769,0.307692307692308,               255P    296
0.346153846153846,0.384615384615385,0.423076923076923,               255P    297
0.461538461538461,0.5,0.538461538461538,0.576923076923077,           255P    298
0.615384615384615,0.653846153846154,0.692307692307692,               255P    299
0.73076923076923,0.769230769230769,0.807692307692307,                255P    300
0.846153846153846,0.884615384615384,0.923076923076923,               255P    301
0.961538461538461,1,1,1,1,1,1,1,1,1,1,1,1,1,1,1,1,1,1,1,1,1,1,1,     255P    302
1,1,1,1,1,1,1,1,1,1,0.569148936170213,0.566666666666667,0,           255P    303
0.569148936170213,0.57337947148203,0,0.569123018123242,              255P    304
0.586805053527115,0,0.569006953827103,0.606649785687377,0,           255P    305
0.568815394784073,0.625911468010935,0,0.568551134356353,             255P    306
0.644309229311418,0,0.568218026056042,0.66157478678716,0,            255P    307
0.567820927352254,0.677456370271098,0,0.567365628838276,             255P    308
0.691722390369244,0,0.566858769791688,0.704164816423028,0,           255P    309
0.566307741358734,0.714602209832301,0,0.565720578774775,             255P    310
0.722882369900976,0,0.565105844192461,0.728884553249209,0,           255P    311
0.564472501826262,0.732521234528242,0,0.563829787234043,             255P    312
0.733739382735879,0,0.563187072641823,0.732521234528242,0,           255P    313
0.562553730275625,0.728884553249209,0,0.56193899569331,              255P    314
0.722882369900976,0,0.561351833109352,0.714602209832302,0,           255P    315
0.560800804676397,0.704164816423028,0,0.560293945629809,             255P    316
0.691722390369244,0,0.559838647115832,0.677456370271098,0,           255P    317
0.559441548412043,0.66157478678716,0,0.559108440111732,              255P    318
0.644309229311419,0,0.558844179684012,0.625911468010935,0,           255P    319
0.558652620640983,0.606649785687377,0,0.558536556344843,             255P    320
0.586805053527115,0,0.558510638297872,0.57337947148203,0,            255P    321
0.558510638297872,0.566666666666667,0,0,1,0,0,1;                     255P    322
126,28,3,1,0,1,0,0,0,0,0,0.0384615384615385,0.0769230769230769,      257P    323
0.115384615384615,0.153846153846154,0.192307692307692,               257P    324
0.230769230769231,0.269230769230769,0.307692307692308,               257P    325
0.346153846153846,0.384615384615385,0.423076923076923,               257P    326
0.461538461538461,0.5,0.538461538461538,0.576923076923077,           257P    327
0.615384615384615,0.653846153846154,0.692307692307692,               257P    328
0.73076923076923,0.769230769230769,0.807692307692307,                257P    329
0.846153846153846,0.884615384615384,0.923076923076923,               257P    330
0.961538461538461,1,1,1,1,1,1,1,1,1,1,1,1,1,1,1,1,1,1,1,1,1,1,1,     257P    331
1,1,1,1,1,1,1,1,1,1,0.558510638297872,0.566666666666667,0,           257P    332
0.558510638297872,0.559953861851304,0,0.558536556344843,             257P    333
0.546528279806219,0,0.558652620640983,0.526683547645956,0,           257P    334
0.558844179684012,0.507421865322398,0,0.559108440111732,             257P    335
0.489024104021915,0,0.559441548412043,0.471758546546173,0,           257P    336
0.559838647115832,0.455876963062236,0,0.560293945629809,             257P    337
0.44161094296409,0,0.560800804676397,0.429168516910306,0,            257P    338
0.561351833109351,0.418731123501032,0,0.56193899569331,              257P    339
0.410450963432357,0,0.562553730275625,0.404448780084125,0,           257P    340
0.563187072641823,0.400812098805092,0,0.563829787234043,             257P    341
0.399593950597454,0,0.564472501826262,0.400812098805092,0,           257P    342
0.565105844192461,0.404448780084125,0,0.565720578774775,             257P    343
0.410450963432357,0,0.566307741358734,0.418731123501032,0,           257P    344
0.566858769791688,0.429168516910306,0,0.567365628838276,             257P    345
0.441610942964089,0,0.567820927352254,0.455876963062235,0,           257P    346
0.568218026056042,0.471758546546173,0,0.568551134356353,             257P    347
0.489024104021915,0,0.568815394784073,0.507421865322398,0,           257P    348
0.569006953827103,0.526683547645956,0,0.569123018123242,             257P    349
0.546528279806218,0,0.569148936170213,0.559953861851304,0,           257P    350
0.569148936170213,0.566666666666667,0,0,1,0,0,1;                     257P    351
508,2,0,111,32,1,1,0,255,0,111,33,1,1,0,257;                         259P    352
510,237,3,1,247,253,259;                                             261P    353
128,1,1,1,1,0,0,1,0,0,0,0,1,1,0,0,1,1,1,1,1,1,-235,-5.5,5,235,       263P    354
-5.5,5,-235,7.5,5,235,7.5,5,0,1,0,1;                                 263P    355
126,1,1,1,0,1,0,0,0,1,1,1,1,1,0,0,0,0,0,0,1,0,0,1;                   265P    356
126,1,1,1,0,1,0,0,0,1,1,1,1,1,1,0,1,0,0,0,1,0,0,1;                   267P    357
126,1,1,1,0,1,0,0,0,1,1,1,1,1,1,0,0,1,0,0,1,0,0,1;                   269P    358
126,1,1,1,0,1,0,0,0,1,1,1,1,0,0,0,0,1,0,0,1,0,0,1;                   271P    359
508,4,0,111,24,0,1,0,265,0,111,19,0,1,0,267,0,111,34,1,1,0,269,      273P    360
0,111,9,0,1,0,271;                                                   273P    361
126,28,3,1,0,1,0,0,0,0,0,0.0384615384615385,0.0769230769230769,      275P    362
0.115384615384615,0.153846153846154,0.192307692307692,               275P    363
0.230769230769231,0.269230769230769,0.307692307692308,               275P    364
0.346153846153846,0.384615384615385,0.423076923076923,               275P    365
0.461538461538461,0.5,0.538461538461538,0.576923076923077,           275P    366
0.615384615384615,0.653846153846154,0.692307692307692,               275P    367
0.73076923076923,0.769230769230769,0.807692307692307,                275P    368
0.846153846153846,0.884615384615384,0.923076923076923,               275P    369
0.961538461538461,1,1,1,1,1,1,1,1,1,1,1,1,1,1,1,1,1,1,1,1,1,1,1,     275P    370
1,1,1,1,1,1,1,1,1,1,0.430851063829787,0.5,0,0.430851063829787,       275P    371
0.492254455982274,0,0.430876981876758,0.476763399776406,0,           275P    372
0.430993046172897,0.453865631899181,0,0.431184605215927,             275P    373
0.431640613833537,0,0.431448865643647,0.410412427717594,0,           275P    374
0.431781973943958,0.3904906306302,0,0.432179072647746,               275P    375
0.372165726610272,0,0.432634371161724,0.355704934189334,0,           275P    376
0.433141230208312,0.34134828874266,0,0.433692258641266,              275P    377
0.329305142501191,0,0.434279421225225,0.31975111165272,0,            275P    378
0.434894155807539,0.312825515481683,0,0.435527498173738,             275P    379
0.308629344775106,0,0.436170212765957,0.307223789150909,0,           275P    380
0.436812927358177,0.308629344775106,0,0.437446269724375,             275P    381
0.312825515481682,0,0.43806100430669,0.31975111165272,0,             275P    382
0.438648166890648,0.329305142501191,0,0.439199195323602,             275P    383
0.34134828874266,0,0.439706054370191,0.355704934189334,0,            275P    384
0.440161352884168,0.372165726610272,0,0.440558451587957,             275P    385
0.3904906306302,0,0.440891559888268,0.410412427717594,0,             275P    386
0.441155820315988,0.431640613833536,0,0.441347379359018,             275P    387
0.45386563189918,0,0.441463443655157,0.476763399776406,0,            275P    388
0.441489361702128,0.492254455982274,0,0.441489361702128,0.5,0,0,     275P    389
1,0,0,1;                                                             275P    390
126,28,3,1,0,1,0,0,0,0,0,0.0384615384615385,0.0769230769230769,      277P    391
0.115384615384615,0.153846153846154,0.192307692307692,               277P    392
0.230769230769231,0.269230769230769,0.307692307692308,               277P    393
0.346153846153846,0.384615384615385,0.423076923076923,               277P    394
0.461538461538461,0.5,0.538461538461538,0.576923076923077,           277P    395
0.615384615384615,0.653846153846154,0.692307692307692,               277P    396
0.73076923076923,0.769230769230769,0.807692307692307,                277P    397
0.846153846153846,0.884615384615384,0.923076923076923,               277P    398
0.961538461538461,1,1,1,1,1,1,1,1,1,1,1,1,1,1,1,1,1,1,1,1,1,1,1,     277P    399
1,1,1,1,1,1,1,1,1,1,0.441489361702128,0.5,0,0.441489361702128,       277P    400
0.507745544017726,0,0.441463443655157,0.523236600223594,0,           277P    401
0.441347379359018,0.54613436810082,0,0.441155820315988,              277P    402
0.568359386166463,0,0.440891559888268,0.589587572282406,0,           277P    403
0.440558451587957,0.6095093693698,0,0.440161352884168,               277P    404
0.627834273389728,0,0.439706054370191,0.644295065810666,0,           277P    405
0.439199195323602,0.65865171125734,0,0.438648166890648,              277P    406
0.67069485749881,0,0.43806100430669,0.68024888834728,0,              277P    407
0.437446269724375,0.687174484518318,0,0.436812927358177,             277P    408
0.691370655224894,0,0.436170212765957,0.692776210849091,0,           277P    409
0.435527498173738,0.691370655224894,0,0.434894155807539,             277P    410
0.687174484518318,0,0.434279421225225,0.68024888834728,0,            277P    411
0.433692258641266,0.67069485749881,0,0.433141230208312,              277P    412
0.65865171125734,0,0.432634371161724,0.644295065810666,0,            277P    413
0.432179072647746,0.627834273389729,0,0.431781973943958,             277P    414
0.6095093693698,0,0.431448865643647,0.589587572282406,0,             277P    415
0.431184605215927,0.568359386166464,0,0.430993046172897,             277P    416
0.54613436810082,0,0.430876981876758,0.523236600223594,0,            277P    417
0.430851063829787,0.507745544017727,0,0.430851063829787,0.5,0,0,     277P    418
1,0,0,1;                                                             277P    419
508,2,0,111,35,0,1,0,275,0,111,36,0,1,0,277;                         279P    420
126,28,3,1,0,1,0,0,0,0,0,0.0384615384615385,0.0769230769230769,      281P    421
0.115384615384615,0.153846153846154,0.192307692307692,               281P    422
0.230769230769231,0.269230769230769,0.307692307692308,               281P    423
0.346153846153846,0.384615384615385,0.423076923076923,               281P    424
0.461538461538461,0.5,0.538461538461538,0.576923076923077,           281P    425
0.615384615384615,0.653846153846154,0.692307692307692,               281P    426
0.73076923076923,0.769230769230769,0.807692307692307,                281P    427
0.846153846153846,0.884615384615384,0.923076923076923,               281P    428
0.961538461538461,1,1,1,1,1,1,1,1,1,1,1,1,1,1,1,1,1,1,1,1,1,1,1,     281P    429
1,1,1,1,1,1,1,1,1,1,0.558510638297872,0.5,0,0.558510638297872,       281P    430
0.492254455982274,0,0.558536556344843,0.476763399776406,0,           281P    431
0.558652620640983,0.453865631899181,0,0.558844179684012,             281P    432
0.431640613833537,0,0.559108440111732,0.410412427717594,0,           281P    433
0.559441548412043,0.3904906306302,0,0.559838647115832,               281P    434
0.372165726610272,0,0.560293945629809,0.355704934189334,0,           281P    435
0.560800804676397,0.34134828874266,0,0.561351833109351,              281P    436
0.329305142501191,0,0.56193899569331,0.31975111165272,0,             281P    437
0.562553730275625,0.312825515481683,0,0.563187072641823,             281P    438
0.308629344775106,0,0.563829787234043,0.307223789150909,0,           281P    439
0.564472501826262,0.308629344775106,0,0.565105844192461,             281P    440
0.312825515481682,0,0.565720578774775,0.31975111165272,0,            281P    441
0.566307741358734,0.329305142501191,0,0.566858769791688,             281P    442
0.34134828874266,0,0.567365628838276,0.355704934189334,0,            281P    443
0.567820927352254,0.372165726610272,0,0.568218026056042,             281P    444
0.3904906306302,0,0.568551134356353,0.410412427717594,0,             281P    445
0.568815394784073,0.431640613833536,0,0.569006953827103,             281P    446
0.45386563189918,0,0.569123018123242,0.476763399776406,0,            281P    447
0.569148936170213,0.492254455982274,0,0.569148936170213,0.5,0,0,     281P    448
1,0,0,1;                                                             281P    449
126,28,3,1,0,1,0,0,0,0,0,0.0384615384615385,0.0769230769230769,      283P    450
0.115384615384615,0.153846153846154,0.192307692307692,               283P    451
0.230769230769231,0.269230769230769,0.307692307692308,               283P    452
0.346153846153846,0.384615384615385,0.423076923076923,               283P    453
0.461538461538461,0.5,0.538461538461538,0.576923076923077,           283P    454
0.615384615384615,0.653846153846154,0.692307692307692,               283P    455
0.73076923076923,0.769230769230769,0.807692307692307,                283P    456
0.846153846153846,0.884615384615384,0.923076923076923,               283P    457
0.961538461538461,1,1,1,1,1,1,1,1,1,1,1,1,1,1,1,1,1,1,1,1,1,1,1,     283P    458
1,1,1,1,1,1,1,1,1,1,0.569148936170213,0.5,0,0.569148936170213,       283P    459
0.507745544017726,0,0.569123018123242,0.523236600223594,0,           283P    460
0.569006953827103,0.54613436810082,0,0.568815394784073,              283P    461
0.568359386166463,0,0.568551134356353,0.589587572282406,0,           283P    462
0.568218026056042,0.6095093693698,0,0.567820927352254,               283P    463
0.627834273389728,0,0.567365628838276,0.644295065810666,0,           283P    464
0.566858769791688,0.65865171125734,0,0.566307741358734,              283P    465
0.67069485749881,0,0.565720578774775,0.68024888834728,0,             283P    466
0.565105844192461,0.687174484518318,0,0.564472501826262,             283P    467
0.691370655224894,0,0.563829787234043,0.692776210849091,0,           283P    468
0.563187072641823,0.691370655224894,0,0.562553730275625,             283P    469
0.687174484518318,0,0.56193899569331,0.68024888834728,0,             283P    470
0.561351833109352,0.67069485749881,0,0.560800804676397,              283P    471
0.65865171125734,0,0.560293945629809,0.644295065810666,0,            283P    472
0.559838647115832,0.627834273389729,0,0.559441548412043,             283P    473
0.6095093693698,0,0.559108440111732,0.589587572282406,0,             283P    474
0.558844179684012,0.568359386166464,0,0.558652620640983,             283P    475
0.54613436810082,0,0.558536556344843,0.523236600223594,0,            283P    476
0.558510638297872,0.507745544017727,0,0.558510638297872,0.5,0,0,     283P    477
1,0,0,1;                                                             283P    478
508,2,0,111,37,0,1,0,281,0,111,38,0,1,0,283;                         285P    479
510,263,3,1,273,279,285;                                             287P    480
128,1,1,1,1,0,0,1,0,0,0,0,1,1,0,0,1,1,1,1,1,1,235,7.5,0,-235,        289P    481
7.5,0,235,7.5,5,-235,7.5,5,0,1,0,1;                                  289P    482
126,1,1,1,0,1,0,0,0,1,1,1,1,0,0,0,1,0,0,0,1,0,0,1;                   291P    483
126,1,1,1,0,1,0,0,0,1,1,1,1,1,1,0,1,0,0,0,1,0,0,1;                   293P    484
126,1,1,1,0,1,0,0,0,1,1,1,1,0,1,0,1,1,0,0,1,0,0,1;                   295P    485
126,1,1,1,0,1,0,0,0,1,1,1,1,0,0,0,0,1,0,0,1,0,0,1;                   297P    486
508,4,0,111,29,1,1,0,291,0,111,10,0,1,0,293,0,111,34,0,1,0,295,      299P    487
0,111,18,0,1,0,297;                                                  299P    488
510,289,1,1,299;                                                     301P    489
110,-30,1,-5,-30,1,-4;                                               303P    490
110,-27.5,1,0,-27.5,1,5;                                             305P    491
120,303,305,0,6.28318530717959;                                      307P    492
126,1,1,1,0,1,0,0,0,1,1,1,1,1,0,0,1,3.14159265358979,0,0,1,0,0,      309P    493
1;                                                                   309P    494
126,1,1,1,0,1,0,0,0,1,1,1,1,0,3.14159265358979,0,1,                  311P    495
3.14159265358979,0,0,1,0,0,1;                                        311P    496
126,1,1,1,0,1,0,0,0,1,1,1,1,0,0,0,0,3.14159265358979,0,0,1,0,0,      313P    497
1;                                                                   313P    498
126,1,1,1,0,1,0,0,0,1,1,1,1,0,0,0,1,0,0,0,1,0,0,1;                   315P    499
508,4,0,111,36,1,1,0,309,0,111,39,0,1,0,311,0,111,30,0,1,0,313,      317P    500
0,111,40,1,1,0,315;                                                  317P    501
510,307,1,1,317;                                                     319P    502
110,30,1,-5,30,1,-4;                                                 321P    503
110,32.5,1,0,32.5,1,5;                                               323P    504
120,321,323,0,6.28318530717959;                                      325P    505
126,1,1,1,0,1,0,0,0,1,1,1,1,1,0,0,1,3.14159265358979,0,0,1,0,0,      327P    506
1;                                                                   327P    507
126,1,1,1,0,1,0,0,0,1,1,1,1,0,3.14159265358979,0,1,                  329P    508
3.14159265358979,0,0,1,0,0,1;                                        329P    509
126,1,1,1,0,1,0,0,0,1,1,1,1,0,0,0,0,3.14159265358979,0,0,1,0,0,      331P    510
1;                                                                   331P    511
126,1,1,1,0,1,0,0,0,1,1,1,1,0,0,0,1,0,0,0,1,0,0,1;                   333P    512
508,4,0,111,38,1,1,0,327,0,111,41,0,1,0,329,0,111,32,0,1,0,331,      335P    513
0,111,42,1,1,0,333;                                                  335P    514
510,325,1,1,335;                                                     337P    515
110,-239,-6.5,154,-238,-6.5,154;                                     339P    516
110,-235,-6.5,155,235,-6.5,155;                                      341P    517
120,339,341,0,6.28318530717959;                                      343P    518
126,1,1,1,0,1,0,0,0,1,1,1,1,0,1.5707963267949,0,1,                   345P    519
1.5707963267949,0,0,1,0,0,1;                                         345P    520
126,1,1,1,0,1,0,0,0,1,1,1,1,1,0,0,1,1.5707963267949,0,0,1,0,0,1;     347P    521
126,1,1,1,0,1,0,0,0,1,1,1,1,0,0,0,1,0,0,0,1,0,0,1;                   349P    522
126,1,1,1,0,1,0,0,0,1,1,1,1,0,1.5707963267949,0,0,0,0,0,1,0,0,1;     351P    523
508,4,0,111,26,1,1,0,345,0,111,15,0,1,0,347,0,111,3,0,1,0,349,0,     353P    524
111,13,0,1,0,351;                                                    353P    525
510,343,1,1,353;                                                     355P    526
110,-239,-1.5,154,-238,-1.5,154;                                     357P    527
110,-235,-0.5,154,235,-0.5,154;                                      359P    528
120,357,359,0,6.28318530717959;                                      361P    529
126,1,1,1,0,1,0,0,0,1,1,1,1,0,1.5707963267949,0,1,                   363P    530
1.5707963267949,0,0,1,0,0,1;                                         363P    531
126,1,1,1,0,1,0,0,0,1,1,1,1,1,0,0,1,1.5707963267949,0,0,1,0,0,1;     365P    532
126,1,1,1,0,1,0,0,0,1,1,1,1,0,0,0,1,0,0,0,1,0,0,1;                   367P    533
126,1,1,1,0,1,0,0,0,1,1,1,1,0,1.5707963267949,0,0,0,0,0,1,0,0,1;     369P    534
508,4,0,111,1,1,1,0,363,0,111,14,0,1,0,365,0,111,28,0,1,0,367,0,     371P    535
111,5,0,1,0,369;                                                     371P    536
510,361,1,1,371;                                                     373P    537
110,-30,1,-5,-30,1,-4;                                               375P    538
110,-32.5,1,0,-32.5,1,5;                                             377P    539
120,375,377,0,6.28318530717959;                                      379P    540
126,1,1,1,0,1,0,0,0,1,1,1,1,0,3.14159265358979,0,1,                  381P    541
3.14159265358979,0,0,1,0,0,1;                                        381P    542
126,1,1,1,0,1,0,0,0,1,1,1,1,0,0,0,0,3.14159265358979,0,0,1,0,0,      383P    543
1;                                                                   383P    544
126,1,1,1,0,1,0,0,0,1,1,1,1,0,0,0,1,0,0,0,1,0,0,1;                   385P    545
126,1,1,1,0,1,0,0,0,1,1,1,1,1,0,0,1,3.14159265358979,0,0,1,0,0,      387P    546
1;                                                                   387P    547
508,4,0,111,40,0,1,0,381,0,111,31,0,1,0,383,0,111,39,1,1,0,385,      389P    548
0,111,35,1,1,0,387;                                                  389P    549
510,379,1,1,389;                                                     391P    550
110,30,1,-5,30,1,-4;                                                 393P    551
110,27.5,1,0,27.5,1,5;                                               395P    552
120,393,395,0,6.28318530717959;                                      397P    553
126,1,1,1,0,1,0,0,0,1,1,1,1,0,3.14159265358979,0,1,                  399P    554
3.14159265358979,0,0,1,0,0,1;                                        399P    555
126,1,1,1,0,1,0,0,0,1,1,1,1,0,0,0,0,3.14159265358979,0,0,1,0,0,      401P    556
1;                                                                   401P    557
126,1,1,1,0,1,0,0,0,1,1,1,1,0,0,0,1,0,0,0,1,0,0,1;                   403P    558
126,1,1,1,0,1,0,0,0,1,1,1,1,1,0,0,1,3.14159265358979,0,0,1,0,0,      405P    559
1;                                                                   405P    560
508,4,0,111,42,0,1,0,399,0,111,33,0,1,0,401,0,111,41,1,1,0,403,      407P    561
0,111,37,1,1,0,405;                                                  407P    562
510,397,1,1,407;                                                     409P    563
514,16,127,1,153,1,179,1,193,1,207,1,221,1,235,1,261,0,287,1,        411P    564
301,1,319,1,337,1,355,0,373,0,391,1,409,1;                           411P    565
186,411,1,0;                                                         413P    566
S      2G      3D    414P    566                                        T      1
