IGES file generated by C3D Converter 1.8                                S      1
translator by C3D Labs., translator version IGESOUT-5.1.                S      2
1H,,1H;,7H Деталь,48HE:\Сдача задания\Модели\IGES\Ручка струбцины.igs,0HG      1
,3H1.0,32,38,6,308,15,7Hunknown,1,2,2HMM,1000,1,16H-17740206:063138,1E-6G      2
,50000,4Huser,7Hunknown,0,0,13H260306:063140;                           G      3
     502       1       0       0       0       0       0       000010000D      1
     502       0       0       8       1                               0D      2
     110       9       0       0       0       0       0       000010000D      3
     110       1       0       1       0                               0D      4
     110      10       0       0       0       0       0       000010000D      5
     110       1       0       1       0                               0D      6
     110      11       0       0       0       0       0       000010000D      7
     110       1       0       1       0                               0D      8
     110      12       0       0       0       0       0       000010000D      9
     110       1       0       1       0                               0D     10
     110      13       0       0       0       0       0       000010000D     11
     110       1       0       1       0                               0D     12
     110      14       0       0       0       0       0       000010000D     13
     110       1       0       1       0                               0D     14
     110      15       0       0       0       0       0       000010000D     15
     110       1       0       1       0                               0D     16
     110      16       0       0       0       0       0       000010000D     17
     110       1       0       1       0                               0D     18
     110      17       0       0       0       0       0       000010000D     19
     110       1       0       1       0                               0D     20
     110      18       0       0       0       0       0       000010000D     21
     110       1       0       1       0                               0D     22
     110      19       0       0       0       0       0       000010000D     23
     110       1       0       1       0                               0D     24
     110      20       0       0       0       0       0       000010000D     25
     110       1       0       1       0                               0D     26
     110      21       0       0       0       0       0       000010000D     27
     110       1       0       1       0                               0D     28
     110      22       0       0       0       0       0       000010000D     29
     110       1       0       1       0                               0D     30
     110      23       0       0       0       0       0       000010000D     31
     110       1       0       1       0                               0D     32
     110      24       0       0       0       0       0       000010000D     33
     110       1       0       1       0                               0D     34
     110      25       0       0       0       0       0       000010000D     35
     110       1       0       2       0                               0D     36
     124      27       0       0       0       0       0       001020201D     37
     124       1       0       3       0                               0D     38
     100      30       0       0       0       0      37       000010000D     39
     100       1       0       1       0                               0D     40
     110      31       0       0       0       0       0       000010000D     41
     110       1       0       2       0                               0D     42
     124      33       0       0       0       0       0       001020201D     43
     124       1       0       3       0                               0D     44
     100      36       0       0       0       0      43       000010000D     45
     100       1       0       1       0                               0D     46
     124      37       0       0       0       0       0       001020201D     47
     124       1       0       3       0                               0D     48
     100      40       0       0       0       0      47       000010000D     49
     100       1       0       1       0                               0D     50
     124      41       0       0       0       0       0       001020201D     51
     124       1       0       2       0                               0D     52
     100      43       0       0       0       0      51       000010000D     53
     100       1       0       1       0                               0D     54
     124      44       0       0       0       0       0       001020201D     55
     124       1       0       3       0                               0D     56
     100      47       0       0       0       0      55       000010000D     57
     100       1       0       1       0                               0D     58
     124      48       0       0       0       0       0       001020201D     59
     124       1       0       2       0                               0D     60
     100      50       0       0       0       0      59       000010000D     61
     100       1       0       1       0                               0D     62
     124      51       0       0       0       0       0       001020201D     63
     124       1       0       2       0                               0D     64
     100      53       0       0       0       0      63       000010000D     65
     100       1       0       1       0                               0D     66
     124      54       0       0       0       0       0       001020201D     67
     124       1       0       3       0                               0D     68
     100      57       0       0       0       0      67       000010000D     69
     100       1       0       1       0                               0D     70
     110      58       0       0       0       0       0       000010000D     71
     110       1       0       1       0                               0D     72
     110      59       0       0       0       0       0       000010000D     73
     110       1       0       1       0                               0D     74
     110      60       0       0       0       0       0       000010000D     75
     110       1       0       1       0                               0D     76
     110      61       0       0       0       0       0       000010000D     77
     110       1       0       1       0                               0D     78
     124      62       0       0       0       0       0       001020201D     79
     124       1       0       2       0                               0D     80
     100      64       0       0       0       0      79       000010000D     81
     100       1       0       1       0                               0D     82
     124      65       0       0       0       0       0       001020201D     83
     124       1       0       2       0                               0D     84
     100      67       0       0       0       0      83       000010000D     85
     100       1       0       1       0                               0D     86
     124      68       0       0       0       0       0       001020201D     87
     124       1       0       3       0                               0D     88
     100      71       0       0       0       0      87       000010000D     89
     100       1       0       1       0                               0D     90
     124      72       0       0       0       0       0       001020201D     91
     124       1       0       3       0                               0D     92
     100      75       0       0       0       0      91       000010000D     93
     100       1       0       1       0                               0D     94
     124      76       0       0       0       0       0       001020201D     95
     124       1       0       2       0                               0D     96
     100      78       0       0       0       0      95       000010000D     97
     100       1       0       1       0                               0D     98
     124      79       0       0       0       0       0       001020201D     99
     124       1       0       2       0                               0D    100
     100      81       0       0       0       0      99       000010000D    101
     100       1       0       1       0                               0D    102
     124      82       0       0       0       0       0       001020201D    103
     124       1       0       2       0                               0D    104
     100      84       0       0       0       0     103       000010000D    105
     100       1       0       1       0                               0D    106
     124      85       0       0       0       0       0       001020201D    107
     124       1       0       3       0                               0D    108
     100      88       0       0       0       0     107       000010000D    109
     100       1       0       1       0                               0D    110
     124      89       0       0       0       0       0       001020201D    111
     124       1       0       3       0                               0D    112
     100      92       0       0       0       0     111       000010000D    113
     100       1       0       1       0                               0D    114
     124      93       0       0       0       0       0       001020201D    115
     124       1       0       2       0                               0D    116
     100      95       0       0       0       0     115       000010000D    117
     100       1       0       1       0                               0D    118
     124      96       0       0       0       0       0       001020201D    119
     124       1       0       3       0                               0D    120
     100      99       0       0       0       0     119       000010000D    121
     100       1       0       1       0                               0D    122
     124     100       0       0       0       0       0       001020201D    123
     124       1       0       2       0                               0D    124
     100     102       0       0       0       0     123       000010000D    125
     100       1       0       1       0                               0D    126
     504     103       0       0       0       0       0       000010000D    127
     504       1       0       9       1                               0D    128
     128     112       0       0       0       0       0       000010000D    129
     128       1       0       2       0                               0D    130
     126     114       0       0       0       0       0       001010500D    131
     126       1       0       1       0                               0D    132
     126     115       0       0       0       0       0       001010500D    133
     126       1       0       1       0                               0D    134
     126     116       0       0       0       0       0       001010500D    135
     126       1       0       1       0                               0D    136
     126     117       0       0       0       0       0       001010500D    137
     126       1       0       1       0                               0D    138
     508     118       0       0       0       0       0       000010000D    139
     508       1       0       2       1                               0D    140
     314     120       0       0       0       0       0       001000200D    141
     314       1       0       1       0                               0D    142
     510     121       0       0       0       0       0       000010000D    143
     510       1    -141       1       1                               0D    144
     128     122       0       0       0       0       0       000010000D    145
     128       1       0       2       0                               0D    146
     126     124       0       0       0       0       0       001010500D    147
     126       1       0       1       0                               0D    148
     126     125       0       0       0       0       0       001010500D    149
     126       1       0       1       0                               0D    150
     126     126       0       0       0       0       0       001010500D    151
     126       1       0       1       0                               0D    152
     126     127       0       0       0       0       0       001010500D    153
     126       1       0       1       0                               0D    154
     508     128       0       0       0       0       0       000010000D    155
     508       1       0       2       1                               0D    156
     510     130       0       0       0       0       0       000010000D    157
     510       1    -141       1       1                               0D    158
     128     131       0       0       0       0       0       000010000D    159
     128       1       0       2       0                               0D    160
     126     133       0       0       0       0       0       001010500D    161
     126       1       0       1       0                               0D    162
     126     134       0       0       0       0       0       001010500D    163
     126       1       0       1       0                               0D    164
     126     135       0       0       0       0       0       001010500D    165
     126       1       0       1       0                               0D    166
     126     136       0       0       0       0       0       001010500D    167
     126       1       0       1       0                               0D    168
     508     137       0       0       0       0       0       000010000D    169
     508       1       0       2       1                               0D    170
     510     139       0       0       0       0       0       000010000D    171
     510       1    -141       1       1                               0D    172
     128     140       0       0       0       0       0       000010000D    173
     128       1       0       2       0                               0D    174
     126     142       0       0       0       0       0       001010500D    175
     126       1       0       1       0                               0D    176
     126     143       0       0       0       0       0       001010500D    177
     126       1       0       1       0                               0D    178
     126     144       0       0       0       0       0       001010500D    179
     126       1       0       1       0                               0D    180
     126     145       0       0       0       0       0       001010500D    181
     126       1       0       1       0                               0D    182
     508     146       0       0       0       0       0       000010000D    183
     508       1       0       2       1                               0D    184
     510     148       0       0       0       0       0       000010000D    185
     510       1    -141       1       1                               0D    186
     110     149       0       0       0       0       0       001010000D    187
     110       1       0       1       0                               0D    188
     110     150       0       0       0       0       0       001010001D    189
     110       1       0       2       0                               0D    190
     120     152       0       0       0       0       0       000010000D    191
     120       1       0       1       0                               0D    192
     126     153       0       0       0       0       0       001010500D    193
     126       1       0       2       0                               0D    194
     126     155       0       0       0       0       0       001010500D    195
     126       1       0       2       0                               0D    196
     126     157       0       0       0       0       0       001010500D    197
     126       1       0       1       0                               0D    198
     126     158       0       0       0       0       0       001010500D    199
     126       1       0       2       0                               0D    200
     508     160       0       0       0       0       0       000010000D    201
     508       1       0       2       1                               0D    202
     510     162       0       0       0       0       0       000010000D    203
     510       1    -141       1       1                               0D    204
     128     163       0       0       0       0       0       000010000D    205
     128       1       0       2       0                               0D    206
     126     165       0       0       0       0       0       001010500D    207
     126       1       0      27       0                               0D    208
     126     192       0       0       0       0       0       001010500D    209
     126       1       0      27       0                               0D    210
     508     219       0       0       0       0       0       000010000D    211
     508       1       0       1       1                               0D    212
     510     220       0       0       0       0       0       000010000D    213
     510       1    -141       1       1                               0D    214
     128     221       0       0       0       0       0       000010000D    215
     128       1       0       2       0                               0D    216
     126     223       0       0       0       0       0       001010500D    217
     126       1       0      16       0                               0D    218
     126     239       0       0       0       0       0       001010500D    219
     126       1       0       2       0                               0D    220
     126     241       0       0       0       0       0       001010500D    221
     126       1       0      16       0                               0D    222
     126     257       0       0       0       0       0       001010500D    223
     126       1       0       2       0                               0D    224
     126     259       0       0       0       0       0       001010500D    225
     126       1       0      16       0                               0D    226
     126     275       0       0       0       0       0       001010500D    227
     126       1       0       2       0                               0D    228
     126     277       0       0       0       0       0       001010500D    229
     126       1       0      16       0                               0D    230
     126     293       0       0       0       0       0       001010500D    231
     126       1       0       2       0                               0D    232
     508     295       0       0       0       0       0       000010000D    233
     508       1       0       3       1                               0D    234
     126     298       0       0       0       0       0       001010500D    235
     126       1       0      28       0                               0D    236
     126     326       0       0       0       0       0       001010500D    237
     126       1       0      28       0                               0D    238
     508     354       0       0       0       0       0       000010000D    239
     508       1       0       1       1                               0D    240
     510     355       0       0       0       0       0       000010000D    241
     510       1    -141       1       1                               0D    242
     128     356       0       0       0       0       0       000010000D    243
     128       1       0       2       0                               0D    244
     126     358       0       0       0       0       0       001010500D    245
     126       1       0       1       0                               0D    246
     126     359       0       0       0       0       0       001010500D    247
     126       1       0       1       0                               0D    248
     126     360       0       0       0       0       0       001010500D    249
     126       1       0       1       0                               0D    250
     126     361       0       0       0       0       0       001010500D    251
     126       1       0       1       0                               0D    252
     508     362       0       0       0       0       0       000010000D    253
     508       1       0       2       1                               0D    254
     510     364       0       0       0       0       0       000010000D    255
     510       1    -141       1       1                               0D    256
     110     365       0       0       0       0       0       001010000D    257
     110       1       0       1       0                               0D    258
     110     366       0       0       0       0       0       001010001D    259
     110       1       0       1       0                               0D    260
     120     367       0       0       0       0       0       000010000D    261
     120       1       0       1       0                               0D    262
     126     368       0       0       0       0       0       001010500D    263
     126       1       0       1       0                               0D    264
     126     369       0       0       0       0       0       001010500D    265
     126       1       0       1       0                               0D    266
     126     370       0       0       0       0       0       001010500D    267
     126       1       0       1       0                               0D    268
     126     371       0       0       0       0       0       001010500D    269
     126       1       0       2       0                               0D    270
     508     373       0       0       0       0       0       000010000D    271
     508       1       0       2       1                               0D    272
     510     375       0       0       0       0       0       000010000D    273
     510       1    -141       1       1                               0D    274
     110     376       0       0       0       0       0       001010000D    275
     110       1       0       1       0                               0D    276
     110     377       0       0       0       0       0       001010001D    277
     110       1       0       1       0                               0D    278
     120     378       0       0       0       0       0       000010000D    279
     120       1       0       1       0                               0D    280
     126     379       0       0       0       0       0       001010500D    281
     126       1       0       1       0                               0D    282
     126     380       0       0       0       0       0       001010500D    283
     126       1       0       2       0                               0D    284
     126     382       0       0       0       0       0       001010500D    285
     126       1       0       1       0                               0D    286
     126     383       0       0       0       0       0       001010500D    287
     126       1       0       1       0                               0D    288
     508     384       0       0       0       0       0       000010000D    289
     508       1       0       2       1                               0D    290
     510     386       0       0       0       0       0       000010000D    291
     510       1    -141       1       1                               0D    292
     110     387       0       0       0       0       0       001010000D    293
     110       1       0       1       0                               0D    294
     124     388       0       0       0       0       0       001020201D    295
     124       1       0       2       0                               0D    296
     100     390       0       0       0       0     295       001010001D    297
     100       1       0       1       0                               0D    298
     120     391       0       0       0       0       0       000010000D    299
     120       1       0       1       0                               0D    300
     126     392       0       0       0       0       0       001010500D    301
     126       1       0       1       0                               0D    302
     126     393       0       0       0       0       0       001010500D    303
     126       1       0       1       0                               0D    304
     126     394       0       0       0       0       0       001010500D    305
     126       1       0       2       0                               0D    306
     126     396       0       0       0       0       0       001010500D    307
     126       1       0       2       0                               0D    308
     508     398       0       0       0       0       0       000010000D    309
     508       1       0       2       1                               0D    310
     510     400       0       0       0       0       0       000010000D    311
     510       1    -141       1       1                               0D    312
     110     401       0       0       0       0       0       001010000D    313
     110       1       0       1       0                               0D    314
     110     402       0       0       0       0       0       001010001D    315
     110       1       0       1       0                               0D    316
     120     403       0       0       0       0       0       000010000D    317
     120       1       0       1       0                               0D    318
     126     404       0       0       0       0       0       001010500D    319
     126       1       0       2       0                               0D    320
     126     406       0       0       0       0       0       001010500D    321
     126       1       0       1       0                               0D    322
     126     407       0       0       0       0       0       001010500D    323
     126       1       0       1       0                               0D    324
     126     408       0       0       0       0       0       001010500D    325
     126       1       0       1       0                               0D    326
     508     409       0       0       0       0       0       000010000D    327
     508       1       0       2       1                               0D    328
     510     411       0       0       0       0       0       000010000D    329
     510       1    -141       1       1                               0D    330
     110     412       0       0       0       0       0       001010000D    331
     110       1       0       1       0                               0D    332
     110     413       0       0       0       0       0       001010001D    333
     110       1       0       1       0                               0D    334
     120     414       0       0       0       0       0       000010000D    335
     120       1       0       1       0                               0D    336
     126     415       0       0       0       0       0       001010500D    337
     126       1       0       1       0                               0D    338
     126     416       0       0       0       0       0       001010500D    339
     126       1       0       2       0                               0D    340
     126     418       0       0       0       0       0       001010500D    341
     126       1       0       1       0                               0D    342
     126     419       0       0       0       0       0       001010500D    343
     126       1       0       1       0                               0D    344
     508     420       0       0       0       0       0       000010000D    345
     508       1       0       2       1                               0D    346
     510     422       0       0       0       0       0       000010000D    347
     510       1    -141       1       1                               0D    348
     110     423       0       0       0       0       0       001010000D    349
     110       1       0       1       0                               0D    350
     124     424       0       0       0       0       0       001020201D    351
     124       1       0       3       0                               0D    352
     100     427       0       0       0       0     351       001010001D    353
     100       1       0       1       0                               0D    354
     120     428       0       0       0       0       0       000010000D    355
     120       1       0       1       0                               0D    356
     126     429       0       0       0       0       0       001010500D    357
     126       1       0       1       0                               0D    358
     126     430       0       0       0       0       0       001010500D    359
     126       1       0       1       0                               0D    360
     126     431       0       0       0       0       0       001010500D    361
     126       1       0       2       0                               0D    362
     126     433       0       0       0       0       0       001010500D    363
     126       1       0       2       0                               0D    364
     508     435       0       0       0       0       0       000010000D    365
     508       1       0       2       1                               0D    366
     510     437       0       0       0       0       0       000010000D    367
     510       1    -141       1       1                               0D    368
     110     438       0       0       0       0       0       001010000D    369
     110       1       0       1       0                               0D    370
     110     439       0       0       0       0       0       001010001D    371
     110       1       0       1       0                               0D    372
     120     440       0       0       0       0       0       000010000D    373
     120       1       0       1       0                               0D    374
     126     441       0       0       0       0       0       001010500D    375
     126       1       0       2       0                               0D    376
     126     443       0       0       0       0       0       001010500D    377
     126       1       0       1       0                               0D    378
     126     444       0       0       0       0       0       001010500D    379
     126       1       0       1       0                               0D    380
     126     445       0       0       0       0       0       001010500D    381
     126       1       0       1       0                               0D    382
     508     446       0       0       0       0       0       000010000D    383
     508       1       0       2       1                               0D    384
     510     448       0       0       0       0       0       000010000D    385
     510       1    -141       1       1                               0D    386
     110     449       0       0       0       0       0       001010000D    387
     110       1       0       1       0                               0D    388
     110     450       0       0       0       0       0       001010001D    389
     110       1       0       1       0                               0D    390
     120     451       0       0       0       0       0       000010000D    391
     120       1       0       1       0                               0D    392
     126     452       0       0       0       0       0       001010500D    393
     126       1       0       2       0                               0D    394
     126     454       0       0       0       0       0       001010500D    395
     126       1       0       1       0                               0D    396
     126     455       0       0       0       0       0       001010500D    397
     126       1       0       1       0                               0D    398
     126     456       0       0       0       0       0       001010500D    399
     126       1       0       1       0                               0D    400
     508     457       0       0       0       0       0       000010000D    401
     508       1       0       2       1                               0D    402
     510     459       0       0       0       0       0       000010000D    403
     510       1    -141       1       1                               0D    404
     110     460       0       0       0       0       0       001010000D    405
     110       1       0       1       0                               0D    406
     124     461       0       0       0       0       0       001020201D    407
     124       1       0       2       0                               0D    408
     100     463       0       0       0       0     407       001010001D    409
     100       1       0       1       0                               0D    410
     120     464       0       0       0       0       0       000010000D    411
     120       1       0       1       0                               0D    412
     126     465       0       0       0       0       0       001010500D    413
     126       1       0       1       0                               0D    414
     126     466       0       0       0       0       0       001010500D    415
     126       1       0       1       0                               0D    416
     126     467       0       0       0       0       0       001010500D    417
     126       1       0       2       0                               0D    418
     126     469       0       0       0       0       0       001010500D    419
     126       1       0       2       0                               0D    420
     508     471       0       0       0       0       0       000010000D    421
     508       1       0       2       1                               0D    422
     510     473       0       0       0       0       0       000010000D    423
     510       1    -141       1       1                               0D    424
     110     474       0       0       0       0       0       001010000D    425
     110       1       0       1       0                               0D    426
     110     475       0       0       0       0       0       001010001D    427
     110       1       0       1       0                               0D    428
     120     476       0       0       0       0       0       000010000D    429
     120       1       0       1       0                               0D    430
     126     477       0       0       0       0       0       001010500D    431
     126       1       0       2       0                               0D    432
     126     479       0       0       0       0       0       001010500D    433
     126       1       0       1       0                               0D    434
     126     480       0       0       0       0       0       001010500D    435
     126       1       0       1       0                               0D    436
     126     481       0       0       0       0       0       001010500D    437
     126       1       0       1       0                               0D    438
     508     482       0       0       0       0       0       000010000D    439
     508       1       0       2       1                               0D    440
     510     484       0       0       0       0       0       000010000D    441
     510       1    -141       1       1                               0D    442
     110     485       0       0       0       0       0       001010000D    443
     110       1       0       1       0                               0D    444
     124     486       0       0       0       0       0       001020201D    445
     124       1       0       2       0                               0D    446
     100     488       0       0       0       0     445       001010001D    447
     100       1       0       1       0                               0D    448
     120     489       0       0       0       0       0       000010000D    449
     120       1       0       1       0                               0D    450
     126     490       0       0       0       0       0       001010500D    451
     126       1       0       1       0                               0D    452
     126     491       0       0       0       0       0       001010500D    453
     126       1       0       1       0                               0D    454
     126     492       0       0       0       0       0       001010500D    455
     126       1       0       2       0                               0D    456
     126     494       0       0       0       0       0       001010500D    457
     126       1       0       2       0                               0D    458
     508     496       0       0       0       0       0       000010000D    459
     508       1       0       2       1                               0D    460
     510     498       0       0       0       0       0       000010000D    461
     510       1    -141       1       1                               0D    462
     110     499       0       0       0       0       0       001010000D    463
     110       1       0       1       0                               0D    464
     110     500       0       0       0       0       0       001010001D    465
     110       1       0       1       0                               0D    466
     120     501       0       0       0       0       0       000010000D    467
     120       1       0       1       0                               0D    468
     126     502       0       0       0       0       0       001010500D    469
     126       1       0       2       0                               0D    470
     126     504       0       0       0       0       0       001010500D    471
     126       1       0       1       0                               0D    472
     126     505       0       0       0       0       0       001010500D    473
     126       1       0       1       0                               0D    474
     126     506       0       0       0       0       0       001010500D    475
     126       1       0       1       0                               0D    476
     508     507       0       0       0       0       0       000010000D    477
     508       1       0       2       1                               0D    478
     510     509       0       0       0       0       0       000010000D    479
     510       1    -141       1       1                               0D    480
     110     510       0       0       0       0       0       001010000D    481
     110       1       0       1       0                               0D    482
     110     511       0       0       0       0       0       001010001D    483
     110       1       0       2       0                               0D    484
     120     513       0       0       0       0       0       000010000D    485
     120       1       0       1       0                               0D    486
     126     514       0       0       0       0       0       001010500D    487
     126       1       0       2       0                               0D    488
     126     516       0       0       0       0       0       001010500D    489
     126       1       0       2       0                               0D    490
     126     518       0       0       0       0       0       001010500D    491
     126       1       0       2       0                               0D    492
     126     520       0       0       0       0       0       001010500D    493
     126       1       0       1       0                               0D    494
     508     521       0       0       0       0       0       000010000D    495
     508       1       0       2       1                               0D    496
     510     523       0       0       0       0       0       000010000D    497
     510       1    -141       1       1                               0D    498
     514     524       0       0       0       0       0       000010000D    499
     514       1       0       3       1                               0D    500
     186     527       0       0       0       0       0       000010000D    501
     186       1       0       1       0                               0D    502
502,24,32.5,-7,29.5,32.5,70,29.5,32.5,-7,-29.5,32.5,70,-29.5,          1P      1
29.5,-7,32.5,29.5,70,32.5,-29.5,70,32.5,-29.5,-7,32.5,-32.5,           1P      2
-7.00000000000001,29.5,-32.5,70,29.5,-32.5,70,-29.5,-32.5,-7,          1P      3
-29.5,29.5,-7,-32.5,29.5,70,-32.5,-29.5,-7,-32.5,-29.5,70,-32.5,       1P      4
-4.59242549680257E-15,-1.53080849893419E-15,25,                        1P      5
-4.59242549680257E-15,70,25,4.59242549680257E-15,                      1P      6
1.53080849893419E-15,-25,4.59242549680257E-15,70,-25,29.5,-10,         1P      7
-29.5,29.5,-10,29.5,-29.5,-10,29.5,-29.5,-10,-29.5;                    1P      8
110,32.5,-7,29.5,32.5,70,29.5;                                         3P      9
110,32.5,-7,-29.5,32.5,-7,29.5;                                        5P     10
110,32.5,-7,-29.5,32.5,70,-29.5;                                       7P     11
110,32.5,70,29.5,32.5,70,-29.5;                                        9P     12
110,29.5,-7,32.5,29.5,70,32.5;                                        11P     13
110,-29.5,70,32.5,29.5,70,32.5;                                       13P     14
110,-29.5,-7,32.5,-29.5,70,32.5;                                      15P     15
110,29.5,-7,32.5,-29.5,-7,32.5;                                       17P     16
110,-32.5,-7,29.5,-32.5,70,29.5;                                      19P     17
110,-32.5,70,-29.5,-32.5,70,29.5;                                     21P     18
110,-32.5,-7,-29.5,-32.5,70,-29.5;                                    23P     19
110,-32.5,-7,29.5,-32.5,-7,-29.5;                                     25P     20
110,29.5,-7,-32.5,29.5,70,-32.5;                                      27P     21
110,-29.5,-7,-32.5,29.5,-7,-32.5;                                     29P     22
110,-29.5,-7,-32.5,-29.5,70,-32.5;                                    31P     23
110,29.5,70,-32.5,-29.5,70,-32.5;                                     33P     24
110,-4.59242549680257E-15,-1.53080849893419E-15,25,                   35P     25
-4.59242549680257E-15,70,25;                                          35P     26
124,6.12323399573677E-17,-1,0,0,6.12323399573677E-17,                 37P     27
3.74939945665464E-33,1,0,-1,-6.12323399573677E-17,                    37P     28
6.12323399573677E-17,0;                                               37P     29
100,0,0,0,25,0,-25,3.06161699786838E-15;                              39P     30
110,1.53080849893419E-15,1.53080849893419E-15,-25,                    41P     31
1.53080849893419E-15,70,-25;                                          41P     32
124,6.12323399573677E-17,-1,0,0,6.12323399573677E-17,                 43P     33
3.74939945665464E-33,1,70,-1,-6.12323399573677E-17,                   43P     34
6.12323399573677E-17,4.28626379701574E-15;                            43P     35
100,0,0,0,25,0,-25,3.06161699786838E-15;                              45P     36
124,-1.83697019872103E-16,1,0,0,-6.12323399573677E-17,                47P     37
-1.12481983699639E-32,1,0,1,1.83697019872103E-16,                     47P     38
6.12323399573677E-17,0;                                               47P     39
100,0,0,0,25,0,-25,3.06161699786838E-15;                              49P     40
124,0,1,0,29.5,-6.12323399573676E-17,0,1,70,1,0,                      51P     41
6.12323399573677E-17,29.5;                                            51P     42
100,0,0,0,3,0,1.83697019872103E-16,3;                                 53P     43
124,1,-1.1842378929335E-15,0,29.5,7.25136572505008E-32,               55P     44
6.12323399573677E-17,1,70,-1.1842378929335E-15,-1,                    55P     45
6.12323399573677E-17,-29.5;                                           55P     46
100,0,0,0,3,0,2.84823227897248E-15,3;                                 57P     47
124,0,-1,0,-29.5,6.12323399573677E-17,0,1,70,-1,0,                    59P     48
6.12323399573677E-17,-29.5;                                           59P     49
100,0,0,0,3,0,3.51436609374758E-15,3;                                 61P     50
124,-1,0,0,-29.5,0,-6.12323399573677E-17,1,70,0,1,                    63P     51
6.12323399573677E-17,29.5;                                            63P     52
100,0,0,0,3,0,2.84823227897248E-15,3;                                 65P     53
124,-1.83697019872103E-16,1,0,0,-6.12323399573677E-17,                67P     54
-1.12481983699639E-32,1,70,1,1.83697019872103E-16,                    67P     55
6.12323399573677E-17,4.28626379701574E-15;                            67P     56
100,0,0,0,25,0,-25,3.06161699786838E-15;                              69P     57
110,29.5,-10,-29.5,29.5,-10,29.5;                                     71P     58
110,29.5,-10,29.5,-29.5,-10,29.5;                                     73P     59
110,-29.5,-10,29.5,-29.5,-10,-29.5;                                   75P     60
110,-29.5,-10,-29.5,29.5,-10,-29.5;                                   77P     61
124,0,0,1,29.5,-1,-1.1842378929335E-15,0,-7,1.1842378929335E-15,      79P     62
-1,0,-29.5;                                                           79P     63
100,0,0,0,3,0,1.83697019872103E-16,3;                                 81P     64
124,0,0,-1,-29.5,-1.24547023289087E-15,-1,0,-7,-1,                    83P     65
1.24547023289087E-15,0,-29.5;                                         83P     66
100,0,0,0,3,0,1.83697019872103E-16,3;                                 85P     67
124,-1,1.24547023289087E-15,-2.18952885050753E-47,-29.5,              87P     68
-1.24547023289087E-15,-1,-6.19659362581483E-17,-7,                    87P     69
-7.71767290627366E-32,-6.19659362581483E-17,1,29.5;                   87P     70
100,0,0,0,3,0,1.83697019872103E-16,3;                                 89P     71
124,-1,1.24547023289087E-15,-2.18952885050753E-47,-29.5,              91P     72
-1.24547023289087E-15,-1,-6.19659362581483E-17,-7,                    91P     73
-7.71767290627366E-32,-6.19659362581483E-17,1,-29.5;                  91P     74
100,0,0,0,3,0,1.83697019872103E-16,3;                                 93P     75
124,-1,0,0,-29.5,0,-1.1842378929335E-15,-1,-7,0,-1,                   95P     76
1.1842378929335E-15,-29.5;                                            95P     77
100,0,0,0,3,0,1.83697019872103E-16,3;                                 97P     78
124,0,0,1,29.5,-1.24547023289087E-15,-1,0,-7,1,                       99P     79
-1.24547023289087E-15,0,29.5;                                         99P     80
100,0,0,0,3,0,1.83697019872103E-16,3;                                101P     81
124,0,0,1,-29.5,-1.24547023289087E-15,-1,0,-7,1,                     103P     82
-1.24547023289087E-15,0,29.5;                                        103P     83
100,0,0,0,3,0,1.83697019872103E-16,3;                                105P     84
124,2.00059418684621E-31,-1,1.97091020752504E-15,-29.5,              107P     85
-1.01506105108586E-16,-1.97091020752504E-15,-1,-7,1,0,               107P     86
-1.01506105108586E-16,29.5;                                          107P     87
100,0,0,0,3,0,1.83697019872103E-16,3;                                109P     88
124,6.12323399573677E-17,1,0,29.5,-7.03507659168416E-17,             111P     89
4.30774201488124E-33,1,-7,1,-6.12323399573677E-17,                   111P     90
7.03507659168416E-17,29.5;                                           111P     91
100,0,0,0,3,0,1.83697019872103E-16,3;                                113P     92
124,1,0,0,29.5,0,-1,2.67731778745135E-15,-7,0,                       115P     93
-2.67731778745135E-15,-1,29.5;                                       115P     94
100,0,0,0,3,0,1.83697019872103E-16,3;                                117P     95
124,1,-1.24547023289087E-15,-2.18952885050753E-47,29.5,              119P     96
-1.24547023289087E-15,-1,4.28037792626566E-17,-7,                    119P     97
-5.33108329268703E-32,-4.28037792626566E-17,-1,-29.5;                119P     98
100,0,0,0,3,0,1.83697019872103E-16,3;                                121P     99
124,1,0,0,29.5,0,1.41906502620951E-15,1,-7,0,-1,                     123P    100
1.41906502620951E-15,-29.5;                                          123P    101
100,0,0,0,3,0,1.83697019872103E-16,3;                                125P    102
504,42,3,1,1,1,2,5,1,3,1,1,7,1,3,1,4,9,1,2,1,4,11,1,5,1,6,13,1,      127P    103
7,1,6,15,1,8,1,7,17,1,5,1,8,19,1,9,1,10,21,1,11,1,10,23,1,12,1,      127P    104
11,25,1,9,1,12,27,1,13,1,14,29,1,15,1,13,31,1,15,1,16,33,1,14,1,     127P    105
16,35,1,17,1,18,39,1,19,1,17,41,1,19,1,20,45,1,20,1,18,49,1,17,      127P    106
1,19,53,1,6,1,2,57,1,4,1,14,61,1,16,1,11,65,1,10,1,7,69,1,18,1,      127P    107
20,71,1,21,1,22,73,1,22,1,23,75,1,23,1,24,77,1,24,1,21,81,1,21,      127P    108
1,13,85,1,15,1,24,89,1,9,1,23,93,1,12,1,24,97,1,12,1,15,101,1,5,     127P    109
1,22,105,1,8,1,23,109,1,8,1,9,113,1,5,1,1,117,1,1,1,22,121,1,3,      127P    110
1,21,125,1,3,1,13;                                                   127P    111
128,1,1,1,1,0,0,1,0,0,0,0,1,1,0,0,1,1,1,1,1,1,32.5,-7,29.5,32.5,     129P    112
-7,-29.5,32.5,70,29.5,32.5,70,-29.5,0,1,0,1;                         129P    113
126,1,1,1,0,1,0,0,0,1,1,1,1,0,0,0,0,1,0,0,1,0,0,1;                   131P    114
126,1,1,1,0,1,0,0,0,1,1,1,1,1,0,0,0,0,0,0,1,0,0,1;                   133P    115
126,1,1,1,0,1,0,0,0,1,1,1,1,1,0,0,1,1,0,0,1,0,0,1;                   135P    116
126,1,1,1,0,1,0,0,0,1,1,1,1,0,1,0,1,1,0,0,1,0,0,1;                   137P    117
508,4,0,127,1,0,1,0,131,0,127,2,0,1,0,133,0,127,3,1,1,0,135,0,       139P    118
127,4,0,1,0,137;                                                     139P    119
314,56.4705882352941,56.4705882352941,56.4705882352941,1H ;          141P    120
510,129,1,1,139;                                                     143P    121
128,1,1,1,1,0,0,1,0,0,0,0,1,1,0,0,1,1,1,1,1,1,-29.5,-7,32.5,         145P    122
29.5,-7,32.5,-29.5,70,32.5,29.5,70,32.5,0,1,0,1;                     145P    123
126,1,1,1,0,1,0,0,0,1,1,1,1,1,0,0,1,1,0,0,1,0,0,1;                   147P    124
126,1,1,1,0,1,0,0,0,1,1,1,1,0,1,0,1,1,0,0,1,0,0,1;                   149P    125
126,1,1,1,0,1,0,0,0,1,1,1,1,0,0,0,0,1,0,0,1,0,0,1;                   151P    126
126,1,1,1,0,1,0,0,0,1,1,1,1,1,0,0,0,0,0,0,1,0,0,1;                   153P    127
508,4,0,127,5,1,1,0,147,0,127,6,0,1,0,149,0,127,7,0,1,0,151,0,       155P    128
127,8,0,1,0,153;                                                     155P    129
510,145,1,1,155;                                                     157P    130
128,1,1,1,1,0,0,1,0,0,0,0,1,1,0,0,1,1,1,1,1,1,-32.5,-7,-29.5,        159P    131
-32.5,-7,29.5,-32.5,70,-29.5,-32.5,70,29.5,0,1,0,1;                  159P    132
126,1,1,1,0,1,0,0,0,1,1,1,1,1,0,0,1,1,0,0,1,0,0,1;                   161P    133
126,1,1,1,0,1,0,0,0,1,1,1,1,0,1,0,1,1,0,0,1,0,0,1;                   163P    134
126,1,1,1,0,1,0,0,0,1,1,1,1,0,0,0,0,1,0,0,1,0,0,1;                   165P    135
126,1,1,1,0,1,0,0,0,1,1,1,1,1,0,0,0,0,0,0,1,0,0,1;                   167P    136
508,4,0,127,9,1,1,0,161,0,127,10,0,1,0,163,0,127,11,0,1,0,165,0,     169P    137
127,12,0,1,0,167;                                                    169P    138
510,159,1,1,169;                                                     171P    139
128,1,1,1,1,0,0,1,0,0,0,0,1,1,0,0,1,1,1,1,1,1,29.5,-7,-32.5,         173P    140
-29.5,-7,-32.5,29.5,70,-32.5,-29.5,70,-32.5,0,1,0,1;                 173P    141
126,1,1,1,0,1,0,0,0,1,1,1,1,0,0,0,0,1,0,0,1,0,0,1;                   175P    142
126,1,1,1,0,1,0,0,0,1,1,1,1,1,0,0,0,0,0,0,1,0,0,1;                   177P    143
126,1,1,1,0,1,0,0,0,1,1,1,1,1,0,0,1,1,0,0,1,0,0,1;                   179P    144
126,1,1,1,0,1,0,0,0,1,1,1,1,0,1,0,1,1,0,0,1,0,0,1;                   181P    145
508,4,0,127,13,0,1,0,175,0,127,14,0,1,0,177,0,127,15,1,1,0,179,      183P    146
0,127,16,0,1,0,181;                                                  183P    147
510,173,1,1,183;                                                     185P    148
110,0,0,0,0,1,6.12323399573677E-17;                                  187P    149
110,1.53080849893419E-15,1.53080849893419E-15,-25,                   189P    150
1.53080849893419E-15,70,-25;                                         189P    151
120,187,189,0,6.28318530717959;                                      191P    152
126,1,1,1,0,1,0,0,0,1,1,1,1,0,3.14159265358979,0,1,                  193P    153
3.14159265358979,0,0,1,0,0,1;                                        193P    154
126,1,1,1,0,1,0,0,0,1,1,1,1,0,0,0,0,3.14159265358979,0,0,1,0,0,      195P    155
1;                                                                   195P    156
126,1,1,1,0,1,0,0,0,1,1,1,1,0,0,0,1,0,0,0,1,0,0,1;                   197P    157
126,1,1,1,0,1,0,0,0,1,1,1,1,1,0,0,1,3.14159265358979,0,0,1,0,0,      199P    158
1;                                                                   199P    159
508,4,0,127,17,0,1,0,193,0,127,18,0,1,0,195,0,127,19,1,1,0,197,      201P    160
0,127,20,1,1,0,199;                                                  201P    161
510,191,1,1,201;                                                     203P    162
128,1,1,1,1,0,0,1,0,0,0,0,1,1,0,0,1,1,1,1,1,1,-25,0,25,-25,0,        205P    163
-25,25,0,25,25,0,-25,0,1,0,1;                                        205P    164
126,28,3,1,0,1,0,0,0,0,0,0.0384615384615385,0.0769230769230769,      207P    165
0.115384615384615,0.153846153846154,0.192307692307692,               207P    166
0.230769230769231,0.269230769230769,0.307692307692308,               207P    167
0.346153846153846,0.384615384615385,0.423076923076923,               207P    168
0.461538461538461,0.5,0.538461538461538,0.576923076923077,           207P    169
0.615384615384615,0.653846153846154,0.692307692307692,               207P    170
0.73076923076923,0.769230769230769,0.807692307692307,                207P    171
0.846153846153846,0.884615384615384,0.923076923076923,               207P    172
0.961538461538461,1,1,1,1,1,1,1,1,1,1,1,1,1,1,1,1,1,1,1,1,1,1,1,     207P    173
1,1,1,1,1,1,1,1,1,1,1,0.5,0,1,0.479861585553912,0,                   207P    174
0.997563703584719,0.439584839418656,0,0.986653659747647,             207P    175
0.380050642937869,0,0.968647109702849,0.322265595967195,0,           207P    176
0.943806629497199,0.267072312065745,0,0.912494449267984,             207P    177
0.21527563963852,0,0.875167171111835,0.167630889186707,0,            207P    178
0.83236911079798,0.124832828892268,0,0.784724360418632,              207P    179
0.0875055507309168,0,0.732927687720959,0.0561933705030956,0,         207P    180
0.677734404828839,0.0313528902970714,0,0.619949354091291,            207P    181
0.0133463402523744,0,0.56041517166867,0.00243629641527526,0,0.5,     207P    182
-0.00121814820763766,0,0.439584828331331,0.00243629641527521,0,      207P    183
0.380050645908709,0.0133463402523742,0,0.322265595171161,            207P    184
0.0313528902970711,0,0.267072312279042,0.0561933705030953,0,         207P    185
0.215275639581368,0.0875055507309163,0,0.167630889202021,            207P    186
0.124832828892268,0,0.124832828888165,0.167630889186706,0,           207P    187
0.0875055507320165,0.21527563963852,0,0.0561933705028013,            207P    188
0.267072312065744,0,0.0313528902971505,0.322265595967194,0,          207P    189
0.0133463402523532,0.380050642937868,0,0.00243629641528148,          207P    190
0.439584839418655,0,0,0.479861585553911,0,0,0.5,0,0,1,0,0,1;         207P    191
126,28,3,1,0,1,0,0,0,0,0,0.0384615384615385,0.0769230769230769,      209P    192
0.115384615384615,0.153846153846154,0.192307692307692,               209P    193
0.230769230769231,0.269230769230769,0.307692307692308,               209P    194
0.346153846153846,0.384615384615385,0.423076923076923,               209P    195
0.461538461538461,0.5,0.538461538461538,0.576923076923077,           209P    196
0.615384615384615,0.653846153846154,0.692307692307692,               209P    197
0.73076923076923,0.769230769230769,0.807692307692307,                209P    198
0.846153846153846,0.884615384615384,0.923076923076923,               209P    199
0.961538461538461,1,1,1,1,1,1,1,1,1,1,1,1,1,1,1,1,1,1,1,1,1,1,1,     209P    200
1,1,1,1,1,1,1,1,1,1,0,0.5,0,0,0.520138414446088,0,                   209P    201
0.00243629641528142,0.560415160581344,0,0.0133463402523529,          209P    202
0.619949357062131,0,0.0313528902971504,0.677734404032805,0,          209P    203
0.056193370502801,0.732927687934255,0,0.0875055507320161,            209P    204
0.78472436036148,0,0.124832828888165,0.832369110813293,0,            209P    205
0.16763088920202,0.875167171107731,0,0.215275639581368,              209P    206
0.912494449269083,0,0.267072312279042,0.943806629496905,0,           209P    207
0.322265595171161,0.968647109702929,0,0.380050645908708,             209P    208
0.986653659747626,0,0.43958482833133,0.997563703584725,0,0.5,        209P    209
1.00121814820764,0,0.560415171668669,0.997563703584725,0,            209P    210
0.61994935409129,0.986653659747626,0,0.677734404828839,              209P    211
0.968647109702929,0,0.732927687720958,0.943806629496905,0,           209P    212
0.784724360418632,0.912494449269084,0,0.832369110797979,             209P    213
0.875167171107732,0,0.875167171111834,0.832369110813294,0,           209P    214
0.912494449267984,0.78472436036148,0,0.943806629497199,              209P    215
0.732927687934256,0,0.968647109702849,0.677734404032806,0,           209P    216
0.986653659747647,0.619949357062132,0,0.997563703584719,             209P    217
0.560415160581345,0,1,0.520138414446089,0,1,0.5,0,0,1,0,0,1;         209P    218
508,2,0,127,18,1,1,0,207,0,127,21,1,1,0,209;                         211P    219
510,205,1,1,211;                                                     213P    220
128,1,1,1,1,0,0,1,0,0,0,0,1,1,0,0,1,1,1,1,1,1,32.5,70,32.5,32.5,     215P    221
70,-32.5,-32.5,70,32.5,-32.5,70,-32.5,0,1,0,1;                       215P    222
126,16,3,1,0,1,0,0,0,0,0,0.0714285714285714,0.142857142857143,       217P    223
0.214285714285714,0.285714285714286,0.357142857142857,               217P    224
0.428571428571429,0.5,0.571428571428571,0.642857142857143,           217P    225
0.714285714285714,0.785714285714286,0.857142857142857,               217P    226
0.928571428571429,1,1,1,1,1,1,1,1,1,1,1,1,1,1,1,1,1,1,1,1,1,0,       217P    227
0.0461538461538461,0,0,0.0444276963441814,0,                         217P    228
0.000193876817067673,0.0409754019973305,0,0.00106266532367344,       217P    229
0.0358620781875395,0,0.00249850159173365,0.0308781804646084,0,       217P    230
0.00448332914707517,0.0260863827972108,0,0.00699218763160409,        217P    231
0.0215469452063007,0,0.00999352669406117,0.0173169536502613,0,       217P    232
0.0134496027548509,0.0134496027548506,0,0.0173169536502613,          217P    233
0.00999352669406101,0,0.0215469452063011,0.00699218763160397,0,      217P    234
0.0260863827972109,0.00448332914707483,0,0.0308781804646085,         217P    235
0.00249850159173354,0,0.0358620781875397,0.00106266532367333,0,      217P    236
0.0409754019973303,0.00019387681706734,0,0.0444276963441815,0,0,     217P    237
0.0461538461538462,0,0,0,1,0,0,1;                                    217P    238
126,1,1,1,0,1,0,0,0,1,1,1,1,0.0461538461538462,0,0,                  219P    239
0.953846153846154,0,0,0,1,0,0,1;                                     219P    240
126,16,3,1,0,1,0,0,0,0,0,0.0714285714285714,0.142857142857143,       221P    241
0.214285714285714,0.285714285714286,0.357142857142857,               221P    242
0.428571428571429,0.5,0.571428571428571,0.642857142857143,           221P    243
0.714285714285714,0.785714285714286,0.857142857142857,               221P    244
0.928571428571429,1,1,1,1,1,1,1,1,1,1,1,1,1,1,1,1,1,1,1,1,1,         221P    245
0.953846153846154,0,0,0.955572303655819,0,0,0.95902459800267,        221P    246
0.000193876817067562,0,0.964137921812461,0.00106266532367344,0,      221P    247
0.969121819535392,0.00249850159173354,0,0.973913617202789,           221P    248
0.00448332914707517,0,0.978453054793699,0.00699218763160397,0,       221P    249
0.982683046349739,0.00999352669406095,0,0.98655039724515,            221P    250
0.0134496027548507,0,0.990006473305939,0.017316953650261,0,          221P    251
0.993007812368396,0.0215469452063011,0,0.995516670852925,            221P    252
0.0260863827972108,0,0.997501498408267,0.0308781804646084,0,         221P    253
0.998937334676327,0.0358620781875397,0,0.999806123182933,            221P    254
0.0409754019973305,0,1,0.0444276963441815,0,1,                       221P    255
0.0461538461538462,0,0,1,0,0,1;                                      221P    256
126,1,1,1,0,1,0,0,0,1,1,1,1,1,0.0461538461538461,0,1,                223P    257
0.953846153846154,0,0,1,0,0,1;                                       223P    258
126,16,3,1,0,1,0,0,0,0,0,0.0714285714285714,0.142857142857143,       225P    259
0.214285714285714,0.285714285714286,0.357142857142857,               225P    260
0.428571428571429,0.5,0.571428571428571,0.642857142857143,           225P    261
0.714285714285714,0.785714285714286,0.857142857142857,               225P    262
0.928571428571429,1,1,1,1,1,1,1,1,1,1,1,1,1,1,1,1,1,1,1,1,1,1,       225P    263
0.953846153846154,0,1,0.955572303655819,0,0.999806123182933,         225P    264
0.959024598002669,0,0.998937334676327,0.96413792181246,0,            225P    265
0.997501498408267,0.969121819535392,0,0.995516670852925,             225P    266
0.973913617202789,0,0.993007812368396,0.978453054793699,0,           225P    267
0.990006473305939,0.982683046349739,0,0.98655039724515,              225P    268
0.98655039724515,0,0.982683046349739,0.990006473305939,0,            225P    269
0.978453054793699,0.993007812368396,0,0.973913617202789,             225P    270
0.995516670852925,0,0.969121819535392,0.997501498408266,0,           225P    271
0.964137921812461,0.998937334676327,0,0.95902459800267,              225P    272
0.999806123182933,0,0.955572303655819,1,0,0.953846153846154,1,0,     225P    273
0,1,0,0,1;                                                           225P    274
126,1,1,1,0,1,0,0,0,1,1,1,1,0.953846153846154,1,0,                   227P    275
0.0461538461538462,1,0,0,1,0,0,1;                                    227P    276
126,16,3,1,0,1,0,0,0,0,0,0.0714285714285714,0.142857142857143,       229P    277
0.214285714285714,0.285714285714286,0.357142857142857,               229P    278
0.428571428571429,0.5,0.571428571428571,0.642857142857143,           229P    279
0.714285714285714,0.785714285714286,0.857142857142857,               229P    280
0.928571428571429,1,1,1,1,1,1,1,1,1,1,1,1,1,1,1,1,1,1,1,1,1,         229P    281
0.0461538461538462,1,0,0.0444276963441815,1,0,                       229P    282
0.0409754019973306,0.999806123182933,0,0.0358620781875396,           229P    283
0.998937334676327,0,0.0308781804646086,0.997501498408266,0,          229P    284
0.0260863827972109,0.995516670852925,0,0.021546945206301,            229P    285
0.993007812368396,0,0.0173169536502611,0.990006473305939,0,          229P    286
0.0134496027548507,0.986550397245149,0,0.00999352669406095,          229P    287
0.982683046349739,0,0.00699218763160409,0.978453054793699,0,         229P    288
0.00448332914707494,0.973913617202789,0,0.00249850159173365,         229P    289
0.969121819535392,0,0.00106266532367333,0.96413792181246,0,          229P    290
0.000193876817067562,0.95902459800267,0,0,0.955572303655819,0,0,     229P    291
0.953846153846154,0,0,1,0,0,1;                                       229P    292
126,1,1,1,0,1,0,0,0,1,1,1,1,0,0.953846153846154,0,0,                 231P    293
0.0461538461538461,0,0,1,0,0,1;                                      231P    294
508,8,0,127,22,1,1,0,217,0,127,4,1,1,0,219,0,127,23,1,1,0,221,0,     233P    295
127,16,1,1,0,223,0,127,24,1,1,0,225,0,127,10,1,1,0,227,0,127,25,     233P    296
1,1,0,229,0,127,6,1,1,0,231;                                         233P    297
126,28,3,1,0,1,0,0,0,0,0,0.0384615384615385,0.0769230769230769,      235P    298
0.115384615384615,0.153846153846154,0.192307692307692,               235P    299
0.230769230769231,0.269230769230769,0.307692307692308,               235P    300
0.346153846153846,0.384615384615385,0.423076923076923,               235P    301
0.461538461538461,0.5,0.538461538461538,0.576923076923077,           235P    302
0.615384615384615,0.653846153846154,0.692307692307692,               235P    303
0.73076923076923,0.769230769230769,0.807692307692307,                235P    304
0.846153846153846,0.884615384615384,0.923076923076923,               235P    305
0.961538461538461,1,1,1,1,1,1,1,1,1,1,1,1,1,1,1,1,1,1,1,1,1,1,1,     235P    306
1,1,1,1,1,1,1,1,1,1,0.115384615384615,0.5,0,0.115384615384615,       235P    307
0.484508911964547,0,0.117258689550217,0.453526799552812,0,           235P    308
0.125651030963348,0.407731263798361,0,0.1395022233055,               235P    309
0.363281227667073,0,0.158610285002155,0.320824855435188,0,           235P    310
0.182696577486166,0.2809812612604,0,0.211409868375512,               235P    311
0.244331453220544,0,0.244331453232323,0.211409868378668,0,           235P    312
0.280981261216437,0.182696577485321,0,0.320824855599263,             235P    313
0.158610285002381,0,0.363281227054739,0.139502223305439,0,           235P    314
0.407731266083622,0.125651030963365,0,0.4535267910241,               235P    315
0.117258689550212,0,0.5,0.114447578301817,0,0.546473208975899,       235P    316
0.117258689550212,0,0.592268733916377,0.125651030963365,0,           235P    317
0.636718772945261,0.139502223305439,0,0.679175144400737,             235P    318
0.158610285002381,0,0.719018738783563,0.18269657748532,0,            235P    319
0.755668546767676,0.211409868378667,0,0.788590131624488,             235P    320
0.244331453220543,0,0.817303422513834,0.2809812612604,0,             235P    321
0.841389714997845,0.320824855435188,0,0.860497776694499,             235P    322
0.363281227667072,0,0.874348969036651,0.40773126379836,0,            235P    323
0.882741310449784,0.453526799552812,0,0.884615384615385,             235P    324
0.484508911964547,0,0.884615384615385,0.5,0,0,1,0,0,1;               235P    325
126,28,3,1,0,1,0,0,0,0,0,0.0384615384615385,0.0769230769230769,      237P    326
0.115384615384615,0.153846153846154,0.192307692307692,               237P    327
0.230769230769231,0.269230769230769,0.307692307692308,               237P    328
0.346153846153846,0.384615384615385,0.423076923076923,               237P    329
0.461538461538461,0.5,0.538461538461538,0.576923076923077,           237P    330
0.615384615384615,0.653846153846154,0.692307692307692,               237P    331
0.73076923076923,0.769230769230769,0.807692307692307,                237P    332
0.846153846153846,0.884615384615384,0.923076923076923,               237P    333
0.961538461538461,1,1,1,1,1,1,1,1,1,1,1,1,1,1,1,1,1,1,1,1,1,1,1,     237P    334
1,1,1,1,1,1,1,1,1,1,0.884615384615385,0.5,0,0.884615384615385,       237P    335
0.515491088035453,0,0.882741310449784,0.546473200447188,0,           237P    336
0.874348969036652,0.592268736201639,0,0.8604977766945,               237P    337
0.636718772332927,0,0.841389714997845,0.679175144564812,0,           237P    338
0.817303422513834,0.7190187387396,0,0.788590131624488,               237P    339
0.755668546779456,0,0.755668546767677,0.788590131621332,0,           237P    340
0.719018738783564,0.817303422514679,0,0.679175144400737,             237P    341
0.841389714997619,0,0.636718772945261,0.860497776694561,0,           237P    342
0.592268733916378,0.874348969036635,0,0.5464732089759,               237P    343
0.882741310449788,0,0.5,0.885552421698183,0,0.453526791024101,       237P    344
0.882741310449788,0,0.407731266083623,0.874348969036635,0,           237P    345
0.363281227054739,0.860497776694561,0,0.320824855599263,             237P    346
0.841389714997619,0,0.280981261216437,0.81730342251468,0,            237P    347
0.244331453232324,0.788590131621332,0,0.211409868375512,             237P    348
0.755668546779457,0,0.182696577486167,0.7190187387396,0,             237P    349
0.158610285002155,0.679175144564812,0,0.139502223305501,             237P    350
0.636718772332928,0,0.125651030963349,0.59226873620164,0,            237P    351
0.117258689550217,0.546473200447188,0,0.115384615384615,             237P    352
0.515491088035453,0,0.115384615384615,0.5,0,0,1,0,0,1;               237P    353
508,2,0,127,26,0,1,0,235,0,127,20,0,1,0,237;                         239P    354
510,215,2,1,233,239;                                                 241P    355
128,1,1,1,1,0,0,1,0,0,0,0,1,1,0,0,1,1,1,1,1,1,-29.5,-10,29.5,        243P    356
-29.5,-10,-29.5,29.5,-10,29.5,29.5,-10,-29.5,0,1,0,1;                243P    357
126,1,1,1,0,1,0,0,0,1,1,1,1,1,1,0,0,1,0,0,1,0,0,1;                   245P    358
126,1,1,1,0,1,0,0,0,1,1,1,1,0,1,0,0,0,0,0,1,0,0,1;                   247P    359
126,1,1,1,0,1,0,0,0,1,1,1,1,0,0,0,1,0,0,0,1,0,0,1;                   249P    360
126,1,1,1,0,1,0,0,0,1,1,1,1,1,0,0,1,1,0,0,1,0,0,1;                   251P    361
508,4,0,127,27,1,1,0,245,0,127,28,1,1,0,247,0,127,29,1,1,0,249,      253P    362
0,127,30,1,1,0,251;                                                  253P    363
510,243,1,1,253;                                                     255P    364
110,-44.5,-7,-29.5,-43.5,-7,-29.5;                                   257P    365
110,-29.5,-10,-29.5,29.5,-10,-29.5;                                  259P    366
120,257,259,0,6.28318530717959;                                      261P    367
126,1,1,1,0,1,0,0,0,1,1,1,1,1,0,0,1,1.5707963267949,0,0,1,0,0,1;     263P    368
126,1,1,1,0,1,0,0,0,1,1,1,1,0,0,0,1,0,0,0,1,0,0,1;                   265P    369
126,1,1,1,0,1,0,0,0,1,1,1,1,0,1.5707963267949,0,0,0,0,0,1,0,0,1;     267P    370
126,1,1,1,0,1,0,0,0,1,1,1,1,0,1.5707963267949,0,1,                   269P    371
1.5707963267949,0,0,1,0,0,1;                                         269P    372
508,4,0,127,31,0,1,0,263,0,127,30,0,1,0,265,0,127,32,0,1,0,267,      271P    373
0,127,14,1,1,0,269;                                                  271P    374
510,261,1,1,271;                                                     273P    375
110,-29.5,-7,44.5,-29.5,-7,43.5;                                     275P    376
110,-29.5,-10,29.5,-29.5,-10,-29.5;                                  277P    377
120,275,277,0,6.28318530717959;                                      279P    378
126,1,1,1,0,1,0,0,0,1,1,1,1,0,1.5707963267949,0,0,0,0,0,1,0,0,1;     281P    379
126,1,1,1,0,1,0,0,0,1,1,1,1,0,1.5707963267949,0,1,                   283P    380
1.5707963267949,0,0,1,0,0,1;                                         283P    381
126,1,1,1,0,1,0,0,0,1,1,1,1,1,1.5707963267949,0,1,0,0,0,1,0,0,1;     285P    382
126,1,1,1,0,1,0,0,0,1,1,1,1,0,0,0,1,0,0,0,1,0,0,1;                   287P    383
508,4,0,127,33,0,1,0,281,0,127,12,1,1,0,283,0,127,34,1,1,0,285,      289P    384
0,127,29,0,1,0,287;                                                  289P    385
510,279,1,1,289;                                                     291P    386
110,-29.5,-7,-29.5,-30.5,-7,-29.5;                                   293P    387
124,-1,0,0,-29.5,0,-1.1842378929335E-15,-1,-7,0,-1,                  295P    388
1.1842378929335E-15,-29.5;                                           295P    389
100,0,0,0,3,0,1.83697019872103E-16,3;                                297P    390
120,293,297,0,6.28318530717959;                                      299P    391
126,1,1,1,0,1,0,0,0,1,1,1,1,0,0,0,0,1.5707963267949,0,0,1,0,0,1;     301P    392
126,1,1,1,0,1,0,0,0,1,1,1,1,0,0,0,1.5707963267949,0,0,0,1,0,0,1;     303P    393
126,1,1,1,0,1,0,0,0,1,1,1,1,1.5707963267949,0,0,1.5707963267949,     305P    394
1.5707963267949,0,0,1,0,0,1;                                         305P    395
126,1,1,1,0,1,0,0,0,1,1,1,1,0,1.5707963267949,0,1.5707963267949,     307P    396
1.5707963267949,0,0,1,0,0,1;                                         307P    397
508,4,1,1,12,0,1,0,301,0,127,35,1,1,0,303,0,127,32,1,1,0,305,0,      309P    398
127,34,0,1,0,307;                                                    309P    399
510,299,1,1,309;                                                     311P    400
110,-29.5,-19,-29.5,-29.5,-20,-29.5;                                 313P    401
110,-32.5,-7,-29.5,-32.5,70,-29.5;                                   315P    402
120,313,315,0,6.28318530717959;                                      317P    403
126,1,1,1,0,1,0,0,0,1,1,1,1,0,1.5707963267949,0,1,                   319P    404
1.5707963267949,0,0,1,0,0,1;                                         319P    405
126,1,1,1,0,1,0,0,0,1,1,1,1,0,0,0,0,1.5707963267949,0,0,1,0,0,1;     321P    406
126,1,1,1,0,1,0,0,0,1,1,1,1,0,0,0,1,0,0,0,1,0,0,1;                   323P    407
126,1,1,1,0,1,0,0,0,1,1,1,1,1,1.5707963267949,0,1,0,0,0,1,0,0,1;     325P    408
508,4,0,127,15,0,1,0,319,0,127,35,0,1,0,321,0,127,11,1,1,0,323,      327P    409
0,127,24,0,1,0,325;                                                  327P    410
510,317,1,1,327;                                                     329P    411
110,44.5,-7,29.5,43.5,-7,29.5;                                       331P    412
110,29.5,-10,29.5,-29.5,-10,29.5;                                    333P    413
120,331,333,0,6.28318530717959;                                      335P    414
126,1,1,1,0,1,0,0,0,1,1,1,1,0,1.5707963267949,0,0,0,0,0,1,0,0,1;     337P    415
126,1,1,1,0,1,0,0,0,1,1,1,1,0,1.5707963267949,0,1,                   339P    416
1.5707963267949,0,0,1,0,0,1;                                         339P    417
126,1,1,1,0,1,0,0,0,1,1,1,1,1,1.5707963267949,0,1,0,0,0,1,0,0,1;     341P    418
126,1,1,1,0,1,0,0,0,1,1,1,1,0,0,0,1,0,0,0,1,0,0,1;                   343P    419
508,4,0,127,36,0,1,0,337,0,127,8,1,1,0,339,0,127,37,1,1,0,341,0,     345P    420
127,28,0,1,0,343;                                                    345P    421
510,335,1,1,345;                                                     347P    422
110,-29.5,-7,29.5,-29.5,-7,30.5;                                     349P    423
124,2.00059418684621E-31,-1,1.97091020752504E-15,-29.5,              351P    424
-1.01506105108586E-16,-1.97091020752504E-15,-1,-7,1,0,               351P    425
-1.01506105108586E-16,29.5;                                          351P    426
100,0,0,0,3,0,1.83697019872103E-16,3;                                353P    427
120,349,353,0,6.28318530717959;                                      355P    428
126,1,1,1,0,1,0,0,0,1,1,1,1,0,0,0,0,1.5707963267949,0,0,1,0,0,1;     357P    429
126,1,1,1,0,1,0,0,0,1,1,1,1,0,0,0,1.5707963267949,0,0,0,1,0,0,1;     359P    430
126,1,1,1,0,1,0,0,0,1,1,1,1,1.5707963267949,0,0,1.5707963267949,     361P    431
1.5707963267949,0,0,1,0,0,1;                                         361P    432
126,1,1,1,0,1,0,0,0,1,1,1,1,0,1.5707963267949,0,1.5707963267949,     363P    433
1.5707963267949,0,0,1,0,0,1;                                         363P    434
508,4,1,1,8,0,1,0,357,0,127,38,1,1,0,359,0,127,33,1,1,0,361,0,       365P    435
127,37,0,1,0,363;                                                    365P    436
510,355,1,1,365;                                                     367P    437
110,-29.5,-19,29.5,-29.5,-20,29.5;                                   369P    438
110,-29.5,-7,32.5,-29.5,70,32.5;                                     371P    439
120,369,371,0,6.28318530717959;                                      373P    440
126,1,1,1,0,1,0,0,0,1,1,1,1,0,1.5707963267949,0,1,                   375P    441
1.5707963267949,0,0,1,0,0,1;                                         375P    442
126,1,1,1,0,1,0,0,0,1,1,1,1,0,0,0,0,1.5707963267949,0,0,1,0,0,1;     377P    443
126,1,1,1,0,1,0,0,0,1,1,1,1,0,0,0,1,0,0,0,1,0,0,1;                   379P    444
126,1,1,1,0,1,0,0,0,1,1,1,1,1,1.5707963267949,0,1,0,0,0,1,0,0,1;     381P    445
508,4,0,127,9,0,1,0,375,0,127,38,0,1,0,377,0,127,7,1,1,0,379,0,      383P    446
127,25,0,1,0,381;                                                    383P    447
510,373,1,1,383;                                                     385P    448
110,29.5,-19,29.5,29.5,-20,29.5;                                     387P    449
110,32.5,-7,29.5,32.5,70,29.5;                                       389P    450
120,387,389,0,6.28318530717959;                                      391P    451
126,1,1,1,0,1,0,0,0,1,1,1,1,0,1.5707963267949,0,1,                   393P    452
1.5707963267949,0,0,1,0,0,1;                                         393P    453
126,1,1,1,0,1,0,0,0,1,1,1,1,0,1.5707963267949,0,0,0,0,0,1,0,0,1;     395P    454
126,1,1,1,0,1,0,0,0,1,1,1,1,0,0,0,1,0,0,0,1,0,0,1;                   397P    455
126,1,1,1,0,1,0,0,0,1,1,1,1,1,1.5707963267949,0,1,0,0,0,1,0,0,1;     399P    456
508,4,0,127,5,0,1,0,393,0,127,39,1,1,0,395,0,127,1,1,1,0,397,0,      401P    457
127,22,0,1,0,399;                                                    401P    458
510,391,1,1,401;                                                     403P    459
110,29.5,-7,29.5,30.5,-7,29.5;                                       405P    460
124,1,0,0,29.5,0,-1.1842378929335E-15,-1,-7,0,1,                     407P    461
-1.1842378929335E-15,29.5;                                           407P    462
100,0,0,0,3,0,1.83697019872103E-16,3;                                409P    463
120,405,409,0,6.28318530717959;                                      411P    464
126,1,1,1,0,1,0,0,0,1,1,1,1,0,0,0,0,1.5707963267949,0,0,1,0,0,1;     413P    465
126,1,1,1,0,1,0,0,0,1,1,1,1,1.5707963267949,0,0,0,0,0,0,1,0,0,1;     415P    466
126,1,1,1,0,1,0,0,0,1,1,1,1,1.5707963267949,0,0,1.5707963267949,     417P    467
1.5707963267949,0,0,1,0,0,1;                                         417P    468
126,1,1,1,0,1,0,0,0,1,1,1,1,0,1.5707963267949,0,1.5707963267949,     419P    469
1.5707963267949,0,0,1,0,0,1;                                         419P    470
508,4,1,1,1,0,1,0,413,0,127,39,0,1,0,415,0,127,36,1,1,0,417,0,       421P    471
127,40,0,1,0,419;                                                    421P    472
510,411,1,1,421;                                                     423P    473
110,29.5,-7,-41.5,29.5,-7,-40.5;                                     425P    474
110,29.5,-10,-29.5,29.5,-10,29.5;                                    427P    475
120,425,427,0,6.28318530717959;                                      429P    476
126,1,1,1,0,1,0,0,0,1,1,1,1,0,1.5707963267949,0,1,                   431P    477
1.5707963267949,0,0,1,0,0,1;                                         431P    478
126,1,1,1,0,1,0,0,0,1,1,1,1,1,1.5707963267949,0,1,0,0,0,1,0,0,1;     433P    479
126,1,1,1,0,1,0,0,0,1,1,1,1,0,0,0,1,0,0,0,1,0,0,1;                   435P    480
126,1,1,1,0,1,0,0,0,1,1,1,1,0,1.5707963267949,0,0,0,0,0,1,0,0,1;     437P    481
508,4,0,127,2,1,1,0,431,0,127,40,1,1,0,433,0,127,27,0,1,0,435,0,     439P    482
127,41,0,1,0,437;                                                    439P    483
510,429,1,1,439;                                                     441P    484
110,29.5,-7,-29.5,30.5,-7,-29.5;                                     443P    485
124,1,0,0,29.5,0,-1,-1.1842378929335E-15,-7,0,                       445P    486
1.1842378929335E-15,-1,-29.5;                                        445P    487
100,0,0,0,3,0,1.83697019872103E-16,3;                                447P    488
120,443,447,0,6.28318530717959;                                      449P    489
126,1,1,1,0,1,0,0,0,1,1,1,1,0,0,0,0,1.5707963267949,0,0,1,0,0,1;     451P    490
126,1,1,1,0,1,0,0,0,1,1,1,1,0,0,0,1.5707963267949,0,0,0,1,0,0,1;     453P    491
126,1,1,1,0,1,0,0,0,1,1,1,1,1.5707963267949,0,0,1.5707963267949,     455P    492
1.5707963267949,0,0,1,0,0,1;                                         455P    493
126,1,1,1,0,1,0,0,0,1,1,1,1,0,1.5707963267949,0,1.5707963267949,     457P    494
1.5707963267949,0,0,1,0,0,1;                                         457P    495
508,4,1,1,3,0,1,0,451,0,127,41,1,1,0,453,0,127,31,1,1,0,455,0,       459P    496
127,42,0,1,0,457;                                                    459P    497
510,449,1,1,459;                                                     461P    498
110,29.5,-19,-29.5,29.5,-20,-29.5;                                   463P    499
110,29.5,-7,-32.5,29.5,70,-32.5;                                     465P    500
120,463,465,0,6.28318530717959;                                      467P    501
126,1,1,1,0,1,0,0,0,1,1,1,1,0,1.5707963267949,0,1,                   469P    502
1.5707963267949,0,0,1,0,0,1;                                         469P    503
126,1,1,1,0,1,0,0,0,1,1,1,1,0,1.5707963267949,0,0,0,0,0,1,0,0,1;     471P    504
126,1,1,1,0,1,0,0,0,1,1,1,1,0,0,0,1,0,0,0,1,0,0,1;                   473P    505
126,1,1,1,0,1,0,0,0,1,1,1,1,1,1.5707963267949,0,1,0,0,0,1,0,0,1;     475P    506
508,4,0,127,3,0,1,0,469,0,127,42,1,1,0,471,0,127,13,1,1,0,473,0,     477P    507
127,23,0,1,0,475;                                                    477P    508
510,467,1,1,477;                                                     479P    509
110,0,0,0,0,1,6.12323399573677E-17;                                  481P    510
110,-4.59242549680257E-15,-1.53080849893419E-15,25,                  483P    511
-4.59242549680257E-15,70,25;                                         483P    512
120,481,483,0,6.28318530717959;                                      485P    513
126,1,1,1,0,1,0,0,0,1,1,1,1,1,0,0,1,3.14159265358979,0,0,1,0,0,      487P    514
1;                                                                   487P    515
126,1,1,1,0,1,0,0,0,1,1,1,1,0,3.14159265358979,0,1,                  489P    516
3.14159265358979,0,0,1,0,0,1;                                        489P    517
126,1,1,1,0,1,0,0,0,1,1,1,1,0,0,0,0,3.14159265358979,0,0,1,0,0,      491P    518
1;                                                                   491P    519
126,1,1,1,0,1,0,0,0,1,1,1,1,0,0,0,1,0,0,0,1,0,0,1;                   493P    520
508,4,0,127,26,1,1,0,487,0,127,19,0,1,0,489,0,127,21,0,1,0,491,      495P    521
0,127,17,1,1,0,493;                                                  495P    522
510,485,1,1,495;                                                     497P    523
514,21,143,1,157,1,171,1,185,1,203,1,213,0,241,1,255,1,273,0,        499P    524
291,0,311,1,329,1,347,0,367,1,385,1,403,1,423,1,441,0,461,1,479,     499P    525
1,497,1;                                                             499P    526
186,499,1,0;                                                         501P    527
S      2G      3D    502P    527                                        T      1
